<?xml version="1.0" encoding="utf-8"?>
<!-- Generator: Adobe Illustrator 22.1.0, SVG Export Plug-In . SVG Version: 6.00 Build 0)  -->
<svg version="1.1" id="Layer_1" xmlns="http://www.w3.org/2000/svg" xmlns:xlink="http://www.w3.org/1999/xlink" x="0px" y="0px"
	 viewBox="0 0 1100 180" style="enable-background:new 0 0 1100 180;" xml:space="preserve">
<style type="text/css">
	.st0{fill:#FFFFFF;}
</style>
<g>
	<g>
		<path class="st0" d="M242.5,143.3V85.4h-10V68.8l10-0.8V64c0-4,0.5-7.7,1.4-11.2c1-3.5,2.6-6.6,4.8-9.3c2.2-2.6,5.1-4.7,8.7-6.2
			c3.5-1.5,7.8-2.3,12.9-2.3c3.1,0,6,0.3,8.6,0.9c2.6,0.6,4.7,1.2,6.5,1.8l-4.1,16.4c-2.8-1-5.4-1.5-7.7-1.5c-2.7,0-4.9,0.8-6.4,2.5
			c-1.5,1.7-2.3,4.4-2.3,8.3v4.6h13.5v17.5h-13.5v57.9H242.5z"/>
		<path class="st0" d="M298.9,172.8c-2.3,0-4.3-0.1-5.9-0.4c-1.6-0.3-3.2-0.6-4.7-1.1l4-17c0.7,0.2,1.5,0.4,2.4,0.6
			c0.9,0.2,1.8,0.3,2.6,0.3c3.7,0,6.6-0.9,8.7-2.7c2-1.8,3.5-4.2,4.6-7.1l1.1-4l-29-73.4H305l10.8,32.4c1.1,3.4,2.1,6.9,3,10.5
			c0.9,3.5,1.9,7.2,2.9,10.9h0.6c0.8-3.5,1.6-7.1,2.5-10.7c0.9-3.6,1.7-7.2,2.7-10.7l9.1-32.4H358l-26.1,76.1
			c-1.8,4.8-3.7,8.9-5.7,12.5c-2,3.6-4.3,6.6-6.8,9c-2.6,2.4-5.5,4.2-8.8,5.4C307.2,172.2,303.3,172.8,298.9,172.8z"/>
		<path class="st0" d="M365.6,143.3v-12l31.6-45.9h-28.1V67.9H425v11.9l-31.6,46h32.7v17.5H365.6z"/>
		<path class="st0" d="M450.7,56.8c-3.7,0-6.8-1.1-9.3-3.3c-2.4-2.2-3.6-5-3.6-8.4c0-3.4,1.2-6.2,3.6-8.4c2.4-2.1,5.5-3.2,9.3-3.2
			c3.8,0,7,1.1,9.3,3.2c2.4,2.1,3.6,4.9,3.6,8.4c0,3.4-1.2,6.3-3.6,8.4C457.6,55.8,454.5,56.8,450.7,56.8z M439.6,143.3V67.9h22.3
			v75.4H439.6z"/>
		<path class="st0" d="M481.5,143.3V36.8h21.7v61.1h0.6l23.9-29.9H552l-26.4,31l28.4,44.4h-24.2l-17-29.3l-9.6,10.8v18.5H481.5z"/>
		<path class="st0" d="M585.3,145.1c-3.9,0-7.1-0.6-9.7-1.8c-2.6-1.2-4.7-2.9-6.3-5.1c-1.6-2.2-2.7-4.8-3.4-7.9
			c-0.7-3.1-1.1-6.6-1.1-10.4V36.8h22.3v84c0,2.3,0.4,4,1.3,4.9c0.9,0.9,1.7,1.4,2.7,1.4c0.5,0,0.9,0,1.3,0c0.4,0,0.8-0.1,1.4-0.3
			l2.7,16.6c-1.2,0.5-2.8,0.9-4.6,1.3C590,144.9,587.8,145.1,585.3,145.1z"/>
		<path class="st0" d="M627.2,145.1c-3.4,0-6.6-0.6-9.3-1.7c-2.8-1.2-5.1-2.8-7.1-4.9c-1.9-2.1-3.4-4.5-4.5-7.2
			c-1.1-2.7-1.6-5.7-1.6-9c0-7.9,3.3-14.1,10-18.5c6.7-4.5,17.5-7.4,32.4-9c-0.2-3.3-1.2-6-3-8c-1.8-2-4.7-3-8.9-3
			c-3.2,0-6.5,0.6-9.6,1.8c-3.2,1.2-6.6,2.9-10.3,5L607.3,76c4.9-2.9,10-5.3,15.3-7.1c5.3-1.8,11-2.7,16.9-2.7
			c9.7,0,17.1,2.8,22.3,8.3c5.1,5.5,7.7,14.1,7.7,25.8v43.2h-18.2l-1.5-7.7h-0.6c-3.2,2.8-6.6,5.1-10.2,6.9
			C635.4,144.2,631.5,145.1,627.2,145.1z M634.8,127.8c2.5,0,4.7-0.6,6.5-1.7c1.8-1.1,3.7-2.7,5.8-4.7v-13.2
			c-7.9,1.1-13.4,2.7-16.4,4.9s-4.6,4.7-4.6,7.6c0,2.4,0.8,4.2,2.4,5.4C630.1,127.2,632.2,127.8,634.8,127.8z"/>
		<path class="st0" d="M688.3,143.3V67.9h18.2l1.5,9.6h0.6c3.2-3,6.8-5.7,10.6-8c3.8-2.3,8.4-3.4,13.5-3.4c8.2,0,14.2,2.7,17.9,8.1
			c3.7,5.4,5.5,12.8,5.5,22.3v46.8h-22.3V99.4c0-5.5-0.7-9.2-2.2-11.2c-1.5-2-3.8-3-7.1-3c-2.8,0-5.3,0.6-7.3,1.9
			c-2,1.3-4.3,3.1-6.7,5.4v50.9H688.3z"/>
		<path class="st0" d="M786.3,56.8c-3.7,0-6.8-1.1-9.3-3.3c-2.4-2.2-3.6-5-3.6-8.4c0-3.4,1.2-6.2,3.6-8.4c2.4-2.1,5.5-3.2,9.3-3.2
			c3.8,0,7,1.1,9.3,3.2c2.4,2.1,3.6,4.9,3.6,8.4c0,3.4-1.2,6.3-3.6,8.4C793.3,55.8,790.1,56.8,786.3,56.8z M775.2,143.3V67.9h22.3
			v75.4H775.2z"/>
		<path class="st0" d="M813.6,139.1c31.8-32.5,47.8-50.5,47.8-67.4c0-12.1-6.5-21.5-21.2-21.5c-8.8,0-16.7,5.4-22.6,12.7l-4.4-4.1
			c7.3-8.2,15.9-14.4,27.7-14.4c17.3,0,27.4,10.8,27.4,27.2c0,19.3-17.6,37.9-44.6,66.4c5.4-0.3,11-0.7,16.4-0.7h33.1v6h-59.5V139.1
			z"/>
		<path class="st0" d="M887.4,94.4c0-32.3,10.5-50.1,29-50.1s29,17.8,29,50.1c0,32.3-10.5,50.7-29,50.7S887.4,126.7,887.4,94.4z
			 M938.6,94.4c0-29.6-8.7-44.2-22.2-44.2s-22.2,14.6-22.2,44.2s8.7,44.9,22.2,44.9S938.6,124,938.6,94.4z"/>
		<path class="st0" d="M965.5,137.4h22.9V56.9H971v-4.6c7.9-1.3,14.1-3.5,18.7-6.1h5.5v91.2h21.2v5.9h-50.7V137.4z"/>
		<path class="st0" d="M1034,135.7l4.1-4.6c4.3,5.3,10.2,8.1,16.5,8.1c15.5,0,28.9-12.5,28.9-49c0-23.7-7.9-40.1-25.1-40.1
			c-11.2,0-19.6,10.7-19.6,24.6c0,14.1,6.3,24.4,21,24.4c7,0,16.2-4.3,24.3-15.7l0.1,7.1c-6.7,8.6-15.8,14.2-25.2,14.2
			c-17,0-27-10.5-27-30.1c0-17.7,12.2-30.4,26.6-30.4c19.4,0,31.7,16.4,31.7,45.9c0,40.7-17,54.9-35.7,54.9
			C1045.5,145.1,1038.9,141.3,1034,135.7z"/>
	</g>
</g>
<g>
	<path class="st0" d="M200.3,9.8c0-0.1,0-0.2,0-0.3c0-0.1,0-0.1,0-0.2c0,0,0,0,0,0c0-0.1,0-0.2,0-0.3c0-0.1,0-0.1,0-0.2
		c0,0,0-0.1,0-0.1c0-0.1,0-0.2-0.1-0.3c0,0,0,0,0-0.1c0-0.1,0-0.1-0.1-0.2c0-0.1,0-0.1-0.1-0.2c0,0,0,0,0,0c0,0,0,0,0-0.1
		c0,0,0-0.1,0-0.1c0-0.1-0.1-0.1-0.1-0.2c0,0,0-0.1,0-0.1c0,0,0-0.1,0-0.1c0,0,0,0,0,0c0-0.1-0.1-0.1-0.1-0.2c0,0,0-0.1-0.1-0.1
		c0,0,0,0,0,0c0,0,0,0-0.1-0.1c0-0.1-0.1-0.1-0.1-0.2c0,0,0-0.1-0.1-0.1c0,0,0-0.1-0.1-0.1c0-0.1-0.1-0.1-0.2-0.2c0,0,0,0-0.1-0.1
		c0,0,0,0,0,0c0,0,0-0.1-0.1-0.1c-0.1-0.1-0.1-0.1-0.2-0.2c0,0-0.1-0.1-0.1-0.1c0,0,0,0-0.1-0.1c-0.1,0-0.1-0.1-0.2-0.1
		c0,0-0.1-0.1-0.1-0.1c0,0,0,0-0.1,0c0,0-0.1-0.1-0.1-0.1c-0.1,0-0.1-0.1-0.2-0.1c0,0,0,0,0,0c0,0,0,0,0,0c0,0-0.1,0-0.1-0.1
		c-0.1,0-0.2-0.1-0.2-0.1c0,0,0,0,0,0c0,0,0,0,0,0c-0.1,0-0.1,0-0.2-0.1c-0.1,0-0.1-0.1-0.2-0.1c0,0,0,0-0.1,0c0,0,0,0,0,0
		c-0.1,0-0.1,0-0.2-0.1c-0.1,0-0.1,0-0.2-0.1c0,0,0,0-0.1,0c0,0-0.1,0-0.1,0c-0.1,0-0.1,0-0.2,0c0,0-0.1,0-0.1,0c0,0-0.1,0-0.1,0
		c0,0-0.1,0-0.1,0c-0.1,0-0.1,0-0.2,0c0,0,0,0,0,0c0,0-0.1,0-0.1,0c-0.1,0-0.1,0-0.2,0c-0.1,0-0.1,0-0.2,0c0,0,0,0,0,0c0,0,0,0,0,0
		c-0.1,0-0.1,0-0.2,0c-0.1,0-0.1,0-0.2,0c0,0-0.1,0-0.1,0c-0.1,0-0.1,0-0.2,0c0,0-0.1,0-0.1,0c0,0-0.1,0-0.1,0c-0.1,0-0.1,0-0.2,0
		c0,0-0.1,0-0.1,0c-0.1,0-0.1,0-0.2,0c-0.1,0-0.1,0-0.2,0c0,0-0.1,0-0.1,0c-0.1,0-0.1,0-0.2,0.1c0,0-0.1,0-0.1,0.1
		c0,0-0.1,0-0.1,0.1c-0.1,0-0.1,0.1-0.2,0.1c0,0,0,0-0.1,0c0,0,0,0,0,0l0,0c0,0,0,0,0,0L8.6,106.4c-2.1,1.1-3.1,3.6-2.4,5.9
		c0.6,2.2,2.6,3.7,4.9,3.7c0.1,0,0.2,0,0.3,0l49.7-2.8L83,151.5c0.1,0.2,0.2,0.4,0.4,0.6c0,0,0,0,0,0c0.1,0.2,0.3,0.3,0.4,0.5
		c0,0,0,0,0,0c0.1,0.1,0.3,0.2,0.4,0.3c0,0,0.1,0,0.1,0.1c0.1,0.1,0.3,0.2,0.4,0.3c0,0,0.1,0.1,0.2,0.1c0.1,0.1,0.3,0.1,0.4,0.2
		c0,0,0.1,0,0.1,0.1c0.2,0.1,0.4,0.1,0.6,0.2c0,0,0.1,0,0.1,0c0.2,0,0.3,0.1,0.5,0.1c0.1,0,0.1,0,0.2,0c0.2,0,0.4,0,0.6,0
		c0,0,0,0,0,0c0,0,0,0,0,0c0,0,0,0,0,0c0,0,0,0,0,0c0.1,0,0.2,0,0.3,0c0,0,0,0,0.1,0c0.2,0,0.4,0,0.6-0.1c0,0,0,0,0,0
		c0.2,0,0.4-0.1,0.6-0.2c0.1,0,0.1,0,0.2-0.1c0.1,0,0.2-0.1,0.2-0.1l22.1-10l25.3,30.9c1,1.2,2.4,1.9,3.9,1.9c0.3,0,0.6,0,0.9-0.1
		c1.8-0.3,3.3-1.6,3.9-3.4L200,11.6c0,0,0-0.1,0-0.1c0-0.1,0-0.1,0-0.2c0,0,0-0.1,0-0.1c0-0.1,0-0.1,0-0.2c0-0.1,0-0.1,0-0.2
		c0,0,0-0.1,0-0.1c0-0.1,0-0.2,0-0.2c0-0.1,0-0.1,0-0.2c0,0,0,0,0-0.1c0-0.1,0-0.2,0-0.2C200.3,10,200.3,9.9,200.3,9.8
		C200.3,9.9,200.3,9.9,200.3,9.8z M96.9,139.1l3.6-9l1.2,1.5l3.2,3.9L96.9,139.1z M98,113.7l-2.8,3.3c-0.1,0.1-0.1,0.1-0.2,0.2
		c0,0,0,0.1-0.1,0.1c-0.1,0.1-0.2,0.2-0.2,0.3c0,0,0,0,0,0c0,0,0,0.1-0.1,0.1c0,0,0,0.1-0.1,0.1c-0.1,0.2-0.2,0.3-0.2,0.5
		c0,0,0,0,0,0.1l-7.6,19l-16-28.1L71,109l112.7-89.1L98,113.7z"/>
</g>
</svg>
