<?xml version="1.0" encoding="utf-8"?>
<!-- Generator: Adobe Illustrator 22.1.0, SVG Export Plug-In . SVG Version: 6.00 Build 0)  -->
<svg version="1.2" id="Layer_1" xmlns="http://www.w3.org/2000/svg"
	 viewBox="150 0 1600 1200" style="enable-background:new 0 0 1920 1080;" xml:space="preserve">
<rect width="1920" height="1020" fill="#f44336"/>
	<g>
	<path d="M1784,538.7c-9.8-13-18.8-26.7-26.1-41.8c-5.4,12.2-12.4,22.7-18.7,33.6c-2.7,4.7-5.6,9.1-10.3,12.2
		c-3.3,2.2-4.5,5.6-4.2,9.5c0.3,3.2,0.9,6.5-0.3,10.2c-6-2.1-12-2.3-17.9,0.2c-0.7,0.3-1.7,0.6-2.2,0.3c-8.6-4.1-16.8,0.7-25.1,1.1
		c-4.9,0.3-9.6,0.1-14-2.1c-1.7-0.8-3-0.8-4.8-0.1c-14.4,5.4-29.2,5.7-44.2,2.3c-1.6-0.4-2.9-0.8-4.4-0.1c-12.1,5.1-25,3.8-37.5,3.8
		c-4.8,0-9.6-3.3-14.9-1c-2.3,1-2.5-1.7-2.9-3.3c-1.8-7.3-1.7-14.9-2.2-22.3c-0.7-12.2-2.2-24-6.9-35.4c-3.3-8-4.3-16.7-6.8-25.2
		c-2.8,16.5-5.6,33-13.5,49.1c-10.1-16.8-15.7-34.5-20.7-53c-1.7,5.2-3.4,10.3-5,15.5c-3.4,10.6-6.2,21.4-10.8,31.6
		c-1.9,4.2-1.7,8.6-1.6,13c0.2,9.2,0.7,18.4,0.8,27.7c0.1,7.6-1.7,8.7-9,6.7c-4.2-1.2-8.2,0.3-12.3,1c-11.6,1.8-23.7,6.4-35.5,0.4
		c-3.2-1.6-5.5-2.1-8.1,0.9c-4.1,4.6-9.3,2.5-14.1,1.7c-1.7-0.3-1.6-2.5-1.9-3.9c-0.9-4.1-1.8-8.2-2.9-13.4
		c-3.9,4.2-3.4,8.8-3.6,12.5c-0.3,5.5-3,6.6-7.5,6.9c-8.2,0.6-16.4,1.6-24.7,2.3c-2.4,0.2-4.3,0.6-5.7,3c-1.8,3.2-4.6,3.7-7.9,1.9
		c-5.7-3-5.7-2.9-10.9,0.7c-4.3-14.9-16.6-24.5-23.9-37.5c-4-7-9.9-11.2-18.5-10.3c-3.5,0.3-3.8-1.2-3-4.1c1.2-4.5,0.4-9.2-3.7-11.3
		c-15.1-7.6-16.4-21.7-18.2-36c-4.8-38.9-10.1-77.7-15.2-116.6c0-0.3-0.3-0.6-0.6-0.9c-1.9,1.7-1.3,3.9-1.4,5.9
		c-2.4,39.9-4.6,79.8-7.2,119.7c-0.8,12.5-5.6,23.1-17.3,29.4c-2.1,1.1-3.1,2.6-2.7,5.1c0.4,2.1,0.8,4.3,0.4,6.3
		c-0.6,2.6,3.1,6.4-1.4,7.8c-5,1.6-11.3-0.9-13.3-4.8c-2.7-5.6-7.4-6-12.7-5.4c-14.3,1.5-28.7,2.6-43,4.4c-6.1,0.8-9-0.8-11.4-6.7
		c-8.5-21.2-17.8-42-26.6-63.1c-2.1-5.1-5.1-7-10.6-6.3c-39.1,4.9-78.5,6.8-117.8,10c-11.3,0.9-11.3,1.1-12.7-9.9
		c-3.3-26.5-6.6-53-10-79.5c-0.1-1.2,0.4-2.8-2.1-3.7c-0.9,9.8-1.8,19.4-2.6,29c-1.7,20.1-3.3,40.2-4.8,60.4c-0.2,3-0.9,4.4-4.5,3.8
		c-9.5-1.7-19-3-28.5-4.2c-2.9-0.4-4.4-1.7-5.4-4.3c-2.4-6.2-3-12.7-3-19.2c0-7.3,0.3-14.7-2.7-21.6c-0.7-1.7-1.1-4-3.7-3.9
		c-2.9,0.1-1.9,2.8-2.6,4.4c-0.4,0.9-0.3,1.9-0.4,2.8c-0.4,2.4,0.1,5.9-1.9,6.8c-2.2,1-4.4-1.6-6.3-3.3c-2.3-2.1-3.8-5.2-1.9-7.8
		c4.9-6.7,2.3-11.2-3.4-15.4c-3-2.3-4.6-5.9-4.7-9.6c-0.4-18.4-7.4-35.7-8.9-53.9c-0.6-7.3-1.8-14.5-2.8-21.7c-1.2,0-2.3,0-3.5,0
		c-1.2,25.2-4.5,50.1-8.6,75c-0.9,5.5-4.2,9.8-7,14.4c-2,3.4-3,6.5-0.8,10.2c1.7,2.8,0.8,5.6-0.8,8.1c-1.4,2.1-3.2,4.7-5.7,4.4
		c-2.6-0.3-2-3.6-2.4-5.7c-1.2-5.2-2-10.6-3.1-15.8c-0.2-1,0-2.7-1.5-2.7c-2.1-0.1-1.6,1.9-1.7,3c-1.4,14.9-2.8,29.9-4.2,44.8
		c-0.2,2,0.3,4.2-1.5,6.6c-10.9-25.6-11.5-52.8-17.1-79.4c-1.1,6.8-2.2,13.7-3.3,20.5c-3.5,22.2-6.9,44.4-10.4,66.6
		c-0.8,4.9-2.5,9.7-4.4,14.3c-0.9,2-1.8,3.8-4.7,3.9c-1.9-11.7-3.8-23.5-5.8-35.2c-0.3-1.5,0.5-4.9-2.9-2.8c-3.7,2.1-3.6-0.3-4-2.7
		c-3.5-21.6-7-43.2-10.5-64.8c-0.4-2.7-1-5.4-2.9-7.9c-4.8,34.9-9.7,69.7-14.5,104.7c-2.5-0.2-1.1-3.3-3.4-4.2
		c-0.7,14.9-1.3,29.6-2,44.3c-0.5,11.3-1,22.7-1.3,34c-0.1,3.6-0.6,5.8-4.7,3.5c-3.8-2.1-7.6-2-11.6-0.3c-5.2,2.2-10.6,1.5-15.9,0.6
		c-6.3-1.1-12.5-1.6-18.8,0.6c-4.4,1.5-9.1,1.4-13.7,0.9c-7.9-0.9-15.6-1.3-23.3,1.4c-3.8,1.4-6.7,0.5-7.3-4.8
		c-1.8-14.9-4.2-29.7-6.3-44.5c-0.4-2.8-0.9-5.5-1.4-8.6c-2.6,1.6-1.8,3.8-2,5.5c-0.9,9.8-1.8,19.5-2.5,29.3
		c-0.2,3.1-1.3,4.4-4.6,4.2c-4.2-0.2-8.5-0.2-12.7,0.2c-5.2,0.4-7.9-1.6-8.6-6.9c-2.4-19.1-5.1-38.1-7.6-57.1c-2-14.7-4-29.3-5.9-44
		c-0.4-2.7-0.7-4.1-4.2-2.6c-7.6,3.4-15.3,2.7-23.1-1.4c-2,21.1-4,41.7-6.1,62.3c-1.4,14.5-3.1,29-4.5,43.6
		c-0.5,5.7-3.6,8.1-9.1,8.2c-1,0-1.9,0-2.9,0c-11.4,0-12-0.7-12.5-11.9c-0.3-6.3-0.9-12.6-1.5-20.3c-2.4,7.7-2.3,14.4-2.9,21
		c-0.9,9.4-1.4,18.8-2,28.2c-0.3,5.2-2.9,7.5-8,7.8c-25.5,1.6-51,3.4-76.5,5c-2.6,0.2-4.3,0.9-6,2.7c-4.6,4.9-9.4,9.6-13.9,14.6
		c-2.2,2.4-3.7,3-6.7,0.9c-6-4.2-12.3-7.8-18.5-11.7c-7.1-4.3-11.2-10.5-11.4-18.8c-0.3-13.5-4.9-25.5-12.2-36.6
		c-1.3-2-1.7-4.2-1.8-6.5c-0.4-7.7-0.9-15.4-1.4-23c-0.2-2.8-0.4-5.6-2.8-9c-1.1,11.3-0.9,21.6-3.3,31.6
		c-2.4,10.2-7.4,19.3-11.7,29.7c-4.9-7.4-10.9-13.7-11.4-22.6c-0.6-11.6-6.8-22-6.7-33.8c-2.4,9.5-4.5,19-6.9,28.4
		c-3.6,14-7.1,27.9-13.8,40.8c-1.9,3.6-2,7.8-2.2,11.8c-0.3,7.3-0.9,14.5-4,21.4c-2.4,5.3-0.4,11,0.7,16.4c0.8,4.1,0,6-4.6,5.8
		c-4.2-0.2-8.4,0.8-12.6,0.9c-3,0.1-4,1.3-3.9,4.2c0.2,3.8,0.1,7.7,0,11.5c-0.1,2.3-1,4.2-3.4,1.7c-6.2-6.8-14.3-7.9-22.7-7.4
		c-3.7,0.2-5.7-0.6-6.3-4.6c-0.5-3.6-1.9-7-2.7-10.6c-1.2-5.1-1.3-10.7-8.8-10.9c-1.8,0-3.3-1.9-4.3-3.6
		c-3.2-5.8-7.8-10.3-12.9-14.5c-5.1-4.2-9.2-3.6-10.9,3c-0.9,3.4-1.8,2.8-4.6,3c-7.2,0.3-14.4,2-21.6,3.1c-12,1.8-23.9,3.7-35.9,5.3
		c-6.4,0.9-12.7,0.7-18.3-3.3c-2.5-1.8-4.5-1.1-6.7,0.7c-4.1,3.3-7.7,7-10.6,11.3v140.5H1784V538.7z" fill="#d7392e"/>
</g>
		<polygon points="160,690 150,1300 1750,1300 1750,690 "  fill="#d7392e"/>
	<polygon points="150,1200 150,750 1750,1200" fill="white"/>


</svg>
