<?xml version="1.0" encoding="UTF-8" standalone="no"?>
<!-- Created with Inkscape (http://www.inkscape.org/) -->

<svg
   xmlns="http://www.w3.org/2000/svg"
   version="1.1"
   viewBox="0 0 2000 1727.5"
   id="svg2"
   xml:space="preserve">
    <defs
     id="defs6" />
    <g transform="matrix(1.25,0,0,-1.25,0,1727.5)" id="g10">
        <g transform="scale(0.109066,0.109066)" id="g12">
    <path
         d="m 2172.99,12111.9 c 48.9,120.7 -180.32,162 -192.54,91.7 l -146.7,-18.3 9.17,-73.4 c -79.47,-9.1 -160.46,-15.3 -238.39,-18.3 -35.14,-1.5 -87.1,9.2 -114.61,-18.4 -24.45,-22.9 -21.39,-79.4 -22.92,-111.5 0,-88.6 -35.14,-298 39.73,-360.6 56.54,-47.4 207.82,-58.1 281.18,-59.6 l -9.17,27.5 110.02,0 c -1.53,-803.8 59.6,-1606.1 82.52,-2409.89 6.12,-192.54 25.98,-383.56 38.21,-576.11 3.05,-42.78 -21.4,-168.09 27.5,-189.48 62.65,-27.5 85.58,22.93 87.11,76.41 4.58,108.49 -16.82,220.05 -24.46,330.07 -29.03,356.05 -39.73,718.22 -48.89,1075.8 -1.54,90.16 -15.29,180.3 -15.29,272 0,50.4 10.7,120.7 -18.33,165 l 0,9.2 c 47.37,84.1 0,255.2 -3.06,351.5 -6.11,296.4 -18.34,599 -6.11,895.5 l 256.72,-52 94.74,-24.4 -3.05,-154.4 -6.12,-346.9 3.07,-1714.52 3.05,-605.14 -9.17,-284.23 c 146.7,-87.11 120.73,99.32 117.66,191.01 -3.05,178.79 -6.1,357.58 0,536.37 1.53,59.6 -16.81,145.18 10.7,198.66 l -9.17,229.22 4.59,518.03 13.75,243 c -50.43,181.8 -6.11,415.6 -3.05,605.1 1.52,84.1 -18.34,175.8 12.22,256.7 -27.51,44.4 -15.28,172.7 9.17,220.1 l 0,73.3 -18.34,0 0,110.1 c 111.56,32.1 241.44,22.9 357.58,18.3 194.08,-9.2 391.21,-15.3 585.27,-9.2 146.7,3.1 314.8,59.6 459.97,27.5 -58.07,-299.5 -21.39,-643.3 -13.75,-947.4 9.16,-380.5 3.05,-761 13.75,-1143.04 4.59,-151.28 -7.64,-302.57 4.59,-452.32 3.05,-45.84 -16.81,-110.02 10.7,-149.76 29.02,-39.73 79.45,-33.62 122.24,-30.56 l -10.7,1477.68 -10.69,374.4 3.06,155.9 0,9.1 c -27.51,62.7 -10.71,151.3 -4.59,218.6 9.17,100.8 3.05,207.8 3.05,308.6 -1.52,68.8 12.24,143.7 -35.14,197.2 l 247.56,18.3 c -56.55,-187.9 19.87,-430.9 19.87,-623.5 1.52,-527.2 1.52,-1054.37 1.52,-1581.57 -1.52,-161.98 -15.28,-331.6 1.53,-493.58 9.16,-77.94 1.53,-194.08 114.61,-125.31 -13.76,235.33 -9.17,487.47 9.16,724.33 4.59,53.48 36.68,246.03 0,284.23 13.76,67.24 -3.05,148.23 0,218.5 15.29,291.9 0,580.7 -1.53,872.6 0,103.9 24.46,316.3 -35.14,403.4 41.26,58.1 -1.53,221.6 -9.17,293.4 l -64.18,36.7 398.84,29 470.66,33.6 808.38,47.4 c -38.2,-198.7 -4.58,-423.3 1.53,-623.5 9.17,-385.1 22.93,-771.7 44.32,-1155.23 7.63,-149.75 15.28,-304.1 32.09,-452.32 6.11,-61.13 38.2,-166.57 15.28,-224.64 -10.7,-30.56 -50.43,-19.86 -74.88,-21.4 -55.01,0 -165.04,-50.43 -212.41,-9.16 -25.98,22.92 1.53,62.65 1.53,93.21 l 87.1,126.84 151.29,157.4 -9.17,55.01 -64.18,45.84 c -32.09,-36.67 -73.36,-61.13 -110.03,-91.69 -108.49,-90.15 -342.29,-403.42 -117.66,-496.64 88.62,-36.67 165.04,3.06 255.19,10.7 27.51,1.53 80.99,7.64 99.33,-21.39 33.62,-56.55 6.11,-172.69 6.11,-235.33 0,-197.13 41.26,-404.96 32.09,-595.97 -139.06,36.67 -308.68,6.11 -449.26,0 -290.35,-12.23 -580.69,-6.12 -871.04,-7.64 -155.87,0 -334.66,-29.04 -485.94,7.64 l 55.01,36.67 c -7.64,64.18 48.9,204.77 -45.84,210.88 l 128.36,64.18 c -24.45,71.82 -87.1,80.99 -155.87,91.69 -143.65,21.39 -345.36,-65.71 -417.18,-192.54 -38.2,-67.24 -15.28,-238.39 90.16,-148.23 19.87,18.33 21.4,67.24 36.68,93.21 38.2,59.6 90.16,97.81 152.81,128.37 l 9.17,-9.17 -64.18,-82.52 c 0,-36.68 -15.29,-67.23 -22.92,-102.39 -13.76,-59.59 15.28,-143.63 90.15,-82.52 61.13,51.96 33.63,191.03 143.65,194.08 l -27.51,-220.05 c -126.83,30.56 -285.76,-9.17 -412.59,-18.34 -168.09,-12.22 -337.71,0 -504.28,-10.7 -113.08,-7.64 -235.34,-38.2 -346.88,-36.67 -51.96,1.53 -61.13,64.18 -79.47,100.85 -21.39,41.26 -108.49,120.73 -157.4,116.14 -146.7,-13.75 -252.14,-215.46 -388.14,-261.31 -13.75,65.71 -96.27,70.3 -146.7,96.28 -27.51,13.75 -45.84,39.72 -73.35,51.95 -136,53.49 -235.33,-51.95 -253.67,-175.73 -12.22,-85.57 -6.11,-161.99 88.63,-194.08 25.98,-7.64 90.16,-1.52 108.5,-22.92 18.34,-19.86 -3.06,-91.69 9.16,-122.25 41.27,-110.02 129.9,-146.7 129.9,-272 0,-658.63 105.44,-1317.24 74.88,-1977.4 -3.06,-42.78 -39.74,-77.93 -56.54,-116.14 -51.96,-119.19 -97.81,-239.91 -142.12,-360.63 -18.34,-50.43 -50.43,-100.85 -41.26,-152.81 l -73.35,-110.03 -76.4,-220.05 -186.44,-458.44 -76.4,-220.05 c -55.02,-35.14 -70.3,-136 -94.74,-192.54 -50.43,-119.2 -99.34,-238.39 -148.23,-357.58 -27.51,-67.24 -53.48,-152.82 -105.44,-201.71 7.63,-88.64 -94.75,-233.81 -134.48,-311.74 C 1060.52,2697.14 968.836,2512.24 887.836,2328.86 840.473,2223.42 790.043,2076.72 705.992,1998.79 698.355,1945.3 663.203,1894.88 637.227,1849.04 573.047,1731.36 507.336,1607.59 401.895,1518.96 359.113,1483.8 223.102,1418.1 258.258,1349.34 c 30.558,-56.55 106.961,-58.08 163.504,-55.02 139.062,10.7 285.761,44.32 409.543,110.03 391.195,207.82 745.715,447.74 1072.745,747.25 100.85,90.16 290.33,223.11 323.96,360.64 -27.51,27.5 -42.8,122.24 -99.33,110.02 -30.57,-6.11 -67.24,-77.93 -87.1,-100.85 -68.77,-79.47 -146.7,-155.87 -224.63,-224.64 C 1541.88,2047.68 1262.23,1803.19 935.211,1627.45 837.41,1575.49 621.945,1393.65 513.449,1467 l 45.844,-9.17 192.543,229.22 c 0,99.33 114.609,242.97 163.508,330.08 105.446,191.01 197.126,395.78 290.346,595.96 41.26,88.64 71.82,212.42 142.11,284.23 7.65,117.67 108.5,239.92 154.34,348.42 113.09,270.47 227.7,542.49 337.73,816.02 41.26,100.85 137.53,247.55 131.41,357.58 l 53.48,100.86 102.39,284.23 55.01,100.85 100.86,275.06 9.17,0 c 45.84,-117.66 19.86,-246.02 21.39,-366.75 3.06,-230.75 7.65,-467.6 25.98,-696.82 29.03,-349.95 25.98,-701.41 47.37,-1051.35 6.11,-85.58 33.62,-172.68 41.26,-259.78 22.92,-242.98 21.4,-489 41.26,-731.97 21.4,-256.72 41.26,-514.98 51.96,-771.71 3.05,-82.51 38.2,-191.01 15.28,-272.01 -29.04,-103.907 -279.65,48.91 -290.35,-94.739 47.38,-21.391 82.52,-42.789 137.54,-27.504 l 152.81,-39.73 48.9,-88.633 c 76.4,6.117 94.74,22.922 82.52,100.855 414.12,3.055 831.3,62.653 1246.95,80.989 664.73,29.039 1332.52,10.699 1997.25,19.867 1069.69,13.754 2140.9,65.715 3210.6,44.315 704.46,-13.75 1408.89,-4.58 2113.39,-7.64 140.6,0 294.9,6.12 435.5,-13.75 96.3,-13.753 247.6,-51.96 339.3,-13.753 l 9.1,-247.559 -21.4,-84.051 -143.6,-15.273 -385.1,-16.817 -1544.93,-70.285 -1709.97,-33.625 -1101.78,15.285 -1144.56,-25.984 -1980.45,-64.18 -1321.84,-1.523 -328.54,15.277 -122.24,10.699 -10.7,116.141 41.25,301.035 -110.02,55.016 c -85.57,-163.508 10.7,-368.281 -64.18,-522.621 44.31,-15.285 58.06,-71.817 110.02,-87.102 90.16,-25.976 207.83,-3.055 302.57,-6.117 217,-4.582 432.47,-12.223 649.45,-10.691 570,3.054 1136.93,0 1706.92,19.859 855.75,32.094 1714.56,58.078 2571.83,67.246 716.7,7.637 1433.38,-19.871 2150.08,6.106 611.29,22.921 1222.49,38.207 1833.79,73.351 160.4,9.168 323.9,24.453 485.9,27.504 53.5,1.531 165,-15.273 210.9,12.23 48.9,29.032 24.4,157.391 29,209.352 7.7,93.219 -30.5,143.648 -48.9,229.219 -10.7,45.841 18.4,94.741 -29,131.411 -47.4,36.68 -212.4,39.74 -272,33.63 41.2,79.46 22.9,213.93 9.1,302.56 123.8,-59.59 207.9,-200.18 339.3,-262.84 244.5,-117.66 511.9,-191.007 770.2,-275.058 201.7,-65.703 412.6,-143.637 621.9,-180.313 94.8,-15.285 191,1.524 285.8,-10.699 187.9,-25.976 383.5,-189.492 568.4,-132.949 l 0,55.016 c -70.3,44.312 -148.2,62.648 -220,103.906 -142.1,82.519 -287.3,195.609 -411.1,302.567 -253.7,213.95 -490.5,487.48 -621.9,794.63 -94.8,218.52 -139.1,453.85 -183.4,687.66 -50.4,272.01 -99.3,574.58 -94.7,852.69 3,128.36 -3.1,262.84 -19.9,391.2 -6.1,47.37 -1.5,111.55 -26,149.76 l 6.1,93.22 -6.1,236.85 -27.5,9.17 c 36.7,55.01 0,213.94 -6.1,284.23 -18.4,207.83 -29,415.65 -61.1,623.48 -12.3,70.3 0,155.87 -33.7,220.05 44.4,50.43 -15.2,203.24 -22.9,265.89 -21.4,157.4 -29,319.38 -56.5,478.31 -12.2,80.98 -50.4,172.67 -48.9,255.19 -61.1,73.35 -55,236.86 -88.7,330.08 -73.3,203.24 -194,359.11 -333.1,513.45 58.1,87.1 48.9,290.34 -18.3,366.75 77.9,-16.81 183.4,79.46 192.5,155.87 103.9,-6.12 252.2,-79.47 354.6,-18.34 36.6,21.39 35.1,64.18 27.5,100.86 -16.9,85.57 -7.7,268.94 -90.2,320.9 -62.7,39.73 -227.7,9.17 -301,7.64 -32.1,-1.53 -79.5,-18.34 -100.9,12.23 -32.1,47.37 -10.7,155.87 -4.6,207.82 13.8,122.25 33.6,284.23 13.8,404.96 l 27.5,9.16 c -30.6,241.45 48.9,528.74 85.5,767.13 61.2,401.89 81,808.41 128.4,1210.31 22.9,187.9 32.1,378.9 47.4,568.4 9.2,102.4 0,189.5 41.2,287.3 l 9.2,0 c 27.5,-18.3 58.1,-15.3 91.7,-16.8 35.1,0 84.1,-15.3 117.7,-3.1 67.2,26 74.8,184.9 100.8,244.5 33.6,79.5 100.9,169.7 61.1,261.4 -53.4,114.6 -163.5,97.8 -270.4,119.1 10.7,114.7 -117.7,200.2 -227.7,157.4 -62.7,-24.4 -70.3,-123.7 -136,-148.2 -58.1,-21.4 -143.7,-9.2 -204.8,-9.2 -169.6,-1.5 -340.8,10.7 -508.9,23 -453.8,32.1 -907.7,36.6 -1361.5,24.4 -948.98,-22.9 -1894.89,-51.9 -2842.33,-19.8 -1007.03,33.6 -2020.18,80.9 -3027.22,18.3 -525.67,-32.1 -1051.34,-59.6 -1575.49,-108.5 -181.85,-18.3 -394.26,7.6 -568.47,-47.4 z m 10232.31,210.9 -9.1,-9.2 9.1,9.2 z m 100.9,-41.3 3,-1.5 c -4.6,-1.5 -10.7,1.5 -3,1.5 z m -64.2,-59.6 c 45.8,84.1 126.8,-7.6 0,0 z m -8178.53,27.6 -9.17,-9.2 9.17,9.2 z m 531.79,-9.2 -9.17,-9.2 9.17,9.2 z m 1989.62,0 -9.17,-9.2 9.17,9.2 z m -1916.27,-9.2 -9.17,-9.2 9.17,9.2 z m -339.25,-18.3 -9.16,-9.2 9.16,9.2 z m 467.61,0 -9.17,-9.2 9.17,9.2 z m 155.87,0 -9.17,-9.2 9.17,9.2 z m 647.93,-6.1 -4.59,-7.7 4.59,7.7 z m -1152.21,-3.1 9.17,-18.3 -9.17,18.3 z m 275.06,0 -9.17,-9.2 9.17,9.2 z m 128.36,0 -9.17,-9.2 9.17,9.2 z m 64.18,0 -9.16,-9.2 9.16,9.2 z m 1677.88,0 -9.16,-9.2 9.16,9.2 z m 4144.26,0 -9.1,-9.2 9.1,9.2 z m 192.6,0 -9.2,-9.2 9.2,9.2 z m 1402.8,-9.2 -9.2,-9.1 9.2,9.1 z m -1283.6,-9.1 -9.2,-9.2 9.2,9.2 z m 430.9,0 -9.2,-9.2 9.2,9.2 z m -6757.38,-9.2 -9.17,-9.2 9.17,9.2 z m 1952.94,0 -9.17,-9.2 9.17,9.2 z m 5785.44,0 -9.1,-9.2 9.1,9.2 z m -7775.05,-9.2 -9.17,-9.1 9.17,9.1 z m 18.33,0 -9.17,-9.1 9.17,9.1 z m 7261.62,-73.3 c -16.8,-68.8 -106.9,-200.2 -175.7,-224.7 -90.2,-33.6 -249.1,4.6 -346.9,4.6 -533.3,0 -1072.7,45.9 -1603,73.4 -1250,65.7 -2512.23,74.9 -3760.71,-10.7 -731.96,-50.4 -1460.88,-114.6 -2191.33,-163.5 -450.8,-30.6 -906.17,-88.7 -1358.5,-48.9 -79.46,7.6 -163.51,-18.4 -241.44,-3.1 -105.44,22.9 -232.28,188 -252.14,290.4 l 36.67,9.1 -18.34,-27.5 c 308.69,0 617.36,45.9 926.04,70.3 472.2,38.2 947.44,64.2 1419.63,81 881.73,32.1 1764.99,-9.2 2643.66,-35.1 525.68,-15.3 1049.83,-7.7 1575.5,-7.7 699.88,1.6 1399.76,55 2098.16,36.7 255.2,-6.1 518,-19.9 771.7,-36.7 151.2,-10.7 325.4,-36.7 476.7,-7.6 z m 577.7,55 -9.2,-9.2 9.2,9.2 z m -82.6,-9.2 -9.1,-9.1 9.1,9.1 z m -10507.34,-9.1 -9.17,-9.2 9.17,9.2 z m 73.35,-36.7 -9.17,-9.2 9.17,9.2 z m 9948.09,-238.4 c 27.5,65.7 94.7,171.1 151.3,217 18.3,15.3 68.8,27.5 88.6,4.6 22.9,-27.5 -30.5,-82.5 -44.3,-102.4 -67.2,-100.9 -73.4,-125.3 -195.6,-119.2 z m -9563.01,229.2 -9.16,-9.2 9.16,9.2 z m 10186.51,-27.5 c -7.7,-58.1 -44.3,-102.4 -65.7,-155.9 -38.2,-99.3 -33.6,-224.6 -177.3,-178.7 -56.5,18.3 -55,97.8 -123.8,114.6 35.2,61.1 100.9,210.8 168.1,241.4 45.9,21.4 151.3,-4.6 198.7,-21.4 z m -10415.72,9.2 -9.17,-9.2 9.17,9.2 z m 10342.32,0 9.2,-9.2 -9.2,9.2 z m 18.4,0 9.1,-9.2 -9.1,9.2 z m -10507.42,-9.2 9.16,-18.3 -9.16,18.3 z m -467.61,-36.7 -9.17,-9.1 9.17,9.1 z m 10745.73,0 -9.1,-9.1 9.1,9.1 z m -10892.43,-18.3 -9.17,-9.2 9.17,9.2 z m 696.83,-293.4 c -143.65,-18.3 -287.29,132.9 -311.74,275.1 161.98,10.7 226.16,-154.4 311.74,-275.1 z m -678.49,270.5 1.53,-1.6 c -3.06,-1.5 -9.17,1.6 -1.53,1.6 z m 265.89,-13.8 c 7.64,-96.3 113.08,-191 174.2,-256.7 l -82.51,0 -45.84,36.7 c -48.9,38.2 -62.66,-4.6 -73.36,-45.9 -42.79,3.1 -79.46,1.6 -100.85,-36.6 l -27.51,18.3 c -140.58,-48.9 -172.68,47.4 -172.68,160.4 0,27.5 -10.69,78 9.18,100.9 16.8,19.9 56.53,12.2 80.98,15.3 73.35,9.2 166.57,30.5 238.39,7.6 z m 6207.24,18.4 -9.16,-9.2 9.16,9.2 z m -6491.47,-9.2 -9.17,-9.2 9.17,9.2 z m 5868,-36.7 -9.17,-9.2 9.17,9.2 z m 1457.83,0 -9.17,-9.2 9.17,9.2 z m 3530,0 -9.2,-9.2 9.2,9.2 z m -5913.88,-36.7 -9.16,-9.1 9.16,9.1 z m 3960.88,0 -9.1,-9.1 9.1,9.1 z m 375.9,0 -9.1,-9.1 9.1,9.1 z m -3951.69,-27.5 -9.16,-9.1 9.16,9.1 z m 18.34,0 -9.17,-9.1 9.17,9.1 z m -1246.95,-9.1 -9.17,-9.2 9.17,9.2 z m 5134.5,0 -9.2,-9.2 9.2,9.2 z m 82.5,0 -9.1,-9.2 9.1,9.2 z m 275.1,0 -9.2,-9.2 9.2,9.2 z m 1201.1,0 -9.2,-9.2 9.2,9.2 z m -6546.5,-9.2 -9.17,-9.2 9.17,9.2 z m 192.54,0 -9.16,-9.2 9.16,9.2 z m 2356.37,-3557.48 0,-9.17 -284.23,9.17 36.68,27.51 c -7.64,84.05 39.73,145.16 -36.68,210.88 18.34,282.7 -90.15,559.29 -192.54,816.02 -41.26,100.85 -122.25,250.6 -238.39,275.06 -18.34,53.48 -108.49,80.99 -155.87,99.33 -149.75,56.54 -323.96,158.93 -485.94,166.56 -35.15,27.51 -77.94,21.39 -119.19,32.09 -146.71,41.26 -301.04,45.85 -452.33,21.39 -50.42,-7.63 -93.22,-41.26 -143.64,-44.31 44.31,328.55 -33.63,687.65 -50.43,1017.75 -7.64,157.4 -9.17,317.8 -4.59,476.8 3.06,105.4 16.81,226.1 -9.17,330 l 18.34,-9.1 0,9.1 -18.34,55 c 106.98,32.1 227.69,13.8 339.25,18.4 189.49,7.6 377.45,26 568.46,27.5 310.21,0 621.95,30.6 935.21,18.3 76.41,-3 154.34,0 232.28,-3 25.98,0 61.12,7.6 80.99,-12.3 27.51,-24.4 7.64,-149.7 6.11,-186.4 -7.64,-174.2 -6.11,-348.4 -16.81,-524.1 -18.33,-287.3 0,-580.7 -1.53,-869.5 0,-386.65 -13.75,-771.74 -18.34,-1156.83 -3.05,-195.6 -25.97,-389.67 -36.67,-583.74 -4.59,-88.63 -50.43,-161.98 47.37,-212.41 z M 5730.47,11846 l -9.17,-9.1 9.17,9.1 z m 2833.14,0 c 38.21,-3 134.48,18.4 161.99,-15.3 33.61,-41.2 4.58,-165 4.58,-215.4 -4.58,-194.1 -3.06,-392.7 -22.92,-586.8 -18.34,-181.9 -7.65,-368.3 -19.87,-551.7 -32.09,-464.5 -44.31,-926.01 -24.45,-1390.57 10.7,-221.58 -12.22,-443.15 29.04,-660.15 45.84,10.7 96.27,25.98 91.68,82.52 l 18.34,0 c -59.59,160.45 -4.58,369.81 -16.8,537.9 -51.97,661.68 19.85,1321.8 41.25,1983.5 6.11,197.1 21.39,395.8 21.39,596 0,42.8 -22.92,180.3 13.76,209.3 22.92,18.4 68.76,10.7 96.27,10.7 77.93,0 155.87,-3 235.33,-4.6 233.81,0 466.08,-13.7 699.88,-24.4 93.22,-3.1 189.52,-27.5 284.22,-16.8 9.2,-50.4 -9.2,-85.6 45.9,-110 3,-421.8 -38.2,-840.5 -38.2,-1262.3 0,-449.24 15.2,-904.62 -24.5,-1350.84 -16.8,-189.49 -21.4,-389.67 -4.6,-577.63 4.6,-44.31 0,-221.58 100.9,-148.23 27.5,21.4 22.9,74.88 21.4,106.97 -6.1,99.33 -12.3,197.13 -9.2,296.46 6.1,310.21 29,618.89 38.2,927.57 1.5,93.22 -38.2,276.6 16.8,357.6 l 0,9.2 c -30.5,24.4 -12.2,82.5 -12.2,119.1 0,110.1 -1.5,218.6 3,330.1 18.4,418.7 90.2,878.7 0,1292.8 l 301.1,-9.2 735,-45.8 541,-18.3 64.2,-100.9 110,91.7 -133,-1745.12 -71.8,-938.27 -24.4,-589.86 c -88.7,3.05 -111.6,123.78 -184.9,152.82 -41.3,16.81 -50.5,-45.85 -52,-70.3 -1.5,-36.68 -18.3,-76.4 -13.7,-110.02 7.6,-42.8 41.2,-76.41 48.8,-119.2 l -265.8,9.17 -614.4,1.53 -1521.97,7.64 -779.34,-9.17 c 56.54,96.27 42.79,236.86 48.89,348.41 4.59,56.55 18.34,117.67 6.12,174.21 l 10.7,154.34 9.17,404.95 25.98,1815.37 7.63,458.5 1.53,192.5 z m -7023.26,-18.3 -9.17,-9.2 9.17,9.2 z m 3685.84,0 -9.17,-9.2 9.17,9.2 z m 7023.31,0 -9.2,-9.2 9.2,9.2 z m -6491.52,-9.2 -9.17,-9.1 9.17,9.1 z m 4566.02,0 -9.2,-9.1 9.2,9.1 z m 1897.9,0 -18.3,-18.3 18.3,18.3 z m -6803.17,-27.5 -18.34,-18.3 18.34,18.3 z m 6739.07,0 -18.4,-18.3 18.4,18.3 z m -6968.29,-9.2 -9.17,-9.1 9.17,9.1 z m 82.52,0 -9.17,-9.1 9.17,9.1 z m 935.22,-1063.5 c -18.34,-55 -1.54,-100.9 1.53,-155.9 6.1,-114.6 13.75,-226.2 15.27,-340.8 9.17,-444.66 36.68,-892.4 45.84,-1337.08 3.07,-129.89 4.59,-265.89 24.46,-394.25 4.58,-33.63 35.14,-129.9 12.22,-158.93 -25.98,-32.09 -122.25,-7.64 -154.34,3.05 30.56,79.47 6.12,181.85 1.53,264.37 -7.64,143.65 -1.53,288.81 -1.53,432.46 0,360.64 -41.26,719.75 -62.65,1078.88 -16.81,288.8 -18.33,576.1 -35.15,864.9 -10.69,188 -12.22,379 -10.69,568.5 0,77.9 21.39,168 -47.38,220 21.39,16.8 166.57,29 178.79,-3 24.46,-58.1 -3.05,-155.9 -1.53,-217 6.12,-197.2 -1.52,-391.2 10.7,-586.8 1.54,-47.4 -15.28,-215.5 22.93,-238.4 z m 5583.75,1063.5 -9.2,-9.1 9.2,9.1 z m 110,0 -9.1,-9.1 9.1,9.1 z m 275.1,0 -18.3,-27.5 18.3,27.5 z m 605.1,0 -9.1,-9.1 9.1,9.1 z m -7738.39,-18.3 -18.33,-18.3 18.33,18.3 z m 5583.79,-18.3 c -6.1,-768.7 -102.4,-1532.7 -119.2,-2304.44 -4.6,-180.32 -10.7,-363.7 -6.1,-544.02 3,-96.27 22.9,-158.92 125.3,-158.92 l 36.7,137.53 c -76.4,74.88 -29.1,299.52 -29.1,403.43 1.6,246.02 3.1,492.06 16.8,739.62 6.1,116.1 39.8,253.7 12.3,369.8 l 18.3,0 4.6,203.2 51.9,530.3 -1.5,596 -110,27.5 z m -6097.24,0 -9.16,-9.2 9.16,9.2 z m 82.52,0 -9.17,-9.2 9.17,9.2 z m 119.19,0 -9.16,-9.2 9.16,9.2 z m 7353.33,-4.6 3.1,-1.5 c -4.6,-1.6 -10.7,1.5 -3.1,1.5 z m 36.7,4.6 -9.2,-9.2 9.2,9.2 z m 651,0 -18.4,-18.4 18.4,18.4 z m -8334.42,-18.4 0,-9.1 -27.51,0 0,9.1 27.51,0 z m 210.88,9.2 -9.17,-9.2 9.17,9.2 z m -192.55,-13.7 c 6.12,0 0,-3.1 -4.58,-1.6 l 4.58,1.6 z m 220.05,-4.6 -9.17,-9.2 9.17,9.2 z m -339.24,-27.5 -9.17,-9.2 9.17,9.2 z m -495.11,-18.4 -9.17,-9.1 9.17,9.1 z m 284.23,0 -9.17,-9.1 9.17,9.1 z m -476.78,-9.1 -9.16,-9.2 9.16,9.2 z m 458.44,0 -9.17,-9.2 9.17,9.2 z m -962.72,-27.6 -9.17,-9.1 9.17,9.1 z m 394.26,0 -9.17,-9.1 9.17,9.1 z m -311.74,-9.1 -9.17,-9.2 9.17,9.2 z m 73.35,0 -9.17,-9.2 9.17,9.2 z m 660.15,0 -9.17,-9.2 9.17,9.2 z m 2301.36,-9.2 -9.17,-9.2 9.17,9.2 z m 6147.64,-6.1 -1.5,-7.6 1.5,7.6 z m -22.9,-7.6 3,-1.6 c -4.5,-1.5 -10.7,1.6 -3,1.6 z m -10489.07,-4.6 -9.17,-9.2 9.17,9.2 z m 10369.87,0 -9.2,-9.2 9.2,9.2 z m -6005.54,-9.2 -9.17,-9.2 9.17,9.2 z m 6097.24,-55 c 32.1,-84.1 -3.1,-215.5 -15.3,-302.6 -22.9,-157.4 -18.3,-319.4 -38.2,-478.3 -30.6,-233.8 -33.6,-470.6 -62.7,-704.4 -47.3,-377.5 -113,-756.47 -132.9,-1135.44 -7.6,-129.9 -9.2,-261.31 -21.4,-389.67 -7.6,-85.59 -30.6,-191.03 4.6,-272.01 l 0,-73.35 c -55,7.63 -217,157.4 -155.9,210.88 l 9.2,45.84 c -26,62.65 1.5,116.14 1.5,180.32 1.5,174.21 26,349.94 33.6,525.68 27.5,580.68 90.2,1161.35 108.5,1742.05 4.6,162 16.8,333.1 42.8,495.1 6.1,44.3 -9.2,136 35.2,163.5 45.8,27.5 139,-9.1 191,-7.6 z m -6335.63,-27.5 -9.17,-9.2 9.17,9.2 z m 4680.63,-198.7 -1.5,-7.6 1.5,7.6 z m -6386.02,-3 -9.17,-9.2 9.17,9.2 z m 7784.32,-36.7 -9.2,-9.2 9.2,9.2 z m -7765.98,-91.7 -9.17,-9.2 9.17,9.2 z m -9.17,-45.8 -9.17,-9.2 9.17,9.2 z m 7765.95,-82.6 -9.2,-9.1 9.2,9.1 z m -7793.46,-27.5 -9.16,-9.1 9.16,9.1 z m 8123.56,-9.1 9.1,-18.4 -9.1,18.4 z m -8077.71,-229.2 -9.17,-9.2 9.17,9.2 z m -9.17,-27.6 -9.17,-9.1 9.17,9.1 z m 4437.68,-73.3 -9.17,-9.2 9.17,9.2 z m 1522,-45.8 -9.2,-9.2 9.2,9.2 z m -5950.51,-73.4 -9.17,-9.2 9.17,9.2 z m 8013.51,0 -9.2,-9.2 9.2,9.2 z m -8031.85,-275.1 -9.17,-9.1 9.17,9.1 z m 4190.12,0 -9.17,-9.1 9.17,9.1 z m -7399.18,-18.3 9.17,-9.2 -9.17,9.2 z m 9517.21,-64.2 -9.2,-9.1 9.2,9.1 z m -2567.3,-1907.08 -687.66,0 -311.73,9.17 45.84,73.35 -18.34,128.36 c 41.26,-1.53 4.59,137.53 -18.33,155.87 9.17,100.86 -76.41,194.07 -142.12,262.84 -169.62,180.32 -330.07,291.87 -573.05,333.13 -15.28,132.95 -12.22,268.95 -9.16,403.42 1.53,30.56 -16.81,105.44 6.11,129.9 18.34,16.8 53.48,6.1 76.4,13.75 76.41,22.92 145.17,39.73 229.22,45.85 236.86,16.8 508.87,-94.75 724.33,-186.44 110.03,-47.37 218.52,-88.63 308.69,-172.68 328.54,-305.62 232.27,-820.6 369.8,-1196.52 z m 4171.8,1136.92 9.2,-18.33 -9.2,18.33 z m -1989.6,-82.51 -9.2,-9.17 9.2,9.17 z m -6253.13,-27.51 -9.16,-9.17 9.16,9.17 z M 6940.75,8316.06 c -65.72,9.17 -103.91,94.74 -128.37,-9.17 l -265.89,7.64 -122.25,10.7 -24.45,226.16 -45.84,654.04 c 372.86,-100.86 709.04,-496.65 586.8,-889.37 z m 1045.23,889.37 -9.17,-9.17 9.17,9.17 z m -1320.3,-73.35 -9.17,-9.17 9.17,9.17 z m -2704.78,-100.86 9.17,-18.34 -9.17,18.34 z m 6289.8,-256.72 -9.2,-9.17 9.2,9.17 z m 238.4,-229.22 c -45.9,-56.55 32,-143.65 55,-201.72 151.2,18.34 91.7,183.38 27.5,265.9 85.5,-13.76 172.6,-67.24 221.6,-137.53 27.5,-39.73 51.9,-113.08 91.6,-137.54 82.6,-50.42 117.7,76.41 53.5,119.2 -4.6,174.21 -276.6,252.14 -412.6,276.59 -42.8,7.64 -148.2,24.45 -178.8,-15.28 -42.8,-56.54 102.4,-145.17 142.2,-169.62 z m -2383.92,165.03 -9.17,-9.17 9.17,9.17 z m -3850.88,-119.19 -9.17,-9.17 9.17,9.17 z m 5996.4,-91.69 -9.2,-9.16 9.2,9.16 z m 339.2,0 -9.2,-9.16 9.2,9.16 z m -6280.59,-18.34 -9.17,-9.16 9.17,9.16 z m 1815.42,-45.84 -9.17,-9.17 9.17,9.17 z m -2017.13,-36.67 -9.17,-9.17 9.17,9.17 z m 7756.8,-137.53 88.6,-102.39 149.8,-200.18 0,-9.17 -110.1,-9.17 -256.7,394.25 128.4,-73.34 z m -9049.6,36.67 c -30.55,-47.38 -84.04,-79.47 -122.24,-120.72 -122.26,-128.37 -316.32,-363.69 -501.23,-346.89 19.87,70.3 102.39,125.31 155.87,171.16 96.27,77.93 181.84,158.92 284.23,230.74 59.6,42.79 105.44,102.38 183.37,65.71 z m 5281.21,-9.17 -9.17,-9.17 9.17,9.17 z m 2301.39,-27.5 -9.2,-9.17 9.2,9.17 z m -4666.93,-9.17 -9.17,-9.17 9.17,9.17 z m 3566.64,0 -9.16,-9.17 9.16,9.17 z m -3594.15,-9.17 -9.17,-9.17 9.17,9.17 z m -3429.11,-82.52 c -29.04,-108.49 -120.72,-102.39 -210.88,-88.64 -25.98,4.59 -77.93,1.54 -91.69,27.51 -27.51,51.96 42.79,134.48 96.27,128.36 29.04,-3.05 56.55,-24.44 87.11,-30.56 41.25,-9.16 77.93,-24.45 119.19,-36.67 z m 5336.21,61.13 1.53,-4.59 c -3.06,0 -9.16,4.59 -1.53,4.59 z m -5015.3,-317.86 c 56.54,51.96 151.28,178.79 221.58,203.25 114.61,41.25 294.92,13.75 420.23,27.5 417.18,42.79 843.52,25.98 1265.29,44.32 939.79,39.72 1882.64,-13.76 2823.97,-18.34 770.18,-3.05 1540.35,9.17 2310.53,9.17 536.34,0 1075.84,1.53 1612.14,-10.7 128.4,-3.05 255.2,-1.52 382.1,-1.52 44.3,-1.53 105.4,1.52 114.6,-53.5 6.1,-30.55 12.2,-151.28 -15.3,-172.67 -30.6,-22.92 -96.3,-9.17 -131.4,-9.17 -108.5,0 -217,1.53 -325.5,1.53 -531.8,0 -1068.2,16.81 -1601.5,38.2 -994.81,42.79 -1992.67,42.79 -2987.48,51.96 -551.66,4.58 -1107.89,47.37 -1659.54,16.8 -585.27,-32.09 -1167.49,-61.11 -1751.23,-82.51 -166.57,-6.11 -330.08,-27.51 -495.12,-36.68 -61.13,-3.05 -125.31,-25.97 -183.37,-7.64 z m 8215.24,275.07 -9.2,-9.17 9.2,9.17 z m 1714.5,-146.71 c 13.8,-32.09 53.5,-166.56 27.5,-194.07 -44.3,-47.36 -212.4,0 -261.3,24.45 -51.9,27.51 -93.2,102.39 -123.8,151.29 91.7,47.37 252.2,10.7 357.6,18.33 z m -10360.68,-91.68 -9.16,-9.17 9.16,9.17 z m 5629.62,0 -9.17,-9.17 9.17,9.17 z m -5611.28,-9.17 -9.17,-9.17 9.17,9.17 z m 18.34,0 -9.17,-9.17 9.17,9.17 z m 6170.57,0 -9.17,-9.17 9.17,9.17 z m -2374.71,-36.68 c 0,-357.58 16.81,-721.27 24.46,-1077.33 4.58,-128.35 -15.29,-293.39 122.24,-352.99 -61.13,-55.01 -136,-87.1 -200.18,-136 -267.42,-194.08 -606.67,-437.05 -774.76,-728.92 -38.2,-65.71 -80.99,-151.28 -88.63,-226.16 -7.64,-82.52 15.28,-169.62 -9.17,-247.56 38.21,-30.56 38.21,-93.22 50.43,-137.53 24.45,-79.46 64.18,-145.17 113.07,-210.88 110.03,-151.28 346.89,-275.06 536.38,-268.95 117.67,3.06 233.8,48.9 345.36,85.57 48.89,-136 15.28,-299.51 7.64,-438.56 -13.76,-242.98 -15.28,-484.43 -16.81,-725.87 -1.53,-111.55 25.97,-317.85 -27.51,-412.59 -100.85,149.75 -131.42,401.89 -265.89,522.62 l -55.01,137.53 -146.7,311.74 -82.52,137.53 c -13.76,96.27 -96.28,166.57 -157.4,235.33 -158.93,175.73 -339.25,346.88 -557.77,444.69 -93.21,41.25 -181.84,110.02 -284.23,123.77 -22.92,3.06 -105.44,12.23 -99.32,-29.03 9.17,-56.55 113.08,-70.3 154.34,-90.16 140.58,-68.76 287.28,-132.95 412.59,-232.28 330.07,-264.36 508.87,-599.02 669.32,-984.11 41.26,-100.86 146.7,-230.75 146.7,-339.24 47.37,-30.56 85.57,-120.73 82.52,-174.21 l -100.86,9.17 -58.06,-116.14 -15.29,-177.26 c -293.4,76.4 -459.97,-255.2 -467.6,-504.28 -90.16,-36.68 -187.97,29.04 -276.6,-39.73 -42.78,-35.16 -94.74,-76.41 -120.71,-126.84 -44.33,-82.52 -62.66,-197.13 -139.07,-259.78 -44.31,-36.68 -140.58,-55.01 -197.12,-59.6 l -19.88,348.42 -35.14,1022.31 -1.53,305.62 -7.64,203.25 c -39.72,19.87 -6.11,165.04 -12.22,210.88 -30.57,233.8 -9.17,476.78 -15.28,715.16 -7.64,255.19 -48.9,514.98 -59.6,770.18 -10.7,221.58 10.7,452.32 9.17,678.48 -1.53,304.1 -10.7,609.73 -10.7,915.35 0,204.77 12.23,412.59 -1.52,615.84 -4.59,51.95 21.39,145.16 -19.87,183.37 l 9.17,18.34 c -62.65,21.39 -91.69,12.22 -146.7,-18.34 65.71,-155.87 -27.51,-348.41 36.67,-495.11 l -18.34,-18.34 c 42.8,-76.4 7.64,-259.78 9.17,-348.41 0,-299.52 4.59,-600.56 6.12,-898.54 1.52,-537.9 22.92,-1068.16 55.01,-1604.53 29.03,-475.24 13.75,-955.08 48.9,-1430.33 22.92,-310.2 -18.34,-632.64 35.14,-939.79 13.76,-76.41 50.43,-293.4 -16.81,-343.83 65.72,-166.57 50.43,-348.42 108.5,-519.57 18.34,-53.48 79.47,-33.61 102.39,7.65 13.75,27.5 -6.12,68.77 -7.64,97.79 -3.06,105.45 -56.54,236.87 -35.15,339.25 22.92,114.61 252.14,108.5 319.38,184.9 19.86,22.92 65.7,68.77 53.48,100.86 l 0,9.17 64.18,45.84 c -3.05,80.99 90.16,232.27 183.38,229.22 56.54,-3.05 134.48,-93.22 187.96,-41.26 50.43,47.38 50.43,168.09 67.23,233.81 25.99,106.97 68.77,166.57 140.6,247.55 25.97,30.56 51.94,70.3 96.27,76.41 47.36,6.11 145.17,-51.96 186.42,-76.41 7.64,22.92 58.07,122.25 9.18,110.03 l 0,9.17 27.5,0 -9.17,128.36 c 13.76,19.87 18.34,47.37 36.68,64.18 48.89,45.84 123.78,-39.73 183.37,-36.68 l 0,-441.63 16.81,-860.33 29.04,-467.6 c -194.08,-58.07 -443.16,-15.29 -641.82,-21.39 -290.34,-9.17 -583.74,4.58 -871.03,-7.65 -241.44,-9.17 -499.7,-41.26 -725.86,21.4 -55.01,13.75 -126.83,-12.24 -187.96,0 -96.27,21.39 -161.97,93.21 -241.44,145.17 -59.6,36.67 -132.95,73.34 -165.04,137.53 59.6,1.53 114.61,29.03 172.68,35.14 134.47,12.23 253.67,18.34 386.62,55.01 58.06,15.29 194.07,84.06 253.67,67.25 36.67,-12.23 24.44,-100.86 29.02,-129.9 9.18,-59.59 15.29,-246.02 76.42,-273.53 22.92,-10.7 55.01,6.11 80.99,7.64 16.8,71.82 -16.81,163.51 -30.56,236.86 -21.4,108.5 -30.57,221.58 -45.85,330.07 -55.01,394.26 -93.21,794.63 -114.61,1193.47 -33.62,621.95 4.59,1246.95 18.34,1868.89 12.22,492.06 4.59,984.12 9.17,1474.65 4.58,392.73 -36.68,783.93 -38.21,1176.66 -1.53,73.34 13.76,187.95 -19.87,256.72 -16.8,33.62 -65.7,76.4 -106.96,53.48 -41.26,-22.92 -42.79,-126.83 -29.04,-163.51 51.96,-155.86 30.56,-368.28 25.98,-531.78 -6.11,-259.78 27.51,-521.09 30.57,-779.35 4.58,-267.42 0,-531.78 -3.06,-797.68 -1.53,-154.33 -4.59,-305.62 -7.64,-458.44 0,-64.18 16.8,-143.64 -9.17,-201.71 l -27.51,45.85 c -388.14,-58.07 -599.02,-400.38 -800.73,-706 -51.96,-80.99 -111.56,-165.03 -175.74,-236.85 -21.39,-21.4 -64.18,-58.08 -50.43,-93.22 24.46,-55.01 82.52,-51.96 128.36,-73.35 35.15,93.21 132.95,172.67 189.5,255.19 187.96,278.13 380.5,649.46 736.55,735.03 21.39,-84.05 4.58,-192.54 4.58,-279.65 1.53,-206.29 -4.58,-412.59 -9.17,-620.42 -12.22,-495.11 10.7,-999.39 56.55,-1492.97 22.92,-226.17 15.27,-472.19 85.57,-687.66 -249.09,-74.88 -495.11,-117.66 -754.89,-128.36 -62.66,-3.06 -221.58,-7.64 -253.67,-74.88 -16.81,-35.15 19.87,-67.24 39.73,-90.16 59.59,-71.82 128.36,-125.31 207.82,-175.74 61.13,-39.72 117.67,-85.57 183.38,-117.66 l 0,-9.17 c -129.9,-38.2 -279.65,-16.8 -412.59,-30.56 -65.72,-6.11 -125.31,-22.92 -183.38,12.22 l 0,9.17 c 32.09,73.35 -3.05,197.13 -7.64,278.12 -13.75,209.36 -21.4,418.71 -35.15,629.59 -41.26,657.1 9.17,1311.13 -65.7,1966.7 -12.23,117.66 -33.63,242.97 -38.21,360.63 -1.53,79.47 6.11,195.61 -27.51,267.43 l 0,9.17 -7.63,119.19 -29.04,284.23 9.17,73.35 -18.34,0 9.17,100.86 0,9.17 c -55.01,79.46 -27.51,252.14 -36.67,348.41 -3.06,39.73 -7.65,85.57 18.33,119.19 l 0,9.17 -27.51,128.36 18.34,27.51 -9.16,82.52 45.84,0 18.34,-36.68 9.16,0 82.52,45.85 9.17,64.18 -27.5,0 0,18.34 36.67,-9.17 -27.51,36.67 27.51,-18.33 c 77.94,284.23 207.83,542.48 301.04,822.13 22.92,70.29 64.18,261.31 139.06,287.28 l 0,9.17 -18.34,9.17 163.51,299.51 93.22,186.43 c 58.06,53.49 91.68,169.63 157.4,209.36 51.95,32.09 149.75,16.81 209.35,18.33 148.23,6.12 308.68,4.59 456.9,22.92 58.08,6.12 175.74,39.74 223.12,6.12 99.32,-65.71 160.45,-201.71 233.8,-291.87 195.6,-244.5 378.97,-518.04 617.36,-724.33 126.83,-110.03 239.92,-238.39 375.92,-339.24 35.14,-25.99 88.63,-94.75 137.53,-85.59 149.75,25.99 -62.65,180.33 -93.22,203.25 -146.7,116.14 -301.04,244.5 -427.87,380.5 -81,87.11 -142.11,192.55 -230.75,270.48 l 9.17,18.34 -265.89,311.73 c -6.12,36.68 -42.79,53.49 -67.24,82.52 -51.96,61.13 -64.18,136 -143.65,174.21 41.27,58.06 250.61,33.62 325.5,33.62 311.73,-1.53 626.52,3.05 939.79,3.05 z m 6069.74,-320.9 c -107,-106.97 -29.1,-299.52 -73.4,-430.93 l -9.1,0 -36.7,128.36 -27.5,-9.17 c 13.7,-61.13 7.6,-137.53 82.5,-146.7 -50.4,-1314.18 -165,-2626.84 -269,-3937.98 -38.2,-484.41 -71.8,-976.47 -62.6,-1463.95 4.6,-181.84 -22.9,-401.89 29,-576.09 l -510.4,18.33 -1375.28,-6.11 -709.05,12.23 -513.45,3.05 27.51,110.03 c 84.05,7.63 76.4,110.02 71.82,172.67 -16.81,200.19 -29.03,397.32 -25.98,597.5 9.17,589.85 -15.28,1179.72 -50.43,1769.57 -15.28,246.03 24.46,530.26 -32.09,770.18 24.45,53.48 -1.53,174.2 -3.05,238.38 -4.59,175.74 -3.06,354.53 7.64,531.79 38.2,611.25 10.69,1214.86 -25.98,1824.58 -12.23,218.52 44.32,441.63 -6.11,660.15 l 146.69,18.34 c 45.85,-102.39 10.7,-239.92 18.34,-348.41 27.51,-351.47 12.22,-704.46 27.51,-1054.41 30.56,-728.91 -9.17,-1454.78 -9.17,-2183.69 1.53,-490.53 16.81,-982.58 24.45,-1473.11 6.11,-415.66 -30.57,-845.05 35.15,-1256.12 12.22,-77.93 16.8,-161.98 12.22,-239.92 0,-22.92 -30.56,-70.3 -18.34,-87.1 33.62,-50.43 117.67,22.92 126.84,59.6 27.51,105.44 0,255.19 -13.75,362.16 -65.71,508.87 -32.09,1040.65 -44.32,1552.58 -4.59,181.85 27.5,392.73 -12.23,569.99 l 55.02,-27.51 148.23,421.77 80.99,165.03 c 120.72,119.2 181.84,297.98 311.73,418.71 58.07,55.01 148.23,84.04 137.53,177.26 136,18.34 287.29,126.83 395.79,-21.39 36.67,-50.43 21.39,-152.81 24.47,-212.41 4.6,-174.21 6.1,-346.88 9.1,-519.57 3.1,-184.9 26,-368.27 35.2,-553.18 19.9,-467.6 21.4,-939.79 21.4,-1407.4 0,-235.34 -7.6,-472.19 21.4,-705.99 13.7,-117.67 9.1,-258.26 162,-201.72 -82.6,276.6 -56.6,583.75 -61.2,871.03 -7.6,455.39 -12.2,909.24 -19.8,1363.09 -9.2,472.2 -47.4,942.86 -50.4,1415.05 -3.1,492.06 45.8,984.11 65.7,1476.17 15.2,349.94 12.2,699.87 38.2,1049.82 7.6,113.08 -10.7,230.75 9.1,343.83 39.8,-6.12 186.5,18.33 206.3,-24.46 10.7,-24.44 -12.2,-77.93 -13.7,-103.91 -9.2,-100.85 -19.9,-201.71 -29.1,-302.57 -30.5,-368.28 -64.1,-736.55 -64.1,-1106.36 -1.6,-573.05 -10.7,-1144.56 1.5,-1717.61 3,-189.49 22.9,-378.97 22.9,-566.93 0,-475.26 -32.1,-948.97 -15.3,-1424.22 12.3,-320.91 -1.5,-641.81 3.1,-961.19 1.5,-90.15 -1.5,-177.26 4.6,-265.89 1.5,-29.04 -9.2,-65.71 3,-91.69 29.1,-55.01 84.1,1.53 96.3,36.68 29,80.98 6.1,198.66 10.7,284.23 16.8,374.38 1.5,751.84 -6.1,1127.75 -3.1,88.64 1.5,178.79 3,267.43 0,33.61 16.8,79.46 -3,108.49 l 19.8,369.81 1.6,702.94 -12.3,348.41 c 52,-33.62 65.8,-117.66 85.6,-172.68 35.2,-102.38 70.3,-203.24 103.9,-304.1 18.4,-53.48 21.4,-113.07 58.1,-155.87 0,-111.55 71.8,-233.8 100.9,-339.24 94.7,-333.13 215.4,-649.45 356,-962.72 59.6,-134.47 108.5,-334.66 212.4,-440.1 9.2,-82.52 78,-136 94.8,-209.35 10.7,-39.74 -4.6,-93.22 -4.6,-134.48 0,-129.89 -4.6,-258.25 -9.2,-388.14 -3,-53.49 -22.9,-181.85 64.2,-174.21 73.3,4.59 45.8,184.9 48.9,236.86 15.3,256.73 36.7,527.21 30.6,785.46 -7.7,265.9 30.5,542.48 39.7,809.9 19.9,495.12 29,991.76 64.2,1485.34 15.3,210.89 18.3,421.77 32.1,634.18 9.1,145.17 38.2,301.03 24.4,447.74 39.7,42.79 27.5,117.66 32.1,174.2 9.2,140.59 26,281.18 33.6,421.77 21.4,331.6 41.3,666.26 38.2,999.39 -3,229.22 -18.3,469.14 15.3,696.82 70.3,-25.97 74.9,-120.72 97.8,-183.37 19.9,-51.96 56.5,-100.86 85.6,-146.7 z m -5767.17,311.74 c 29.04,-238.39 -59.59,-447.74 36.68,-678.49 -96.27,-4.59 -59.6,-79.47 -58.07,-146.7 0,-137.53 19.86,-297.99 3.05,-430.93 33.62,1.53 84.05,10.7 102.39,45.84 12.22,22.92 -1.53,65.71 -1.53,91.69 -1.53,74.88 15.28,154.34 6.12,229.22 -1.53,24.45 4.58,77.93 -15.29,91.69 l 0,9.16 273.53,-120.72 139.07,29.04 c -70.3,-174.21 -293.4,-296.46 -440.1,-398.84 -62.65,-42.8 -122.25,-97.81 -192.55,-123.78 29.04,110.02 -9.17,255.19 -6.11,375.92 4.58,189.48 -4.59,377.45 -7.64,568.46 -1.53,149.75 12.22,320.9 -32.09,467.6 l 192.54,-9.16 z m -2539.74,0 -9.17,-9.17 9.17,9.17 z m 2732.29,-36.68 -55.02,-27.5 -27.5,55.01 c 36.67,10.7 62.65,7.63 82.52,-27.51 z m 999.39,27.51 0,-18.34 c -126.83,-25.98 -189.49,-161.98 -209.35,-275.06 -38.21,-213.94 18.34,-470.66 264.36,-539.43 262.84,-73.35 400.37,299.51 371.33,499.7 -29.03,189.48 -165.03,246.03 -316.32,323.96 l 0,9.17 c 187.97,-45.85 403.43,1.53 595.97,-15.29 62.66,-6.1 145.17,9.17 198.66,-36.67 73.35,-62.65 58.07,-129.89 61.12,-213.94 9.17,-168.09 -25.97,-337.71 -15.27,-504.28 12.22,-178.79 44.31,-363.69 47.36,-542.49 12.23,-566.93 -29.03,-1136.92 -29.03,-1703.85 0,-394.26 -1.53,-802.27 42.78,-1191.94 10.71,-88.63 41.27,-244.5 15.29,-330.07 -7.64,-24.46 -25.98,-21.39 -45.84,-18.34 l -18.34,-18.34 c 12.22,-53.48 -15.29,-88.63 -30.56,-137.53 -27.51,-91.69 -42.79,-184.91 -70.3,-275.06 -47.37,-149.76 -108.49,-288.82 -169.62,-430.93 -27.5,-64.19 -41.26,-134.48 -80.99,-191.02 -73.35,-106.97 -189.49,-192.54 -279.64,-284.23 -79.47,-82.52 -194.08,-229.22 -305.64,-264.37 -181.84,-58.07 -424.81,-108.49 -615.82,-82.52 -113.09,15.29 -253.68,116.14 -363.7,97.8 l -18.34,330.08 18.34,0 c -22.92,74.88 -3.05,160.45 -1.53,236.85 6.11,191.03 13.75,380.51 29.03,570 15.29,171.15 1.54,349.94 4.59,522.62 4.59,275.06 18.34,548.59 13.75,823.65 -3.05,198.66 29.04,412.6 -18.34,606.67 l 64.19,73.35 c 62.65,7.64 120.72,99.33 163.5,143.65 137.53,134.47 258.26,278.12 375.92,427.87 39.74,51.96 42.79,123.78 102.39,161.98 l 27.5,73.35 c 91.69,-25.97 227.69,-45.84 310.21,13.75 149.76,108.5 -38.19,258.26 -154.33,279.65 41.25,131.42 87.1,206.3 229.21,201.71 35.15,53.49 304.1,44.32 198.66,174.21 -9.17,10.7 -22.92,21.39 -35.15,30.56 -29.03,22.92 -68.77,38.21 -90.16,70.3 142.12,-18.34 267.43,-36.68 412.6,0 12.22,-67.24 -56.55,-183.38 -82.52,-247.56 -51.96,-128.36 -90.16,-262.84 -125.31,-394.26 -13.75,-58.06 -42.78,-105.43 -39.73,-165.03 -61.13,-64.18 -56.54,-184.91 -114.61,-256.73 -145.17,-183.37 -345.36,-15.28 -518.03,-9.17 -24.46,21.4 -132.95,64.18 -105.45,-9.16 18.34,-48.9 108.5,-67.24 151.29,-87.11 168.09,-76.4 385.09,-128.36 544.01,-9.17 79.47,61.13 100.86,169.62 126.84,261.31 36.68,125.31 79.46,249.09 114.61,375.92 18.34,65.71 65.7,142.12 67.24,210.88 93.21,106.98 80.98,340.78 220.05,412.6 -12.23,45.84 -41.27,93.22 -91.69,100.85 l -18.34,27.51 c -105.44,-154.34 -404.96,-105.44 -559.29,-91.69 l 36.67,45.85 c -10.7,200.18 389.67,-12.23 307.15,249.08 -7.63,25.98 -19.86,50.43 -36.67,70.29 -21.39,25.99 -48.9,41.26 -77.94,56.54 7.64,48.9 71.82,191.02 137.54,171.16 59.59,-18.34 91.68,-85.58 155.87,-106.97 l 27.5,36.67 c -32.09,77.94 -189.49,279.65 -293.4,204.76 -61.13,-44.31 -88.63,-126.82 -128.36,-186.42 -119.2,-189.49 -223.11,-403.43 -316.33,-605.14 -32.08,-73.35 -58.06,-192.54 -123.77,-238.39 4.58,-50.42 -33.62,-93.22 -53.48,-137.53 -56.55,-126.83 -132.95,-242.97 -192.55,-366.75 -91.68,-192.54 -227.7,-356.05 -372.86,-511.92 -192.55,-207.83 -363.7,-378.98 -618.89,-505.81 -145.17,-71.82 -357.59,-169.62 -522.62,-134.48 -148.23,32.09 -249.09,132.95 -357.58,226.17 l 9.17,18.34 c -110.03,71.81 -142.12,354.52 -113.08,473.72 15.27,59.59 59.59,116.13 67.23,177.26 48.9,35.14 76.4,90.15 119.2,134.47 122.24,123.78 247.55,249.08 385.08,356.06 327.03,258.25 704.47,469.13 1007.03,756.42 105.45,100.85 197.13,233.8 276.6,357.58 32.09,50.42 53.48,136 100.85,174.21 l 0,9.16 c -76.4,68.77 -45.84,122.25 -65.71,210.88 -27.51,116.14 -158.92,307.16 -282.7,330.08 50.43,39.73 132.95,24.45 195.6,24.45 160.45,1.52 320.91,-3.06 482.89,-6.11 z m 73.35,0 -9.17,-9.17 9.17,9.17 z m 4529.38,0 -9.2,-9.17 9.2,9.17 z m -1980.5,-64.18 0,-146.71 c -122.21,-108.49 -207.8,-279.64 -314.76,-404.95 -36.67,-41.26 -85.58,-129.89 -143.64,-136 l -122.25,-186.43 -218.53,-354.53 -145.17,-220.05 c -4.58,-67.23 -91.69,-203.24 -155.87,-220.05 -19.86,294.94 -18.33,595.97 -56.54,889.37 -6.11,41.26 -13.75,110.03 -35.14,145.17 -30.56,48.91 -71.82,55.01 -73.36,120.72 -4.58,128.37 -9.16,255.2 -10.7,385.09 0,61.13 1.54,120.73 -53.48,155.87 93.22,38.21 246.03,0 348.42,0 215.46,-1.53 433.98,-10.7 650.98,-15.28 102.39,-3.05 230.74,16.81 330.04,-12.22 z m -7646.71,27.5 -9.16,-9.17 9.16,9.17 z m 302.57,0 -9.17,-9.17 9.17,9.17 z m 1971.29,0 0,-9.17 -27.51,0 27.51,9.17 z m -55.02,-9.17 -9.17,-9.16 9.17,9.16 z m 7490.87,-27.5 0,-18.34 c -74.9,-58.07 -93.2,-38.21 -119.2,45.84 l 119.2,-27.5 z m -8664.47,9.17 -96.27,-140.59 -99.32,-187.96 -79.47,-157.4 -137.53,-229.22 c 0,-68.76 -45.84,-158.92 -71.82,-223.1 -47.38,-122.26 -88.63,-247.56 -143.65,-365.23 -59.59,-129.88 -152.81,-281.17 -132.94,-429.4 l -45.85,-91.68 -9.17,-9.17 -18.34,0 -9.16,9.17 c 16.8,301.03 -1.54,614.3 -4.59,916.87 -4.58,279.64 13.75,599.02 -59.59,871.03 297.98,-3.05 608.19,68.77 907.7,36.68 z m 137.53,9.17 -9.16,-9.17 9.16,9.17 z m -907.7,-4355.16 7.63,-137.53 3.07,-459.97 35.14,-1190.41 36.68,-505.81 18.33,-145.17 -192.54,-9.17 c 19.87,59.6 -9.17,100.86 -9.17,155.87 0,105.44 -18.34,235.33 -18.34,385.09 0,238.38 -24.45,742.67 -64.18,944.38 -16.81,82.52 7.64,194.07 0,256.72 -18.34,137.53 -45.84,265.9 -45.84,403.43 0,210.88 -27.51,342.3 -27.51,559.29 0,56.54 -6.11,120.73 -9.17,155.87 -4.58,35.15 13.76,90.16 -18.33,82.52 32.09,85.57 9.16,206.3 1.53,296.46 -10.71,128.35 -7.65,256.72 -18.34,385.08 -7.65,100.86 4.58,203.24 0,304.1 -19.87,333.13 -36.68,661.68 -39.74,994.81 -1.52,136 -3.05,275.06 -7.64,412.6 -1.53,48.89 -25.97,120.72 0,165.03 l -18.33,91.69 -7.64,265.89 -35.16,586.8 -16.8,209.35 160.45,129.9 c 74.89,-39.73 42.79,-194.08 45.85,-265.9 12.22,-267.42 36.67,-531.78 30.55,-797.68 -7.63,-453.85 -12.22,-913.82 15.29,-1366.14 41.26,-638.76 139.06,-1269.87 174.21,-1907.1 z M 11616.8,7472.53 11754.3,7335 c -18.3,-302.57 -6.1,-606.67 -22.9,-909.24 -47.4,-898.53 -136,-1795.54 -178.8,-2694.08 -18.3,-366.75 -24.4,-735.03 -36.6,-1100.25 -6.2,-174.2 12.2,-394.25 -36.7,-559.29 l -18.4,0 c -30.5,268.95 -183.3,502.75 -293.4,748.78 -70.3,154.34 -119.2,331.6 -165,493.58 -30.6,103.91 -100.9,235.34 -91.7,343.83 l -73.3,192.55 -174.2,504.28 -82.6,192.54 c 12.3,108.5 -87.1,158.92 -120.7,239.92 -21.4,48.9 -10.7,137.53 -10.7,191.01 -4.6,261.31 -12.2,525.67 -9.1,786.98 3,220.05 25.9,441.64 9.1,661.68 -9.1,120.73 0,256.73 18.4,377.46 6.1,41.25 27.5,137.53 3,172.67 l 29.1,238.39 44.3,586.8 c 149.7,-1.54 297.9,-9.17 449.2,-9.17 88.7,0 195.6,12.22 281.2,-16.81 58.1,-21.4 99.3,-62.66 149.8,-99.33 58,-42.78 200.1,-123.78 192.5,-204.77 z m 119.2,293.4 21.4,-97.8 -3.1,-140.59 -157.4,155.87 -99.3,91.69 238.4,-9.17 z m -4217.62,-55.01 -18.34,27.51 c 134.48,58.06 270.48,-27.51 302.57,-165.04 35.14,-145.17 -25.98,-339.25 -165.04,-408.01 -96.27,-47.38 -198.66,41.26 -238.39,123.78 -62.65,122.24 -9.17,359.11 119.2,421.76 z m 3960.92,51.96 3,-4.59 c -4.6,0 -10.7,4.59 -3,4.59 z m -4850.29,-15.29 c 250.61,33.62 343.83,-351.46 250.61,-522.61 -59.6,-108.5 -236.86,-140.59 -333.13,-61.13 -36.68,27.51 -67.24,65.71 -88.63,106.97 -24.45,47.38 -30.57,128.36 -30.57,183.38 -1.53,68.76 29.04,200.18 102.39,230.75 33.61,13.75 74.87,-22.93 105.44,-3.07 24.45,16.82 3.06,47.38 -6.11,65.71 z m 5583.79,-27.5 -18.4,-27.51 18.4,27.51 z m 64.2,0 -9.2,-9.17 9.2,9.17 z m -3447.49,-18.34 -9.17,-9.17 9.17,9.17 z m 3346.59,-36.68 -9.2,-9.16 9.2,9.16 z m -7875.96,-128.36 -9.16,-9.17 9.16,9.17 z m 3236.57,-44.31 c -91.68,-15.28 -47.37,-230.75 61.13,-218.53 171.14,16.82 65.7,238.39 -61.13,218.53 z m 4199.29,-1.53 -9.2,-9.17 9.2,9.17 z m -8279.38,-18.34 -9.17,-9.17 9.17,9.17 z m 3151,-9.17 c -113.09,-50.43 12.22,-278.11 137.53,-215.46 157.39,77.93 -19.87,268.94 -137.53,215.46 z m -3187.67,-18.33 -9.17,-9.17 9.17,9.17 z m 6601.45,-73.35 -9.1,-9.17 9.1,9.17 z m -6638.13,-9.17 -9.17,-9.17 9.17,9.17 z m 1723.73,0 -9.18,-9.17 9.18,9.17 z m 4969.5,0 -3.1,-235.34 -15.3,-534.84 -36.7,-1045.24 -19.8,-319.37 -7.66,-194.08 c -64.18,16.81 -136,42.79 -201.71,42.79 -129.9,1.53 -227.69,-58.07 -339.25,-113.08 -47.37,-22.92 -100.85,-30.56 -146.7,-55.01 -105.44,-55.02 -184.9,-157.39 -250.61,-253.67 -84.04,-119.19 -122.25,-259.78 -180.32,-391.2 l -9.17,0 3.05,275.06 6.12,545.54 7.64,673.91 1.53,210.88 9.17,0 0,-27.51 c 64.18,-27.51 85.57,-30.56 155.87,-18.34 l -9.17,27.51 c 65.71,1.53 111.56,94.74 145.17,146.7 85.58,129.89 168.1,258.26 246.03,392.73 29.03,50.42 80.99,96.26 85.57,157.39 l 126.84,174.21 327.02,414.13 105.48,126.83 z m -7481.74,-18.34 0,-18.34 -18.34,0 18.34,18.34 z m 705.99,-100.86 -9.17,-9.17 9.17,9.17 z m 1026.9,-18.33 -9.17,-9.17 9.17,9.17 z m 7454.15,0 -9.1,-9.17 9.1,9.17 z m -3264.03,-45.85 -9.17,-9.17 9.17,9.17 z m -1256.12,-55.01 c 38.21,-108.49 -76.4,-331.61 -136,-421.76 -25.98,-39.73 -77.94,-79.47 -87.1,-126.83 -7.65,-33.63 35.14,-61.13 67.23,-56.55 42.79,7.64 87.11,62.65 113.08,94.74 30.57,36.68 45.84,82.52 79.46,116.14 3.06,114.61 85.58,212.42 88.64,328.55 1.52,82.52 -62.66,105.44 -125.31,65.71 z m -4015.91,-18.34 -9.17,-9.17 9.17,9.17 z m -907.71,-9.17 -9.17,-9.16 9.17,9.16 z m 816.02,0 -9.17,-9.16 9.17,9.16 z m 5923.01,-9.16 9.17,-9.17 -9.17,9.17 z m -6766.54,-27.51 -9.16,-9.17 9.16,9.17 z m 9819.78,-18.34 c 76.4,-48.9 102.3,-187.96 145.1,-265.89 64.2,-119.2 85.6,-247.56 114.6,-375.92 58.1,-253.67 102.4,-504.28 123.8,-762.54 55,-667.79 143.7,-1332.52 181.9,-2001.84 32.1,-554.71 45.8,-1165.96 239.9,-1691.64 71.8,-195.59 151.3,-380.5 273.5,-550.12 44.3,-62.65 107,-108.49 151.3,-168.09 77.9,-106.97 220.1,-296.462 356.1,-327.021 l 110,-100.859 c -527.2,45.843 -1042.2,223.11 -1532.7,421.77 -175.8,70.29 -322.5,184.9 -432.5,337.71 -19.9,27.5 -64.2,45.84 -74.9,76.41 -35.1,103.91 1.6,265.89 3.1,374.39 7.6,311.74 15.3,623.47 39.7,935.21 10.7,145.17 67.3,353 26,495.11 32.1,0 32.1,165.04 39.7,201.72 32.1,189.48 50.5,411.06 42.8,605.13 -3,35.15 32.1,146.7 0,165.04 l 0,9.17 18.4,0 0,9.17 -18.4,0 0,9.17 18.4,0 c -33.7,131.41 24.4,302.57 29,438.57 15.3,426.34 74.9,849.64 77.9,1275.98 1.5,137.53 61.1,345.36 12.2,476.78 l 27.6,-9.17 c 0,120.72 -23,308.68 27.5,421.76 z m 100.8,-9.17 -9.2,-9.17 9.2,9.17 z m 18.4,0 -9.2,-9.17 9.2,9.17 z m 27.5,-18.34 -9.2,-9.16 9.2,9.16 z m -4410.21,-174.2 c 7.64,24.45 19.87,68.76 42.79,87.1 30.56,24.46 87.1,-13.75 87.1,-50.43 0,-58.06 -96.27,-47.37 -129.89,-36.67 z m 4419.31,36.67 -9.1,-9.17 9.1,9.17 z m -9177.89,-64.18 -9.17,-9.17 9.17,9.17 z m 18.33,0 -9.16,-9.17 9.16,9.17 z m 9.17,-21.39 c 6.12,0 0,-4.58 -4.58,-4.58 l 4.58,4.58 z m 9260.49,-15.28 -9.2,-9.17 9.2,9.17 z m -8031.88,-9.17 -9.16,-9.17 9.16,9.17 z m 3511.64,-9.17 -9.17,-9.17 9.17,9.17 z m 1714.56,0 -9.18,-9.17 9.18,9.17 z m -5253.7,-45.84 -9.17,-9.17 9.17,9.17 z m 7747.58,-45.85 -9.2,-9.17 9.2,9.17 z m -9746.37,-55.01 -9.17,-9.17 9.17,9.17 z m 0,-91.69 -9.17,-9.17 9.17,9.17 z m 5354.55,-9.17 45.85,-36.67 -45.85,36.67 z m -5354.55,-18.33 -9.17,-9.17 9.17,9.17 z m 623.48,-64.19 -9.17,-9.16 9.17,9.16 z m -45.85,-9.16 -9.17,-9.17 9.17,9.17 z m 4850.27,-73.35 -146.7,-9.17 -27.5,-45.85 18.33,64.19 c 48.9,22.92 120.73,45.84 155.87,-9.17 z M 2934,6298.93 l -9.17,-9.17 9.17,9.17 z m 9122.9,0 -9.2,-9.17 9.2,9.17 z m -9168.74,-27.5 -9.17,-9.17 9.17,9.17 z m 18.33,0 -9.17,-9.17 9.17,9.17 z m -531.78,-9.17 -9.17,-9.17 9.17,9.17 z m 10149.79,-27.51 -9.2,-9.17 9.2,9.17 z m -733.5,-9.17 -9.2,-9.17 9.2,9.17 z m -8921.18,-27.51 9.17,-27.5 -9.17,0 0,27.5 z m -18.34,-18.33 -9.17,-9.17 9.17,9.17 z m 45.84,0 -9.16,-9.17 9.16,9.17 z m -18.33,-27.51 9.17,-18.34 -18.34,0 9.17,18.34 z m 6023.87,-110.02 -9.17,-36.68 -9.17,0 0,36.68 18.34,0 z m 229.22,0 -9.17,-9.17 9.17,9.17 z m -4795.26,-9.17 9.17,-18.34 -18.34,0 9.17,18.34 z m 4767.75,0 -9.17,-9.17 9.17,9.17 z m -3456.62,-18.34 -9.17,-9.17 9.17,9.17 z m 6381.45,-9.17 -9.2,-9.17 9.2,9.17 z m -9214.6,-9.17 -18.33,-18.33 18.33,18.33 z m 9737.2,-9.16 -9.1,-9.17 9.1,9.17 z m -522.6,-18.34 -9.2,-9.17 9.2,9.17 z m -9260.44,-9.17 -9.17,-9.17 9.17,9.17 z m -100.85,-18.34 -9.17,-9.17 9.17,9.17 z m 137.53,0 -9.17,-9.17 9.17,9.17 z m 2842.31,0 -9.17,-9.17 9.17,9.17 z m 1916.27,-119.19 c -68.77,-36.68 -143.65,-45.85 -220.05,-36.68 10.7,36.68 32.09,106.97 68.76,126.83 47.38,27.51 140.59,-45.84 151.29,-90.15 z m -1952.94,91.68 -9.17,-9.16 9.17,9.16 z m 6977.42,-192.54 -9.2,-9.17 9.2,9.17 z m -7234.15,-9.17 -9.17,-9.17 9.17,9.17 z m 7270.85,-18.34 -9.2,-9.16 9.2,9.16 z m -5372.92,-18.33 -9.17,-9.17 9.17,9.17 z m 4758.62,-192.55 -9.2,-9.16 9.2,9.16 z m 650.9,-73.35 -9.1,-9.17 9.1,9.17 z m -9.1,-45.84 -9.2,-9.17 9.2,9.17 z m 18.3,-18.34 -9.2,-9.17 9.2,9.17 z m -10324,-128.36 -9.17,-9.17 9.17,9.17 z m -100.86,-27.51 -9.16,-9.17 9.16,9.17 z m 1810.83,-7.63 -1.53,-4.59 1.53,4.59 z m 8577.33,7.63 -9.1,-9.17 9.1,9.17 z m 64.2,-192.54 -9.1,-9.17 9.1,9.17 z m -10003.09,-36.68 -9.16,-9.16 9.16,9.16 z m 10003.09,0 -9.1,-9.16 9.1,9.16 z m -27.5,-58.06 c 6.1,0 0,-4.59 -4.6,-4.59 l 4.6,4.59 z m -9920.57,-97.8 9.16,-9.17 -9.16,9.17 z m 1091.08,-36.68 -9.17,-9.17 9.17,9.17 z m 27.5,-9.17 -9.17,-9.17 9.17,9.17 z M 6454.8,1146.09 6243.92,1127.76 c -29.04,76.4 -12.22,174.2 -16.81,256.72 -13.75,230.75 -18.33,463.02 -10.7,693.77 9.17,259.78 -9.16,522.62 -9.16,782.4 -1.54,281.18 22.92,566.93 27.5,849.64 4.59,221.57 32.09,443.16 27.51,663.21 -1.53,76.4 4.58,191.01 -55.01,247.55 l 165.03,73.35 c 12.22,19.87 74.88,79.47 97.81,41.26 24.44,-44.31 0,-171.15 -1.54,-226.16 0,-200.19 12.23,-403.43 0,-605.14 -27.5,-496.64 -15.28,-993.28 -44.31,-1489.93 -18.34,-307.15 -22.92,-612.77 0,-918.39 7.64,-116.14 -3.06,-239.92 30.56,-349.95 z m 5244.5,3575.82 -9.1,-9.17 9.1,9.17 z m -5446.21,-18.34 -9.17,-9.17 9.17,9.17 z m -2530.58,-18.34 -9.17,-9.17 9.17,9.17 z m 2842.31,0 -9.16,-9.17 9.16,9.17 z m -2897.32,-9.17 -9.17,-9.17 9.17,9.17 z m 9049.6,-9.17 -9.2,-9.16 9.2,9.16 z m -2218.9,-55.01 -9.1,-9.17 9.1,9.17 z m -64.2,-64.18 -9.1,-9.17 9.1,9.17 z m 155.9,-9.17 -9.2,-9.17 9.2,9.17 z m -8673.63,-18.33 -9.17,-9.17 9.17,9.17 z m 8572.83,0 -9.2,-9.17 9.2,9.17 z m -3960.95,-27.51 -9.17,-9.17 9.17,9.17 z m 3924.25,0 -9.2,-9.17 9.2,9.17 z m 100.8,0 -9.1,-9.17 9.1,9.17 z m 2191.4,0 -9.2,-9.17 9.2,9.17 z m -834.4,-36.68 -9.2,-9.17 9.2,9.17 z m -6033.03,-9.17 9.17,-9.16 -9.17,9.16 z m 6051.33,-27.5 -9.1,-9.17 9.1,9.17 z m -8471.88,-9.17 -9.17,-9.17 9.17,9.17 z m 5382.06,-27.51 -9.17,-9.16 9.17,9.16 z m 2851.52,0 -9.2,-9.16 9.2,9.16 z m -9810.61,-9.16 -9.16,-9.18 9.16,9.18 z m 7215.81,-36.68 -9.17,-9.17 9.17,9.17 z m 9.17,-36.68 -9.17,-9.16 9.17,9.16 z m 2787.33,-18.33 -9.2,-9.17 9.2,9.17 z m -3016.55,-55.02 -9.17,-9.16 9.17,9.16 z m 1558.65,0 -9.1,-9.16 9.1,9.16 z m 1457.9,-27.5 -9.2,-9.17 9.2,9.17 z m -2979.87,-9.17 -9.17,-9.17 9.17,9.17 z m 3832.57,-4.58 3,-1.54 c -4.6,-1.52 -10.7,1.54 -3,1.54 z m 36.6,-41.26 -9.1,-9.17 9.1,9.17 z m -27.5,-9.17 -9.1,-9.17 9.1,9.17 z m -834.3,-100.86 -9.2,-9.17 9.2,9.17 z m 825.2,0 -9.2,-9.17 9.2,9.17 z m -1971.3,-36.68 -9.2,-9.16 9.2,9.16 z m -1888.78,-82.51 -9.17,-9.17 9.17,9.17 z m 18.34,0 -9.17,-9.17 9.17,9.17 z m 2961.54,0 -9.2,-9.17 9.2,9.17 z m -2970.71,-55.02 -9.17,-9.16 9.17,9.16 z m 1897.91,-18.33 -9.1,-9.17 9.1,9.17 z m -7985.96,-27.51 -9.17,-9.17 9.17,9.17 z m 7334.96,-9.17 -9.1,-9.17 9.1,9.17 z m -4465.14,-36.67 -9.17,-9.17 9.17,9.17 z m 27.5,0 -9.17,-9.17 9.17,9.17 z m 5157.44,-15.29 -1.5,-7.64 1.5,7.64 z m 1013.1,-39.73 -9.1,-9.16 9.1,9.16 z m -6143.03,-27.5 -9.17,-9.17 9.17,9.17 z m 4703.53,0 -9.1,-9.17 9.1,9.17 z m -4740.21,-27.51 -9.16,-9.17 9.16,9.17 z m -4080.09,-9.17 -9.17,-9.16 9.17,9.16 z m 11204.2,-27.5 -9.2,-9.17 9.2,9.17 z m -10351.51,-9.17 -9.16,-9.17 9.16,9.17 z m 348.41,-64.18 -9.16,-9.17 9.16,9.17 z m 1256.13,-27.51 -9.17,-9.17 9.17,9.17 z m 4529.36,-18.34 -9.17,-9.17 9.17,9.17 z m 2283.01,-27.5 -9.2,-9.17 9.2,9.17 z m -9361.29,-36.68 -9.17,-9.17 9.17,9.17 z m 9452.99,-100.85 -9.2,-9.17 9.2,9.17 z m -5042.82,-73.36 -9.17,-9.16 9.17,9.16 z m 2631.43,-36.67 -9.16,-9.17 9.16,9.17 z m 3227.39,0 -9.2,-9.17 9.2,9.17 z m -3209.05,-73.35 -9.17,-9.17 9.17,9.17 z m 18.34,-73.35 -9.17,-9.17 9.17,9.17 z m 2484.71,-45.84 -9.1,-9.17 9.1,9.17 z m -4941.94,-50.43 c 6.12,0 0,-3.05 -3.05,-1.53 l 3.05,1.53 z m 2393.05,-41.26 6.11,-279.65 0,-751.84 12.23,-279.64 9.16,-155.87 -18.33,0 -165.04,169.62 -137.53,105.44 c -191.01,29.04 -74.89,246.03 -64.18,348.41 l 27.5,9.17 -9.17,36.68 110.03,229.22 210.88,568.46 18.34,0 z M 5840.5,2934 l -9.18,-9.17 9.18,9.17 z m 265.89,-18.34 -9.17,-9.17 9.17,9.17 z m -3612.49,-27.5 -9.17,-9.17 9.17,9.17 z m 3346.6,-9.17 -9.18,-9.17 9.18,9.17 z m 9.16,-18.34 -18.34,-18.34 18.34,18.34 z m -36.67,-128.36 -9.17,-9.17 9.17,9.17 z m 7050.81,-73.35 -9.2,-9.17 9.2,9.17 z m -7399.23,-55.01 -9.16,-9.17 9.16,9.17 z m 7435.83,-18.34 -9.1,-9.17 9.1,9.17 z m -7435.83,-9.17 -9.16,-9.17 9.16,9.17 z m 2897.33,0 -9.17,-9.17 9.17,9.17 z m -6179.74,-45.85 -9.17,-9.16 9.17,9.16 z m -9.17,-27.5 -9.17,-9.17 9.17,9.17 z m 8270.21,-9.17 -9.2,-9.17 9.2,9.17 z m 1347.8,0 -9.2,-9.17 9.2,9.17 z m -3502.45,-27.51 -9.17,-9.16 9.17,9.16 z m -6198.07,-82.51 0,-9.17 -45.85,-18.34 45.85,27.51 z m 18.33,0 -9.17,-9.17 9.17,9.17 z m -91.68,-64.18 -9.17,-9.18 9.17,9.18 z m -64.18,-18.34 -18.34,-18.34 18.34,18.34 z m 36.67,-18.34 -9.17,-9.17 9.17,9.17 z m -27.51,-9.17 -9.16,-9.17 9.16,9.17 z m 45.85,0 -9.17,-9.17 9.17,9.17 z m -1045.241,-36.67 -9.168,-9.17 9.168,9.17 z m 36.676,-18.34 -9.168,-9.17 9.168,9.17 z m 843.525,-27.51 9.17,-27.51 -9.17,27.51 z m 36.67,-27.51 -9.16,-9.16 9.16,9.16 z m -36.67,-9.16 -9.17,-9.17 9.17,9.17 z m 9902.28,0 -9.2,-9.17 9.2,9.17 z m -9938.96,-36.68 0,-18.34 -18.33,18.34 18.33,0 z m -27.5,-45.84 0,-9.17 -27.51,0 27.51,9.17 z m -45.85,-9.17 -9.16,-9.17 9.16,9.17 z m 9737.21,-21.39 3.1,-4.59 c -4.6,0 -10.7,4.59 -3.1,4.59 z m -9810.56,-24.45 -9.16,-9.17 9.16,9.17 z m 27.51,0 9.17,-18.34 -9.17,18.34 z m -834.355,-9.17 -9.172,-9.17 9.172,9.17 z m 7124.115,-45.85 9.17,-18.34 -9.17,18.34 z m -3062.36,-9.16 0,-18.34 -18.34,0 18.34,18.34 z m 3089.87,-9.18 18.34,-9.16 c -6.12,-267.43 314.79,-291.87 423.29,-485.95 22.92,-41.26 88.63,-268.95 -39.74,-212.41 -25.97,12.23 -21.39,45.84 -32.08,67.24 -18.34,39.73 -55.02,62.65 -76.41,99.33 -90.16,-38.21 -16.81,-119.19 9.17,-183.37 -142.12,-62.66 -108.5,206.29 -275.07,165.03 9.18,-99.32 -24.45,-200.18 -137.53,-165.03 38.21,194.07 -61.12,294.93 -210.88,394.25 l 110.03,119.19 210.88,210.88 z m -6390.62,-9.16 -9.17,-9.17 9.17,9.17 z m 2888.16,-9.17 -9.17,-9.17 9.17,9.17 z m 4135.1,-36.68 -9.16,-9.17 9.16,9.17 z m 3108.24,0 -9.2,-9.17 9.2,9.17 z m -10241.52,-45.84 -9.17,-9.17 9.17,9.17 z m -783.934,-35.15 -1.531,-4.58 1.531,4.58 z m 673.904,-1.53 -9.17,-9.17 9.17,9.17 z m 6399.79,-27.5 -9.17,-9.17 9.17,9.17 z m -18.34,-9.17 -9.17,-9.17 9.17,9.17 z m -7050.768,-9.17 -9.168,-9.17 9.168,9.17 z m 550.128,-64.18 -9.17,-9.17 9.17,9.17 z m 5253.69,-9.17 c 51.96,-80.99 239.92,-197.13 339.24,-155.87 4.59,-44.31 125.31,-55.01 165.04,-55.01 -33.62,-120.72 45.85,-197.13 100.86,-293.4 73.35,36.68 134.48,6.11 210.88,-18.34 l -229.22,-13.75 -559.29,-13.75 -9.17,64.18 c 106.97,-27.51 140.58,-7.64 247.55,36.67 -16.8,111.56 -77.93,103.91 -165.03,61.13 -21.39,-10.7 -59.6,-47.37 -80.99,-22.92 -19.87,22.92 -10.7,88.62 -10.7,117.66 -1.53,85.57 0,183.37 -27.51,265.89 l 18.34,-9.16 0,36.67 z m 3915.05,-64.18 -9.2,-9.17 9.2,9.17 z m -2658.93,-458.44 -366.75,-9.17 9.17,45.85 c -70.3,41.26 -221.58,84.05 -267.43,149.75 -80.98,116.14 59.6,146.7 137.53,160.45 165.04,29.04 311.74,88.64 446.22,-50.43 79.47,-80.98 27.51,-200.18 41.26,-296.45 z m -6830.719,385.09 -9.168,-9.17 9.168,9.17 z m -412.594,-45.84 -9.168,-9.17 9.168,9.17 z m -45.844,-12.23 c 6.114,0 0,-4.58 -3.054,-4.58 l 3.054,4.58 z m -9.168,-33.62 -9.172,-9.17 9.172,9.17 z m 2924.835,0 -9.17,-9.17 9.17,9.17 z m -2906.499,-9.17 -9.168,-9.17 9.168,9.17 z m 2952.339,0 9.17,-9.17 -9.17,9.17 z m 8316.08,-9.17 -9.2,-9.17 9.2,9.17 z m -1577,-82.51 -9.2,-9.18 9.2,9.18 z m -9737.262,-9.18 -9.168,-9.16 9.168,9.16 z m 11635.162,-36.67 -9.2,-9.17 9.2,9.17 z m -5547.11,-91.68 -9.17,-9.18 9.17,9.18 z m 1586.19,-18.34 9.17,-36.68 -36.67,-9.17 27.5,45.85 z m 4226.82,-18.34 -9.2,-9.17 9.2,9.17 z m -4180.97,-64.18 -9.17,-9.17 9.17,9.17 z m 3025.67,-9.17 -9.2,-9.17 9.2,9.17 z m -8279.37,-18.34 -9.17,-9.17 9.17,9.17 z m 5464.58,0 -9.17,-9.17 9.17,9.17 z m 2328.89,0 -9.2,-9.17 9.2,9.17 z m 174.2,-9.17 -9.2,-9.17 9.2,9.17 z m 155.8,0 -9.1,-9.17 9.1,9.17 z m 155.9,0 -9.2,-9.17 9.2,9.17 z m -8288.54,-9.17 -9.17,-9.17 9.17,9.17 z m 2610.04,-6.11 -4.58,-7.64 4.58,7.64 z m 4083.15,6.11 -9.17,-9.17 9.17,9.17 z m 3928.85,-380.498 7.6,-1.531 -7.6,1.531 z M 2191.33,669.32 l -9.17,-9.172 9.17,9.172 z m 9773.87,-128.363 -9.1,-9.168 9.1,9.168 z m -1457.8,-36.676 -9.2,-9.168 9.2,9.168 z m -1430.34,-9.168 -9.17,-9.168 9.17,9.168 z m -6894.9,-18.34 -9.17,-9.168 9.17,9.168 z m 5684.63,-9.168 -9.17,-9.167 9.17,9.167 z m 18.34,0 -9.17,-9.167 9.17,9.167 z m 513.45,0 -9.17,-9.167 9.17,9.167 z m -2117.99,-18.335 -9.16,-9.168 9.16,9.168 z m -834.35,-64.184 -9.17,-9.168 9.17,9.168 z m -3007.35,-36.672 -9.17,-9.172 9.17,9.172"
         id="path14"
         style="fill:#231f20;fill-opacity:1;fill-rule:nonzero;stroke:none" />
</g>
</g>
</svg>
