<?xml version="1.0" encoding="UTF-8" standalone="no"?>
<svg
   xmlns="http://www.w3.org/2000/svg"
   version="1.1"
   view-box="0 0 150 141"
   width="150"
   height="141"
   id="svg2">
  <defs
     id="defs6" />
  <rect
     width="37.660923"
     height="0.56210333"
     x="-9.1810207"
     y="38.322456"
     id="rect2989"
     style="fill:#daa520;fill-opacity:0;stroke-linejoin:round" />
  <rect
     width="195.23723"
     height="153.82895"
     x="-6.9326077"
     y="-0.27530384"
     id="rect2995"
     style="fill:#daa520;fill-opacity:0;stroke-linejoin:round" />
  <rect
     width="182.30885"
     height="113.17014"
     x="-6.3705044"
     y="28.204597"
     id="rect2997"
     style="fill:#daa520;fill-opacity:0;stroke-linejoin:round" />
  <rect
     width="136.40375"
     height="122.53853"
     x="31.665155"
     y="27.829863"
     id="rect2999"
     style="fill:#daa520;fill-opacity:0;stroke-linejoin:round" />
  <path
     d="m 73.65331,139.76899 c -2.2,-0.45505 -6.335942,-0.8533 -9.190983,-0.885 -2.855041,-0.0317 -5.481117,-0.52708 -5.835726,-1.10085 -0.354609,-0.57377 0.631333,-2.64934 2.190983,-4.61239 5.082918,-6.39759 5.486768,-7.16523 5.159197,-9.80665 l -0.323471,-2.60835 -5.09072,2.54538 c -2.799896,1.39996 -7.768718,4.96883 -11.041826,7.93082 -6.803822,6.15711 -10.725691,7.58077 -20.905564,7.58883 -9.435861,0.007 -14.823161,-2.6703 -18.9502605,-9.41931 -6.77799,-11.084 -2.57902,-22.84473 12.7783995,-35.790535 2.63452,-2.220812 5.03073,-3.797144 5.324913,-3.502961 0.294183,0.294183 -0.662336,2.34399 -2.125597,4.555128 -3.212226,4.854009 -4.145186,10.645998 -2.511957,15.594748 2.557709,7.74993 9.306588,9.98861 14.526249,4.81851 4.778814,-4.73344 5.659881,-8.20533 4.896184,-19.293673 -0.522158,-7.581372 -0.370318,-10.286945 0.646043,-11.511585 1.145217,-1.379902 0.884092,-1.948805 -1.891565,-4.121083 -3.246115,-2.540467 -6.889085,-8.757054 -9.055426,-15.452735 -3.016009,-9.321817 -8.419411,-8.684395 -13.212714,1.558663 -3.24467,6.933688 -8.86551,28.028822 -8.8783,33.320418 -0.0106,4.401235 -1.7047695,4.110695 -2.9154395,-0.5 C -0.16385053,70.85765 -0.02904053,71.584252 0.61243947,63.326365 1.4967295,51.942669 3.4953595,44.249946 8.0706495,34.619771 13.262559,23.691714 14.815969,22.322951 22.008299,22.338821 c 3.104755,0.0069 6.909109,0.3596 8.454117,0.783886 3.976624,1.092053 11.308704,8.161857 15.767683,15.203658 2.376344,3.752818 5.171541,6.73497 7.463208,7.962377 2.015152,1.079307 5.381147,3.913258 7.479989,6.297668 l 3.816077,4.335292 3.639975,-1.520878 c 6.068209,-2.53546 9.580374,-5.594256 13.645901,-11.884418 2.890185,-4.471678 3.879482,-7.043242 3.883638,-10.095077 0.0086,-6.330853 1.897365,-11.694316 5.347499,-15.185293 1.730808,-1.751297 3.293308,-4.472413 3.472223,-6.046924 0.460505,-4.0526175 3.644867,-8.799781 6.900141,-10.286552 6.46693,-2.953618 18.06431,-2.17477296 12.43972,0.835415 -2.31769,1.240392 -4.44615,6.1080756 -3.99715,9.141318 0.37953,2.563999 1.71784,3.407338 7.29919,4.59961 3.89716,0.8325 4.31822,1.298545 7.54184,8.347462 0.45454,0.993915 3.01482,1.765149 7.58847,2.285883 9.9679,1.134896 14.59813,2.783609 16.28242,5.797778 1.29188,2.311924 1.24265,2.995563 -0.4681,6.5 -2.21596,4.539348 -8.79346,8.416339 -14.27871,8.416339 -3.38326,0 -3.41154,-0.03486 -1.62757,-2.006131 2.29241,-2.533089 1.6572,-3.176419 -2.34583,-2.375813 -3.30084,0.660168 -4.38009,2.381944 -1.49305,2.381944 0.91666,0 1.39541,0.271255 1.06388,0.602788 -0.33154,0.331533 -3.56768,-0.383865 -7.19144,-1.589773 l -6.58865,-2.192562 2.91891,-3.324456 c 3.16151,-3.600758 5.50032,-9.425988 4.91349,-12.237907 -0.28489,-1.365109 -0.69581,-1.087509 -1.83836,1.24191 -1.26818,2.585572 -2.02216,3 -5.45797,3 -3.748,0 -4.03993,-0.216076 -4.879,-3.611236 -0.67655,-2.737562 -0.4951,-4.407772 0.75,-6.903638 1.98245,-3.973917 1.98329,-3.985126 0.29746,-3.985126 -3.83549,0 -6.48798,-9.767007 -3.47166,-12.783333 1.93282,-1.932821 0.20562,-2.500137 -3.69372,-1.213237 -4.43684,1.464289 -7.480679,6.0372692 -7.485872,11.24657 -0.003,2.976978 -0.384067,3.75 -1.84875,3.75 -5.504363,0 -10.966454,16.569963 -6.904988,20.947179 1.019434,1.098688 0.933115,1.23586 -0.467975,0.743674 -2.298027,-0.807271 -3.280444,1.003662 -1.625957,2.997197 1.154015,1.390503 1.066926,1.525037 -0.66391,1.025607 -1.535117,-0.442955 -2.852483,0.551901 -5.742158,4.336398 -2.0625,2.701177 -3.764312,5.932442 -3.781803,7.180588 -0.02854,2.036162 -0.161271,2.099158 -1.291732,0.613052 -1.638868,-2.154461 -4.63022,-0.621483 -4.792466,2.455995 -0.09371,1.777413 -0.206012,1.85299 -0.584318,0.393224 -0.273652,-1.055935 -1.160691,-1.654753 -2.133999,-1.44061 -0.916125,0.201562 -1.495945,1.014751 -1.288489,1.807086 1.145376,4.374523 0.346594,10.161267 -1.682749,12.19061 -2.729222,2.729222 -3.505846,1.941736 -2.090137,-2.11937 C 65.964298,61.192604 61.724808,52.589749 52.538954,47.20648 49.648972,45.512838 47.025658,42.731672 44.687386,38.88246 40.567549,32.100478 33.442174,25.204884 29.462416,24.148471 23.218298,22.490991 18.433559,23.183689 15.284059,26.201104 8.9670495,32.253183 2.1533095,53.325828 2.1533095,66.810186 c 0,4.850999 4.87298,27.222487 6.22388,28.57339 0.22812,0.228125 0.99555,-2.616423 1.7053995,-6.321219 1.55771,-8.129987 5.46768,-20.02163 8.69326,-26.439411 1.9787,-3.936911 2.94455,-4.812341 5.926621,-5.371781 4.327826,-0.811905 7.755896,1.872573 9.542041,7.47225 1.936327,6.07051 6.160679,13.146116 9.096876,15.236873 1.53456,1.092703 4.707517,2.629111 7.051016,3.41424 l 4.260907,1.427507 -3.916028,-0.451907 c -4.849931,-0.559679 -6.507302,1.253855 -6.552169,7.169533 -0.02443,3.221741 0.483135,4.553972 2.190703,5.75 1.826875,1.279593 1.915881,1.556704 0.5,1.556704 -2.455524,0 -2.432824,7.446625 0.02749,9.019105 1.531106,0.97859 1.4618,1.05729 -0.554079,0.62917 -1.861546,-0.39534 -2.621964,0.17729 -3.959171,2.98144 -1.375652,2.88477 -1.439242,3.81639 -0.376633,5.5179 1.626344,2.60419 0.872174,3.44181 -1.21746,1.35218 -1.217658,-1.21766 -2.059037,-1.34733 -3.553306,-0.54762 -1.076824,0.5763 -3.981805,1.04782 -6.455511,1.04782 -3.772152,0 -4.808853,-0.44359 -6.426936,-2.75 -2.963681,-4.22441 -4.499841,-10.0166 -3.806491,-14.35258 0.37128,-2.321838 0.22359,-3.897415 -0.36534,-3.897415 -1.9638,0 -9.03078,10.246445 -10.5157295,15.246825 -1.98738,6.69225 -1.92194,8.29006 0.5485895,13.3935 4.63462,9.57384 12.236,12.72949 25.292125,10.49982 6.247233,-1.06687 7.408545,-1.67115 13,-6.7644 3.37697,-3.07608 8.502446,-6.76276 11.389946,-8.19263 2.8875,-1.42986 5.25,-2.97836 5.25,-3.4411 0,-2.09678 -3.562182,-7.49829 -6.64887,-10.08202 -1.866067,-1.562 -4.058463,-4.12715 -4.87199,-5.70034 -1.745274,-3.374981 -1.816022,-3.959655 -0.47914,-3.959655 0.55,0 1,0.649906 1,1.444235 0,0.79433 1.148083,2.70683 2.551295,4.25 l 2.551296,2.80576 -0.775694,-3.5 c -0.933882,-4.213757 -0.929062,-8.533331 0.01367,-12.249995 0.970958,-3.827947 2.259433,-3.437081 2.259433,0.68541 0,1.9073 -0.42121,3.175088 -0.946941,2.850169 -2.108579,-1.303174 0.296693,8.656386 3.915842,16.214416 5.136496,10.72677 5.170901,14.67082 0.181099,20.76021 -2.0625,2.51701 -3.75,4.83815 -3.75,5.15809 0,0.31993 2.006618,0.5817 4.459152,0.5817 2.452533,0 7.837725,0.5025 11.967093,1.11667 7.919106,1.17782 14.992631,0.43623 11.073755,-1.16097 -1.1,-0.44832 -3.376492,-0.84676 -5.05887,-0.88541 -1.682379,-0.0387 -3.932379,-0.78203 -5,-1.65193 -1.913958,-1.55949 -1.913134,-1.5723 0.05887,-0.91492 1.1,0.36669 3.575,0.86153 5.5,1.09965 l 3.5,0.43293 -3.97584,-1.54385 c -2.186712,-0.84912 -4.340022,-1.90803 -4.785133,-2.35314 -0.445111,-0.44511 0.105697,-2.94388 1.224019,-5.55282 2.072972,-4.83605 4.031577,-18.07638 4.006787,-27.086205 -0.01492,-5.422871 -2.734153,-12.516353 -6.281901,-16.387177 -1.443389,-1.574832 -1.677489,-2.234551 -0.687932,-1.938665 2.644112,0.79061 7.666023,9.372563 8.333284,14.240764 0.349989,2.553446 0.347616,8.058273 -0.0053,12.232953 -0.63424,7.50305 -0.617285,7.5773 1.474538,6.45779 4.965865,-2.65765 11.109353,-13.85195 11.921722,-21.723047 0.304384,-2.949195 0.03094,-8.629274 -0.607656,-12.622396 -0.638569,-3.993122 -1.210354,-9.645452 -1.270607,-12.560732 l -0.109552,-5.300511 -3.118214,0.657417 -3.118215,0.657417 3.5,-2.391268 c 3.856367,-2.634746 5.801969,-7.857297 2.211238,-5.935596 -3.277247,1.753929 -3.408408,-0.08883 -0.147472,-2.071922 1.681122,-1.022351 3.747639,-3.536467 4.59226,-5.586924 3.164554,-7.682466 7.686264,-9.96234 13.343974,-6.728103 3.02573,1.729662 2.08208,1.950149 -1.45295,0.339485 -5.2497,-2.391925 -9.74008,2.484262 -12.438084,13.506743 -1.100569,4.496293 -1.006801,5.152389 1.298584,9.086238 2.09333,3.571989 3.76352,4.824523 10.60093,7.949985 4.99025,2.281103 10.61202,4.010453 14.59658,4.490148 6.0871,0.732817 6.81652,1.109382 12.01706,6.203787 5.54903,5.43579 8.52667,10.061594 9.7472,15.142427 1.67707,6.981252 -4.48987,19.930342 -13.88534,29.155862 -6.05904,5.94945 -15.8778,10.27906 -25.62031,11.29736 l -6.08138,0.63563 3.56422,-4.96114 c 4.7856,-6.6612 9.65349,-17.74084 9.65349,-21.97197 0,-4.83266 -2.66107,-5.61629 -10.98671,-3.23537 -3.57881,1.02344 -7.183357,1.84713 -8.010108,1.8304 -2.76492,-0.0559 1.006037,-1.60271 8.630168,-3.53994 6.75185,-1.71559 7.2733,-1.72083 9.75,-0.098 1.83989,1.20554 2.61665,2.58707 2.61665,4.65393 0,3.97142 -3.24625,12.38038 -7.51796,19.47426 -1.93394,3.21163 -3.36259,5.99298 -3.17479,6.18079 0.6438,0.64379 12.19165,-2.73435 17.26242,-5.04984 8.43961,-3.85382 20.3128,-19.13605 22.04976,-28.38068 1.16097,-6.179063 -1.41718,-12.050421 -8.13577,-18.527991 -5.77783,-5.570565 -6.69277,-6.064279 -15.2441,-8.225915 -11.33454,-2.865187 -16.80195,-5.25502 -21.54037,-9.415408 l -3.69919,-3.247975 0.0032,2.853592 c 0.0018,1.569476 0.713082,6.903592 1.580722,11.853592 1.843938,10.519904 1.308188,16.981102 -2.000152,24.121795 -2.795645,6.03411 -8.016851,12.19416 -11.521888,13.59367 -1.478677,0.59042 -2.033358,1.21917 -1.311877,1.48706 0.6875,0.25528 1.25,1.74449 1.25,3.30937 0,3.60799 2.050959,5.65546 7,6.9881 2.150497,0.57907 4.609382,1.75224 5.464189,2.60705 1.570586,1.57059 1.257872,3.39295 -0.582228,3.39295 -0.55,0 -0.721885,-0.45 -0.381966,-1 0.381052,-0.61655 -1.609407,-1.0625 -5.190983,-1.163 l -5.809017,-0.16299 5.5,-0.62929 c 5.026247,-0.57508 5.241589,-0.69725 2.5,-1.41829 -5.888496,-1.54867 -8.592204,-2.9302 -9.667827,-4.94002 -1.073167,-2.00523 -1.112197,-1.99876 -2.337146,0.38715 -2.999454,5.84224 -2.86418,6.73542 1.205071,7.9567 2.089946,0.62725 4.915522,2.04518 6.279059,3.15095 2.411036,1.95525 2.426392,2.04908 0.55887,3.41464 -2.091472,1.52932 -9.54207,1.69042 -16.038027,0.34678 z m 65.54282,-93.965543 c 1.05124,-0.562605 2.4021,-1.939904 3.00191,-3.060663 1.05195,-1.965583 0.99079,-1.985177 -1.72708,-0.553293 -1.54971,0.816448 -3.71765,2.179435 -4.81765,3.028859 -1.84818,1.427174 -1.86217,1.546822 -0.18426,1.576212 0.99866,0.01749 2.67585,-0.42851 3.72708,-0.991115 z m -10.04282,-6.939245 c 0,-0.993048 -6.85931,0.839121 -8.87574,2.37077 -1.09719,0.833412 -0.79349,1.29358 1.5,2.272775 2.60348,1.111545 3.08876,0.99012 5.12574,-1.282563 1.2375,-1.38069 2.25,-2.893132 2.25,-3.360982 z m 6.36021,0.969667 c 1.05809,-1.014443 2.08437,-3.772189 2.38005,-6.395494 0.51974,-4.611093 0.51922,-4.61201 -2.61021,-4.61201 -2.81853,0 -3.13005,0.301768 -3.13005,3.032119 0,1.667665 -0.675,4.647621 -1.5,6.622124 -0.825,1.974503 -1.5,3.790374 -1.5,4.035269 0,0.948434 4.59426,-0.988899 6.36021,-2.682008 z m 6.38979,-0.330584 c 2.90599,-2.616103 3.08749,-8.158342 0.31574,-9.641736 -2.83525,-1.517378 -3.34424,-1.291862 -2.74186,1.214816 0.29739,1.2375 -0.0971,4.05 -0.87653,6.25 -2.24068,6.324094 -1.69997,6.680499 3.30265,2.17692 z m -15.14029,-2.296003 c 5.07967,-2.410463 6.15984,-9.946014 1.3189,-9.201054 -1.51197,0.232675 -2.56402,1.754447 -3.8508,5.570137 -0.97376,2.8875 -1.57014,5.25 -1.32527,5.25 0.24486,0 1.98059,-0.728588 3.85717,-1.619083 z m 21.00089,-3.796281 c -1.01244,-4.033887 -2.6106,-3.036247 -2.6106,1.62965 0,3.895043 0.12345,4.090835 1.62965,2.584635 1.10169,-1.101686 1.41949,-2.467004 0.98095,-4.214285 z m -27.85559,-4.334636 c 0.22641,-0.6875 -0.30084,-1.25 -1.17168,-1.25 -0.87083,0 -1.58333,-0.413196 -1.58333,-0.918213 0,-2.051488 1.29673,-4.081787 2.60699,-4.081787 1.71081,0 1.79349,-1.199517 0.19301,-2.8 -1.80186,-1.801862 -4.59814,-1.445703 -5.76482,0.734259 -1.41219,2.638711 -1.30363,7.397291 0.20314,8.904062 1.50355,1.503554 4.94877,1.136143 5.51669,-0.588321 z m 1.24499,-3.75 c 0,-0.825 -0.45,-1.5 -1,-1.5 -0.55,0 -1,0.675 -1,1.5 0,0.825 0.45,1.5 1,1.5 0.55,0 1,-0.675 1,-1.5 z m -29.25,107.837715 c 0.6875,-0.27741 1.8125,-0.27741 2.5,0 0.6875,0.27741 0.125,0.50439 -1.25,0.50439 -1.375,0 -1.9375,-0.22698 -1.25,-0.50439 z m -2.75,-64.058573 c 1.375,-0.246672 2.9275,-0.86039 3.45,-1.363818 1.577808,-1.520216 2.887041,-1.02636 1.55,0.584676 -0.684689,0.825 -2.652289,1.438718 -4.372445,1.363818 -2.720081,-0.11844 -2.801842,-0.194614 -0.627555,-0.584676 z"
     id="path2987"
     style="fill:#000000" />
</svg>
