<?xml version="1.0" encoding="UTF-8" standalone="no"?>
<!-- Created with Inkscape (http://www.inkscape.org/) -->

<svg
   xmlns:dc="http://purl.org/dc/elements/1.1/"
   xmlns:cc="http://creativecommons.org/ns#"
   xmlns:rdf="http://www.w3.org/1999/02/22-rdf-syntax-ns#"
   xmlns:svg="http://www.w3.org/2000/svg"
   xmlns="http://www.w3.org/2000/svg"
   xmlns:sodipodi="http://sodipodi.sourceforge.net/DTD/sodipodi-0.dtd"
   xmlns:inkscape="http://www.inkscape.org/namespaces/inkscape"
   width="90.703407mm"
   height="102.33842mm"
   viewBox="0 0 321.39003 362.61644"
   id="svg2"
   version="1.1"
   inkscape:version="0.91 r13725"
   sodipodi:docname="vyfuck.svg"
   inkscape:export-filename="/home/husky/Documents/Sonicka_Dokumenty/Vyfuk/Ilu/vyfuck.png"
   inkscape:export-xdpi="90"
   inkscape:export-ydpi="90">
  <defs
     id="defs4" />
  <sodipodi:namedview
     id="base"
     pagecolor="#ffffff"
     bordercolor="#666666"
     borderopacity="1.0"
     inkscape:pageopacity="0.0"
     inkscape:pageshadow="2"
     inkscape:zoom="1.979899"
     inkscape:cx="245.31853"
     inkscape:cy="155.29114"
     inkscape:document-units="pc"
     inkscape:current-layer="g4146"
     showgrid="false"
     inkscape:window-width="1920"
     inkscape:window-height="1145"
     inkscape:window-x="0"
     inkscape:window-y="0"
     inkscape:window-maximized="1"
     fit-margin-top="0"
     fit-margin-left="0"
     fit-margin-right="0"
     fit-margin-bottom="0" />
  <metadata
     id="metadata7">
    <rdf:RDF>
      <cc:Work
         rdf:about="">
        <dc:format>image/svg+xml</dc:format>
        <dc:type
           rdf:resource="http://purl.org/dc/dcmitype/StillImage" />
        <dc:title />
      </cc:Work>
    </rdf:RDF>
  </metadata>
  <g
     inkscape:label="Layer 1"
     inkscape:groupmode="layer"
     id="layer1"
     transform="translate(-33.351801,-116.18901)">
    <g
       id="g4140">
      <g
         id="g4146">
        <path
           style="fill:#000000"
           d="M 152.4707 0 C 143.81181 -0.05529998 135.22006 3.8138596 124.26953 12.441406 L 116.29492 18.722656 L 111.15039 14.839844 C 104.29202 9.6630254 101.72708 8.8164062 92.90625 8.8164062 C 83.911672 8.8164062 79.99989 10.294496 72.857422 16.396484 L 67.533203 20.945312 L 60.267578 18.455078 C 41.871812 12.14702 30.175546 13.079516 22.361328 21.476562 C 18.93278 25.160832 6.1031344 43.606074 3.515625 48.570312 C 0.34930576 54.64502 -0.77627718 62.752173 0.5390625 70.005859 C 1.9857421 77.983797 3.5920266 80.998133 10.015625 87.787109 L 15.246094 93.316406 L 15.960938 101.75977 C 16.869426 112.50032 18.663219 116.90533 24.060547 121.65625 C 29.022385 126.02383 33.063779 127.44432 44.873047 128.96875 L 53.291016 130.05469 L 54.408203 135.73828 C 55.317653 140.36091 56.318435 142.19576 59.765625 145.5625 C 62.096745 147.83922 66.478909 150.84689 69.503906 152.24805 C 78.804904 156.55621 91.004179 155.32686 99.498047 149.22461 L 104.5957 145.5625 L 110.57617 146.83008 C 123.11862 149.49176 135.17483 146.19471 149.06445 136.30664 C 149.16119 136.25356 149.20078 136.21944 149.24414 136.18164 L 149.54688 135.96484 C 149.66677 135.93007 149.92755 135.79187 150.20508 135.60352 C 150.83639 135.17511 151.05151 135.20732 151.03711 135.72656 C 151.03187 135.91566 151.09744 136.35156 151.18164 136.69531 C 152.00964 141.20072 150.7308 145.40899 150.9668 150.52344 C 150.92491 152.3711 150.86433 154.16406 150.83203 154.50781 C 150.73997 155.48902 150.39843 160.36033 150.36133 161.22656 C 150.34292 161.65625 150.27288 162.13086 150.20508 162.28125 C 150.13738 162.43164 150.12388 162.66565 150.17578 162.80078 C 150.22763 162.93591 150.19396 163.18665 150.10156 163.35938 C 149.99511 163.55827 149.9474 164.71586 149.9707 166.51367 C 149.9901 168.07495 149.98965 169.5625 149.96875 169.82031 C 149.94795 170.07812 149.91358 171.0625 149.89258 172.00781 C 150.46888 176.83891 150.75364 176.15852 147.02734 177.80664 C 145.25774 178.56148 143.52124 180.49355 141.51367 181.45898 L 140.45703 182.24023 C 138.33592 184.63547 135.41181 187.01589 133.69336 190.10938 C 133.31326 190.69327 132.93148 191.44639 132.61328 192.1875 C 132.35547 192.64431 132.14453 193.11664 132.14453 193.23633 C 131.37948 194.68522 130.64646 196.66056 129.58594 198.02344 C 129.46702 198.02344 129.21547 198.40366 129.02734 198.86719 C 128.83921 199.33071 128.374 200.19204 127.99414 200.78125 C 127.20132 202.11128 126.33395 203.35841 125.7168 204.89844 C 125.63814 205.02735 125.32174 205.66016 125.01367 206.30469 C 124.7056 206.94922 124.36391 207.58203 124.25586 207.71094 C 124.1478 207.83985 124.01504 208.19141 123.96094 208.49219 C 123.90679 208.79297 123.69431 209.37141 123.48828 209.77734 C 123.28226 210.18327 123.03075 210.8864 122.92969 211.33984 C 122.64238 212.62909 122.4372 213.23692 122.19727 213.51172 C 122.07547 213.65121 121.92162 214.11831 121.85352 214.54883 C 121.78547 214.97936 121.57165 215.59718 121.37891 215.92383 C 120.08759 219.76257 118.63161 224.58974 118.51953 228.90234 C 118.43743 228.95307 118.41028 229.15366 118.45898 229.34766 C 118.61239 232.63472 118.70908 236.07465 121.4668 238.33594 C 121.58853 238.33594 121.86111 238.44953 122.07227 238.58789 C 122.28342 238.72627 122.55456 238.80041 122.67578 238.75391 C 122.797 238.7074 123.02009 238.7601 123.17188 238.87109 C 123.41491 239.04881 123.42562 239.15573 123.26562 239.75977 C 123.16571 240.13701 123.10139 240.55079 123.12109 240.67969 C 123.14085 240.8086 123.10316 241.40625 123.03906 242.00781 C 122.90432 243.2716 123.11553 245.40832 123.44141 246.07812 C 123.5646 246.33132 123.83002 246.89062 124.03125 247.32031 C 124.57118 248.47317 127.02241 250.9494 127.8418 251.16992 C 129.51998 251.62156 130.20824 251.83581 130.375 251.96289 C 130.48656 252.04791 130.93464 251.97775 131.5332 251.78125 C 132.07032 251.60493 132.63449 251.46094 132.78711 251.46094 C 133.00616 252.02309 133.1764 252.49676 132.92969 253.09766 C 132.78423 254.36841 132.77508 256.02643 132.67578 257.55469 C 132.52654 261.28402 132.65688 263.94886 132.86133 268.25781 C 132.62296 276.9462 134.69083 285.93545 134.11133 295.52344 C 134.19945 297.59904 134.7933 299.77064 134.7832 302.00781 C 134.87471 302.4375 135.0326 303.42187 135.13477 304.19531 C 135.28784 305.33871 136.3515 307.00481 137.16797 308.43555 C 138.17318 309.78308 139.19508 310.90351 139.78906 312.62695 C 140.45359 313.38261 141.01804 314.46979 142.37305 314.67383 C 142.79087 314.7047 143.26402 314.73428 143.74609 315.05469 C 144.23067 315.05469 144.64453 315.67345 144.64453 316.39453 C 144.99466 318.371 145.83625 320.11265 145.61133 322.39453 C 145.68987 322.60673 145.74728 323.16967 145.73828 323.64453 C 145.72948 324.11939 145.75598 324.75391 145.79688 325.05469 C 145.90062 325.81805 146.06785 327.35731 146.12695 328.10156 C 146.15427 328.44531 146.21311 328.90235 146.25781 329.11719 C 146.47965 330.1831 146.68989 331.81767 146.74219 332.88281 C 146.77425 333.53553 146.87168 334.20351 146.95898 334.36719 C 147.10287 334.63715 147.28225 335.59605 147.76953 338.69336 C 147.86183 339.27711 147.89806 339.81728 147.85156 339.89258 C 148.22292 341.01859 147.89991 341.66063 148.01953 342.88867 C 147.75875 344.81302 148.94689 346.80496 148.51367 348.98047 C 149.06519 351.05354 147.01788 351.18682 145.8457 353.4375 C 145.543 354.02576 145.25613 354.64844 145.20703 354.82031 C 145.15795 354.99219 144.94196 355.32252 144.72656 355.55469 C 144.51116 355.78684 144.19177 356.33934 144.01758 356.78125 C 143.84339 357.22318 143.59755 357.68761 143.4707 357.81445 C 143.05391 358.2312 143.03775 358.74214 143.41992 359.52734 C 144.0306 360.78205 143.91829 360.27088 144.36914 360.74609 C 144.93944 360.99059 145.48613 361.14931 145.95312 361.54102 C 146.00223 361.669 146.14643 361.77344 146.27539 361.77344 C 146.52408 361.77344 147.72871 362.35967 147.83594 362.5332 C 147.91934 362.66815 151.74701 362.62848 151.9707 362.49023 C 152.06567 362.43154 152.78999 362.34969 153.58203 362.30859 C 154.54077 362.25881 155.10836 362.15685 155.27734 362.00391 C 155.41694 361.87759 155.61224 361.77344 155.71289 361.77344 C 155.8136 361.77344 155.89648 361.68003 155.89648 361.56445 C 155.89648 361.44885 156.04483 361.22034 156.22656 361.05664 C 156.67224 360.65517 156.84912 360.16683 156.98438 358.96094 C 157.09908 357.93839 157.01953 357.58797 156.41602 356.42578 C 156.19353 355.99733 155.77827 354.85095 155.33203 353.43555 C 155.20009 353.01706 154.91306 352.49509 154.69531 352.27734 C 154.47757 352.0596 154.17411 351.67411 154.01953 351.41992 C 153.86495 351.16573 153.57246 350.87435 153.37109 350.77148 C 153.14937 350.65819 153.01982 350.46301 153.04102 350.2793 C 153.06021 350.11245 153.11205 349.0625 153.15625 347.94531 C 153.20041 346.82812 153.24792 345.73829 153.26172 345.52344 C 153.29972 344.93367 153.27837 341.46379 153.23047 340.36719 C 153.21737 340.06641 153.22429 339.57423 153.24609 339.27344 C 153.26788 338.97266 153.2001 338.4211 153.0957 338.04688 C 152.9446 336.88489 153.25342 335.53952 153.23242 334.27344 C 153.21342 333.97266 153.20986 333.60351 153.22266 333.45312 C 153.2712 332.88398 153.24189 332.44388 153.08789 331.38281 C 153.00058 330.78125 152.85658 329.41249 152.76758 328.3418 C 152.67792 327.26328 152.52939 326.34826 152.43359 326.28906 C 152.24398 325.21671 152.1955 323.99891 152.1875 322.81641 C 152.08481 321.93375 151.81063 315.49414 151.94336 315.49414 C 152.13174 315.49414 152.76953 322.60355 152.76953 323.12891 C 152.76953 323.69775 154.18881 324.74678 155.10547 324.85547 C 157.34295 325.09563 159.3906 324.75053 161.46484 324.50195 C 162.36164 323.89336 162.72154 322.51756 162.23047 321.57617 C 161.98943 321.11411 161.78719 315.43555 162.02148 315.43555 C 162.08885 315.43555 162.30078 318.19017 162.30078 318.39453 C 162.68206 320.05822 162.79214 321.55962 163.00977 323.3457 C 163.09981 327.12741 164.64726 331.20577 164.69336 335.40625 C 164.71346 336.64066 164.78064 337.24216 164.89844 337.24219 C 165.08219 337.24224 165.29338 339.72013 165.27148 341.61719 C 165.26504 342.17579 165.33619 343.93361 165.42969 345.52344 C 165.67774 349.74123 165.69887 349.56016 164.91797 350.25195 C 163.75506 351.28213 163.61346 351.43815 163.30664 352.04102 C 163.14114 352.36621 162.88086 352.80091 162.73047 353.00586 C 162.58008 353.21079 162.45612 353.56236 162.45312 353.78711 C 162.12697 355.04272 162.09689 356.01632 162.08789 357.38477 C 161.66411 359.09541 160.92333 360.98288 163.26172 361.76953 C 164.25847 361.91253 165.26245 361.90385 166.33203 361.93945 C 166.65552 361.8467 167.0081 361.87105 167.42773 362.01562 C 169.04109 362.16526 172.09681 362.90214 173.27344 361.41211 C 173.83507 360.58641 173.94074 360.30471 173.99414 359.47656 C 174.04028 358.76043 173.9725 358.2905 173.73828 357.67969 C 173.56383 357.22478 173.34666 356.25391 173.25586 355.52344 C 172.9432 353.00929 172.75108 352.40017 172.0332 351.64844 C 171.92658 351.53681 171.74996 351.31935 171.64062 351.16406 C 171.5313 351.00879 171.14257 350.72896 170.77734 350.54297 C 170.4121 350.35698 170.11328 350.15304 170.11328 350.08984 C 170.11328 350.02662 169.90235 349.8817 169.64453 349.76758 C 169.33278 349.62958 169.17678 349.4458 169.17578 349.2207 C 169.03528 344.85847 169.07338 339.88266 169.17188 335.13281 C 169.13757 332.37998 168.442 329.02505 168.95898 325.86523 C 168.98192 324.08698 169.04837 322.10547 169.10547 321.46094 C 169.29957 319.26977 169.27588 318.27158 169.01172 317.39844 C 168.86872 316.92579 168.73886 316.20159 168.72266 315.78906 C 168.68715 314.8857 169.09263 314.44355 169.96289 314.43555 C 170.26603 314.43269 170.65276 314.33311 170.82227 314.21484 C 171.18127 313.96439 172.79299 313.57813 173.08008 313.67383 C 173.18796 313.70979 173.48749 313.54246 173.74414 313.30273 C 174.00079 313.06298 174.34624 312.86719 174.51172 312.86719 C 175.73281 311.45284 175.4572 309.24943 176.11719 307.27148 C 176.08292 306.69736 175.9731 305.86596 175.875 305.42383 C 175.90623 303.67915 175.70259 301.91442 175.74219 300.0332 C 175.62717 297.74367 175.65375 295.25766 175.1875 292.86719 C 175.25359 292.08235 175.13944 291.16601 175.14844 291.01562 C 175.19224 290.28838 175.19672 289.18758 175.16602 286.44531 C 175.16122 286.01563 175.12002 284.82031 175.07422 283.78906 C 175.02842 282.75781 174.99691 281.77344 175.00391 281.60156 C 175.02892 280.9543 174.97426 279.24002 174.91406 278.78906 C 174.53036 275.61338 174.67976 271.85099 174.3457 268.375 C 174.36139 268.22461 174.29657 267.22266 174.20117 266.14844 C 174.21972 264.3624 174.32093 262.40738 174.02344 260.50977 C 173.99204 259.65174 174 258.78906 174 258.78906 C 174.05228 254.5262 174.21068 252.26046 174.5918 248.57227 C 174.63887 247.46758 174.80967 246.1198 174.82617 244.86719 C 174.90227 244.52932 174.93208 244.20072 174.89258 244.13672 C 174.75718 241.92596 175.90432 239.56337 173.80664 238.41992 C 171.16119 236.61583 167.53861 237.00829 165.71289 235.82422 C 165.07164 235.40834 165.37085 234.0843 165.19922 233.25977 C 165.15582 232.46275 165.04938 231.96078 164.88867 231.7832 C 164.56562 231.4262 164.58102 231.06754 164.91992 231.02344 C 165.07031 231.00386 165.5625 230.94658 166.01367 230.89648 C 166.46485 230.84638 166.83398 230.74166 166.83398 230.66406 C 166.83398 230.58639 166.99859 230.52344 167.19922 230.52344 C 167.56275 230.52344 167.98292 230.13905 168.71484 229.13672 C 170.5047 227.63564 175.69808 229.29449 178.9082 230.67969 C 179.12671 230.85157 179.41589 230.99219 179.55273 230.99219 C 179.68956 230.99219 179.80273 231.06254 179.80273 231.14844 C 179.80273 231.23439 179.9171 231.30469 180.05859 231.30469 C 180.20009 231.30469 180.6747 231.55447 181.11328 231.85938 C 181.55186 232.16428 182.1582 232.58354 182.45898 232.79102 C 183.56592 233.55459 184.33967 234.2014 184.41797 234.42969 C 184.46219 234.5586 184.81267 234.90012 185.19727 235.18945 C 185.58187 235.47878 185.89648 235.79955 185.89648 235.90234 C 187.3329 237.85007 189.00959 239.49555 189.78125 242.00781 C 190.17947 242.46047 190.70326 243.12078 190.94531 243.47461 C 191.30483 244.00024 191.45183 244.10174 191.74805 244.02734 C 192.00511 243.96282 192.17628 244.02876 192.33398 244.25391 C 192.45633 244.42859 192.86851 244.64874 193.25 244.74414 C 196.04627 245.44334 196.32544 245.44729 197.30273 244.79688 C 198.41422 244.05715 198.63934 243.89498 199.02148 243.55859 C 199.23632 243.36946 199.57031 243.16777 199.76367 243.10938 C 199.95703 243.05097 200.11523 242.94113 200.11523 242.86523 C 200.11523 242.78933 200.61791 242.21324 201.23242 241.58594 C 201.84693 240.95865 202.46216 240.2633 202.59961 240.04102 C 202.87992 239.5877 203.62642 238.62722 204.09961 238.11133 C 204.27149 237.92395 204.61445 237.38961 204.86328 236.92188 C 205.11212 236.45413 205.40228 235.96485 205.50781 235.83594 C 205.61335 235.70704 205.78277 235.34704 205.88281 235.03516 C 205.98285 234.72329 206.20245 234.34207 206.37109 234.18945 C 206.53973 234.03684 206.67773 233.75414 206.67773 233.56055 C 206.67773 233.36696 206.84285 232.8673 207.04492 232.45117 C 207.6564 231.19186 207.88017 230.62713 207.99414 230.05469 C 208.05395 229.75425 208.16779 229.33204 208.24609 229.11719 C 208.41529 228.65289 208.71402 226.29967 208.70312 225.52344 C 208.69892 225.22266 208.62937 224.73047 208.54688 224.42969 C 208.38164 223.82769 207.13058 222.39844 206.76953 222.39844 C 206.64425 222.39844 206.51969 222.25136 206.49219 222.07031 C 204.3791 220.58126 201.12899 220.48379 199.42578 218.41406 C 199.17277 218.32812 198.85385 218.06422 198.71875 217.82812 C 198.58365 217.59203 198.2585 217.24046 197.99414 217.04688 C 197.32516 216.55697 196.1229 215.17221 195.70117 214.4043 C 195.14092 213.3842 195.02564 213.1991 194.75 212.89453 C 194.60724 212.73678 194.49023 212.53968 194.49023 212.45508 C 194.49023 212.37051 194.27929 212.09856 194.02148 211.85156 C 193.76367 211.60456 193.55273 211.24332 193.55273 211.04883 C 193.55273 210.85433 193.45711 210.63901 193.33984 210.57031 C 193.22258 210.50158 193.01574 210.22891 192.88086 209.96484 C 192.74597 209.70076 192.53244 209.39965 192.40625 209.29492 C 191.38836 207.00154 190.41055 204.89255 189.64062 202.48047 C 189.6379 202.30623 189.53243 202.02815 189.40625 201.86133 C 188.81401 200.27741 188.41337 198.75473 187.54883 197.23633 C 187.33363 196.7666 187.06125 196.20703 186.94336 195.99219 C 185.57899 193.35707 184.16027 190.96567 181.66602 188.96484 C 178.95135 187.36557 176.03783 186.21117 173.00586 185.52734 C 172.91992 185.45924 172.11132 185.28131 171.20898 185.13281 C 168.82099 184.734 169.55857 183.74518 168.18555 181.85156 C 165.83298 178.7603 163.87766 177.01096 160.04297 176.61719 C 159.83443 176.61719 159.62267 176.55035 159.57227 176.46875 C 159.52183 176.38715 159.14618 176.3597 158.73633 176.4082 L 157.99023 176.49805 L 158.01172 174.56445 C 158.10321 167.54716 158.67387 161.05506 158.38867 153.64844 C 158.42881 147.76941 159.06902 140.31781 159.79492 133.36914 C 159.79635 133.2909 159.80299 133.23083 159.81836 133.18359 L 163.19727 134.34961 C 170.33411 136.81292 171.82163 136.97272 184.4375 136.61914 C 197.12652 136.26351 198.43638 136.03781 204.69141 133.11914 C 208.3695 131.4029 213.51869 128.52451 216.13477 126.72461 L 220.89258 123.45312 C 236.05083 130.92333 242.85651 132.20013 248.15039 131.64844 C 251.8855 131.25918 256.73765 129.31892 258.92383 127.10742 L 262.67773 124.52344 L 269.23438 126.33984 C 290.6994 132.28586 300.87085 131.34795 309.02344 122.66992 C 310.25789 121.35591 313.42894 113.75645 316.24609 105.35742 C 321.65396 89.2344 322.63892 81.044337 319.94336 74.605469 C 318.47074 71.087819 311.671 64.473977 307.63867 62.636719 C 304.83585 61.359659 304.84016 60.517184 307.70898 50.179688 C 311.42179 36.801032 305.13302 23.074899 294.50977 21.369141 C 287.40513 20.228351 286.60014 19.915995 282.70508 16.779297 C 275.61933 11.073129 269.67528 8.9073844 261.06055 8.8964844 C 252.59277 8.8857844 247.98475 10.281925 240.45703 15.345703 C 233.57411 9.9163452 227.69896 7.8368319 219.27344 7.8261719 C 210.10316 7.8145719 205.50669 9.3951254 196.77148 15.564453 L 190.54102 19.964844 L 181.79492 12.757812 C 172.28609 4.9211458 167.75374 2.5644062 158.50586 0.65429688 C 156.47058 0.23391702 154.46891 0.012759996 152.4707 0 z M 142.88477 24.472656 C 144.51537 24.498356 146.21278 24.948207 147.99414 25.810547 C 157.22013 30.276775 160.68942 44.476841 153.02539 46.400391 C 149.62308 47.254319 147.94849 45.669319 145.97852 39.738281 C 145.07917 37.030613 143.98161 34.816406 143.53906 34.816406 C 142.04829 34.816406 139.50238 39.724492 137.99805 45.5 C 136.56461 51.003348 135.85542 71.833924 137.06055 73.039062 C 137.36684 73.345342 140.14923 72.934643 143.24219 72.126953 C 150.1421 70.325143 153.50391 71.390675 153.50391 75.376953 C 153.50391 77.636503 152.58273 78.388686 146.54297 81.072266 C 142.71489 82.773144 139.39412 84.661025 139.16211 85.265625 C 138.93011 85.870215 139.57459 90.628176 140.59375 95.839844 L 142.44531 105.31641 L 140.36328 107.06641 C 138.32453 108.7802 136.19123 109.14072 133.81641 108.17383 C 133.16276 107.9077 131.22663 103.48739 129.51562 98.351562 L 126.4043 89.013672 L 120.70508 89.527344 C 115.83721 89.965754 114.73426 89.742456 113.15625 87.992188 C 110.68708 85.253448 111.5966 84.138839 119.02344 80.806641 L 125.30664 77.988281 L 125.66211 60.152344 L 126.01953 42.316406 L 129.45117 35.972656 C 133.69261 28.13271 137.99294 24.395596 142.88477 24.472656 z M 101.01953 39.296875 C 101.38586 39.293875 101.69909 39.338374 101.94727 39.433594 C 104.50689 40.415814 103.73894 43.067866 99.371094 48.333984 C 97.098534 51.073904 94.416103 55.228908 93.408203 57.566406 C 92.400313 59.903906 91.169198 61.816406 90.673828 61.816406 C 88.778358 61.816406 84.503906 57.580785 84.503906 55.703125 C 84.503906 52.999615 87.814362 46.776901 90.669922 44.113281 C 93.350242 41.613133 98.455274 39.320405 101.01953 39.296875 z M 250.29297 41.886719 C 251.80687 41.886719 253.52701 42.467021 254.11523 43.175781 C 255.46224 44.798821 256.98787 54.518913 257.87695 67.136719 C 258.25481 72.499217 258.88668 76.886719 259.28125 76.886719 C 259.67581 76.886719 262.79707 73.736717 266.21875 69.886719 C 272.47798 62.843961 275.41334 61.411391 278.08984 64.087891 C 280.38616 66.384209 279.25392 69.787739 273.27344 78.560547 C 269.96399 83.415215 267.37649 88.007545 267.52344 88.765625 C 267.67039 89.523705 270.66753 91.773705 274.18555 93.765625 C 281.54644 97.933383 283.31773 100.02784 281.68359 102.63672 C 279.58123 105.9931 273.94346 105.38882 265.88672 100.94141 L 258.51562 96.871094 L 257.81445 100.61133 C 257.42861 102.66799 256.68655 105.14652 256.16602 106.11914 C 255.11915 108.07522 250.83814 108.43696 248.03906 106.80664 C 246.43644 105.8732 246.28906 103.36059 246.28906 76.962891 C 246.28906 43.255743 246.44653 41.886719 250.29297 41.886719 z M 61.544922 45.083984 C 63.916352 45.296114 70.503906 51.820722 70.503906 54.201172 C 70.503906 55.005272 69.330804 57.057119 67.896484 58.761719 C 66.462167 60.466307 64.472379 62.298051 63.474609 62.832031 C 61.958551 63.643411 61.556297 63.331039 61.029297 60.931641 C 60.266907 57.460481 57.673764 56.849847 43.503906 56.810547 C 32.98509 56.781447 30.313248 55.956858 32.441406 53.392578 C 33.411606 52.223558 35.617599 51.816406 40.980469 51.816406 C 44.957447 51.816406 51.008116 51.523436 54.427734 51.166016 C 60.350434 50.546976 60.617921 50.404161 60.050781 48.144531 C 59.629991 46.467963 59.946541 45.583366 61.130859 45.128906 C 61.248279 45.083806 61.386832 45.069784 61.544922 45.083984 z M 222.60352 57.939453 C 224.58268 57.939453 226.52187 58.929037 228.42188 60.908203 C 230.0052 62.491536 231.19271 64.312761 231.98438 66.371094 C 231.35104 72.071092 230.0056 75.94948 227.94727 78.007812 C 227.23477 79.036979 226.48307 79.552734 225.69141 79.552734 C 225.45391 79.552734 224.30638 78.839062 222.24805 77.414062 C 220.82305 76.464064 219.63555 76.979819 218.68555 78.958984 C 216.78555 82.758984 215.75599 88.73646 215.59766 96.890625 C 216.86432 98.869792 218.88346 99.541536 221.6543 98.908203 C 223.00013 98.591536 225.0573 97.364062 227.82812 95.226562 C 230.44063 93.326564 232.45977 92.376953 233.88477 92.376953 C 235.62256 92.376953 237.24279 93.442312 238.74414 95.570312 C 238.7458 95.534411 238.75278 95.500972 238.75391 95.464844 L 238.75391 95.583984 C 238.75056 95.57923 238.74749 95.575057 238.74414 95.570312 C 238.62938 98.051937 237.25094 99.99767 234.59766 101.40234 C 232.30182 102.51068 230.00482 103.6582 227.70898 104.8457 C 221.85066 106.0332 218.32813 106.62695 217.14062 106.62695 C 213.26147 106.62695 210.37266 105.16353 208.47266 102.23438 C 206.81016 99.62187 205.97852 96.613151 205.97852 93.208984 C 205.97852 89.963152 206.81016 86.122785 208.47266 81.689453 C 209.97682 78.206121 211.48021 74.683593 212.98438 71.121094 C 213.3802 70.171094 214.84557 68.191926 217.37891 65.183594 C 219.27891 62.808594 220.26849 60.551562 220.34766 58.414062 C 221.06016 58.097397 221.81185 57.939453 222.60352 57.939453 z M 38.28125 67.445312 C 40.67683 67.572352 43.212303 70.603517 46.613281 77.140625 L 50.794922 85.179688 L 54.126953 78.570312 C 55.959323 74.935644 57.943089 71.662042 58.537109 71.294922 C 60.190109 70.273312 64.207154 71.602058 64.896484 73.398438 C 66.284824 77.016386 58.466063 98.794664 54.783203 101.56641 C 52.226713 103.49043 50.123869 103.0722 47.244141 100.06641 C 43.933541 96.610884 36.918746 81.76786 35.316406 74.826172 C 34.225106 70.098414 34.283377 69.450865 35.904297 68.265625 C 36.698577 67.684835 37.48273 67.402974 38.28125 67.445312 z M 167.59766 67.816406 C 171.57732 67.816406 173.18289 70.83632 173.98047 79.816406 C 174.76261 88.622714 175.33926 91.036302 176.48828 90.326172 C 176.95041 90.040552 179.13334 86.516462 181.33984 82.496094 C 186.23155 73.583176 187.74564 72.149896 190.79883 73.541016 C 192.57511 74.350334 193.52402 76.489252 195.4082 83.9375 C 199.47371 100.00847 198.472 103.40766 190.875 99.316406 C 187.73499 97.625398 187.59789 97.640524 184.33594 100.07617 C 179.07292 104.00599 177.30817 104.60535 173.79102 103.65039 C 167.13477 101.84311 163.48838 93.070192 163.51758 78.929688 C 163.53708 69.47939 164.14784 67.816406 167.59766 67.816406 z M 104.27344 69.359375 C 104.60203 69.338775 104.9316 69.388169 105.26172 69.505859 C 109.04884 70.855489 109.73545 72.115378 109.12109 76.597656 C 108.42556 81.672094 92.84707 138.30781 91.40625 141 C 89.35657 144.82986 82.503906 141.71776 82.503906 136.95703 C 82.503906 135.44684 84.078906 127.79676 86.003906 119.95703 C 87.928906 112.11729 89.503906 104.59914 89.503906 103.25 C 89.503906 101.68471 86.571982 97.116031 81.402344 90.626953 C 69.655646 75.882149 67.824691 70.816406 74.244141 70.816406 C 76.431029 70.816406 78.896357 72.674627 85.453125 79.265625 C 90.076103 83.912743 94.199918 87.503984 94.617188 87.246094 C 95.034466 86.988204 96.359127 83.662177 97.560547 79.855469 C 99.714397 73.030961 101.97331 69.503885 104.27344 69.359375 z M 155.52344 131.70117 L 156.78906 132.13867 C 156.82207 132.34713 156.83203 132.63044 156.83203 133.04102 C 156.83203 134.41103 156.69209 134.5545 155.9375 133.96094 C 155.44216 133.57131 155.14265 133.57131 154.64453 133.96094 C 154.15139 134.34668 154.06383 134.34668 153.94141 133.96094 C 153.88685 133.78907 153.77747 133.64844 153.69727 133.64844 C 153.43226 133.64844 153.54745 133.21072 153.88086 132.87305 L 155.52344 131.70117 z M 154.17578 135.94922 L 154.7207 136.63477 C 155.02065 137.0121 155.26708 137.4015 155.26758 137.5 C 155.26921 137.6931 156.29289 138.64844 156.49805 138.64844 C 156.56648 138.64844 156.52809 139.08789 156.41211 139.625 C 155.95111 141.75896 155.87003 142.33547 155.95312 142.84766 C 156.00042 143.14116 155.99661 143.68834 155.94531 144.0625 C 155.33482 144.70582 154.77344 144.2656 154.00195 142.9668 C 154.11771 142.8273 154.16844 142.00882 154.14844 140.58398 C 154.13164 139.3903 154.13028 137.85975 154.14648 137.18164 L 154.17578 135.94922 z M 154.12109 147.27539 C 154.18044 147.3024 154.24736 147.4104 154.32227 147.60742 C 154.4354 147.90498 154.59153 148.02344 154.87109 148.02344 C 155.11335 148.02344 155.35842 148.16932 155.51367 148.40625 C 155.73246 148.74012 155.74804 149.12724 155.63477 151.46289 C 155.56337 152.93385 155.55549 154.27292 155.61719 154.43945 C 155.67889 154.60597 155.68817 154.84775 155.63867 154.97656 C 155.5054 155.32385 155.42357 155.27804 154.51172 154.33203 C 153.70572 153.49586 153.6812 153.44191 153.7832 152.81445 C 153.9114 152.02567 153.93415 151.09283 153.87695 149.0625 C 153.84278 147.84903 153.94305 147.19437 154.12109 147.27539 z M 153.74805 157.55469 C 153.85361 157.55469 154.2835 157.92382 154.70312 158.375 L 155.4668 159.19531 L 155.51758 161.07031 C 155.54528 162.10156 155.58778 163.74376 155.61328 164.71875 C 155.63878 165.69375 155.6168 166.51913 155.5625 166.55273 C 155.42527 166.63757 154.64453 166.00648 154.64453 165.81055 C 154.64453 165.44628 153.99006 164.75919 153.59766 164.71289 C 152.96549 164.63825 152.90102 164.08342 153.16797 160.99219 C 153.44015 157.84043 153.4873 157.55469 153.74805 157.55469 z M 153.27539 168.20117 C 153.32973 168.21944 153.39169 168.27763 153.46289 168.375 C 153.57276 168.52526 153.7438 168.64844 153.8418 168.64844 C 153.93979 168.64844 154.01953 168.78714 154.01953 168.95703 C 154.01953 169.12693 154.19532 169.38071 154.41016 169.52148 C 154.62501 169.66225 154.80078 169.865 154.80078 169.9707 C 154.80078 170.07641 154.94373 170.29029 155.11719 170.44727 C 155.41067 170.71284 155.42594 170.85959 155.33594 172.54297 C 155.28112 173.56817 155.30282 174.51725 155.38672 174.73438 C 155.49975 175.02694 155.4626 175.23939 155.23047 175.63281 C 154.86423 176.25354 154.68424 176.28367 154.54883 175.74414 C 154.47814 175.4625 154.2518 175.25499 153.80273 175.0625 C 152.82427 174.64305 152.71614 174.43858 152.80664 173.17383 C 152.84972 172.57147 152.8246 172.04219 152.75 171.99609 C 152.57186 171.88616 152.57205 170.05469 152.75 170.05469 C 152.8253 170.05469 152.91978 169.66787 152.95898 169.19531 C 153.02021 168.45702 153.11237 168.14638 153.27539 168.20117 z M 153.26172 179.05469 C 153.33469 179.09978 153.39453 179.2375 153.39453 179.36133 C 153.39453 179.48517 153.45028 179.58594 153.51758 179.58594 C 153.58487 179.58594 153.81338 179.72445 154.02539 179.89258 C 154.23741 180.06072 154.65625 180.36068 154.95703 180.56055 C 155.68967 181.04741 155.7962 181.70561 155.16211 181.83203 C 154.92084 181.88013 154.38867 181.91119 153.98047 181.90039 C 153.34326 181.88348 153.23586 181.83331 153.22266 181.55273 C 153.13826 179.76946 153.15049 178.98599 153.26172 179.05469 z M 150.06445 179.06055 C 150.11904 179.05378 150.1565 179.06106 150.17188 179.08594 C 150.21187 179.15073 150.24223 179.58808 150.24023 180.05859 C 150.53128 181.23459 150.57572 182.36151 150.03516 183.17969 C 149.69801 183.35158 149.2084 183.49791 148.94727 183.50391 C 148.68615 183.51019 148.26172 183.6498 148.00391 183.81445 C 147.7461 183.97909 147.42969 184.16055 147.30078 184.21875 C 146.42481 184.79963 145.53607 185.23674 144.84766 185.93359 C 142.64772 187.21522 140.8112 190.13087 139.17578 192.38477 C 139.17578 192.47857 139.10543 192.55469 139.01953 192.55469 C 138.93358 192.55469 138.86328 192.66332 138.86328 192.79492 C 138.86328 192.92652 138.76178 193.07309 138.63672 193.12109 C 138.51166 193.16908 138.19227 193.59181 137.92773 194.06055 C 137.39317 194.84266 136.6831 195.60776 136.36328 196.61133 C 133.81955 200.77292 132.16079 204.91375 130.16992 209.74219 C 130.12683 209.95704 129.95844 210.38224 129.79688 210.6875 C 129.63531 210.99276 129.28075 211.90682 129.00977 212.71875 C 128.7388 213.53068 128.4277 214.3711 128.31836 214.58594 C 128.20903 214.80079 128.03266 215.18749 127.92578 215.44531 C 127.81891 215.70312 127.6443 216.08985 127.53711 216.30469 C 127.27329 216.83342 126.88214 218.12102 126.75391 218.88086 C 126.69616 219.22309 126.51753 219.77408 126.35742 220.10547 C 126.19731 220.43686 126.01924 221.03495 125.96094 221.43555 C 125.90259 221.83615 125.76277 222.41016 125.65234 222.71094 C 125.0377 224.385 124.10214 228.85175 124.15234 229.86719 C 124.16634 230.15028 124.08112 230.57215 123.96289 230.80469 C 123.65475 231.41074 123.39453 233.09041 123.39453 234.48242 C 123.39453 235.52294 123.35856 235.67792 123.12109 235.66992 C 122.60217 235.652 121.78655 234.55321 121.62109 233.64844 C 121.44604 232.69135 121.49451 229.14379 121.6875 228.7832 C 121.8036 228.56644 121.83333 228.07868 121.76953 227.41406 C 121.71332 226.8285 121.74078 226.14639 121.83398 225.83594 C 121.92428 225.53516 122.00181 224.9551 122.00781 224.54688 C 122.01334 224.13865 122.07769 223.76766 122.15039 223.72266 C 122.22311 223.67771 122.33017 223.30854 122.38867 222.90234 C 122.44719 222.49614 122.59261 221.92651 122.71094 221.63672 C 122.82928 221.34693 122.92578 220.8722 122.92578 220.58008 C 122.92578 220.28407 123.09282 219.78952 123.30273 219.46484 C 123.50989 219.14442 123.72686 218.58277 123.78516 218.2168 C 123.84349 217.85083 124.03366 217.18285 124.20703 216.73242 C 124.3804 216.28198 124.62241 215.52735 124.74609 215.05469 C 125.15334 213.49823 125.61667 212.18103 126.15039 211.05469 C 126.49844 210.24302 126.9121 209.30858 127.09375 208.32422 C 127.14747 207.85814 127.32163 207.30847 127.48047 207.10352 C 127.63932 206.89857 127.76953 206.62834 127.76953 206.50195 C 127.76953 206.37555 127.94858 206.0576 128.16797 205.79688 C 128.38737 205.53615 128.6085 205.11995 128.6582 204.87109 C 128.70797 204.62222 128.8728 204.35208 129.02344 204.27148 C 129.17408 204.19086 129.34184 203.94214 129.39844 203.7168 C 129.455 203.49147 129.69858 203.11872 129.93945 202.89062 C 130.18032 202.66253 130.49873 202.16416 130.64648 201.7832 C 130.79424 201.40223 131.08041 200.89688 131.28125 200.6582 C 131.48209 200.41951 131.76704 199.90378 131.91602 199.51367 C 132.06501 199.12355 132.24797 198.80469 132.32227 198.80469 C 132.39649 198.80469 132.45703 198.67417 132.45703 198.51562 C 132.45703 198.35707 132.59766 198.10085 132.76953 197.94531 C 132.94141 197.78976 133.08203 197.59527 133.08203 197.51367 C 133.08203 197.43203 133.29297 197.05388 133.55078 196.67188 C 133.80859 196.28987 134.01953 195.91876 134.01953 195.84766 C 134.01953 195.77655 134.125 195.63042 134.25391 195.52344 C 134.38281 195.41646 134.48828 195.15426 134.48828 194.94141 C 134.48828 194.55504 135.33316 193.02717 136.00781 192.19141 C 136.20392 191.94845 136.40934 191.56173 136.46484 191.33203 C 136.52031 191.10232 136.69612 190.72811 136.85547 190.5 C 137.01481 190.27189 137.14453 190.04259 137.14453 189.99219 C 137.14453 189.82614 138.26547 188.42485 138.84375 187.86719 C 139.15565 187.56641 139.62109 187.05278 139.87891 186.72461 C 140.58268 185.82877 141.00984 185.37898 141.08594 185.45508 C 141.12344 185.49258 141.70826 184.99593 142.38477 184.35156 C 143.06127 183.70719 143.68744 183.18019 143.77734 183.17969 C 143.86727 183.17926 144.15235 183.0042 144.41016 182.79102 C 144.66797 182.57785 145.24638 182.22535 145.69531 182.00781 C 146.14424 181.79027 146.58653 181.47315 146.67773 181.30273 C 146.76894 181.13231 146.96396 180.99232 147.11133 180.99219 C 147.25869 180.99205 147.62929 180.72838 147.93555 180.40625 C 148.45115 179.86395 149.68235 179.10793 150.06445 179.06055 z M 158.88477 179.57812 C 159.0021 179.61652 159.37891 179.65411 159.72266 179.66211 C 160.06641 179.6703 160.46767 179.73373 160.61523 179.80273 C 160.76278 179.87163 160.97372 179.89652 161.08398 179.85742 C 161.19423 179.81827 161.54883 179.91839 161.87109 180.08008 C 163.64611 180.94977 164.34764 181.51105 166 183.63477 C 166.05407 183.85773 166.1925 184.17814 166.30859 184.34766 C 166.42465 184.51717 166.51953 184.71054 166.51953 184.77734 C 166.51953 185.00634 165.57412 184.90304 165.48242 184.66406 C 165.43296 184.53516 165.24452 184.42969 165.06445 184.42969 C 164.88438 184.42969 164.52363 184.2331 164.26172 183.99219 C 163.5151 183.30541 160.52916 182.20719 159.33203 182.17969 L 158.62891 182.16406 L 158.65039 180.83594 C 158.66696 179.7902 158.71679 179.52323 158.88477 179.57812 z M 156.5918 184.68164 C 156.66459 184.68957 156.75767 184.73234 156.87891 184.81055 C 157.06778 184.93237 157.53907 185.02848 157.92578 185.02148 C 158.38725 185.01366 158.81687 185.12393 159.17578 185.34375 C 159.47657 185.52796 159.85556 185.67944 160.01758 185.67969 C 160.1796 185.68001 160.47263 185.85172 160.66797 186.0625 L 161.02148 186.44531 L 160.49609 186.61914 C 160.20677 186.71463 159.7028 187.02843 159.37695 187.31641 C 159.05111 187.60439 158.29297 188.25776 157.69141 188.76758 C 157.08985 189.27741 156.29669 190.02204 155.92969 190.42188 C 155.56268 190.82171 155.20567 191.14844 155.13477 191.14844 C 155.06392 191.14844 154.87269 191.29678 154.70898 191.47852 C 154.54527 191.66026 154.25752 191.86785 154.07031 191.93945 C 153.8831 192.01106 153.61684 192.3081 153.47852 192.59961 C 153.34019 192.89111 153.01821 193.28447 152.76367 193.47266 C 152.50913 193.66085 152.30078 193.89228 152.30078 193.98828 C 152.30078 194.08423 152.05469 194.53319 151.75391 194.98633 C 151.45313 195.43948 151.20703 195.87864 151.20703 195.96094 C 151.20703 196.04328 151.10636 196.19401 150.98242 196.29688 C 150.85848 196.39972 150.73548 196.70757 150.70898 196.98047 C 150.6724 197.3579 150.57601 197.48934 150.30859 197.52734 C 150.11523 197.5548 149.95703 197.68228 149.95703 197.81055 C 149.95703 198.11902 149.50497 199.60094 149.32031 199.89844 C 149.2403 200.02735 149.1097 200.28374 149.0293 200.46875 C 148.94887 200.65376 148.81372 200.84964 148.72852 200.90234 C 148.64329 200.95501 148.52384 201.38304 148.46484 201.85547 C 148.40582 202.32791 148.30172 202.75017 148.23242 202.79297 C 148.1631 202.83581 147.98669 203.23929 147.83984 203.68945 C 147.69299 204.13961 147.52083 204.57816 147.45703 204.66406 C 147.32344 204.84408 147.15635 205.63713 147.06445 206.53711 C 147.02946 206.87983 146.93622 207.30171 146.85742 207.47461 C 146.49083 208.27887 146.35079 208.72643 146.27539 209.32617 C 146.23059 209.68276 146.12722 210.04075 146.04492 210.12305 C 145.96256 210.20536 145.89453 210.4453 145.89453 210.6543 C 145.89453 210.86329 145.73765 211.28868 145.54492 211.59961 C 145.28062 212.02593 145.19064 212.41379 145.18164 213.17969 C 145.17532 213.73829 145.08061 214.36146 144.9707 214.56445 C 144.86078 214.76744 144.80606 215.1125 144.84766 215.33008 C 144.88925 215.54767 144.823 215.96428 144.70117 216.25586 C 144.5793 216.54745 144.47997 217.01099 144.48047 217.28711 C 144.48212 218.27746 144.34372 219.67257 144.19727 220.13281 C 144.00635 220.73283 143.6137 222.50059 143.38281 223.80469 C 143.28391 224.36329 143.14065 224.98229 143.06445 225.17969 C 142.98828 225.37709 142.92483 225.72866 142.92383 225.96094 C 142.92281 226.19323 142.81266 226.76954 142.67969 227.24219 C 142.54672 227.71485 142.37457 228.61811 142.29688 229.25 C 142.2192 229.8819 142.07546 230.49611 141.97656 230.61523 C 141.86866 230.7452 141.83804 231.04725 141.89844 231.36914 C 141.95384 231.66416 141.93427 231.94544 141.85547 231.99414 C 141.77664 232.04286 141.66262 232.34671 141.60352 232.66992 C 141.54445 232.99314 141.4062 233.39913 141.29492 233.57227 C 141.18364 233.7454 141.04387 234.10986 140.98438 234.38086 C 140.92486 234.65186 140.56308 235.58252 140.18164 236.44922 C 139.80021 237.31593 139.48828 238.12999 139.48828 238.25977 C 139.48828 238.38955 139.42877 238.61836 139.35547 238.76758 C 138.98695 239.5179 138.72488 240.17548 138.64258 240.55273 C 137.73933 242.15136 136.93975 243.58011 135.99219 245.26758 C 135.93374 245.50046 135.73005 245.76582 135.53906 245.85742 C 135.34807 245.94903 134.94531 246.32738 134.64453 246.69922 C 133.79607 247.74813 132.63613 248.96094 132.48047 248.96094 C 132.40313 248.96094 132.25151 249.0664 132.14453 249.19531 C 131.85557 249.54349 129.80075 249.41716 129.48047 249.03125 C 129.37747 248.90714 129.19787 248.80469 129.08008 248.80469 C 128.73707 248.80469 126.69431 246.67119 126.58008 246.19336 C 126.52288 245.95405 126.39833 245.65969 126.30273 245.53906 C 126.1168 245.30437 126.10668 242.80258 126.26758 236.35547 C 126.34776 233.14298 126.39693 232.63208 126.70117 231.82422 C 126.90383 231.2861 127.052 230.52096 127.0625 229.95312 C 127.07232 229.42468 127.16766 228.88918 127.27344 228.76172 C 127.37921 228.63426 127.45481 228.32651 127.44141 228.08008 C 127.42807 227.83365 127.50352 227.28124 127.60938 226.85156 C 127.71523 226.42187 127.86139 225.82422 127.93359 225.52344 C 128.00579 225.22266 128.2154 224.44922 128.40039 223.80469 C 128.58538 223.16016 128.83011 222.28124 128.94531 221.85156 C 129.41578 220.09667 129.84245 218.70015 130.04102 218.25781 C 131.46827 214.97818 132.04443 212.26102 133.70703 208.88281 C 133.87777 208.62499 134.01903 208.32407 134.01953 208.21289 C 134.0201 208.10172 134.19735 207.82047 134.41406 207.58789 C 134.63077 207.35532 134.87874 206.88281 134.96484 206.53906 C 135.80402 203.97912 136.44011 202.15181 137.96484 199.67383 C 138.4947 199.17088 138.84738 198.63385 139.25586 197.71094 C 139.76606 196.55822 140.14391 195.96734 141.53516 194.14258 C 141.84433 193.73706 142.21396 193.15779 142.35742 192.85547 C 142.60339 192.33713 142.76669 192.13023 143.95703 190.82031 C 144.61229 190.09923 145.46191 189.3488 145.86914 189.13086 C 146.05375 189.03205 146.30864 188.74722 146.4375 188.49805 C 146.56635 188.24888 146.83109 187.99795 147.02539 187.93945 C 147.21969 187.88091 147.58985 187.63814 147.84766 187.40039 C 148.28756 186.99473 148.56303 186.88597 149.72266 186.66406 C 149.98047 186.61472 150.24771 186.47866 150.31641 186.36133 C 150.38513 186.244 150.6071 186.14844 150.81055 186.14844 C 151.014 186.14844 151.51286 186.00568 151.91797 185.83203 C 153.5439 185.13508 154.91119 184.77527 155.62305 184.85547 C 156.04878 184.90342 156.36489 184.86656 156.42969 184.76172 C 156.46734 184.7008 156.519 184.67371 156.5918 184.68164 z M 166.70508 188.01172 C 168.59373 187.94898 172.0957 188.1167 172.41016 188.36719 C 172.51272 188.44888 173.02407 188.61632 173.54688 188.73828 C 176.20896 189.54392 178.61568 190.45246 180.80664 192.37891 C 180.88658 192.51812 181.23815 192.91859 181.58789 193.26758 C 182.76524 194.44236 183.39453 195.30078 183.39453 195.73047 C 183.39453 195.89231 183.57032 196.2349 183.78516 196.49023 C 184.00001 196.74555 184.17578 197.05783 184.17578 197.18555 C 184.17578 197.40108 184.70483 198.64264 185.20898 199.60938 C 185.32796 199.83747 185.42578 200.11946 185.42578 200.23438 C 185.42578 200.404 186.59094 202.94271 187.14453 203.98047 C 187.21911 204.12028 187.32817 204.507 187.38867 204.83984 C 187.51609 205.54118 188.16202 207.20563 188.85156 208.61133 C 189.1157 209.14981 189.33203 209.65578 189.33203 209.73438 C 189.33203 209.88151 190.19765 211.87313 190.39453 212.17969 C 190.96497 213.06786 191.37838 213.6203 191.67188 213.88281 C 191.86403 214.05468 192.1502 214.44542 192.30664 214.75195 C 192.46309 215.05848 192.69923 215.39956 192.83203 215.50977 C 192.96482 215.61998 193.24467 216.08371 193.45312 216.53906 C 193.66159 216.99441 193.99709 217.52993 194.19922 217.73047 C 194.40134 217.931 194.63846 218.23865 194.72656 218.41211 C 194.81465 218.58558 195.03417 218.74734 195.21484 218.77344 C 195.3955 218.79952 195.98728 219.29171 196.5293 219.86719 C 197.07132 220.44268 197.55492 220.91597 197.60352 220.91797 C 197.80717 220.92733 198.57564 221.52676 198.71289 221.7832 C 198.83852 222.01796 198.70851 222.14692 197.87109 222.61523 C 197.32634 222.91988 196.79862 223.2669 196.69922 223.38672 C 196.59978 223.50654 196.21119 223.79797 195.83594 224.03516 C 195.45597 224.27534 195.04091 224.70515 194.89844 225.00391 C 194.75774 225.29897 194.44461 225.65242 194.20312 225.79102 C 193.96165 225.92961 193.39039 226.63205 192.93359 227.35156 C 192.47678 228.07107 191.97093 228.73061 191.81055 228.81641 C 191.65017 228.90224 191.51953 229.07999 191.51953 229.21289 C 191.51953 229.34579 191.29102 229.74921 191.01172 230.10742 C 190.43006 230.85344 190.14875 231.28239 190.02344 231.61719 C 189.97519 231.7461 189.80541 232.14126 189.64648 232.49414 C 189.48755 232.84703 189.3098 233.46226 189.25 233.86133 C 189.19016 234.2604 189.0908 234.58594 189.0293 234.58594 C 188.67825 234.58594 187.38927 233.52481 187.20508 233.08398 C 187.08816 232.80416 186.86261 232.48231 186.70312 232.36914 C 186.54365 232.25597 186.33674 232.02033 186.24414 231.8457 C 186.15156 231.67107 185.76875 231.37537 185.39258 231.1875 C 185.01641 230.99963 184.5423 230.66875 184.33789 230.45117 C 184.13349 230.23359 183.84012 230.05469 183.6875 230.05469 C 183.53487 230.05469 183.35014 229.94842 183.27734 229.81836 C 183.07533 229.45738 179.83656 227.71094 179.36914 227.71094 C 179.14279 227.71094 178.70428 227.53437 178.39258 227.31836 C 178.08087 227.10235 177.42946 226.78539 176.94531 226.61523 C 174.58055 225.67532 172.1433 225.20053 169.50391 224.79883 C 169.2808 224.68241 168.99218 224.58603 168.86328 224.58203 C 168.73437 224.57876 168.49298 224.47383 168.32617 224.34766 C 168.15935 224.22148 167.8561 224.11719 167.65234 224.11719 C 167.22738 224.11719 165.75029 223.67043 165.47656 223.45898 C 165.37551 223.38088 165.19974 223.3303 165.08594 223.3457 C 164.60691 223.41059 164.31353 223.31744 163.99609 223 C 163.81084 222.81474 163.12257 222.39708 162.4668 222.07227 C 161.81103 221.74746 161.13554 221.32591 160.9668 221.13672 C 160.69723 220.8345 158.20441 219.11719 158.03516 219.11719 C 157.8177 219.11719 156.86584 218.02238 156.77734 217.66992 C 156.71883 217.43678 156.42822 217.0245 156.13086 216.75391 C 155.83351 216.48332 155.54283 216.11299 155.48633 215.93164 C 155.42979 215.75029 155.17871 215.35547 154.92773 215.05469 C 154.67675 214.75391 154.33509 214.34324 154.16797 214.14258 C 154.00086 213.94192 153.86353 213.69582 153.86328 213.5957 C 153.86291 213.49557 153.65511 213.10171 153.40234 212.7207 C 153.14957 212.3397 152.98275 211.96512 153.03125 211.88672 C 153.07971 211.80836 153.05024 211.59141 152.96484 211.40625 C 152.42611 210.23753 151.81164 207.03385 151.80664 205.36719 C 151.79857 202.47391 151.87187 201.88597 152.33008 201.20703 C 152.57156 200.84923 152.76953 200.38438 152.76953 200.17383 C 152.76953 199.96329 152.91016 199.66335 153.08203 199.50781 C 153.25391 199.35226 153.39453 199.15762 153.39453 199.07422 C 153.39453 198.82622 154.23075 197.02078 154.42383 196.85156 C 154.52189 196.76562 154.8267 196.36077 155.10156 195.95117 C 155.37642 195.54158 155.7292 195.08455 155.88672 194.93555 C 156.04423 194.78655 156.19917 194.52627 156.23047 194.35742 C 156.26182 194.18857 156.53379 193.89537 156.83398 193.70508 C 157.71758 193.14498 158.37798 192.55459 158.66406 192.07031 C 158.8112 191.82121 159.02258 191.61719 159.13477 191.61719 C 159.24697 191.61719 159.74206 191.23129 160.23438 190.75977 C 160.83213 190.18728 161.27164 189.89395 161.55859 189.87695 C 161.79492 189.86295 162.07617 189.84494 162.18359 189.83594 C 162.29101 189.82734 162.46212 189.67451 162.56445 189.49609 C 162.68634 189.28359 163.05398 189.09887 163.62891 188.96094 C 164.17848 188.8291 164.56632 188.63942 164.66602 188.45312 C 164.7626 188.27267 164.9195 188.19165 165.06641 188.24805 C 165.19962 188.29917 165.40915 188.25758 165.53125 188.15625 C 165.62456 188.07881 166.07553 188.03263 166.70508 188.01172 z M 152.68164 190.59961 C 152.34502 190.5651 151.7567 190.67512 150.62891 190.82031 C 150.47453 190.90383 150.1224 191.06135 149.84766 191.17188 C 149.57292 191.28239 149.31112 191.51701 149.26562 191.69141 C 149.22018 191.8658 148.91003 192.13849 148.57617 192.29688 C 148.23206 192.46013 147.5705 193.05415 147.04883 193.66992 C 146.54271 194.26734 145.83008 195.07373 145.46484 195.46094 C 144.56572 197.20005 142.33212 198.15069 141.62891 200.23633 C 141.3674 200.49784 140.68439 201.80771 140.50195 202.39844 C 140.4356 202.61328 140.14595 203.0646 139.85742 203.40234 C 139.56889 203.74007 139.33203 204.0991 139.33203 204.19922 C 139.33203 204.29934 139.19983 204.50118 139.03711 204.64844 C 138.8744 204.79569 138.58257 205.423 138.38867 206.04102 C 138.19476 206.65904 137.87831 207.33985 137.68555 207.55469 C 136.0639 209.47476 136.14686 212.21847 134.72266 214.29297 C 134.6614 214.58265 134.40361 215.27317 134.15039 215.82617 C 133.89718 216.37917 133.61855 217.15261 133.53125 217.54492 C 133.13186 219.10231 133.05022 220.5246 132.30469 222 C 132.13209 222.50167 131.92751 222.98868 131.84961 223.08398 C 131.77171 223.17927 131.62258 223.82031 131.51953 224.50781 C 130.56472 229.57574 128.90293 235.9728 131.33594 240.86523 C 131.73825 241.18167 132.13174 241.44517 132.21094 241.45117 C 132.29013 241.457 132.65111 241.15182 133.01367 240.77344 C 133.60089 239.9073 133.4994 238.65775 134.48828 237.59961 C 134.96669 235.7811 135.60891 234.07926 136.37695 232.35742 C 136.49539 232.13654 136.44665 232.0505 136.12891 231.92969 C 136.04787 231.71227 135.71319 231.27036 135.67969 230.79883 C 135.40429 230.52344 135.49248 229.50449 135.82617 229.11719 C 136.04204 228.86664 136.42464 227.79993 136.5957 226.9707 C 137.24737 225.86761 138.18498 225.03769 136.81836 223.96094 C 136.41236 223.96094 135.41978 224.87508 135.16602 225.48242 C 135.04876 225.76306 134.88363 225.99219 134.79883 225.99219 C 134.71408 225.99219 134.64453 226.08864 134.64453 226.20703 C 134.64453 226.32541 134.53907 226.51021 134.41016 226.61719 C 134.20689 226.78591 134.17578 226.70329 134.17578 225.98828 C 134.17578 225.39435 134.30961 224.88163 134.65234 224.15625 C 134.91395 223.60253 135.16845 222.94468 135.21875 222.69336 C 135.26901 222.44204 135.37247 222.19854 135.44727 222.15234 C 135.52214 222.10609 135.58203 221.79899 135.58203 221.4707 L 136.30273 221.10938 C 137.23824 220.74049 137.71873 220.18337 138.54883 219.00977 C 138.5499 218.82148 138.62113 218.62341 138.70703 218.57031 C 138.79298 218.51719 138.86328 218.33899 138.86328 218.17383 C 139.99277 217.27192 140.38083 216.00278 140.97266 214.83398 C 141.4315 214.53333 141.46927 214.1097 141.0918 213.4707 C 140.86916 213.09383 140.74752 213.02712 140.42773 213.10742 C 140.2125 213.16149 140.03234 213.21792 140.02734 213.23242 C 140.02263 213.24692 139.89977 213.44833 139.75391 213.68164 C 139.60804 213.91494 139.48828 214.24249 139.48828 214.4082 C 139.48828 214.5739 139.38282 214.74933 139.25391 214.79883 C 139.12501 214.84829 139.01953 215.03246 139.01953 215.20703 C 139.01953 215.3816 138.96674 215.50587 138.90234 215.48438 C 138.61223 215.38767 137.61328 216.81039 137.61328 217.32031 C 137.61328 217.42286 137.47705 217.66348 137.31055 217.85547 C 137.14409 218.04745 137.04695 218.30578 137.09375 218.42773 C 137.14588 218.56355 137.07874 218.64844 136.92188 218.64844 C 136.78109 218.64844 136.63059 218.55845 136.58789 218.44727 C 136.48407 218.17674 136.92004 216.13193 137.10742 216.00977 C 137.18879 215.95672 137.37726 215.52735 137.52734 215.05469 C 138.07815 213.3199 138.93832 211.23349 139.26562 210.83594 C 139.37175 210.70704 139.56444 210.24999 139.69336 209.82031 C 140.24365 208.02044 141.86096 206.26087 142.76758 204.19727 C 142.85455 204.14354 142.92578 203.98718 142.92578 203.85156 C 142.92578 203.71594 143.23001 203.14056 143.60156 202.57227 C 144.23504 201.56289 145.28348 200.57722 145.96875 199.43359 C 146.97096 197.99736 148.49736 196.67856 149.55469 195.38867 C 149.905 195.22378 150.33223 194.93424 150.50391 194.74414 C 150.67558 194.55403 151.0058 194.29991 151.23828 194.17969 C 151.47076 194.05946 152.20117 193.04688 152.20117 193.04688 C 152.76745 191.76441 152.79906 192.25056 153.22461 191.24023 C 153.10305 190.81231 153.01826 190.63412 152.68164 190.59961 z M 177.63281 199.97852 C 177.46255 199.99468 177.24917 200.04617 176.97656 200.13672 C 176.35221 200.34409 176.20703 200.46072 176.20703 200.75195 C 176.20703 200.94937 176.3125 201.19771 176.44141 201.30469 C 176.57031 201.41167 176.67578 201.59524 176.67578 201.71289 C 176.67578 201.83055 176.81641 202.01571 176.98828 202.12305 C 177.16016 202.23039 177.30078 202.40722 177.30078 202.51758 C 177.30078 202.62794 177.4677 202.78178 177.67188 202.85938 C 177.92258 202.95469 178.06568 203.15633 178.11328 203.48047 C 178.17597 203.90766 178.14036 203.96094 177.79102 203.96094 C 176.54674 204.47711 176.01387 204.25081 174.7207 204.83398 C 174.00158 205.57448 174.02504 205.96442 174.83984 206.76367 C 175.3995 207.31266 175.57761 207.40273 175.97266 207.33203 C 176.70823 207.20043 178.86856 207.14957 179.04688 207.25977 C 179.30976 208.25584 179.52654 208.78906 179.80078 209.90039 C 179.80078 210.14754 179.8621 210.38699 179.9375 210.43359 C 180.01287 210.48017 180.15931 210.85109 180.26172 211.25781 C 180.43959 211.9642 181.13676 212.8512 181.68359 213.06641 C 182.17232 213.25877 182.54149 213.1628 182.89453 212.75195 C 183.22604 212.3662 183.25312 212.22203 183.16992 211.30664 C 183.11907 210.74739 183.06102 209.93749 183.04102 209.50781 L 183.00391 208.72656 L 184.44922 208.68164 C 185.24414 208.65693 185.89453 208.57937 185.89453 208.50977 C 185.89453 208.44021 186.03516 208.22161 186.20703 208.02344 C 186.42231 207.77524 186.52003 207.44009 186.51953 206.94531 C 186.51894 206.36067 186.43036 206.13208 186.04297 205.71875 C 185.65494 205.30474 185.44511 205.20908 184.91016 205.20508 C 184.54928 205.20227 183.86718 205.0565 183.39453 204.88086 C 182.92187 204.70521 182.33763 204.52356 182.0957 204.47656 C 181.8081 204.42073 181.52587 204.18633 181.28125 203.79883 C 181.07549 203.47288 180.8371 203.16122 180.75 203.10742 C 180.66292 203.0536 180.51799 202.74219 180.42969 202.41406 C 180.34133 202.08592 180.02439 201.5784 179.72461 201.28711 C 179.44499 200.94115 179.22428 200.4668 178.74609 200.2832 C 178.50976 200.23341 178.1881 200.12261 178.03125 200.03711 C 177.93023 199.98203 177.80308 199.96235 177.63281 199.97852 z M 148.87695 210.43164 C 148.92345 210.40083 148.9674 210.4376 149.02539 210.5293 C 149.22123 210.83892 149.21287 211.92896 149.00391 213.12891 C 148.90915 213.67306 148.78607 214.11528 148.73047 214.11328 C 148.67484 214.11137 148.46037 213.981 148.25391 213.82227 L 147.87891 213.5332 L 148.21484 212.83789 C 148.39982 212.45578 148.55078 211.9243 148.55078 211.65625 C 148.55078 211.38819 148.6259 210.97338 148.7168 210.73438 C 148.78293 210.56042 148.83046 210.46245 148.87695 210.43164 z M 147.50977 216.61719 C 147.74147 216.61719 148.08203 217.25768 148.08203 217.69336 C 148.08203 217.84709 148.33848 218.30223 148.65234 218.70508 L 149.22266 219.4375 L 148.90625 219.78516 C 148.7315 219.97649 148.53832 220.37891 148.47852 220.67969 C 148.38808 221.13432 148.127 225.66837 148.0957 227.32031 C 148.0908 227.57812 148.07455 228.07031 148.06055 228.41406 C 148.04645 228.75781 148.05352 229.21485 148.07422 229.42969 C 148.09502 229.64454 148.12734 230.62891 148.14844 231.61719 C 148.16948 232.60547 148.23893 233.88867 148.30273 234.46875 C 148.44831 235.87598 147.57308 235.04799 146.12891 235.30078 C 145.44141 235.30727 144.68646 235.36775 144.45117 235.43555 C 144.02515 235.55829 144.0229 235.55609 144.0918 234.87695 C 144.26525 233.20306 144.63009 231.15249 145.29102 229.0625 C 145.35251 228.62027 145.51042 227.88316 145.64258 227.42578 C 145.92437 226.45056 146.26229 224.30645 146.27539 223.41406 C 146.28044 223.07031 146.34728 222.69374 146.42188 222.57812 C 146.66944 222.19438 147.12664 220.09862 147.14844 219.25 C 147.16024 218.79029 147.18979 218.20312 147.21289 217.94531 C 147.23589 217.68749 147.26434 217.2832 147.27734 217.04688 C 147.29069 216.80373 147.39133 216.61719 147.50977 216.61719 z M 152.12305 216.95898 C 152.15854 216.94714 152.20327 216.94848 152.25781 216.95898 C 152.40604 216.98753 152.60748 217.17137 152.70508 217.36719 C 152.8027 217.56301 153.03462 217.88396 153.2207 218.08203 C 153.46034 218.33711 153.5234 218.53131 153.4375 218.74805 C 153.33462 219.00765 153.26416 219.02799 152.9668 218.87695 C 152.25062 218.51319 151.98828 218.15045 151.98828 217.51953 C 151.98828 217.14788 152.01657 216.99453 152.12305 216.95898 z M 156.01953 221.32617 C 156.12518 221.33269 156.31802 221.48156 156.59766 221.77344 C 156.84466 222.03125 157.12681 222.24219 157.22461 222.24219 C 157.32246 222.24219 157.56769 222.41796 157.76953 222.63281 C 157.97137 222.84765 158.2004 223.02344 158.2793 223.02344 C 158.55809 223.02344 159.21772 223.65238 159.50977 224.19727 C 159.67247 224.50084 159.88036 225.29277 159.97266 225.95703 C 160.06496 226.62128 160.21268 227.25109 160.30078 227.35742 C 160.38898 227.46375 160.42099 227.65711 160.37109 227.78711 C 160.27318 228.04221 159.86491 228.08417 159.48828 227.87695 C 159.35937 227.80602 159.04298 227.66054 158.78516 227.55469 C 157.91707 226.87536 156.94753 226.16486 156.65039 224.96875 C 156.4785 224.63367 156.31074 224.24923 156.18359 223.6875 C 156.15282 222.75206 156.09922 222.27733 155.96484 221.73438 C 155.89582 221.45551 155.91388 221.31965 156.01953 221.32617 z M 203.44922 223.72656 C 203.98514 223.72784 204.17013 223.84474 204.83594 224.29688 C 205.63126 224.83697 205.80028 225.03191 205.76758 225.375 C 205.76305 225.42251 205.71506 226.16107 205.66016 227.01562 C 205.57298 228.374 205.24902 229.7707 204.81836 230.65039 C 204.74753 230.79507 204.5829 231.125 204.45312 231.38281 C 204.32336 231.64062 204.24836 231.93551 204.28516 232.03711 C 204.32196 232.13872 204.21396 232.29341 204.04688 232.38281 C 203.87233 232.47622 203.69737 232.7934 203.63477 233.12695 C 203.53584 233.65427 203.01985 234.64141 201.92383 236.40039 C 201.17791 237.59749 197.45151 241.61719 197.08789 241.61719 C 197.00253 241.61719 196.75235 241.82256 196.53125 242.07227 C 196.31014 242.32199 195.95312 242.55665 195.73828 242.59375 C 191.45896 243.1337 190.93938 236.24585 192.30078 233.49805 C 192.48706 232.9428 192.84491 232.25438 193.0957 231.96875 C 193.34649 231.68312 193.55078 231.39317 193.55078 231.32227 C 193.55078 231.25142 193.79575 230.88319 194.0957 230.50586 C 194.39564 230.12853 194.64158 229.69605 194.64258 229.54297 C 194.64341 229.38988 194.75001 229.22333 194.87891 229.17383 C 195.00782 229.12436 195.11328 228.98677 195.11328 228.86914 C 195.11328 228.75151 195.36182 228.42915 195.66602 228.15234 C 195.97022 227.87552 196.3042 227.47634 196.4082 227.26562 C 196.5122 227.05492 196.8086 226.76935 197.06641 226.62891 C 197.95936 226.14248 198.787 225.55979 199.16406 225.15234 C 199.3724 224.92722 199.64349 224.74219 199.76562 224.74219 C 199.88777 224.74219 200.17423 224.61638 200.40234 224.46289 C 201.15614 223.95568 201.58493 223.82736 202.76562 223.75586 C 203.05311 223.73845 203.27058 223.72614 203.44922 223.72656 z M 151.33984 223.80469 C 151.39939 223.80469 151.57155 224.03385 151.72266 224.31445 C 151.87377 224.59505 152.38353 225.22574 152.85352 225.71484 C 153.32351 226.20395 153.70703 226.74454 153.70703 226.91602 C 153.70703 227.10621 153.96601 227.40773 154.37109 227.68945 C 155.21654 228.27744 156.14321 229.25271 156.27539 229.69336 C 156.33428 229.88968 156.67372 230.17721 157.07422 230.37109 C 157.45697 230.55638 157.76953 230.77723 157.76953 230.86133 C 157.76953 230.94543 157.91384 230.96801 158.08984 230.91211 C 158.26584 230.85625 158.50825 230.89206 158.62891 230.99219 C 158.74957 231.09229 158.99566 231.12751 159.17578 231.07031 C 159.35591 231.01316 159.5972 231.04427 159.71094 231.13867 C 159.82468 231.23307 160.43377 231.3255 161.06445 231.3457 L 162.21094 231.38281 L 162.34766 231.92969 C 162.8097 233.78209 163.0561 236.92062 162.88281 238.72656 C 162.80864 239.5 162.7495 240.33991 162.75 240.5918 C 162.75054 240.84369 162.67985 241.18085 162.59375 241.3418 C 162.50761 241.50275 162.41432 241.823 162.38672 242.05469 C 162.35902 242.28638 162.32836 242.52383 162.31836 242.58203 C 162.20281 243.22874 162.13949 244.0699 163.29102 244.69727 C 163.39079 244.66362 163.55043 244.7415 163.64453 244.86914 C 163.89003 245.20231 164.57883 244.98683 164.91602 244.47266 C 165.12683 244.1512 165.21753 243.55766 165.30273 241.9375 C 165.34398 241.17535 164.98396 238.09839 166.42383 238.34961 C 166.67231 238.54507 167.14162 238.70823 167.54688 238.74023 C 167.92931 238.77037 168.37758 238.86853 168.54297 238.95703 C 168.70836 239.04556 169.16036 239.11719 169.54883 239.11719 C 170.86343 239.2565 171.06379 239.33072 172.2168 239.8418 L 172.39844 240.94336 L 172.08398 243.62891 C 171.92807 244.9606 171.82425 246.6236 171.60742 248.2168 C 171.38095 249.18425 171.37483 250.92108 170.38672 251.38867 C 167.3972 252.50439 164.50593 252.39002 161.36328 253.22461 C 157.85502 254.24507 155.7706 254.73429 152.06641 254.2793 C 149.29531 253.91255 146.43406 253.91886 143.84375 253.56641 C 142.64637 253.41319 141.31706 253.8169 140.25586 253.29297 C 139.84711 252.97308 139.69108 252.69226 139.5293 251.97852 C 139.2411 250.70703 139.10184 245.5098 139.35156 245.35547 C 139.4911 245.26924 139.47122 245.1724 139.27734 244.97852 C 139.00611 244.70729 139.05828 244.43273 139.38086 244.42773 C 139.6413 244.4238 140.57098 242.98408 141.0957 241.77344 C 141.65056 240.49329 141.79299 240.19033 141.97852 239.89844 C 142.06046 239.76954 142.1681 239.4128 142.2168 239.10547 C 142.70273 237.81114 145.58892 238.94777 147.45703 238.0625 C 147.45701 238.18401 147.67834 238.25781 148.04297 238.25781 L 148.62891 238.25781 L 148.62891 239.95508 L 148.62891 241.6543 L 149.40625 242.33789 C 150.20848 243.04498 150.75655 243.19127 151.37305 242.86133 C 151.62867 242.02433 151.21525 241.14133 151.31055 239.99414 C 151.37185 239.21153 151.4162 238.46485 151.4082 238.33594 C 151.27266 236.16464 151.19971 235.14038 151.13281 234.42969 C 151.05593 233.6123 151.02654 233.05795 150.84766 229.03906 C 150.80556 228.09374 150.83064 227.00391 150.90234 226.61719 C 150.97408 226.23047 151.07801 225.43945 151.13281 224.85938 C 151.18764 224.2793 151.28024 223.80469 151.33984 223.80469 z M 163.37305 225.87695 C 163.5997 225.97277 163.87363 226.15675 163.98047 226.28516 C 164.08731 226.41356 164.47403 226.55862 164.83984 226.60742 C 165.38891 226.6807 165.51354 226.75936 165.55664 227.06445 C 165.58543 227.26772 165.54946 227.49351 165.47656 227.56641 C 165.40367 227.6393 164.95783 227.7359 164.48633 227.7793 C 163.35842 227.88323 162.77003 227.55148 162.76953 226.8125 C 162.98243 226.36542 162.8032 225.89495 163.37305 225.87695 z M 133.39648 232.11523 C 133.4523 232.12601 133.51037 232.17325 133.56641 232.26172 C 133.64139 232.38015 133.70408 232.52127 133.70508 232.57617 C 133.7064 232.6311 133.56941 232.84203 133.40039 233.04492 L 133.0918 233.41406 L 133.08789 232.83789 C 133.08372 232.37521 133.22905 232.08291 133.39648 232.11523 z M 136.11719 249.46289 C 136.38988 249.5025 136.42622 249.60779 136.38672 250.24219 C 136.35203 250.79903 136.42225 251.08538 136.67969 251.43359 C 136.93432 251.77799 137.03267 252.16527 137.07227 252.99219 C 137.25485 255.53186 137.32239 258.12352 137.67188 260.72266 C 138.03313 261.53191 138.10227 262.27092 138.16797 265.99219 C 138.22944 269.23862 138.62279 272.37394 138.89648 275.625 C 138.97134 275.72415 139.05648 276.42728 139.08398 277.1875 C 139.11152 277.94772 139.19001 279.22384 139.25781 280.02148 C 139.68103 286.4888 138.62677 294.89402 139.69336 302.25977 C 139.67536 303.32424 139.65734 304.59961 139.65234 305.09375 L 139.6543 305.09375 C 139.64993 305.58789 139.5937 305.98933 139.5293 305.98633 C 139.30117 305.97539 138.48781 305.22312 138.5918 305.11914 C 138.64986 305.06107 138.59986 304.87357 138.48047 304.70312 C 138.36105 304.53268 138.29554 304.3084 138.33594 304.20312 C 138.37634 304.09786 138.30079 303.92077 138.16797 303.81055 C 137.39616 300.83692 137.06488 298.29314 136.75 294.77734 C 136.69471 291.5051 136.1539 288.59174 136.34375 285.44531 C 136.29256 285.35938 136.24052 284.59823 136.22852 283.75391 C 135.89601 277.82648 136.03326 272.68181 135.47461 265.73633 C 135.55191 264.50544 135.50779 263.8101 135.27734 262.61133 C 134.96598 260.99165 134.91303 259.74795 135.13281 259.1543 C 135.68743 256.01287 134.43287 252.79617 135.30273 250.03906 C 135.63882 249.62085 135.90535 249.43209 136.11719 249.46289 z M 170.52148 254.50391 C 170.79375 254.45712 170.8797 254.60748 170.76172 254.94336 C 170.64711 255.26955 170.67546 259.11412 170.80664 260.99219 C 170.83965 261.46484 170.90793 262.47082 170.95703 263.22852 C 171.00616 263.98621 171.08185 264.66733 171.12695 264.74023 C 171.17197 264.81309 171.24767 265.38014 171.29297 266.00195 C 171.7033 269.84254 171.53083 274.08027 171.55273 278.64844 C 172.08787 281.86555 171.45567 284.79512 171.9082 288.02344 C 171.91159 289.77733 171.84714 292.04206 172.07031 294.11719 C 172.17712 294.33203 172.27034 294.82909 172.27734 295.22266 C 172.28417 295.61626 172.36548 296.1408 172.45898 296.38672 C 172.55248 296.63266 172.66308 297.67794 172.70508 298.71094 C 172.77802 300.4271 173.08742 302.55172 172.87109 304.73047 C 172.97873 305.19682 172.85105 308.33227 172.78125 308.45703 C 172.61865 308.74758 172.66738 305.91058 172.53906 305.13086 C 172.20384 303.09405 172.0722 302.8668 170.58984 301.74805 L 169.89453 301.22266 L 169.93555 299.66211 C 169.95833 298.80397 170.0744 297.67333 170.19336 297.15039 C 170.34476 296.48511 170.3696 295.92207 170.2793 295.27539 C 170.2088 294.76707 170.18165 293.94762 170.21875 293.45312 C 170.13396 291.64888 170.12592 289.42828 170.25781 287.28906 C 170.29471 282.17495 170.26481 280.84272 170.09961 280.4082 C 169.92152 277.98817 170.2608 274.89516 169.88281 271.92969 C 169.41352 270.39501 169.66485 268.95109 169.5332 267.29297 C 169.56711 263.7155 170.26244 260.40716 169.87695 256.37695 L 169.76758 254.80859 L 170.1875 254.61719 C 170.31869 254.55741 170.43073 254.5195 170.52148 254.50391 z M 166.49023 255.36523 C 166.74013 255.33176 166.97209 255.41016 167.05078 255.61523 C 167.18767 255.97209 167.16666 258.96098 167.02734 258.96094 C 166.96285 258.96092 166.91016 259.73169 166.91016 260.67383 C 166.91016 262.05828 167.52312 297.50796 167.31445 297.7168 C 166.83678 298.19488 165.98178 262.40928 165.95508 260.05469 C 165.92431 257.34815 165.92984 257.41888 165.72266 256.75586 C 165.57493 256.28302 165.58998 256.12487 165.81641 255.7793 C 165.97128 255.54293 166.24034 255.39871 166.49023 255.36523 z M 163.28711 256.08008 C 163.39781 259.02273 163.64856 262.4301 163.56836 265.68359 C 164.42226 272.12746 163.35071 278.3443 164.16797 284.55078 C 164.40295 285.74841 164.27309 286.81316 164.30859 289.11719 C 164.31009 289.24609 164.27682 289.86188 164.23242 290.48438 C 164.13677 291.84166 164.52251 294.07931 164.50781 296.25781 C 164.49749 296.93087 164.6437 298.11784 164.6543 299.13477 C 164.79389 299.39603 164.84026 300.09272 164.78906 301.14844 C 164.78281 301.27735 164.84925 301.94531 164.93555 302.63281 L 165.0918 303.88281 L 164.63477 304.35938 C 164.38296 304.62128 164.17578 304.90132 164.17578 304.98242 C 164.17578 305.06353 163.92834 305.4912 163.625 305.93164 C 163.30148 306.40137 163.07417 306.91735 163.07617 307.18164 C 163.09067 309.23147 163.31783 310.05469 163.86914 310.05469 C 164.03799 310.05469 164.17578 310.12012 164.17578 310.19922 C 164.17578 310.4278 165.1176 310.61194 167.14453 310.7793 C 167.70312 310.82542 168.22258 310.92079 168.29688 310.99219 C 168.48215 311.17012 167.24306 311.92969 166.76758 311.92969 C 166.5561 311.92969 166.33826 312.00004 166.28516 312.08594 C 166.23205 312.17189 166.0286 312.24219 165.83203 312.24219 C 165.63546 312.24219 165.27101 312.34004 165.02148 312.45898 C 164.40266 312.75363 163.7436 312.89444 163.6543 312.75 C 163.61376 312.68442 162.81824 312.61079 161.88672 312.58789 C 160.9552 312.56505 159.77348 312.47196 159.25977 312.38086 C 158.74606 312.28977 157.71075 312.19713 156.95898 312.17383 C 156.20722 312.15047 155.49371 312.04967 155.375 311.95117 C 155.24947 311.84697 154.95361 311.81399 154.66797 311.87109 C 154.06058 311.99256 154.02229 311.74631 154.56836 311.24023 C 154.89698 310.93564 154.95898 310.73775 154.95898 309.98828 C 154.95898 309.49834 154.88718 308.9641 154.80078 308.80273 C 154.7144 308.64135 154.63274 308.20798 154.61914 307.83789 C 154.60557 307.46781 154.54402 307.0586 154.48242 306.92969 C 154.29425 306.53572 153.90882 305.18136 153.71875 304.25195 C 153.61923 303.76533 153.40106 303.24831 153.23242 303.0957 C 153.06453 302.94377 152.92773 302.68981 152.92773 302.53125 C 152.92773 302.36603 152.81568 302.24219 152.66602 302.24219 C 152.5224 302.24219 152.27853 302.12917 152.125 301.99023 C 151.91237 301.79781 151.4528 301.72771 150.19141 301.69531 C 149.28067 301.67191 148.51097 301.6267 148.48047 301.5957 C 148.34617 301.45878 148.26837 298.85527 148.39258 298.6543 C 148.47178 298.52478 148.47132 298.32262 148.39062 298.17188 C 148.19436 297.80516 147.89574 293.6055 147.83594 290.36719 C 147.80273 288.56854 147.60525 285.5764 147.39648 282.16406 C 147.17386 279.3941 147.50705 275.87054 146.74609 272.39844 C 146.60335 271.32422 146.42376 269.98828 146.34766 269.42969 C 146.27153 268.87109 146.17632 267.88672 146.13672 267.24219 C 145.92683 263.82707 145.8372 262.23564 145.8125 261.46094 C 145.79743 260.98828 145.74607 260.49609 145.69727 260.36719 C 145.58234 260.06382 145.42078 258.95901 145.33008 257.84961 L 145.25977 256.9707 L 145.84961 256.88086 C 146.38339 256.79873 147.27475 256.82016 149.99023 256.98438 C 150.4815 257.01408 150.98494 257.12296 151.10742 257.22461 C 154.56888 257.77633 159.3969 256.97433 163.28711 256.08008 z M 142.2832 256.46094 C 142.52778 256.46094 142.92218 256.61358 143.16016 256.80078 L 143.59375 257.14258 L 143.2207 257.28711 C 142.99956 257.37391 142.92703 257.46431 143.04297 257.50781 C 143.15039 257.54814 143.23828 257.82161 143.23828 258.11523 C 143.23828 258.40885 143.30863 258.64844 143.39453 258.64844 C 143.67111 258.64844 145.96109 287.91366 145.68945 289.53711 C 145.40635 291.13252 145.67674 291.63024 145.56836 292.36719 C 145.35621 293.80977 144.26953 285.86133 144.26953 285.86133 C 144.44618 286.87015 142.62586 262.02246 142.63086 261.46094 C 142.6327 261.24609 142.56241 260.7539 142.47461 260.36719 C 142.27348 259.48169 142.04689 258.16494 141.92969 257.20312 C 141.84039 256.46995 141.84417 256.46094 142.2832 256.46094 z M 142.13086 283.49023 C 142.1758 283.48627 142.22453 283.52586 142.27734 283.61133 C 143.68857 288.64611 145.34287 304.17148 143.71289 306.91016 C 143.70339 307.29624 142.67027 308.31212 142.43555 308.16602 C 142.26771 308.06155 142.26306 307.97062 142.4082 307.73633 C 142.69068 307.28034 142.64413 302.81986 142.35156 302.31055 C 142.22286 302.08648 142.20814 301.796 142.30664 301.35742 C 142.38464 301.01025 142.39342 300.52235 142.32422 300.27344 C 141.81577 295.47729 142.51654 291.31252 141.77344 286.53906 C 141.80504 286.02344 141.84899 285.16858 141.87109 284.63867 C 141.90161 283.90619 141.99603 283.50212 142.13086 283.49023 z M 168.38086 304.48438 C 168.50863 304.45038 168.63749 304.49208 168.85938 304.58398 C 169.41054 304.81229 169.46759 304.99309 169.52539 306.69531 C 169.57335 308.10676 169.53917 308.13813 168.31641 307.8418 C 167.97266 307.75851 167.42827 307.65177 167.10547 307.60547 C 166.78266 307.55918 166.47678 307.45349 166.42578 307.37109 C 166.26222 307.10645 166.52243 306.14844 166.75781 306.14844 C 166.88062 306.14844 167.08164 305.95508 167.20508 305.71875 C 167.32852 305.48242 167.64294 305.08635 167.9043 304.83789 C 168.12478 304.6283 168.25309 304.51837 168.38086 304.48438 z M 150.48633 304.85547 C 150.7641 304.86546 150.81928 304.97833 150.95508 305.37109 C 151.22932 306.16428 151.58323 308.57276 151.46875 308.87109 C 151.41523 309.01057 151.2461 309.16409 151.09375 309.21289 C 150.66514 309.35022 150.07973 309.59237 149.59375 309.83398 C 149.04966 310.10449 148.79286 310.1113 148.39258 309.86133 C 148.14554 309.70705 148.01852 309.70705 147.77148 309.86133 C 147.60077 309.96794 147.44252 310.04802 147.41992 310.04102 C 147.31932 310.00921 146.8413 309.42784 146.70117 309.16602 C 146.51297 308.81436 146.59725 307.32495 146.82031 307.05078 C 146.90907 306.94167 147.14045 306.65816 147.33594 306.42188 C 147.87096 305.7752 149.38516 304.93385 150.12305 304.87305 C 150.27599 304.86046 150.39374 304.85214 150.48633 304.85547 z M 143.12305 310.44141 C 143.22967 310.47833 143.36542 310.63375 143.52734 310.9082 C 143.72395 311.24142 143.97457 311.46094 144.1582 311.46094 C 144.66973 311.46094 144.95703 311.63658 144.95703 311.94727 C 144.95703 312.19347 144.84584 312.23946 144.29297 312.22656 C 143.00446 312.19634 142.84766 312.08844 142.84766 311.23242 C 142.84766 310.64573 142.94534 310.37986 143.12305 310.44141 z M 148.75586 315.19922 C 149.29293 315.10975 149.26443 315.5496 149.2207 317.4375 C 149.1606 320.03629 149.15973 320.05338 149.23633 322.39844 C 149.26861 323.38672 149.3737 324.65235 149.4707 325.21094 C 149.56768 325.76954 149.77449 327.6827 149.92969 329.46289 C 150.05306 330.82911 150.43845 332.06125 150.53125 333.60742 C 150.48402 334.50867 150.52093 334.99234 150.30078 335.76953 C 150.10975 334.77226 149.95762 333.98708 149.48633 333.16406 C 149.48633 332.71502 149.19042 332.11451 149.0625 331.75195 C 148.93458 331.3894 148.66384 330.31622 148.65234 329.83008 C 148.25509 329.08102 148.60341 328.83863 147.98438 326.69727 C 147.98438 326.69727 148.03368 325.34488 147.91992 324.46484 C 147.82805 323.29975 147.8868 322.77516 147.74219 321.58594 C 147.82209 320.13748 147.80903 318.73444 147.76953 317.32617 C 147.76953 317.0167 147.65847 316.59187 147.52148 316.38281 C 147.18524 315.86964 147.27899 315.68599 148.00977 315.43164 C 148.33543 315.3183 148.57684 315.22904 148.75586 315.19922 z M 155.41016 315.36719 L 156.26953 315.36719 C 157.20614 315.36719 158.68371 315.63462 158.95703 315.85352 C 159.07233 315.94583 159.10489 316.62578 159.05469 317.92969 C 159.01145 319.05323 159.04647 320.05967 159.13867 320.32422 C 159.38477 321.03015 159.14134 321.30469 158.26953 321.30469 C 157.8386 321.30503 157.34146 321.42196 157.06641 321.58789 C 156.31741 322.03974 156.13928 322.06726 155.78125 321.77734 C 155.42089 321.48562 155.42756 321.55898 155.41406 316.73438 L 155.41016 315.36719 z M 165.60352 315.86133 C 165.92075 315.90622 165.98575 316.02473 166.06445 316.69531 C 166.11485 317.12499 166.22033 317.65235 166.29883 317.86719 C 166.43714 318.24558 166.94904 319.51263 166.82031 321.44531 C 166.78601 321.96093 166.65282 323.02735 166.64062 323.39258 L 166.64062 334.78906 C 166.59586 336.12998 165.46452 323.68966 165.35938 321.90625 C 165.29983 320.89649 165.04606 319.5957 164.91016 318.82227 C 164.85066 317.76597 164.51988 316.16294 165.60352 315.86133 z M 167.57031 352.74414 C 168.01886 352.7556 168.40408 352.89632 168.75195 353.17188 C 169.92517 354.1012 169.95923 354.15491 170.1875 355.52344 C 170.4399 357.0366 170.32475 358.75654 169.97656 358.68164 C 168.62268 358.39636 166.9511 359.3082 165.2207 358.79688 C 164.81291 358.32061 164.74196 357.68656 165.02148 357.01758 C 165.15802 356.69079 165.26953 356.25984 165.26953 356.06055 C 165.26953 355.86128 165.33988 355.65466 165.42578 355.60156 C 165.51173 355.54845 165.58203 355.19219 165.58203 354.81055 C 165.58203 354.42889 165.64194 354.11719 165.71484 354.11719 C 165.78772 354.11719 165.97354 353.83826 166.12695 353.49805 C 166.3758 352.94617 166.48004 352.86829 167.09961 352.77539 C 167.26397 352.75074 167.4208 352.74032 167.57031 352.74414 z M 150.84375 353.69727 C 151.5198 353.64358 151.98828 353.91523 151.98828 354.36133 C 151.98828 354.48409 152.09376 354.58594 152.22266 354.58594 C 152.28689 356.07106 153.27414 357.03387 153.36914 358.57227 C 153.32432 358.96492 153.23411 359.0484 152.76953 359.125 C 152.46875 359.17456 152.06445 359.30137 151.87109 359.40625 C 151.57299 359.39115 151.14339 359.43441 150.78906 359.44141 C 150.15849 359.55991 149.3203 359.75889 148.60742 359.50781 C 148.56275 359.39142 148.20676 359.14636 147.81641 358.96289 L 147.10742 358.62891 L 147.18164 357.84961 C 147.23569 357.28717 147.37178 356.95182 147.66992 356.64062 C 147.89699 356.4036 148.08203 356.13171 148.08203 356.03711 C 148.08203 355.94253 148.32813 355.57097 148.62891 355.21094 C 148.92969 354.85093 149.17723 354.50942 149.17773 354.45312 C 149.17994 354.22406 150.23414 353.74577 150.84375 353.69727 z "
           transform="translate(33.351801,116.18899)"
           id="path4146" />
      </g>
    </g>
  </g>
</svg>
