<?xml version="1.0" encoding="UTF-8" standalone="no"?>
<!-- Created with Inkscape (http://www.inkscape.org/) -->

<svg
   width="198.18875mm"
   height="143.0556mm"
   viewBox="0 0 198.18875 143.0556"
   version="1.1"
   id="svg1"
   xml:space="preserve"
   inkscape:version="1.3 (0e150ed6c4, 2023-07-21)"
   sodipodi:docname="pterodicktyl.svg"
   xmlns:inkscape="http://www.inkscape.org/namespaces/inkscape"
   xmlns:sodipodi="http://sodipodi.sourceforge.net/DTD/sodipodi-0.dtd"
   xmlns="http://www.w3.org/2000/svg"
   xmlns:svg="http://www.w3.org/2000/svg"><sodipodi:namedview
     id="namedview1"
     pagecolor="#ffffff"
     bordercolor="#666666"
     borderopacity="1.0"
     inkscape:showpageshadow="2"
     inkscape:pageopacity="0.0"
     inkscape:pagecheckerboard="0"
     inkscape:deskcolor="#d1d1d1"
     inkscape:document-units="mm"
     inkscape:zoom="0.76434875"
     inkscape:cx="427.81518"
     inkscape:cy="205.40362"
     inkscape:window-width="1904"
     inkscape:window-height="1064"
     inkscape:window-x="8"
     inkscape:window-y="8"
     inkscape:window-maximized="1"
     inkscape:current-layer="layer1" /><defs
     id="defs1" /><g
     inkscape:label="Layer 1"
     inkscape:groupmode="layer"
     id="layer1"
     transform="translate(-6.2305376,-89.013292)"><path
       id="path1"
       d="m 6.9559876,231.34345 c 5.0384984,-3.86869 9.3311134,-8.6204 12.6681924,-14.02502 3.547924,-5.74581 5.938521,-12.10602 9.04775,-18.09651 2.982303,-5.74587 6.928036,-11.32518 13.120494,-13.11937 3.216944,-0.93293 6.621925,-0.6236 9.95233,-0.90565 6.990455,-0.59197 13.458294,-3.7622 20.359083,-4.97631 1.198156,-0.21067 2.405308,-0.36157 3.619425,-0.4521"
       style="fill:none;stroke:#000000;stroke-width:1.4509;stroke-linecap:round;stroke-linejoin:round;stroke-miterlimit:10;stroke-dasharray:none;stroke-opacity:1" /><path
       id="path2"
       d="m 6.9559876,231.34345 c 3.0298964,-1.43164 6.2196214,-2.49489 9.5011594,-3.16707 3.741736,-0.76738 7.57189,-1.02016 11.310231,-1.8102 3.339371,-0.70505 6.5869,-1.83745 9.499967,-3.61934 4.215746,-2.57762 7.497111,-6.36923 11.310376,-9.50002 3.218105,-2.64227 6.830565,-4.81863 10.857984,-5.88185 4.704121,-1.24111 9.622394,-0.87054 14.477119,-0.9045 5.261848,-0.0363 10.571285,-0.5702 15.381902,-2.71493 2.597988,-1.15724 4.988788,-2.77122 6.786458,-4.97602 2.582028,-3.16587 3.729113,-7.26351 3.167033,-11.31037"
       style="fill:none;stroke:#000000;stroke-width:1.4509;stroke-linecap:round;stroke-linejoin:round;stroke-miterlimit:10;stroke-dasharray:none;stroke-opacity:1" /><path
       id="path3"
       d="m 96.081184,198.76952 c 2.29533,0.85139 4.435416,2.07422 6.334066,3.61943 2.8519,2.32028 5.1835,5.37037 8.59544,6.78617 3.97635,1.64822 8.44136,0.68714 12.66698,1.35688 6.54502,1.03722 11.77959,5.77872 18.09683,7.69098 5.84424,1.76941 12.03002,0.99181 18.09654,0.45228 4.34488,-0.38542 8.8006,-0.67221 12.66813,-2.71366 4.5512,-2.4042 7.59229,-6.81811 9.04784,-11.76367 1.77852,-6.04388 1.13925,-12.57759 3.16703,-18.54893 1.8737,-5.51779 5.79462,-10.0124 10.4056,-13.57146 2.64586,-2.04375 5.58598,-3.86666 7.23884,-6.78646 1.32265,-2.33741 1.64794,-5.1098 0.9045,-7.69095"
       style="fill:none;stroke:#000000;stroke-width:1.4509;stroke-linecap:round;stroke-linejoin:round;stroke-miterlimit:10;stroke-dasharray:none;stroke-opacity:1" /><path
       id="path4"
       d="m 203.30298,157.60013 c -3.77932,1.48485 -7.54934,2.99234 -11.31038,4.52391 -3.6409,1.48254 -7.3053,3.00599 -10.40559,5.42958 -3.88697,3.0379 -6.61061,7.24871 -8.59544,11.76247 -1.5574,3.53992 -2.66502,7.25568 -4.07153,10.85799 -0.89318,2.28517 -1.92593,4.55206 -3.61943,6.3329 -1.44742,1.52229 -3.33359,2.61279 -5.42957,2.71494 -3.76451,0.18339 -6.69012,-2.71029 -9.95233,-4.52392 -1.44075,-0.80148 -3.02978,-1.42943 -4.07269,-2.71493 -1.61079,-1.98803 -1.01979,-3.92578 -1.44809,-6.42742"
       style="fill:none;stroke:#000000;stroke-width:1.4509;stroke-linecap:round;stroke-linejoin:round;stroke-miterlimit:10;stroke-dasharray:none;stroke-opacity:1"
       sodipodi:nodetypes="cccccccccc" /><path
       id="path5"
       d="m 106.73443,166.57781 c -8.433549,-2.52394 -11.566983,-1.04479 -15.629556,0.97581"
       style="fill:none;stroke:#000000;stroke-width:1.4509;stroke-linecap:round;stroke-linejoin:round;stroke-miterlimit:10;stroke-dasharray:none;stroke-opacity:1"
       sodipodi:nodetypes="cc" /><path
       id="path6"
       d="m 91.104874,167.55362 c 0.461387,0.83195 0.528419,1.82727 0.180492,2.71348 -0.354891,0.90797 -1.098624,1.59599 -1.99064,1.99064 -1.088178,0.48286 -2.322607,0.50665 -3.437772,0.0905 -0.880988,-0.32761 -1.656061,-0.93409 -1.99064,-1.80898 -0.359244,-0.93961 -0.136965,-1.986 0.452392,-2.80547 0.599514,-0.83311 1.519967,-1.37169 2.533278,-1.53825 0.822953,-0.13493 1.661865,-0.018 2.442742,0.27219 0.665384,0.24578 1.279697,0.61431 1.810148,1.08586"
       style="fill:none;stroke:#000000;stroke-width:1.4509;stroke-linecap:round;stroke-linejoin:round;stroke-miterlimit:10;stroke-dasharray:none;stroke-opacity:1" /><path
       id="path7"
       d="m 89.294726,169.09187 c -0.163082,0.6085 -0.596031,1.10849 -1.175522,1.35659 -0.783198,0.33574 -1.709165,0.1123 -1.991511,-0.63346 -0.138126,-0.36505 -0.05426,-0.77189 0.181363,-1.08586 0.276542,-0.36621 0.716456,-0.56121 1.176683,-0.58849 0.732126,-0.0418 1.42827,0.32297 1.808987,0.95122"
       style="fill:none;stroke:#000000;stroke-width:1.4509;stroke-linecap:round;stroke-linejoin:round;stroke-miterlimit:10;stroke-dasharray:none;stroke-opacity:1" /><path
       id="path8"
       d="m 86.851984,166.19557 c -0.865899,0.23679 -1.712647,0.53945 -2.533278,0.90449 -1.999636,0.89202 -3.812105,2.14473 -5.428412,3.61943 -1.345568,1.22746 -2.547206,2.60147 -3.619424,4.07269 -1.237911,1.69697 -2.299973,3.51612 -3.167033,5.42841"
       style="fill:none;stroke:#000000;stroke-width:1.4509;stroke-linecap:round;stroke-linejoin:round;stroke-miterlimit:10;stroke-dasharray:none;stroke-opacity:1" /><path
       id="path9"
       d="m 72.103837,180.22059 c -0.67438,-0.52813 -1.282019,-1.13577 -1.810148,-1.80899 -0.335739,-0.42976 -0.638107,-0.88302 -0.904493,-1.35804"
       style="fill:none;stroke:#000000;stroke-width:1.4509;stroke-linecap:round;stroke-linejoin:round;stroke-miterlimit:10;stroke-dasharray:none;stroke-opacity:1" /><path
       id="path10"
       d="m 69.389196,177.05356 0.452101,-0.9045 c 0.555406,-1.08266 1.151728,-2.14356 1.810148,-3.16703 1.047553,-1.62879 2.250062,-3.15456 3.619425,-4.52392 1.22079,-1.22195 2.569841,-2.31361 4.071526,-3.16703 0.879828,-0.49998 1.804634,-0.91465 2.713771,-1.35689 l 0.905654,-0.4521"
       style="fill:none;stroke:#000000;stroke-width:1.4509;stroke-linecap:round;stroke-linejoin:round;stroke-miterlimit:10;stroke-dasharray:none;stroke-opacity:1" /><path
       id="path11"
       d="m 82.961821,163.48209 c 1.003155,0.21967 1.934925,0.68686 2.71377,1.3566 0.456745,0.39232 0.852261,0.85023 1.176393,1.35688"
       style="fill:none;stroke:#000000;stroke-width:1.4509;stroke-linecap:round;stroke-linejoin:round;stroke-miterlimit:10;stroke-dasharray:none;stroke-opacity:1" /><path
       id="path12"
       d="M 82.056167,163.93419 C 82.660134,159.56221 77.399426,151.29016 81.8197,150.9178"
       style="fill:none;stroke:#000000;stroke-width:1.4509;stroke-linecap:round;stroke-linejoin:round;stroke-miterlimit:10;stroke-dasharray:none;stroke-opacity:1"
       sodipodi:nodetypes="cc" /><path
       id="path13"
       d="m 62.827057,155.22795 c -0.03519,-2.144 -0.193165,-4.28583 -0.4743,-6.41195 -0.217917,-1.64871 -0.470918,-3.40136 0.443602,-4.7889 1.741483,-2.64351 6.564011,-1.95212 7.495759,-5.2477 0.698867,-2.47214 -2.216617,-5.04024 -0.769333,-7.37914 1.832445,-2.9628 6.716542,0.0352 8.708634,-2.65541 1.071647,-1.44752 0.263642,-3.34381 0.132064,-5.11693 -0.179334,-2.40408 0.964744,-4.66953 2.723558,-6.33024 4.450872,-4.20209 11.169998,-4.02846 17.00645,-1.80042 1.331525,0.5083 2.662979,1.14633 3.459829,2.32968 0.46339,0.68685 0.68162,1.55209 0.26203,2.24591 -0.5588,0.92607 -1.79175,0.92483 -2.903029,0.88568 -2.003305,-0.0716 -4.045293,0.13841 -5.789095,1.13016 -1.545304,0.87967 -2.722921,2.32938 -2.985541,4.08268 -0.361253,2.41764 1.061841,4.74586 3.377277,5.52792"
       style="fill:none;stroke:#000000;stroke-width:1.4509;stroke-linecap:round;stroke-linejoin:round;stroke-miterlimit:10;stroke-dasharray:none;stroke-opacity:1" /><path
       id="path14"
       d="m 93.514962,131.69929 c 2.434523,-2.34484 6.392835,-1.93642 8.299078,0.85419 1.50413,2.20285 1.12268,5.17231 -0.82198,7.01911 -1.944017,1.84619 -4.929198,2.07395 -7.051314,0.45799 -2.689612,-2.04666 -2.892445,-6.02157 -0.425784,-8.33129"
       style="fill:none;stroke:#000000;stroke-width:1.4509;stroke-linecap:round;stroke-linejoin:round;stroke-miterlimit:10;stroke-dasharray:none;stroke-opacity:1" /><path
       id="path15"
       d="m 95.443756,133.9085 c 0.724877,-0.6884 1.869885,-0.65967 2.558286,0.0652 0.688402,0.72488 0.658026,1.86985 -0.06685,2.55825 -0.724035,0.6876 -1.869035,0.65886 -2.557437,-0.066 -0.688401,-0.72488 -0.658033,-1.86984 0.066,-2.55744"
       style="fill:none;stroke:#000000;stroke-width:1.4509;stroke-linecap:round;stroke-linejoin:round;stroke-miterlimit:10;stroke-dasharray:none;stroke-opacity:1" /><path
       id="path16"
       d="m 102.63267,138.01454 c 13.21411,2.88458 24.93928,6.17581 33.40956,20.71894 0.9158,2.12138 1.30602,3.54742 0.34125,4.86223 -1.59483,1.43059 -4.73071,1.33956 -7.36605,-0.94875 -13.28274,-11.53358 -18.92615,-8.19314 -30.70495,-12.7339 -2.995952,-1.15494 -5.787894,-4.62878 -8.62033,-6.47156 -1.040809,-0.67794 -2.2506,-1.05934 -3.492842,-1.05055 -1.035306,0.008 -2.05593,0.2893 -2.902815,0.88548 -0.769076,0.53988 -1.348869,1.309 -1.656268,2.19681"
       style="fill:none;stroke:#000000;stroke-width:1.4509;stroke-linecap:round;stroke-linejoin:round;stroke-miterlimit:10;stroke-dasharray:none;stroke-opacity:1"
       sodipodi:nodetypes="cccsscccc" /><path
       id="path17"
       d="m 81.8197,150.9178 c 2.045921,0.19402 4.010368,0.90442 5.705739,2.06765 1.516513,1.03894 2.786296,2.42026 4.395651,3.31341 10.34301,5.74206 19.27645,-3.09104 35.00271,14.31335"
       style="fill:none;stroke:#000000;stroke-width:1.4509;stroke-linecap:round;stroke-linejoin:round;stroke-miterlimit:10;stroke-dasharray:none;stroke-opacity:1"
       sodipodi:nodetypes="cccc" /><path
       id="path20"
       d="m 115.08222,125.02617 c -0.47474,-2.41111 -0.31833,-4.90463 0.45239,-7.23855 1.51765,-4.58979 5.13156,-8.02757 9.049,-10.85799 5.27084,-3.80746 11.1412,-6.6698 17.19089,-9.047835 11.15716,-4.385502 22.8912,-7.128581 34.83649,-8.143053"
       style="fill:none;stroke:#000000;stroke-width:1.4509;stroke-linecap:round;stroke-linejoin:round;stroke-miterlimit:10;stroke-dasharray:none;stroke-opacity:1" /><path
       id="path21"
       d="m 176.61099,89.738742 c -5.75167,3.991146 -11.33649,8.216759 -16.73995,12.666968 -6.43273,5.29812 -12.61038,10.91689 -18.09654,17.19205 -1.383,1.58236 -2.75237,3.33041 -2.71377,5.42841 0.0351,1.96453 1.3003,3.60347 2.71377,4.97718 1.93028,1.8737 4.21545,3.46883 5.42957,5.88081 0.70282,1.39751 0.98255,2.96303 0.90449,4.52392 -0.15205,3.0321 -1.60179,5.78214 -2.71493,8.5966 -0.75476,1.90997 -1.36007,3.87653 -1.80898,5.88081"
       style="fill:none;stroke:#000000;stroke-width:1.4509;stroke-linecap:round;stroke-linejoin:round;stroke-miterlimit:10;stroke-dasharray:none;stroke-opacity:1" /><path
       id="path30"
       d="m 143.58465,176.60116 c 1.61195,-1.01331 2.52008,-10.82962 6.34808,-11.07342 m 0,0 c 0.86039,-0.18572 1.45052,0.12144 1.79526,-0.68905 0.2571,-0.60532 -0.15873,-1.21847 -0.45239,-1.81015 -0.28003,-0.56324 -0.43411,-1.17988 -0.45239,-1.80899 v 0 c 0.18484,-0.52029 0.49533,-0.98632 0.90478,-1.35688 2.02314,-1.83743 5.00765,-0.78552 7.69066,-0.90566 1.01795,-0.0453 2.07102,-0.41728 2.26254,-1.35688 0.2098,-1.03276 -0.77623,-1.79767 -1.81015,-2.26254 -1.14824,-0.51449 -2.36004,-0.92365 -3.61942,-0.9045 -1.25474,0.0192 -2.44594,0.46458 -3.61914,0.9045 l -3.61942,1.35804"
       style="fill:none;stroke:#000000;stroke-width:1.4509;stroke-linecap:round;stroke-linejoin:round;stroke-miterlimit:10;stroke-dasharray:none;stroke-opacity:1"
       sodipodi:nodetypes="cccccssccccccc" /><path
       id="path31"
       d="m 156.25162,154.43309 c -0.19268,-1.25358 -1.06323,-2.29881 -2.26138,-2.71493 -1.0165,-0.35112 -2.11049,-0.19268 -3.16703,0 -1.55624,0.28583 -3.11248,0.64043 -4.52363,1.35805 -0.97269,0.49302 -1.8499,1.14708 -2.71493,1.80928 -0.68338,0.52348 -2.03452,1.50361 -2.5091,3.21079"
       style="fill:none;stroke:#000000;stroke-width:1.4509;stroke-linecap:round;stroke-linejoin:round;stroke-miterlimit:10;stroke-dasharray:none;stroke-opacity:1"
       sodipodi:nodetypes="cccccc" /><path
       id="path32"
       d="m 141.07555,158.09628 c -0.33458,0.26638 -0.63811,0.5702 -0.90449,0.90478 -0.42628,0.53364 -0.75506,1.14244 -0.90479,1.80899 -0.26726,1.18684 0.058,2.40879 0,3.61942 -0.11897,2.47205 -0.7641,4.0934 -3.10382,4.89953"
       style="fill:none;stroke:#000000;stroke-width:1.4509;stroke-linecap:round;stroke-linejoin:round;stroke-miterlimit:10;stroke-dasharray:none;stroke-opacity:1"
       sodipodi:nodetypes="ccccc" /><path
       id="path33"
       style="fill:none;stroke:#000000;stroke-width:1.5;stroke-linecap:round"
       d="m 136.60246,185.27535 c 0,2.74763 -1.12396,5.94198 -3.8716,5.94198 -2.74763,0 -5.89179,-3.3259 -5.89179,-6.07353 0,-2.74763 1.2493,-5.46711 3.99693,-5.46711 2.74763,0 5.76646,2.85102 5.76646,5.59866 z"
       sodipodi:nodetypes="sssss" /><path
       id="circle33"
       style="fill:none;stroke:#000000;stroke-width:1.5;stroke-linecap:round"
       d="m 145.2818,180.95444 c 0,2.74763 -0.97854,6.36489 -3.72617,6.3649 -2.74763,-1e-5 -5.43551,-3.99644 -5.43551,-6.74407 0,-2.74763 0.86618,-4.57626 3.61381,-4.57626 2.74763,0 5.54787,2.2078 5.54787,4.95543 z"
       sodipodi:nodetypes="sssss" /><path
       style="fill:none;fill-opacity:1;stroke:#000000;stroke-width:1.5;stroke-linecap:round;stroke-dasharray:none;stroke-opacity:1"
       d="m 69.615246,176.60131 c -10.239979,-9.6115 -6.725653,-16.55993 -6.788189,-21.37336"
       id="path35"
       sodipodi:nodetypes="cc" /><path
       id="path19"
       d="m 112.4389,140.48569 c 0.19099,-3.54943 5.72446,-4.63346 6.26274,-7.31647 0.25275,-1.25939 -0.30498,-2.48453 -0.90449,-3.61943 -0.82179,-1.55624 -2.21229,-2.64774 -2.71493,-4.52362"
       style="fill:none;stroke:#000000;stroke-width:1.4509;stroke-linecap:round;stroke-linejoin:round;stroke-miterlimit:10;stroke-dasharray:none;stroke-opacity:1"
       sodipodi:nodetypes="cccc" /><path
       id="path22"
       d="m 124.08686,196.2226 c 2.15193,-2.6234 2.8632,-6.14269 1.9005,-9.39583 -1.12408,-3.80062 -4.26296,-6.56334 -7.95953,-8.03493 -1.49664,-0.59698 -3.15525,-0.96656 -4.60529,-0.27903 -0.70006,0.33359 -1.26681,0.89454 -1.60637,1.59258"
       style="fill:none;stroke:#000000;stroke-width:1.4509;stroke-linecap:round;stroke-linejoin:round;stroke-miterlimit:10;stroke-dasharray:none;stroke-opacity:1" /><path
       id="path23"
       d="m 111.81617,180.10539 c -0.34992,-0.18167 -0.6412,-0.45842 -0.84129,-0.79815 -0.25731,-0.43816 -0.37455,-0.98851 -0.81328,-1.25751 -0.81636,-0.50074 -1.84078,0.20162 -1.66837,1.14328"
       style="fill:none;stroke:#000000;stroke-width:1.4509;stroke-linecap:round;stroke-linejoin:round;stroke-miterlimit:10;stroke-dasharray:none;stroke-opacity:1" /><path
       id="path24"
       d="m 109.12673,180.47652 c -0.30777,-0.37291 -0.52392,-0.81207 -0.6335,-1.28351 -0.23177,-1.00001 -0.69752,-1.98736 -1.41292,-1.63116 -0.34788,0.1728 -0.38675,0.61288 -0.50388,0.98261 -0.13118,0.41853 -0.40408,0.78017 -0.77264,1.01968"
       style="fill:none;stroke:#000000;stroke-width:1.4509;stroke-linecap:round;stroke-linejoin:round;stroke-miterlimit:10;stroke-dasharray:none;stroke-opacity:1" /><path
       id="path25"
       d="m 105.80379,179.56414 c 0.0242,-1.01131 -0.44908,-1.97009 -1.26693,-2.56437 -0.78757,-0.57443 -1.83607,-0.75139 -2.48874,-1.48388 -1.16862,-1.31276 -0.4029,-3.24455 -0.68024,-4.92959 -0.2664,-1.62474 -1.553897,-2.92872 -3.120936,-2.76638 -1.305336,0.13561 -2.236941,1.27916 -2.380321,2.61127 -0.08164,0.75853 0.09629,1.51083 0.309282,2.24131 0.21537,0.73921 0.468879,1.46614 0.757425,2.17946"
       style="fill:none;stroke:#000000;stroke-width:1.4509;stroke-linecap:round;stroke-linejoin:round;stroke-miterlimit:10;stroke-dasharray:none;stroke-opacity:1" /><path
       id="path26"
       d="m 96.93333,174.85196 c -0.471642,-0.63063 -0.736607,-1.39172 -0.757425,-2.17946 -0.02147,-0.77741 0.171185,-1.62098 -0.309282,-2.24131 -0.628823,-0.81018 -1.840627,-0.70154 -2.751008,-0.0771 -0.973081,0.66888 -1.584379,1.77732 -1.421164,2.93677 0.08683,0.62192 0.401891,1.17807 0.695585,1.73132 0.738906,1.39139 1.371919,2.83489 1.962547,4.29596 0.591947,1.46207 1.145646,2.94639 1.963707,4.29581 0.961905,1.5894 2.260999,2.94334 3.75456,4.04869 1.43988,1.06443 3.06965,1.89584 4.8534,2.07064 1.36543,0.13439 2.72938,-0.13058 4.03359,-0.55661 1.0454,-0.34227 2.05497,-0.78711 3.01366,-1.32892"
       style="fill:none;stroke:#000000;stroke-width:1.4509;stroke-linecap:round;stroke-linejoin:round;stroke-miterlimit:10;stroke-dasharray:none;stroke-opacity:1" /><path
       id="path27"
       d="m 111.9715,187.84779 c 0.79438,1.03134 1.85128,1.83167 3.05897,2.31737 0.89411,0.35937 1.8504,0.5388 2.81325,0.52603"
       style="fill:none;stroke:#000000;stroke-width:1.4509;stroke-linecap:round;stroke-linejoin:round;stroke-miterlimit:10;stroke-dasharray:none;stroke-opacity:1" /><path
       id="path28"
       d="m 115.03047,190.16516 c -0.10996,1.21765 0.0593,2.44394 0.49473,3.58516 0.29188,0.76294 0.69828,1.47697 1.20644,2.1175"
       style="fill:none;stroke:#000000;stroke-width:1.4509;stroke-linecap:round;stroke-linejoin:round;stroke-miterlimit:10;stroke-dasharray:none;stroke-opacity:1" /><path
       id="path29"
       d="m 115.03047,190.16516 c -0.9021,0.61865 -1.5807,1.51317 -1.93091,2.55014 -0.35105,1.03708 -0.35641,2.15945 -0.0149,3.19939"
       style="fill:none;stroke:#000000;stroke-width:1.4509;stroke-linecap:round;stroke-linejoin:round;stroke-miterlimit:10;stroke-dasharray:none;stroke-opacity:1" /><path
       style="fill:none;fill-opacity:1;stroke:#000000;stroke-width:1.5;stroke-linecap:round;stroke-dasharray:none;stroke-opacity:1"
       d="m 138.41636,175.98629 c -1.05526,-3.93525 -2.36155,-7.68063 -4.63793,-10.96297"
       id="path36"
       sodipodi:nodetypes="cc" /><path
       style="fill:none;fill-opacity:1;stroke:#000000;stroke-width:1.5;stroke-linecap:round;stroke-dasharray:none;stroke-opacity:1"
       d="m 129.27394,179.02429 c -0.37063,-2.59689 -1.08182,-5.38187 -2.36067,-8.37341 1.47262,-5.44948 -7.66981,-13.27137 -18.7447,-18.05773"
       id="path37"
       sodipodi:nodetypes="ccc" /><path
       style="fill:none;fill-opacity:1;stroke:#000000;stroke-width:1.5;stroke-linecap:round;stroke-dasharray:none;stroke-opacity:1"
       d="m 106.28654,158.96048 c -0.71575,3.28962 -4.91453,4.10588 -6.21211,6.31135"
       id="path38"
       sodipodi:nodetypes="cc" /><path
       style="fill:none;fill-opacity:1;stroke:#000000;stroke-width:1.5;stroke-linecap:round;stroke-dasharray:none;stroke-opacity:1"
       d="m 92.202912,137.28923 c 1.66428,-3.87882 4.705365,-5.53789 9.611128,-4.37395"
       id="path39"
       sodipodi:nodetypes="cc" /></g></svg>
