<?xml version="1.0" encoding="UTF-8"?>
<!DOCTYPE svg PUBLIC "-//W3C//DTD SVG 1.1//EN" "http://www.w3.org/Graphics/SVG/1.1/DTD/svg11.dtd">
<!-- Creator: CorelDRAW Home & Student X6 -->
<svg xmlns="http://www.w3.org/2000/svg" xml:space="preserve" width="117.42mm" height="33.7952mm" version="1.1" style="shape-rendering:geometricPrecision; text-rendering:geometricPrecision; image-rendering:optimizeQuality; fill-rule:evenodd; clip-rule:evenodd"
viewBox="0 0 2576 741"
 xmlns:xlink="http://www.w3.org/1999/xlink">
 <defs>
  <style type="text/css">
   <![CDATA[
    .fil1 {fill:black}
    .fil0 {fill:red}
   ]]>
  </style>
 </defs>
 <g id="Vrstva_x0020_1">
  <metadata id="CorelCorpID_0Corel-Layer"/>
  <path class="fil0" d="M1320 741c-12,-1 -9,-99 -18,-107 0,-2 3,-4 3,-7 1,-14 -1,-39 0,-60 2,-61 3,-39 -38,5 -13,15 -28,19 -30,19 -16,-16 39,-47 39,-64 8,-11 39,-74 53,-45 2,4 -4,80 -5,81 0,15 4,150 18,164 0,10 -15,12 -22,14z"/>
  <g id="_397142512">
   <path class="fil1" d="M35 293c-16,-9 -9,-90 -14,-107 -2,-6 -5,-27 -5,-29 1,-16 -9,-96 -14,-108 -5,-12 4,-37 26,-27 19,9 41,1 65,1 11,0 27,-4 39,-5 25,-1 36,42 5,34 -8,-2 -4,-3 -11,-6 -10,-4 -32,-2 -42,-1 -17,1 -37,-6 -49,5 -7,7 -3,99 7,104 7,3 14,2 22,1 9,-1 34,-4 60,-3 18,1 28,0 27,14 -1,12 -9,10 -18,8 -16,-4 -31,0 -47,0 -18,1 -34,0 -39,6 -6,6 6,61 9,88 1,8 2,8 -1,15 -2,6 -11,13 -17,9z"/>
   <path class="fil1" d="M286 292c-12,0 -16,-79 -19,-96 -1,-4 0,-14 -2,-18 -2,-8 -6,-11 -9,-16 -12,-21 -28,-23 -37,-49 -6,-16 -26,-70 -11,-83 3,-3 5,-10 13,-4 8,5 6,2 4,23 -2,27 26,74 55,102 11,-3 48,-58 52,-68 7,-19 12,-46 17,-55 0,-1 26,-15 17,12 -2,7 -10,31 -15,49 -4,12 -21,38 -38,62 -5,6 -9,11 -13,17 -30,52 23,97 -7,124 -2,2 -6,2 -8,2z"/>
   <path class="fil1" d="M597 292c-1,-2 -10,-1 -11,-6 -1,-3 -23,-15 -25,-17 -4,-4 -11,-9 -15,-12 -1,-1 -79,-66 -83,-70 -9,-7 -8,2 -8,18 0,21 1,52 4,56 15,28 -30,50 -24,4 2,-11 -8,-84 -6,-95 5,-37 -4,-68 -6,-102 0,-11 -5,-24 -1,-35 3,-10 8,-10 12,-11 5,-2 11,15 13,24 6,29 3,80 3,82 1,7 -2,33 11,16 15,-19 33,-37 53,-64 10,-14 21,-28 30,-37 5,-5 58,-34 32,-1 -9,11 -71,70 -75,83 -2,7 -25,27 -25,34 0,7 19,30 23,33 24,21 58,49 87,63 20,10 42,9 12,34 0,0 -1,1 -1,0z"/>
   <path class="fil1" d="M726 295c-17,-1 -57,-13 -64,-28 -1,-2 -19,-19 -20,-23 -26,-67 -15,-138 13,-196 3,-7 23,-25 30,-27 27,-9 34,-1 59,8 52,20 95,73 98,129 2,42 -47,126 -90,136 -9,2 -18,1 -27,1zm1 -25c-1,0 -8,-2 -8,-2 -14,-1 -45,-19 -54,-34 -9,-16 -16,-38 -17,-47 -2,-38 4,-87 21,-120 8,-16 19,-26 41,-24 28,3 22,3 58,27 19,12 36,31 46,50 23,47 -17,123 -58,146 -6,4 -22,3 -29,3z"/>
   <path class="fil1" d="M969 299c-2,0 -9,-2 -11,-2 -7,-1 -40,-11 -54,-19 -15,-8 -24,-18 -3,-29 5,-2 9,0 11,2 9,12 61,29 82,24 9,-2 28,-15 29,-23 2,-28 -74,-62 -75,-62 -2,0 -28,-15 -33,-18 -44,-24 -56,-88 -9,-121 15,-10 88,-43 102,-29 13,3 22,7 26,22 6,20 -11,32 -20,12 -17,-35 -112,4 -112,42 0,20 -4,35 14,49 30,24 130,60 131,101 0,13 -4,27 -32,42 -14,7 -30,7 -46,8z"/>
   <path class="fil1" d="M1120 292c-1,0 -8,-15 -8,-16 0,-16 -8,-94 -3,-104 7,-14 16,-9 19,10 5,27 5,78 5,82 0,13 -1,24 -12,29zm-12 -172c-11,-11 30,-52 43,-60 14,0 21,11 9,23 0,7 -25,4 -25,17 -14,7 -13,16 -28,20z"/>
   <path class="fil1" d="M1418 293c-16,-9 -9,-90 -14,-107 -2,-6 -5,-27 -5,-29 1,-16 -9,-96 -14,-108 -5,-12 4,-37 26,-27 19,9 41,1 65,1 11,0 27,-4 39,-5 25,-1 36,42 5,34 -8,-2 -4,-3 -11,-6 -10,-4 -32,-2 -42,-1 -17,1 -37,-6 -49,5 -7,7 -3,99 7,104 7,3 14,2 22,1 9,-1 34,-4 60,-3 18,1 28,0 27,14 -1,12 -9,10 -18,8 -16,-4 -31,0 -47,0 -18,1 -34,0 -39,6 -6,6 6,61 9,88 1,8 2,8 -1,15 -2,6 -11,13 -17,9z"/>
   <path class="fil1" d="M1640 413c-11,-3 -11,-18 -11,-32 1,-20 -6,-83 -29,-89 -12,-3 -41,-84 -44,-107 -2,-12 1,-21 13,-21 2,0 4,6 7,14 4,12 25,94 44,91 1,0 31,-35 32,-37 12,-22 21,-54 23,-57 4,-5 9,-8 12,-10 10,-5 13,2 9,11 -9,21 -13,57 -32,75 -13,12 -28,29 -25,43 6,30 11,67 13,99 1,9 -1,22 -11,20z"/>
   <path class="fil1" d="M1824 291c0,0 1,0 0,-1 -9,-1 -73,7 -86,-3 -9,-8 38,-34 33,-53 -1,-4 -12,0 -19,-1 -4,-1 0,-8 0,-12 0,-22 34,-1 41,-12 7,-12 13,-18 10,-22 -5,-8 -34,-5 -48,-2 -7,2 -11,0 -13,1 -6,0 -11,-3 -16,-13 -7,-13 28,-8 55,-8 17,0 32,-1 44,1 6,1 14,2 14,10 0,14 -31,32 -24,40 2,2 24,-3 28,1 7,6 0,15 -8,17 -12,3 -23,1 -28,2 -6,1 -10,6 -14,10 -5,5 -8,13 -17,26 4,2 62,0 65,0 18,1 0,16 -5,18 -3,1 -6,1 -10,2z"/>
   <path class="fil1" d="M1894 108c-22,0 -3,-57 14,-14 2,6 -7,14 -14,14zm9 184c-1,0 -8,-15 -8,-16 0,-16 -8,-94 -3,-104 7,-14 16,-9 19,10 5,27 5,78 5,82 0,13 -1,24 -12,29z"/>
   <path class="fil1" d="M1988 294c-3,0 -13,-111 -15,-119 0,-28 -30,-174 9,-174 16,0 4,170 22,197 3,-3 15,-8 27,-15 20,-12 42,-26 47,-25 7,2 5,9 -1,18 -13,19 -46,29 -51,37 6,7 16,23 31,34 15,11 33,18 37,29 3,7 3,5 -5,12 -19,18 -60,-41 -83,-59 3,11 9,43 7,55 -2,14 -9,9 -26,9z"/>
   <path class="fil1" d="M2154 291c-7,-1 -19,-24 -17,-44 2,-15 0,-30 -1,-45 -2,-54 -13,-109 -13,-165 0,-22 0,-54 24,-28 11,13 3,76 3,96 2,52 8,115 14,166 2,14 0,21 -12,20z"/>
   <path class="fil1" d="M2265 301c0,0 1,-1 0,-1 -15,0 -39,-9 -51,-28 -10,-15 -12,-39 -8,-50 6,-18 2,-32 16,-44 20,-17 50,-33 70,-13 9,9 13,12 13,29 0,18 10,70 29,76 2,1 13,3 13,7 0,31 -31,2 -42,-2 -11,-4 -13,3 -25,16 -3,3 -11,9 -15,9zm-5 -20c0,0 1,-1 0,-1 -12,0 -23,-8 -29,-29 -5,-16 -3,-49 0,-55 4,-8 35,-27 45,-14 18,23 10,93 -16,99zm19 -161c-11,-11 30,-52 43,-60 14,0 21,11 9,23 0,7 -25,4 -25,17 -14,7 -13,16 -28,20z"/>
   <path class="fil1" d="M2380 292c0,0 1,-1 0,-1 -9,-1 -24,-119 -14,-128 18,-16 5,30 28,11 24,-19 48,-12 57,-1 18,22 10,83 23,103 7,11 0,13 -6,15 -7,1 -15,0 -21,-8 -3,-4 0,-54 -9,-80 -9,-26 -48,0 -48,0 -2,20 6,60 3,78 -2,14 -9,9 -13,11z"/>
   <path class="fil1" d="M2529 292c-1,0 -8,-15 -8,-16 0,-16 -8,-94 -3,-104 7,-14 16,-9 19,10 5,27 5,78 5,82 0,13 -1,24 -12,29zm-12 -172c-11,-11 30,-52 43,-60 14,0 21,11 9,23 0,7 -25,4 -25,17 -14,7 -13,16 -28,20z"/>
  </g>
 </g>
</svg>
