<?xml version="1.0" encoding="UTF-8"?>
<!DOCTYPE svg PUBLIC "-//W3C//DTD SVG 1.1//EN" "http://www.w3.org/Graphics/SVG/1.1/DTD/svg11.dtd">
<!-- Creator: CorelDRAW Home & Student X6 -->
<svg xmlns="http://www.w3.org/2000/svg" xml:space="preserve" width="117.42mm" height="33.8859mm" version="1.1" style="shape-rendering:geometricPrecision; text-rendering:geometricPrecision; image-rendering:optimizeQuality; fill-rule:evenodd; clip-rule:evenodd"
viewBox="0 0 5146 1485"
 xmlns:xlink="http://www.w3.org/1999/xlink">
 <defs>
  <style type="text/css">
   <![CDATA[
    .fil1 {fill:black}
    .fil0 {fill:red}
   ]]>
  </style>
 </defs>
 <g id="Vrstva_x0020_1">
  <metadata id="CorelCorpID_0Corel-Layer"/>
  <path class="fil0" d="M2506 1485c0,-11 -69,-3 -36,-51 20,0 70,-128 76,-146 27,-53 61,-290 -40,-290 -7,7 -77,82 -50,96 6,0 8,4 13,4 17,17 -47,65 -60,9 -13,-58 57,-142 110,-160 45,-14 87,57 99,88 4,66 5,152 -18,216 -11,22 -101,185 -54,185 20,0 256,-39 174,43 -42,0 -77,-16 -122,-4 -31,0 -61,10 -92,10z"/>
  <g id="_129596792">
   <path class="fil1" d="M70 585c-32,-18 -17,-181 -29,-213 -4,-12 -10,-53 -10,-58 1,-32 -18,-192 -28,-217 -10,-25 8,-74 51,-55 39,17 83,3 129,3 22,0 53,-9 78,-9 50,-1 72,83 10,68 -16,-4 -8,-6 -23,-12 -20,-7 -64,-4 -84,-3 -34,2 -75,-11 -98,10 -15,14 -6,198 14,208 14,7 28,4 43,2 19,-3 68,-7 119,-5 35,1 56,0 54,28 -2,24 -18,20 -37,15 -32,-8 -62,-1 -94,0 -36,2 -68,0 -79,12 -12,13 11,122 19,176 2,15 4,16 -1,30 -4,11 -21,26 -34,19z"/>
   <path class="fil1" d="M572 584c-24,0 -33,-158 -38,-191 -1,-7 0,-28 -3,-37 -5,-15 -11,-23 -17,-32 -25,-41 -55,-47 -73,-99 -11,-31 -52,-139 -23,-166 6,-5 10,-20 27,-9 15,10 11,4 8,46 -4,53 52,148 110,204 22,-6 96,-116 104,-135 15,-38 23,-91 35,-111 1,-2 52,-30 34,23 -5,14 -19,61 -30,98 -7,25 -42,76 -76,123 -9,13 -19,22 -26,34 -60,103 45,194 -14,248 -3,3 -11,3 -17,3z"/>
   <path class="fil1" d="M1192 583c-1,-3 -19,-3 -22,-12 -2,-6 -46,-29 -51,-34 -8,-8 -22,-18 -30,-24 -3,-2 -157,-133 -167,-140 -18,-13 -15,5 -15,35 0,42 3,104 8,113 30,56 -61,101 -47,8 3,-23 -15,-168 -12,-189 9,-73 -9,-136 -12,-203 -1,-22 -10,-47 -3,-69 6,-21 16,-19 24,-23 10,-5 23,30 26,49 11,58 7,159 7,163 1,14 -4,65 21,32 30,-38 65,-75 106,-127 21,-27 42,-56 61,-74 10,-10 115,-68 65,-1 -17,23 -141,140 -150,166 -5,15 -49,53 -49,69 0,14 37,59 45,66 49,43 117,97 174,127 40,21 84,19 24,68 0,0 -2,1 -2,0z"/>
   <path class="fil1" d="M1451 590c-34,-2 -114,-25 -128,-56 -1,-3 -37,-38 -40,-46 -52,-134 -30,-275 27,-392 6,-13 47,-50 60,-55 55,-18 68,-2 118,17 104,39 190,146 196,259 5,84 -95,252 -179,272 -17,4 -36,2 -53,1zm2 -49c-1,0 -16,-4 -16,-4 -28,-3 -90,-38 -107,-68 -18,-31 -33,-76 -34,-94 -5,-77 9,-174 41,-239 16,-31 38,-52 82,-47 57,6 44,7 117,54 38,24 72,62 91,100 47,94 -33,245 -116,292 -12,7 -43,7 -58,7z"/>
   <path class="fil1" d="M1936 597c-5,0 -19,-3 -22,-4 -14,-3 -79,-22 -108,-37 -31,-16 -49,-37 -6,-58 10,-5 18,-1 22,5 18,24 121,57 163,48 17,-4 57,-30 58,-46 4,-56 -148,-123 -150,-123 -4,0 -56,-31 -66,-36 -88,-47 -112,-176 -18,-242 29,-21 176,-87 204,-58 26,6 43,15 52,43 12,41 -22,63 -41,25 -33,-69 -224,7 -224,84 0,41 -7,69 28,98 61,48 260,120 262,203 1,27 -8,55 -65,83 -28,14 -61,13 -91,16z"/>
   <path class="fil1" d="M2237 582c-1,1 -17,-30 -17,-32 0,-32 -17,-188 -6,-208 15,-29 32,-18 39,19 10,55 9,155 9,164 0,25 -2,49 -25,57zm-24 -344c-22,-22 61,-105 86,-120 28,0 42,22 19,46 0,14 -50,8 -50,35 -29,14 -26,31 -55,40z"/>
   <path class="fil1" d="M2832 585c-32,-18 -17,-181 -29,-213 -4,-12 -10,-53 -10,-58 1,-32 -18,-192 -28,-217 -10,-25 8,-74 51,-55 39,17 83,3 129,3 22,0 53,-9 78,-9 50,-1 72,83 10,68 -16,-4 -8,-6 -23,-12 -20,-7 -64,-4 -84,-3 -34,2 -75,-11 -98,10 -15,14 -6,198 14,208 14,7 28,4 43,2 19,-3 68,-7 119,-5 35,1 56,0 54,28 -2,24 -18,20 -37,15 -32,-8 -62,-1 -94,0 -36,2 -68,0 -79,12 -12,13 11,122 19,176 2,15 4,16 -1,30 -4,11 -21,26 -34,19z"/>
   <path class="fil1" d="M3277 824c-22,-5 -23,-36 -22,-64 1,-41 -11,-166 -59,-177 -24,-5 -82,-168 -88,-213 -3,-24 3,-43 26,-43 3,0 8,13 13,28 7,24 50,188 87,183 2,0 62,-70 64,-75 24,-45 42,-109 46,-114 8,-11 18,-16 24,-19 20,-11 26,4 18,23 -18,42 -25,114 -64,150 -26,25 -56,58 -50,85 13,60 22,134 26,197 1,18 -2,44 -22,39z"/>
   <path class="fil1" d="M3644 582c0,0 1,-1 0,-1 -18,-3 -147,14 -172,-7 -18,-15 76,-67 65,-105 -2,-7 -24,-1 -37,-3 -8,-1 0,-17 0,-25 0,-43 68,-1 81,-23 15,-24 25,-36 20,-44 -10,-16 -68,-11 -95,-4 -14,3 -21,1 -27,1 -12,1 -22,-7 -33,-26 -14,-25 57,-16 110,-17 33,0 65,-3 87,3 13,3 27,3 27,19 0,29 -62,64 -48,81 4,5 47,-6 56,2 14,13 0,30 -16,34 -23,5 -46,1 -56,4 -11,3 -20,12 -28,20 -10,10 -15,26 -33,52 9,4 125,-1 130,0 35,3 1,32 -11,36 -6,2 -12,2 -20,4z"/>
   <path class="fil1" d="M3784 216c-45,0 -5,-113 28,-28 5,12 -14,28 -28,28zm18 367c-1,1 -17,-30 -17,-32 0,-32 -17,-188 -6,-208 15,-29 32,-18 39,19 10,55 9,155 9,164 0,25 -2,49 -25,57z"/>
   <path class="fil1" d="M3971 587c-6,0 -26,-222 -29,-238 0,-57 -60,-347 18,-347 32,0 8,340 43,393 5,-6 30,-15 54,-29 39,-23 85,-52 95,-49 14,4 10,19 -3,37 -26,37 -92,58 -101,74 12,14 33,46 61,68 29,23 66,36 75,58 5,13 7,10 -9,25 -37,36 -120,-81 -167,-118 7,22 18,87 14,109 -5,28 -19,18 -51,17z"/>
   <path class="fil1" d="M4303 582c-15,-2 -38,-47 -33,-88 3,-30 0,-60 -1,-89 -4,-108 -26,-218 -25,-329 0,-43 0,-108 47,-55 23,26 6,152 7,191 4,104 16,230 28,332 3,28 1,42 -23,39z"/>
   <path class="fil1" d="M4524 601c0,0 1,-1 0,-1 -31,-1 -77,-19 -102,-56 -20,-30 -24,-78 -16,-101 12,-35 4,-64 32,-87 41,-33 99,-65 139,-25 18,18 27,24 27,58 0,37 19,140 58,152 4,1 26,6 26,13 0,61 -63,5 -85,-4 -22,-9 -26,5 -49,32 -6,7 -22,19 -30,19zm-10 -40c0,0 1,-1 0,-1 -23,-1 -46,-17 -58,-58 -9,-32 -7,-98 0,-110 9,-16 70,-54 90,-28 36,46 20,185 -32,197zm38 -322c-22,-22 61,-105 86,-120 28,0 42,22 19,46 0,14 -50,8 -50,35 -29,14 -26,31 -55,40z"/>
   <path class="fil1" d="M4754 583c0,0 1,-1 0,-1 -18,-1 -47,-238 -28,-255 37,-32 10,59 57,22 48,-38 96,-23 114,-3 37,44 20,167 46,206 14,22 0,27 -13,29 -15,3 -31,0 -42,-17 -5,-8 0,-108 -18,-159 -18,-52 -95,0 -95,1 -4,40 11,119 6,156 -4,28 -18,18 -27,21z"/>
   <path class="fil1" d="M5053 582c-1,1 -17,-30 -17,-32 0,-32 -17,-188 -6,-208 15,-29 32,-18 39,19 10,55 9,155 9,164 0,25 -2,49 -25,57zm-24 -344c-22,-22 61,-105 86,-120 28,0 42,22 19,46 0,14 -50,8 -50,35 -29,14 -26,31 -55,40z"/>
  </g>
 </g>
</svg>
