<?xml version="1.0" encoding="UTF-8"?>
<!DOCTYPE svg PUBLIC "-//W3C//DTD SVG 1.1//EN" "http://www.w3.org/Graphics/SVG/1.1/DTD/svg11.dtd">
<!-- Creator: CorelDRAW Home & Student X6 -->
<svg xmlns="http://www.w3.org/2000/svg" xml:space="preserve" width="117.42mm" height="34.0238mm" version="1.1" style="shape-rendering:geometricPrecision; text-rendering:geometricPrecision; image-rendering:optimizeQuality; fill-rule:evenodd; clip-rule:evenodd"
viewBox="0 0 3919 1135"
 xmlns:xlink="http://www.w3.org/1999/xlink">
 <defs>
  <style type="text/css">
   <![CDATA[
    .fil1 {fill:black}
    .fil0 {fill:red}
   ]]>
  </style>
 </defs>
 <g id="Vrstva_x0020_1">
  <metadata id="CorelCorpID_0Corel-Layer"/>
  <g id="_398207144">
   <path class="fil0" d="M1939 1135c0,0 -5,-1 -5,-1 -19,-7 -92,-39 -53,-65 10,0 35,16 42,22 28,14 44,11 74,0 46,-17 93,-112 53,-152 0,-6 -19,-23 -26,-23 -9,-9 -47,-3 -57,-12 -17,-17 16,-92 3,-106 0,-55 -68,-54 -96,-18 -22,29 -30,76 -3,95 0,39 -42,16 -42,-4 -24,-36 25,-153 64,-153 14,-14 83,9 91,26 15,15 30,101 19,123 0,17 58,16 58,36 22,0 41,100 28,113 -19,75 -79,116 -152,119z"/>
   <g>
    <path class="fil1" d="M53 445c-24,-13 -13,-138 -22,-162 -3,-9 -8,-40 -8,-44 1,-25 -14,-146 -21,-165 -8,-19 6,-56 39,-42 29,13 63,2 98,2 17,0 41,-7 59,-7 38,-1 55,64 8,51 -12,-3 -6,-5 -17,-9 -15,-6 -49,-3 -64,-2 -26,2 -57,-8 -75,8 -11,10 -5,151 10,158 11,5 21,3 33,2 14,-2 52,-5 91,-4 27,1 43,0 41,21 -2,18 -14,15 -28,12 -24,-6 -47,-1 -72,0 -27,1 -52,0 -60,9 -9,10 8,93 14,134 2,12 3,12 -1,23 -3,9 -16,20 -26,14z"/>
    <path class="fil1" d="M435 445c-19,0 -25,-120 -29,-146 -1,-6 0,-21 -2,-28 -4,-12 -9,-17 -13,-25 -19,-32 -42,-36 -56,-75 -8,-24 -40,-106 -17,-126 4,-4 8,-15 20,-7 12,7 8,3 6,35 -3,41 40,113 84,156 17,-4 73,-89 79,-103 11,-29 18,-69 26,-84 1,-1 40,-23 26,18 -4,11 -15,47 -23,75 -6,19 -32,58 -58,94 -7,10 -14,17 -20,26 -46,79 34,148 -11,189 -3,2 -8,3 -13,3z"/>
    <path class="fil1" d="M908 444c-1,-3 -15,-2 -17,-9 -1,-5 -35,-22 -39,-26 -6,-6 -17,-14 -23,-18 -2,-1 -120,-101 -127,-106 -13,-10 -12,4 -11,27 0,32 2,79 6,86 23,43 -46,77 -36,6 3,-17 -12,-128 -9,-144 7,-56 -7,-103 -9,-155 -1,-17 -7,-36 -2,-53 5,-16 12,-15 18,-17 8,-3 17,23 20,37 9,44 5,121 5,124 1,11 -3,50 16,25 23,-29 50,-57 80,-97 16,-21 32,-42 46,-56 8,-8 88,-51 49,-1 -13,17 -107,107 -114,127 -4,11 -37,40 -37,52 0,11 28,45 35,50 37,32 89,74 132,97 30,16 64,14 18,52 0,0 -1,1 -2,0z"/>
    <path class="fil1" d="M1105 449c-26,-2 -87,-19 -97,-42 -1,-2 -28,-29 -31,-35 -40,-102 -23,-209 20,-299 5,-10 36,-38 46,-42 42,-14 52,-2 90,13 79,30 144,112 149,197 4,64 -72,192 -136,207 -13,3 -27,2 -41,1zm2 -37c-1,0 -12,-3 -12,-3 -21,-2 -69,-29 -82,-52 -14,-24 -25,-58 -26,-72 -4,-58 7,-133 31,-182 12,-24 29,-39 62,-36 43,4 34,5 89,41 29,19 55,47 70,76 36,71 -25,186 -88,223 -9,5 -33,5 -44,5z"/>
    <path class="fil1" d="M1474 454c-4,0 -14,-2 -17,-3 -10,-2 -60,-17 -82,-28 -23,-12 -37,-28 -5,-44 8,-4 14,-1 17,4 14,19 92,43 124,37 13,-3 43,-23 44,-35 3,-42 -113,-94 -114,-94 -3,0 -43,-24 -50,-27 -67,-36 -85,-134 -14,-184 22,-16 134,-66 155,-44 20,5 33,11 40,33 9,31 -17,48 -31,19 -25,-53 -170,6 -170,64 0,31 -6,53 22,74 46,37 198,92 200,154 1,20 -6,42 -49,63 -22,11 -46,10 -69,12z"/>
    <path class="fil1" d="M1703 444c-1,0 -13,-23 -13,-24 0,-24 -13,-143 -5,-158 11,-22 25,-13 30,14 7,42 7,118 7,125 0,19 -2,37 -19,43zm-18 -262c-17,-17 46,-80 66,-92 21,0 32,17 14,35 0,11 -38,6 -38,26 -22,11 -20,24 -42,31z"/>
    <path class="fil1" d="M2157 445c-24,-13 -13,-138 -22,-162 -3,-9 -8,-40 -8,-44 1,-25 -14,-146 -21,-165 -8,-19 6,-56 39,-42 29,13 63,2 98,2 17,0 41,-7 59,-7 38,-1 55,64 8,51 -12,-3 -6,-5 -17,-9 -15,-6 -49,-3 -64,-2 -26,2 -57,-8 -75,8 -11,10 -5,151 10,158 11,5 21,3 33,2 14,-2 52,-5 91,-4 27,1 43,0 41,21 -2,18 -14,15 -28,12 -24,-6 -47,-1 -72,0 -27,1 -52,0 -60,9 -9,10 8,93 14,134 2,12 3,12 -1,23 -3,9 -16,20 -26,14z"/>
    <path class="fil1" d="M2495 628c-17,-4 -17,-27 -17,-49 1,-31 -9,-127 -45,-135 -19,-4 -63,-128 -67,-162 -3,-19 2,-33 20,-33 3,0 6,10 10,22 6,18 38,143 66,139 2,0 47,-53 49,-57 18,-34 32,-83 35,-87 6,-8 14,-12 19,-15 16,-8 20,3 14,17 -13,32 -19,87 -49,114 -20,19 -43,44 -38,65 10,46 17,102 20,150 1,13 -1,33 -17,30z"/>
    <path class="fil1" d="M2775 443c0,0 1,-1 0,-1 -13,-2 -112,11 -131,-5 -14,-12 58,-51 50,-80 -2,-6 -18,-1 -28,-2 -6,-1 0,-13 0,-19 0,-33 52,-1 62,-18 11,-18 19,-27 15,-34 -8,-12 -52,-8 -73,-3 -10,3 -16,1 -20,1 -9,1 -17,-5 -25,-20 -10,-19 43,-12 84,-13 25,0 49,-2 67,2 10,2 21,3 21,15 0,22 -47,49 -36,61 3,4 36,-4 42,1 11,10 0,23 -12,26 -18,4 -35,1 -43,3 -9,2 -15,9 -21,15 -8,8 -11,20 -25,39 7,3 95,-1 99,0 27,2 1,24 -8,28 -4,2 -9,2 -15,3z"/>
    <path class="fil1" d="M2882 164c-34,0 -4,-86 22,-22 4,9 -11,22 -22,22zm14 279c-1,0 -13,-23 -13,-24 0,-24 -13,-143 -5,-158 11,-22 25,-13 30,14 7,42 7,118 7,125 0,19 -2,37 -19,43z"/>
    <path class="fil1" d="M3024 447c-4,0 -20,-169 -22,-181 0,-43 -46,-264 14,-264 25,0 6,259 33,299 4,-4 23,-12 41,-22 30,-18 65,-40 72,-37 11,3 8,14 -2,28 -20,28 -70,44 -77,57 9,11 25,35 47,52 22,17 50,27 57,44 4,10 5,7 -7,19 -28,28 -91,-62 -127,-90 5,17 13,66 10,83 -4,21 -14,14 -39,13z"/>
    <path class="fil1" d="M3277 443c-11,-1 -29,-36 -25,-67 2,-23 0,-45 -1,-68 -3,-82 -20,-166 -19,-250 0,-33 0,-82 36,-42 17,19 4,115 5,145 3,79 12,175 21,253 2,21 0,32 -18,30z"/>
    <path class="fil1" d="M3445 458c0,0 1,-1 0,-1 -23,0 -59,-14 -78,-43 -16,-23 -18,-59 -12,-77 9,-27 3,-49 24,-66 31,-25 76,-50 106,-19 14,14 20,19 20,44 0,28 15,107 44,116 3,1 19,4 19,10 0,47 -48,4 -64,-3 -16,-7 -20,4 -37,25 -4,5 -17,14 -23,14zm-8 -31c0,0 1,-1 0,-1 -18,0 -35,-13 -44,-44 -7,-25 -5,-75 0,-84 7,-12 53,-41 69,-21 28,35 15,141 -24,150zm29 -245c-17,-17 46,-80 66,-92 21,0 32,17 14,35 0,11 -38,6 -38,26 -22,11 -20,24 -42,31z"/>
    <path class="fil1" d="M3620 444c0,0 1,-1 0,-1 -14,-1 -36,-181 -21,-194 28,-25 7,45 43,17 36,-29 73,-18 86,-2 28,33 16,127 35,157 11,16 0,20 -10,22 -11,2 -23,0 -32,-13 -4,-6 0,-82 -14,-121 -14,-40 -72,0 -72,1 -3,30 9,91 4,119 -3,21 -13,14 -20,16z"/>
    <path class="fil1" d="M3848 444c-1,0 -13,-23 -13,-24 0,-24 -13,-143 -5,-158 11,-22 25,-13 30,14 7,42 7,118 7,125 0,19 -2,37 -19,43zm-18 -262c-17,-17 46,-80 66,-92 21,0 32,17 14,35 0,11 -38,6 -38,26 -22,11 -20,24 -42,31z"/>
   </g>
  </g>
 </g>
</svg>
