<?xml version="1.0" encoding="UTF-8"?>
<!DOCTYPE svg PUBLIC "-//W3C//DTD SVG 1.1//EN" "http://www.w3.org/Graphics/SVG/1.1/DTD/svg11.dtd">
<!-- Creator: CorelDRAW Home & Student X6 -->
<svg xmlns="http://www.w3.org/2000/svg" xml:space="preserve" width="117.42mm" height="33.7081mm" version="1.1" style="shape-rendering:geometricPrecision; text-rendering:geometricPrecision; image-rendering:optimizeQuality; fill-rule:evenodd; clip-rule:evenodd"
viewBox="0 0 5019 1441"
 xmlns:xlink="http://www.w3.org/1999/xlink">
 <defs>
  <style type="text/css">
   <![CDATA[
    .fil1 {fill:black}
    .fil0 {fill:red}
   ]]>
  </style>
 </defs>
 <g id="Vrstva_x0020_1">
  <metadata id="CorelCorpID_0Corel-Layer"/>
  <g id="_129491752">
   <path class="fil0" d="M2613 1441c-48,-7 -33,-140 -62,-162 -25,-4 -123,-7 -144,3 -60,0 -26,-83 -21,-114 38,-38 29,-186 67,-224 14,-29 62,-34 38,14 -40,40 -23,163 -52,207 -13,41 -35,66 -8,70 14,2 80,13 114,-10 11,-7 -6,-38 -3,-46 16,-52 59,-19 69,37 46,46 38,19 19,51 -3,5 -14,6 -16,14 -8,23 35,159 -3,159z"/>
   <g>
    <path class="fil1" d="M68 570c-31,-17 -17,-176 -28,-208 -4,-11 -10,-52 -10,-56 1,-32 -17,-187 -27,-211 -10,-24 8,-72 50,-53 38,17 80,3 126,3 22,0 52,-8 76,-9 49,-1 71,81 10,66 -16,-4 -8,-6 -22,-11 -19,-7 -62,-4 -82,-3 -34,2 -73,-11 -96,10 -14,13 -6,193 13,203 14,7 27,4 42,2 18,-3 66,-7 116,-5 34,1 55,0 52,27 -2,23 -18,19 -36,15 -31,-7 -61,-1 -92,0 -35,1 -66,0 -77,12 -11,12 11,119 18,172 2,15 4,16 -1,30 -4,11 -21,25 -34,18z"/>
    <path class="fil1" d="M558 570c-24,0 -32,-154 -37,-187 -1,-7 0,-27 -3,-36 -5,-15 -11,-22 -17,-31 -24,-40 -54,-46 -71,-96 -11,-31 -51,-136 -22,-162 5,-5 10,-19 26,-9 15,10 11,4 8,45 -4,52 51,144 107,199 21,-6 94,-113 101,-132 14,-37 22,-89 34,-108 1,-1 51,-29 33,23 -5,14 -19,60 -30,96 -7,24 -41,74 -74,120 -9,12 -18,21 -25,33 -58,101 44,189 -14,242 -3,3 -11,3 -16,3z"/>
    <path class="fil1" d="M1163 569c-1,-3 -19,-3 -22,-12 -2,-6 -45,-29 -49,-33 -8,-8 -22,-18 -29,-23 -3,-2 -154,-129 -163,-136 -17,-13 -15,5 -15,35 0,41 3,101 7,110 30,55 -59,98 -46,8 3,-22 -15,-164 -12,-184 9,-71 -9,-132 -11,-198 -1,-21 -9,-46 -3,-68 6,-20 15,-19 23,-22 10,-4 22,29 26,48 11,57 6,155 7,159 1,14 -4,64 21,32 29,-38 64,-73 103,-124 20,-27 41,-54 59,-72 10,-10 112,-66 63,-1 -17,22 -138,137 -146,162 -5,14 -48,52 -48,67 0,14 36,58 44,65 47,41 114,95 169,124 39,20 82,18 23,66 0,0 -2,1 -2,0z"/>
    <path class="fil1" d="M1415 575c-33,-2 -111,-25 -125,-54 -1,-3 -36,-37 -39,-45 -51,-130 -29,-268 26,-383 6,-13 46,-49 59,-53 53,-17 66,-2 115,16 102,38 185,143 191,252 5,82 -92,246 -175,265 -17,4 -35,2 -52,1zm2 -48c-1,0 -15,-4 -15,-4 -27,-3 -88,-37 -105,-66 -18,-31 -32,-74 -33,-92 -5,-75 9,-170 40,-233 15,-30 37,-50 80,-46 55,5 43,7 114,53 37,24 71,61 89,98 46,91 -33,239 -113,285 -12,7 -42,7 -56,7z"/>
    <path class="fil1" d="M1888 582c-5,0 -18,-3 -22,-4 -13,-3 -77,-22 -105,-36 -30,-15 -47,-36 -6,-56 10,-5 17,-1 22,5 18,24 118,56 159,47 17,-4 56,-29 57,-45 4,-54 -145,-120 -146,-120 -4,0 -55,-30 -64,-35 -85,-46 -109,-172 -18,-236 29,-20 171,-84 199,-57 25,6 42,14 51,42 12,40 -22,62 -40,24 -33,-68 -218,7 -218,82 0,40 -7,67 28,95 59,47 254,117 256,198 1,26 -8,53 -63,81 -28,14 -59,13 -89,15z"/>
    <path class="fil1" d="M2181 568c-1,1 -16,-30 -16,-31 0,-31 -16,-183 -6,-203 14,-28 32,-17 38,19 9,53 9,151 9,160 0,25 -2,48 -24,56zm-23 -335c-22,-22 59,-102 84,-117 27,0 41,22 18,45 0,14 -49,8 -49,34 -28,14 -26,31 -54,39z"/>
    <path class="fil1" d="M2763 570c-31,-17 -17,-176 -28,-208 -4,-11 -10,-52 -10,-56 1,-32 -17,-187 -27,-211 -10,-24 8,-72 50,-53 38,17 80,3 126,3 22,0 52,-8 76,-9 49,-1 71,81 10,66 -16,-4 -8,-6 -22,-11 -19,-7 -62,-4 -82,-3 -34,2 -73,-11 -96,10 -14,13 -6,193 13,203 14,7 27,4 42,2 18,-3 66,-7 116,-5 34,1 55,0 52,27 -2,23 -18,19 -36,15 -31,-7 -61,-1 -92,0 -35,1 -66,0 -77,12 -11,12 11,119 18,172 2,15 4,16 -1,30 -4,11 -21,25 -34,18z"/>
    <path class="fil1" d="M3196 804c-22,-5 -22,-35 -21,-62 1,-40 -11,-162 -57,-172 -24,-5 -80,-164 -86,-208 -3,-24 3,-42 26,-42 3,0 8,12 13,28 7,23 49,183 85,178 2,0 60,-68 63,-73 23,-44 41,-106 45,-112 8,-11 17,-15 24,-19 20,-10 25,4 17,22 -17,41 -25,111 -62,146 -26,24 -54,57 -49,83 13,59 21,131 25,192 1,17 -2,43 -22,38z"/>
    <path class="fil1" d="M3554 568c0,0 1,-1 0,-1 -17,-3 -143,14 -168,-7 -18,-15 74,-66 63,-103 -2,-7 -24,-1 -36,-2 -8,-1 0,-16 0,-24 0,-42 66,-1 79,-23 14,-23 25,-35 19,-43 -10,-15 -66,-10 -93,-4 -13,3 -21,1 -26,1 -12,1 -22,-7 -32,-25 -13,-25 55,-16 108,-16 32,0 63,-2 85,3 12,3 27,3 27,19 0,28 -60,63 -47,79 4,5 46,-5 54,2 14,13 0,29 -16,33 -22,5 -45,1 -55,4 -11,3 -20,12 -27,20 -10,10 -15,26 -32,50 9,3 121,-1 126,0 34,3 1,31 -11,36 -6,2 -12,2 -19,4z"/>
    <path class="fil1" d="M3691 210c-43,0 -5,-110 28,-28 5,12 -14,28 -28,28zm17 358c-1,1 -16,-30 -16,-31 0,-31 -16,-183 -6,-203 14,-28 32,-17 38,19 9,53 9,151 9,160 0,25 -2,48 -24,56z"/>
    <path class="fil1" d="M3873 572c-6,0 -26,-217 -28,-232 0,-55 -59,-339 18,-339 31,0 8,331 42,383 5,-5 29,-15 53,-29 38,-23 83,-51 93,-48 14,4 10,18 -2,36 -25,36 -89,57 -99,73 11,14 32,45 60,66 28,22 64,35 73,57 5,13 6,9 -9,24 -36,35 -117,-79 -163,-115 7,21 17,85 13,106 -5,27 -18,18 -50,17z"/>
    <path class="fil1" d="M4197 568c-14,-2 -37,-46 -33,-86 3,-29 0,-58 -1,-87 -4,-106 -25,-213 -24,-321 0,-42 0,-106 46,-54 22,25 5,148 7,186 4,102 16,224 27,324 3,27 1,41 -22,38z"/>
    <path class="fil1" d="M4412 586c0,0 1,-1 0,-1 -30,-1 -75,-18 -100,-55 -20,-30 -24,-76 -16,-98 12,-34 4,-63 31,-85 40,-33 97,-64 136,-25 17,17 26,24 26,56 0,36 19,137 57,149 4,1 25,5 25,13 0,60 -61,5 -83,-4 -21,-9 -25,5 -48,32 -6,7 -22,18 -29,18zm-10 -39c0,0 1,-1 0,-1 -23,-1 -45,-16 -56,-57 -9,-31 -6,-96 0,-107 8,-16 68,-53 88,-27 35,45 20,180 -31,192zm37 -314c-22,-22 59,-102 84,-117 27,0 41,22 18,45 0,14 -49,8 -49,34 -28,14 -26,31 -54,39z"/>
    <path class="fil1" d="M4637 568c0,0 1,-1 0,-1 -17,-1 -46,-232 -27,-249 36,-31 10,58 55,21 46,-37 94,-23 111,-3 36,43 20,163 45,201 14,21 0,26 -12,28 -14,3 -30,0 -41,-17 -5,-8 0,-105 -17,-156 -17,-51 -93,0 -93,1 -4,39 11,116 6,152 -4,27 -17,18 -26,21z"/>
    <path class="fil1" d="M4928 568c-1,1 -16,-30 -16,-31 0,-31 -16,-183 -6,-203 14,-28 32,-17 38,19 9,53 9,151 9,160 0,25 -2,48 -24,56zm-23 -335c-22,-22 59,-102 84,-117 27,0 41,22 18,45 0,14 -49,8 -49,34 -28,14 -26,31 -54,39z"/>
   </g>
  </g>
 </g>
</svg>
