<?xml version="1.0" encoding="UTF-8"?>
<!DOCTYPE svg PUBLIC "-//W3C//DTD SVG 1.1//EN" "http://www.w3.org/Graphics/SVG/1.1/DTD/svg11.dtd">
<!-- Creator: CorelDRAW Home & Student X6 -->
<svg xmlns="http://www.w3.org/2000/svg" xml:space="preserve" width="117.42mm" height="34.1593mm" version="1.1" style="shape-rendering:geometricPrecision; text-rendering:geometricPrecision; image-rendering:optimizeQuality; fill-rule:evenodd; clip-rule:evenodd"
viewBox="0 0 3302 961"
 xmlns:xlink="http://www.w3.org/1999/xlink">
 <defs>
  <style type="text/css">
   <![CDATA[
    .fil1 {fill:black}
    .fil0 {fill:red}
   ]]>
  </style>
 </defs>
 <g id="Vrstva_x0020_1">
  <metadata id="CorelCorpID_0Corel-Layer"/>
  <g id="_129603968">
   <path class="fil0" d="M1670 961c0,-1 -22,-6 -25,-6 -16,-4 -108,-23 -72,-50 4,-4 6,-9 14,-5 9,14 94,38 102,21 6,-22 14,-68 2,-91 -14,-28 -59,-29 -83,-29 -18,9 -25,-6 -34,-14 0,-42 -39,-151 5,-180 5,0 13,7 16,11 45,0 89,-15 134,-15 29,9 8,37 -14,37 -13,-9 -114,4 -122,19 -1,23 1,87 11,108 35,0 92,2 115,40 20,32 13,94 -5,131 -11,21 -29,16 -46,25z"/>
   <g>
    <path class="fil1" d="M45 375c-20,-11 -11,-116 -19,-137 -3,-7 -7,-34 -6,-37 1,-21 -11,-123 -18,-139 -7,-16 5,-47 33,-35 25,11 53,2 83,2 14,0 34,-6 50,-6 32,-1 46,54 7,43 -10,-3 -5,-4 -15,-7 -13,-5 -41,-3 -54,-2 -22,2 -48,-7 -63,7 -10,9 -4,127 9,133 9,4 18,3 28,1 12,-2 43,-5 77,-3 23,1 36,0 34,18 -1,15 -12,13 -24,10 -20,-5 -40,-1 -60,0 -23,1 -44,0 -50,8 -7,8 7,78 12,113 1,10 3,10 -1,19 -3,7 -14,17 -22,12z"/>
    <path class="fil1" d="M367 375c-16,0 -21,-101 -24,-123 -1,-5 0,-18 -2,-24 -3,-10 -7,-14 -11,-21 -16,-27 -35,-30 -47,-63 -7,-20 -33,-90 -15,-106 4,-3 6,-13 17,-6 10,6 7,3 5,29 -3,34 33,95 71,131 14,-4 62,-75 67,-87 10,-24 15,-58 22,-71 1,-1 33,-19 22,15 -3,9 -12,39 -19,63 -5,16 -27,49 -49,79 -6,8 -12,14 -17,22 -38,66 29,125 -9,159 -2,2 -7,2 -11,2z"/>
    <path class="fil1" d="M765 374c-1,-2 -12,-2 -14,-8 -1,-4 -29,-19 -33,-22 -5,-5 -14,-12 -19,-15 -2,-1 -101,-85 -107,-90 -11,-8 -10,3 -10,23 0,27 2,67 5,72 19,36 -39,65 -30,5 2,-15 -10,-108 -8,-121 6,-47 -6,-87 -7,-131 -1,-14 -6,-30 -2,-45 4,-13 10,-12 15,-15 7,-3 15,19 17,31 7,37 4,102 4,105 1,9 -2,42 14,21 19,-25 42,-48 68,-82 13,-17 27,-36 39,-47 7,-6 74,-43 41,-1 -11,15 -90,90 -96,107 -3,9 -32,34 -32,44 0,9 24,38 29,43 31,27 75,62 111,81 26,13 54,12 15,44 0,0 -1,1 -1,0z"/>
    <path class="fil1" d="M931 378c-22,-1 -73,-16 -82,-36 -1,-2 -24,-25 -26,-29 -33,-86 -19,-176 17,-252 4,-8 30,-32 39,-35 35,-11 43,-1 76,11 67,25 122,94 126,166 3,54 -61,162 -115,174 -11,3 -23,1 -34,1zm1 -31c-1,0 -10,-3 -10,-3 -18,-2 -58,-25 -69,-44 -12,-20 -21,-49 -22,-61 -3,-49 6,-112 26,-153 10,-20 24,-33 52,-30 36,4 28,4 75,35 24,16 46,40 59,64 30,60 -21,157 -74,188 -8,5 -28,4 -37,4z"/>
    <path class="fil1" d="M1242 383c-3,0 -12,-2 -14,-2 -9,-2 -51,-14 -69,-24 -20,-10 -31,-24 -4,-37 6,-3 11,-1 14,3 12,16 78,37 104,31 11,-2 37,-19 37,-30 3,-36 -95,-79 -96,-79 -2,0 -36,-20 -42,-23 -56,-30 -72,-113 -12,-155 19,-13 113,-56 131,-37 17,4 28,10 33,28 8,26 -14,40 -26,16 -21,-44 -144,5 -144,54 0,26 -5,44 18,63 39,31 167,77 168,130 0,17 -5,35 -41,53 -18,9 -39,8 -59,10z"/>
    <path class="fil1" d="M1435 374c-1,0 -11,-19 -11,-20 0,-20 -11,-120 -4,-133 9,-19 21,-11 25,12 6,35 6,100 6,105 0,16 -1,31 -16,37zm-15 -221c-14,-14 39,-67 55,-77 18,0 27,14 12,29 0,9 -32,5 -32,22 -19,9 -17,20 -35,26z"/>
    <path class="fil1" d="M1817 375c-20,-11 -11,-116 -19,-137 -3,-7 -7,-34 -6,-37 1,-21 -11,-123 -18,-139 -7,-16 5,-47 33,-35 25,11 53,2 83,2 14,0 34,-6 50,-6 32,-1 46,54 7,43 -10,-3 -5,-4 -15,-7 -13,-5 -41,-3 -54,-2 -22,2 -48,-7 -63,7 -10,9 -4,127 9,133 9,4 18,3 28,1 12,-2 43,-5 77,-3 23,1 36,0 34,18 -1,15 -12,13 -24,10 -20,-5 -40,-1 -60,0 -23,1 -44,0 -50,8 -7,8 7,78 12,113 1,10 3,10 -1,19 -3,7 -14,17 -22,12z"/>
    <path class="fil1" d="M2103 529c-14,-3 -15,-23 -14,-41 1,-26 -7,-107 -38,-113 -16,-3 -53,-108 -57,-137 -2,-16 2,-27 17,-27 2,0 5,8 8,18 5,15 32,121 56,117 1,0 40,-45 41,-48 15,-29 27,-70 30,-73 5,-7 11,-10 16,-12 13,-7 16,2 11,15 -11,27 -16,73 -41,96 -17,16 -36,37 -32,55 8,39 14,86 17,127 1,11 -1,28 -14,25z"/>
    <path class="fil1" d="M2338 373c0,0 1,-1 0,-1 -11,-2 -94,9 -111,-4 -12,-10 49,-43 42,-68 -1,-5 -16,0 -24,-2 -5,-1 0,-11 0,-16 0,-28 43,-1 52,-15 9,-15 16,-23 13,-28 -7,-10 -44,-7 -61,-3 -9,2 -14,1 -17,1 -8,0 -14,-4 -21,-17 -9,-16 36,-10 71,-11 21,0 41,-2 56,2 8,2 17,2 17,12 0,19 -40,41 -31,52 3,3 30,-4 36,1 9,8 0,19 -11,22 -15,3 -29,1 -36,3 -7,2 -13,8 -18,13 -7,7 -10,17 -21,33 6,2 80,-1 83,0 23,2 0,20 -7,23 -4,1 -8,1 -13,3z"/>
    <path class="fil1" d="M2428 138c-29,0 -3,-73 18,-18 3,8 -9,18 -18,18zm11 235c-1,0 -11,-19 -11,-20 0,-20 -11,-120 -4,-133 9,-19 21,-11 25,12 6,35 6,100 6,105 0,16 -1,31 -16,37z"/>
    <path class="fil1" d="M2548 376c-4,0 -17,-143 -19,-153 0,-36 -39,-223 12,-223 21,0 5,218 28,252 3,-4 19,-10 35,-19 25,-15 54,-33 61,-32 9,3 7,12 -2,24 -17,24 -59,37 -65,48 7,9 21,29 39,44 19,15 42,23 48,37 3,8 4,6 -6,16 -24,23 -77,-52 -107,-75 4,14 11,56 9,70 -3,18 -12,12 -33,11z"/>
    <path class="fil1" d="M2761 373c-9,-1 -24,-30 -21,-57 2,-19 0,-38 -1,-57 -3,-69 -17,-140 -16,-211 0,-28 0,-69 30,-35 15,16 4,97 4,122 2,67 10,147 18,213 2,18 0,27 -15,25z"/>
    <path class="fil1" d="M2903 386c0,0 1,-1 0,-1 -20,0 -49,-12 -66,-36 -13,-19 -15,-50 -10,-65 8,-23 3,-41 21,-56 26,-21 64,-42 89,-16 11,11 17,16 17,37 0,24 12,90 37,98 3,1 16,4 16,9 0,39 -40,3 -54,-3 -14,-6 -16,3 -32,21 -4,4 -14,12 -19,12zm-6 -26c0,0 1,-1 0,-1 -15,0 -29,-11 -37,-37 -6,-21 -4,-63 0,-71 6,-10 45,-35 58,-18 23,29 13,119 -21,126zm24 -207c-14,-14 39,-67 55,-77 18,0 27,14 12,29 0,9 -32,5 -32,22 -19,9 -17,20 -35,26z"/>
    <path class="fil1" d="M3051 374c0,0 1,-1 0,-1 -11,-1 -30,-153 -18,-164 24,-21 6,38 36,14 31,-24 62,-15 73,-2 24,28 13,107 30,132 9,14 0,17 -8,19 -9,2 -20,0 -27,-11 -4,-5 0,-69 -11,-102 -11,-33 -61,0 -61,0 -3,25 7,77 4,100 -3,18 -11,12 -17,14z"/>
    <path class="fil1" d="M3242 374c-1,0 -11,-19 -11,-20 0,-20 -11,-120 -4,-133 9,-19 21,-11 25,12 6,35 6,100 6,105 0,16 -1,31 -16,37zm-15 -221c-14,-14 39,-67 55,-77 18,0 27,14 12,29 0,9 -32,5 -32,22 -19,9 -17,20 -35,26z"/>
   </g>
  </g>
 </g>
</svg>
