<?xml version="1.0" encoding="UTF-8"?>
<!DOCTYPE svg PUBLIC "-//W3C//DTD SVG 1.1//EN" "http://www.w3.org/Graphics/SVG/1.1/DTD/svg11.dtd">
<!-- Creator: CorelDRAW Home & Student X6 -->
<svg xmlns="http://www.w3.org/2000/svg" xml:space="preserve" width="117.42mm" height="34.231mm" version="1.1" style="shape-rendering:geometricPrecision; text-rendering:geometricPrecision; image-rendering:optimizeQuality; fill-rule:evenodd; clip-rule:evenodd"
viewBox="0 0 4466 1302"
 xmlns:xlink="http://www.w3.org/1999/xlink">
 <defs>
  <style type="text/css">
   <![CDATA[
    .fil1 {fill:black}
    .fil0 {fill:red}
   ]]>
  </style>
 </defs>
 <g id="Vrstva_x0020_1">
  <metadata id="CorelCorpID_0Corel-Layer"/>
  <g id="_130349008">
   <path class="fil0" d="M1149 1282c-1,-1 -4,-4 -6,-6 -29,-20 -21,-106 -30,-140 -9,-35 -2,-84 -8,-111 -4,-19 -22,-171 -16,-206 2,-16 8,-28 18,-30 10,-2 15,9 17,25 5,43 0,224 25,237 6,3 6,6 18,-1 8,-5 89,16 102,28 15,13 37,108 38,123 5,94 -87,122 -157,81zm6 -141c1,-18 -6,-34 3,-42 12,-11 43,-11 83,11 5,3 13,16 20,26 18,24 17,71 2,100 -11,21 -33,29 -42,31 -5,1 -31,-6 -47,-17 -26,-18 -22,-83 -20,-108z"/>
   <path class="fil0" d="M1379 1283c-16,0 -40,-215 -32,-225 12,-16 21,-13 29,11 2,8 29,4 59,2 14,-1 32,-11 45,-10 17,1 29,14 36,24 11,14 -2,30 -12,32 -7,2 -11,-12 -28,-16 -9,-2 -36,-4 -54,2 -17,6 -23,19 -30,26 -4,4 5,61 6,73 1,26 8,62 3,74 -3,6 -17,7 -22,7z"/>
   <path class="fil0" d="M1720 1285c0,0 1,-1 0,-1 -15,-2 -127,13 -150,-6 -16,-13 66,-58 56,-92 -2,-6 -21,-1 -32,-2 -7,-1 0,-15 0,-21 0,-38 59,-1 71,-20 13,-21 22,-31 17,-38 -9,-14 -59,-9 -83,-4 -12,3 -18,1 -23,1 -10,1 -19,-6 -29,-23 -12,-22 49,-14 96,-15 29,0 56,-2 76,2 11,3 24,3 24,17 0,25 -53,56 -42,70 4,4 41,-5 48,2 13,11 0,26 -14,29 -20,4 -40,1 -49,3 -10,3 -18,11 -24,18 -9,9 -13,23 -29,45 8,3 108,-1 113,0 31,3 1,28 -9,32 -5,2 -11,2 -17,4z"/>
   <path class="fil0" d="M1905 1296c0,0 0,0 0,-1 -79,0 -118,-58 -118,-132 26,-39 89,-140 157,-106 68,0 111,96 76,148 0,45 -80,79 -115,92zm-12 -45c-5,-1 -8,5 -23,-6 -28,-22 -64,-73 -14,-104 26,-17 27,-70 86,-40 39,20 43,6 43,69 0,31 -51,77 -84,80 -3,0 -6,0 -8,0z"/>
   <path class="fil0" d="M2394 1285c0,0 1,-1 0,-1 -15,-2 -127,13 -150,-6 -16,-13 66,-58 56,-92 -2,-6 -21,-1 -32,-2 -7,-1 0,-15 0,-21 0,-38 59,-1 71,-20 13,-21 22,-31 17,-38 -9,-14 -59,-9 -83,-4 -12,3 -18,1 -23,1 -10,1 -19,-6 -29,-23 -12,-22 49,-14 96,-15 29,0 56,-2 76,2 11,3 24,3 24,17 0,25 -53,56 -42,70 4,4 41,-5 48,2 13,11 0,26 -14,29 -20,4 -40,1 -49,3 -10,3 -18,11 -24,18 -9,9 -13,23 -29,45 8,3 108,-1 113,0 31,3 1,28 -9,32 -5,2 -11,2 -17,4z"/>
   <path class="fil0" d="M2583 1302c0,0 1,-1 0,-1 -27,-1 -67,-16 -89,-49 -18,-26 -21,-68 -14,-87 11,-31 4,-56 28,-76 35,-29 86,-57 121,-22 15,15 23,21 23,50 0,32 17,122 51,132 4,1 22,5 22,12 0,53 -55,4 -73,-4 -19,-8 -22,5 -43,28 -5,6 -19,16 -26,16zm-9 -35c0,0 1,-1 0,-1 -20,0 -40,-14 -50,-50 -8,-28 -6,-85 0,-95 7,-14 61,-47 78,-24 31,40 18,160 -28,171z"/>
   <path class="fil0" d="M2820 1298c-114,-12 -105,-140 -55,-204 33,-42 102,-66 139,-25 17,19 13,58 -18,26 -16,-16 -64,-1 -81,10 -42,27 -71,140 15,153 17,3 83,-26 103,-18 10,4 14,13 2,29 -12,18 -82,31 -106,28zm19 -305c0,-1 -44,-33 -46,-37 -14,-29 -58,-32 -30,-70 27,-14 52,85 86,46 10,-11 34,-67 53,-28 0,13 -46,77 -57,88 -2,0 -4,0 -6,0z"/>
   <path class="fil0" d="M2992 1286c0,0 1,-1 0,-1 -15,-1 -41,-206 -24,-221 32,-28 9,51 49,19 41,-33 83,-20 99,-2 32,38 18,145 40,179 12,19 0,23 -11,25 -13,2 -27,0 -36,-15 -5,-7 0,-94 -15,-138 -15,-45 -82,0 -82,1 -4,34 10,104 5,136 -4,24 -15,16 -23,18z"/>
   <path class="fil0" d="M3318 1298c0,-3 -78,-23 -92,-28 -16,-7 -72,-76 -62,-106 20,-62 63,-109 125,-113 22,-1 103,20 80,67 -15,30 -33,54 -61,70 -22,13 -55,17 -63,36 -7,18 29,39 66,40 46,1 92,-18 49,21 -11,10 -29,11 -43,13zm-99 -116c-26,-22 5,-74 42,-94 17,-9 39,-7 51,-1 13,7 32,12 25,25 -18,33 -105,82 -119,70z"/>
  </g>
  <g id="_309402704">
   <path class="fil1" d="M61 508c-27,-15 -15,-157 -25,-185 -4,-10 -9,-46 -9,-50 1,-28 -15,-167 -24,-188 -9,-21 7,-64 44,-47 34,15 72,3 112,3 19,0 46,-7 68,-8 43,-1 63,72 9,59 -14,-4 -7,-6 -20,-10 -17,-6 -55,-4 -73,-3 -30,2 -65,-10 -85,9 -13,12 -5,172 12,180 12,6 24,4 38,2 16,-2 59,-6 104,-4 31,1 49,0 46,24 -2,21 -16,17 -32,13 -27,-7 -54,-1 -82,0 -31,1 -59,0 -68,10 -10,11 10,106 16,153 2,13 4,14 -1,26 -4,10 -19,23 -30,16z"/>
   <path class="fil1" d="M496 507c-21,0 -29,-137 -33,-166 -1,-6 0,-24 -3,-32 -4,-13 -10,-20 -15,-28 -21,-36 -48,-41 -64,-86 -10,-27 -45,-121 -20,-144 5,-4 9,-17 23,-8 13,9 10,4 7,40 -4,46 45,128 96,177 19,-5 84,-101 90,-117 13,-33 20,-79 30,-96 1,-1 45,-26 29,20 -4,12 -17,53 -26,85 -6,22 -36,66 -66,107 -8,11 -16,19 -22,29 -52,90 39,169 -12,215 -3,3 -10,3 -14,3z"/>
   <path class="fil1" d="M1035 506c-1,-3 -17,-2 -19,-10 -2,-5 -40,-25 -44,-29 -7,-7 -19,-16 -26,-21 -2,-2 -137,-115 -145,-121 -15,-11 -13,4 -13,31 0,36 2,90 7,98 26,49 -53,87 -41,7 3,-20 -13,-146 -11,-164 8,-63 -8,-118 -10,-177 -1,-19 -8,-41 -3,-60 5,-18 14,-17 20,-20 9,-4 20,26 23,42 10,51 6,138 6,142 1,12 -3,57 19,28 26,-33 57,-65 92,-111 18,-24 36,-48 53,-64 9,-9 100,-59 56,-1 -15,20 -122,122 -130,144 -4,13 -43,46 -43,60 0,12 32,51 39,57 42,37 101,84 151,110 35,18 73,16 21,59 0,0 -2,1 -2,0z"/>
   <path class="fil1" d="M1259 512c-29,-2 -99,-22 -111,-48 -1,-3 -32,-33 -35,-40 -45,-116 -26,-239 23,-341 5,-11 41,-44 52,-47 47,-16 59,-2 102,14 91,34 164,127 170,224 4,73 -82,219 -155,236 -15,3 -31,2 -46,1zm2 -43c-1,0 -14,-4 -14,-4 -24,-2 -78,-33 -93,-59 -16,-27 -29,-66 -30,-82 -4,-67 8,-151 36,-207 14,-27 33,-45 71,-41 49,5 38,6 101,47 33,21 63,54 79,87 41,81 -29,212 -100,254 -11,6 -38,6 -50,6z"/>
   <path class="fil1" d="M1680 518c-4,0 -16,-3 -19,-3 -12,-2 -69,-19 -93,-32 -27,-14 -42,-32 -5,-50 9,-4 15,-1 19,4 16,21 105,49 141,42 15,-3 49,-26 51,-40 4,-48 -129,-107 -130,-107 -3,0 -49,-27 -57,-31 -76,-41 -97,-153 -16,-210 26,-18 152,-75 177,-50 23,5 38,13 45,38 11,35 -19,55 -35,21 -29,-60 -194,6 -194,73 0,35 -6,60 25,85 53,42 226,104 228,176 1,23 -7,47 -56,72 -25,12 -53,11 -79,14z"/>
   <path class="fil1" d="M1941 506c-1,0 -14,-26 -14,-28 0,-28 -15,-163 -6,-180 13,-25 28,-15 34,16 8,47 8,135 8,142 0,22 -2,42 -22,49zm-21 -298c-19,-19 53,-91 75,-104 24,0 37,19 16,40 0,13 -43,7 -43,30 -25,13 -23,27 -48,35z"/>
   <path class="fil1" d="M2458 508c-27,-15 -15,-157 -25,-185 -4,-10 -9,-46 -9,-50 1,-28 -15,-167 -24,-188 -9,-21 7,-64 44,-47 34,15 72,3 112,3 19,0 46,-7 68,-8 43,-1 63,72 9,59 -14,-4 -7,-6 -20,-10 -17,-6 -55,-4 -73,-3 -30,2 -65,-10 -85,9 -13,12 -5,172 12,180 12,6 24,4 38,2 16,-2 59,-6 104,-4 31,1 49,0 46,24 -2,21 -16,17 -32,13 -27,-7 -54,-1 -82,0 -31,1 -59,0 -68,10 -10,11 10,106 16,153 2,13 4,14 -1,26 -4,10 -19,23 -30,16z"/>
   <path class="fil1" d="M2844 715c-19,-5 -20,-31 -19,-55 1,-35 -10,-144 -51,-153 -21,-5 -71,-146 -77,-185 -3,-21 2,-37 23,-37 3,0 7,11 11,25 6,21 44,163 75,159 2,0 54,-61 56,-65 21,-39 36,-94 40,-99 7,-10 15,-14 21,-17 18,-9 22,3 16,20 -15,37 -22,99 -55,130 -23,22 -48,51 -43,74 11,52 19,116 23,171 1,15 -1,38 -19,34z"/>
   <path class="fil1" d="M3162 505c0,0 1,-1 0,-1 -15,-2 -127,13 -150,-6 -16,-13 66,-58 56,-92 -2,-6 -21,-1 -32,-2 -7,-1 0,-15 0,-21 0,-38 59,-1 71,-20 13,-21 22,-31 17,-38 -9,-14 -59,-9 -83,-4 -12,3 -18,1 -23,1 -10,1 -19,-6 -29,-23 -12,-22 49,-14 96,-15 29,0 56,-2 76,2 11,3 24,3 24,17 0,25 -53,56 -42,70 4,4 41,-5 48,2 13,11 0,26 -14,29 -20,4 -40,1 -49,3 -10,3 -18,11 -24,18 -9,9 -13,23 -29,45 8,3 108,-1 113,0 31,3 1,28 -9,32 -5,2 -11,2 -17,4z"/>
   <path class="fil1" d="M3284 187c-39,0 -4,-98 25,-25 4,10 -12,25 -25,25zm16 318c-1,0 -14,-26 -14,-28 0,-28 -15,-163 -6,-180 13,-25 28,-15 34,16 8,47 8,135 8,142 0,22 -2,42 -22,49z"/>
   <path class="fil1" d="M3446 509c-5,0 -23,-193 -25,-207 0,-49 -52,-301 16,-301 28,0 7,295 37,341 4,-5 26,-13 47,-26 34,-20 74,-45 82,-43 12,4 9,16 -2,32 -23,32 -80,50 -88,65 10,12 29,40 53,59 25,20 57,31 65,50 5,11 6,8 -8,22 -32,31 -104,-71 -145,-102 6,19 15,75 12,95 -4,24 -16,16 -44,15z"/>
   <path class="fil1" d="M3735 505c-13,-2 -33,-41 -29,-77 3,-26 0,-52 -1,-78 -4,-94 -23,-189 -22,-285 0,-38 0,-94 41,-48 20,22 5,132 6,166 3,90 14,199 24,288 3,24 1,37 -20,34z"/>
   <path class="fil1" d="M3926 522c0,0 1,-1 0,-1 -27,-1 -67,-16 -89,-49 -18,-26 -21,-68 -14,-87 11,-31 4,-56 28,-76 35,-29 86,-57 121,-22 15,15 23,21 23,50 0,32 17,122 51,132 4,1 22,5 22,12 0,53 -55,4 -73,-4 -19,-8 -22,5 -43,28 -5,6 -19,16 -26,16zm-9 -35c0,0 1,-1 0,-1 -20,0 -40,-14 -50,-50 -8,-28 -6,-85 0,-95 7,-14 61,-47 78,-24 31,40 18,160 -28,171zm33 -280c-19,-19 53,-91 75,-104 24,0 37,19 16,40 0,13 -43,7 -43,30 -25,13 -23,27 -48,35z"/>
   <path class="fil1" d="M4126 506c0,0 1,-1 0,-1 -15,-1 -41,-206 -24,-221 32,-28 9,51 49,19 41,-33 83,-20 99,-2 32,38 18,145 40,179 12,19 0,23 -11,25 -13,2 -27,0 -36,-15 -5,-7 0,-94 -15,-138 -15,-45 -82,0 -82,1 -4,34 10,104 5,136 -4,24 -15,16 -23,18z"/>
   <path class="fil1" d="M4385 506c-1,0 -14,-26 -14,-28 0,-28 -15,-163 -6,-180 13,-25 28,-15 34,16 8,47 8,135 8,142 0,22 -2,42 -22,49zm-21 -298c-19,-19 53,-91 75,-104 24,0 37,19 16,40 0,13 -43,7 -43,30 -25,13 -23,27 -48,35z"/>
  </g>
 </g>
</svg>
