<?xml version="1.0" encoding="UTF-8"?>
<!DOCTYPE svg PUBLIC "-//W3C//DTD SVG 1.1//EN" "http://www.w3.org/Graphics/SVG/1.1/DTD/svg11.dtd">
<!-- Creator: CorelDRAW Home & Student X6 -->
<svg xmlns="http://www.w3.org/2000/svg" xml:space="preserve" width="117.42mm" height="38.8229mm" version="1.1" style="shape-rendering:geometricPrecision; text-rendering:geometricPrecision; image-rendering:optimizeQuality; fill-rule:evenodd; clip-rule:evenodd"
viewBox="0 0 3871 1280"
 xmlns:xlink="http://www.w3.org/1999/xlink">
 <defs>
  <style type="text/css">
   <![CDATA[
    .fil0 {fill:black}
   ]]>
  </style>
 </defs>
 <g id="Vrstva_x0020_1">
  <metadata id="CorelCorpID_0Corel-Layer"/>
  <g id="_313859000">
   <g>
    <path class="fil0" d="M576 1108c-99,-10 -91,-121 -47,-177 28,-36 89,-58 120,-22 15,17 12,50 -16,23 -14,-14 -56,-1 -70,9 -37,23 -61,122 13,133 15,2 72,-22 90,-15 9,4 12,11 2,25 -11,16 -71,26 -92,24zm17 -265c0,-1 -39,-28 -40,-32 -13,-25 -50,-28 -26,-60 23,-12 45,74 75,40 8,-9 29,-58 46,-24 0,11 -40,67 -49,76 -2,0 -3,0 -5,0z"/>
    <path class="fil0" d="M807 1108c0,-2 -67,-20 -79,-25 -14,-6 -62,-66 -53,-92 18,-54 54,-95 109,-98 19,-1 90,17 69,58 -13,26 -29,47 -53,61 -19,11 -48,15 -55,31 -6,15 25,34 58,35 40,1 80,-16 42,18 -10,9 -25,10 -37,11zm-86 -100c-22,-19 4,-64 36,-82 15,-8 34,-6 45,-1 12,6 28,11 22,22 -16,29 -91,71 -103,61z"/>
    <path class="fil0" d="M897 1101c-4,0 -20,-167 -22,-179 0,-43 -45,-261 14,-261 24,0 6,256 32,296 4,-4 22,-11 41,-22 30,-17 64,-39 71,-37 11,3 8,14 -2,28 -20,28 -69,44 -76,56 9,10 25,34 46,51 22,17 49,27 56,44 4,10 5,7 -7,19 -28,27 -90,-61 -125,-88 5,16 13,65 10,82 -4,21 -14,14 -39,13z"/>
    <path class="fil0" d="M1148 1111c0,0 1,-1 0,-1 -23,0 -58,-14 -77,-42 -15,-23 -18,-59 -12,-76 9,-27 3,-48 24,-66 31,-25 75,-49 105,-19 13,13 20,18 20,44 0,28 14,106 44,115 3,1 19,4 19,10 0,46 -47,3 -64,-3 -16,-7 -19,4 -37,24 -4,5 -17,14 -23,14zm-8 -30c0,0 1,-1 0,-1 -18,0 -35,-13 -43,-44 -7,-24 -5,-74 0,-83 6,-12 52,-40 68,-21 27,34 15,139 -24,148zm29 -242c-17,-17 46,-79 65,-91 21,0 32,17 14,34 0,11 -38,6 -38,26 -22,11 -20,24 -42,30z"/>
    <path class="fil0" d="M1415 1097c0,0 1,-1 0,-1 -13,-1 -36,-179 -21,-192 28,-24 7,45 43,16 36,-29 72,-18 85,-2 28,33 15,125 35,155 11,16 0,20 -9,22 -11,2 -23,0 -32,-13 -4,-6 0,-81 -13,-120 -13,-39 -71,0 -71,1 -3,30 9,90 4,118 -3,21 -13,14 -20,16z"/>
    <path class="fil0" d="M1664 1111c0,0 1,-1 0,-1 -23,0 -58,-14 -77,-42 -15,-23 -18,-59 -12,-76 9,-27 3,-48 24,-66 31,-25 75,-49 105,-19 13,13 20,18 20,44 0,28 14,106 44,115 3,1 19,4 19,10 0,46 -47,3 -64,-3 -16,-7 -19,4 -37,24 -4,5 -17,14 -23,14zm-8 -30c0,0 1,-1 0,-1 -18,0 -35,-13 -43,-44 -7,-24 -5,-74 0,-83 6,-12 52,-40 68,-21 27,34 15,139 -24,148z"/>
    <path class="fil0" d="M1976 1095c-29,-7 -35,-45 -45,-73 -5,-13 -43,-68 -47,-79 -5,-14 -15,-22 -2,-37 21,-23 60,67 74,96 6,12 15,26 24,37 0,0 16,-32 21,-41 6,-12 15,-43 29,-65 11,-18 21,-34 29,-30 19,9 18,20 11,32 -10,16 -39,79 -46,95 -7,16 -30,70 -48,66z"/>
    <path class="fil0" d="M2229 1279c-17,-4 -17,-27 -16,-48 1,-31 -9,-125 -44,-133 -18,-4 -62,-127 -67,-160 -2,-18 2,-32 20,-32 3,0 6,9 10,21 6,18 38,141 65,137 2,0 47,-53 48,-56 18,-34 32,-82 35,-86 6,-8 13,-12 18,-14 15,-8 19,3 13,17 -13,32 -19,86 -48,113 -20,19 -42,44 -38,64 10,45 16,101 20,148 1,13 -1,33 -17,29z"/>
    <path class="fil0" d="M2385 1107c-16,-3 -60,-24 -67,-43 -2,-7 -1,-15 6,-26 9,-14 10,-3 26,3 4,2 23,22 33,27 10,5 22,0 25,0 3,0 9,-23 10,-26 4,-13 -74,-46 -79,-62 -8,-23 -16,-47 0,-63 34,-33 107,-45 97,16 -3,16 -23,4 -36,-7 -11,-9 -42,4 -28,29 21,36 31,34 56,50 14,9 28,24 27,31 -5,39 -29,78 -69,71z"/>
    <path class="fil0" d="M2507 1097c-11,-1 -28,-35 -25,-67 2,-22 0,-45 -1,-67 -3,-81 -20,-164 -19,-247 0,-33 0,-81 36,-42 17,19 4,114 5,144 3,78 12,173 21,250 2,21 0,32 -17,30z"/>
    <path class="fil0" d="M2674 1108c0,-2 -67,-20 -79,-25 -14,-6 -62,-66 -53,-92 18,-54 54,-95 109,-98 19,-1 90,17 69,58 -13,26 -29,47 -53,61 -19,11 -48,15 -55,31 -6,15 25,34 58,35 40,1 80,-16 42,18 -10,9 -25,10 -37,11zm-86 -100c-22,-19 4,-64 36,-82 15,-8 34,-6 45,-1 12,6 28,11 22,22 -16,29 -91,71 -103,61z"/>
    <path class="fil0" d="M2929 1090c-18,5 -23,-64 -41,-17 -10,27 -69,54 -117,23 -17,-11 -28,-53 -31,-66 -11,-53 18,-107 69,-133 23,-12 37,8 61,-1 16,-6 1,-170 2,-188 1,-18 -4,-29 11,-38 40,-24 22,94 24,121 4,50 0,170 15,214 5,16 26,39 32,55 5,12 5,22 -24,29zm-135 -21c-1,0 -5,-15 -10,-23 -16,-20 -20,-71 -1,-93 17,-20 78,-48 89,-4 6,24 3,93 -20,117 -14,15 -41,-1 -57,3z"/>
    <path class="fil0" d="M2990 1101c-4,0 -20,-167 -22,-179 0,-43 -45,-261 14,-261 24,0 6,256 32,296 4,-4 22,-11 41,-22 30,-17 64,-39 71,-37 11,3 8,14 -2,28 -20,28 -69,44 -76,56 9,10 25,34 46,51 22,17 49,27 56,44 4,10 5,7 -7,19 -28,27 -90,-61 -125,-88 5,16 13,65 10,82 -4,21 -14,14 -39,13z"/>
    <path class="fil0" d="M3287 1279c-17,-4 -17,-27 -16,-48 1,-31 -9,-125 -44,-133 -18,-4 -62,-127 -67,-160 -2,-18 2,-32 20,-32 3,0 6,9 10,21 6,18 38,141 65,137 2,0 47,-53 48,-56 18,-34 32,-82 35,-86 6,-8 13,-12 18,-14 15,-8 19,3 13,17 -13,32 -19,86 -48,113 -20,19 -42,44 -38,64 10,45 16,101 20,148 1,13 -1,33 -17,29z"/>
    <path class="fil0" d="M2146 839c-17,-17 46,-79 65,-91 21,0 32,17 14,34 0,11 -38,6 -38,26 -22,11 -20,24 -42,30z"/>
   </g>
   <g>
    <path class="fil0" d="M52 440c-24,-13 -13,-136 -22,-160 -3,-9 -8,-40 -8,-44 1,-24 -13,-144 -21,-163 -8,-19 6,-55 39,-41 29,13 62,2 97,2 17,0 40,-6 59,-7 38,-1 54,63 8,51 -12,-3 -6,-5 -17,-9 -15,-5 -48,-3 -63,-2 -26,2 -56,-8 -74,8 -11,10 -5,149 10,156 10,5 21,3 33,2 14,-2 51,-5 90,-4 27,1 42,0 40,21 -2,18 -14,15 -28,11 -24,-6 -47,-1 -71,0 -27,1 -51,0 -59,9 -9,9 8,92 14,133 2,11 3,12 -1,23 -3,8 -16,20 -26,14z"/>
    <path class="fil0" d="M430 439c-18,0 -25,-119 -28,-144 -1,-6 0,-21 -2,-28 -4,-12 -9,-17 -13,-24 -19,-31 -41,-35 -55,-74 -8,-24 -39,-105 -17,-125 4,-4 7,-15 20,-7 12,7 8,3 6,34 -3,40 39,111 83,154 17,-4 72,-87 78,-102 11,-28 17,-68 26,-83 1,-1 39,-23 26,18 -4,11 -15,46 -23,74 -6,19 -32,57 -57,93 -7,9 -14,16 -19,25 -45,78 34,146 -11,187 -3,2 -8,3 -13,3z"/>
    <path class="fil0" d="M897 438c-1,-3 -15,-2 -17,-9 -1,-5 -35,-22 -38,-26 -6,-6 -17,-14 -23,-18 -2,-1 -118,-100 -125,-105 -13,-10 -11,4 -11,27 0,31 2,78 6,85 23,42 -46,76 -36,6 2,-17 -11,-126 -9,-142 7,-55 -7,-102 -9,-153 -1,-16 -7,-35 -2,-52 5,-16 12,-15 18,-17 8,-3 17,23 20,37 9,44 5,120 5,123 1,10 -3,49 16,24 22,-29 49,-56 79,-96 16,-20 31,-42 46,-56 8,-7 87,-51 49,-1 -13,17 -106,105 -113,125 -4,11 -37,40 -37,52 0,11 28,45 34,50 36,32 88,73 131,95 30,16 63,14 18,51 0,0 -1,1 -2,0z"/>
    <path class="fil0" d="M1092 444c-25,-2 -86,-19 -96,-42 -1,-2 -28,-29 -30,-34 -39,-100 -23,-207 20,-295 5,-10 35,-38 45,-41 41,-13 51,-2 89,13 79,29 143,110 147,194 4,64 -71,190 -135,205 -13,3 -27,2 -40,1zm2 -37c-1,0 -12,-3 -12,-3 -21,-2 -68,-29 -81,-51 -14,-24 -25,-57 -26,-71 -4,-58 7,-131 31,-180 12,-23 28,-39 61,-36 43,4 33,5 88,41 28,18 54,47 69,75 35,71 -25,184 -87,220 -9,5 -33,5 -44,5z"/>
    <path class="fil0" d="M1456 449c-4,0 -14,-2 -17,-3 -10,-2 -59,-17 -81,-28 -23,-12 -37,-28 -5,-44 7,-4 13,-1 17,4 14,18 91,43 122,36 13,-3 43,-23 44,-35 3,-42 -112,-93 -113,-93 -3,0 -42,-23 -49,-27 -66,-35 -84,-133 -14,-182 22,-15 132,-65 153,-44 20,5 33,11 39,33 9,31 -17,47 -31,19 -25,-52 -168,6 -168,63 0,31 -6,52 21,73 46,36 196,91 197,152 1,20 -6,41 -49,63 -21,11 -46,10 -69,12z"/>
    <path class="fil0" d="M1682 438c-1,0 -13,-23 -13,-24 0,-24 -13,-141 -5,-156 11,-22 24,-13 29,14 7,41 7,117 7,123 0,19 -2,37 -19,43zm-18 -259c-17,-17 46,-79 65,-91 21,0 32,17 14,34 0,11 -38,6 -38,26 -22,11 -20,24 -42,30z"/>
    <path class="fil0" d="M2130 440c-24,-13 -13,-136 -22,-160 -3,-9 -8,-40 -8,-44 1,-24 -13,-144 -21,-163 -8,-19 6,-55 39,-41 29,13 62,2 97,2 17,0 40,-6 59,-7 38,-1 54,63 8,51 -12,-3 -6,-5 -17,-9 -15,-5 -48,-3 -63,-2 -26,2 -56,-8 -74,8 -11,10 -5,149 10,156 10,5 21,3 33,2 14,-2 51,-5 90,-4 27,1 42,0 40,21 -2,18 -14,15 -28,11 -24,-6 -47,-1 -71,0 -27,1 -51,0 -59,9 -9,9 8,92 14,133 2,11 3,12 -1,23 -3,8 -16,20 -26,14z"/>
    <path class="fil0" d="M2465 620c-17,-4 -17,-27 -16,-48 1,-31 -9,-125 -44,-133 -18,-4 -62,-127 -67,-160 -2,-18 2,-32 20,-32 3,0 6,9 10,21 6,18 38,141 65,137 2,0 47,-53 48,-56 18,-34 32,-82 35,-86 6,-8 13,-12 18,-14 15,-8 19,3 13,17 -13,32 -19,86 -48,113 -20,19 -42,44 -38,64 10,45 16,101 20,148 1,13 -1,33 -17,29z"/>
    <path class="fil0" d="M2741 438c0,0 1,-1 0,-1 -13,-2 -110,11 -130,-5 -14,-12 57,-51 49,-79 -2,-6 -18,-1 -28,-2 -6,-1 0,-13 0,-19 0,-33 51,-1 61,-18 11,-18 19,-27 15,-33 -8,-12 -51,-8 -72,-3 -10,3 -16,1 -20,1 -9,1 -17,-5 -25,-20 -10,-19 43,-12 83,-13 25,0 49,-2 66,2 10,2 20,3 20,14 0,22 -46,48 -36,61 3,4 36,-4 42,1 11,10 0,23 -12,25 -17,4 -34,1 -42,3 -9,2 -15,9 -21,15 -8,8 -11,20 -25,39 7,3 94,-1 98,0 27,2 0,24 -8,27 -4,2 -9,2 -15,3z"/>
    <path class="fil0" d="M2847 162c-33,0 -4,-85 21,-21 4,9 -11,21 -21,21zm13 276c-1,0 -13,-23 -13,-24 0,-24 -13,-141 -5,-156 11,-22 24,-13 29,14 7,41 7,117 7,123 0,19 -2,37 -19,43z"/>
    <path class="fil0" d="M2987 441c-4,0 -20,-167 -22,-179 0,-43 -45,-261 14,-261 24,0 6,256 32,296 4,-4 22,-11 41,-22 30,-17 64,-39 71,-37 11,3 8,14 -2,28 -20,28 -69,44 -76,56 9,10 25,34 46,51 22,17 49,27 56,44 4,10 5,7 -7,19 -28,27 -90,-61 -125,-88 5,16 13,65 10,82 -4,21 -14,14 -39,13z"/>
    <path class="fil0" d="M3237 438c-11,-1 -28,-35 -25,-67 2,-22 0,-45 -1,-67 -3,-81 -20,-164 -19,-247 0,-33 0,-81 36,-42 17,19 4,114 5,144 3,78 12,173 21,250 2,21 0,32 -17,30z"/>
    <path class="fil0" d="M3403 452c0,0 1,-1 0,-1 -23,0 -58,-14 -77,-42 -15,-23 -18,-59 -12,-76 9,-27 3,-48 24,-66 31,-25 75,-49 105,-19 13,13 20,18 20,44 0,28 14,106 44,115 3,1 19,4 19,10 0,46 -47,3 -64,-3 -16,-7 -19,4 -37,24 -4,5 -17,14 -23,14zm-8 -30c0,0 1,-1 0,-1 -18,0 -35,-13 -43,-44 -7,-24 -5,-74 0,-83 6,-12 52,-40 68,-21 27,34 15,139 -24,148zm29 -242c-17,-17 46,-79 65,-91 21,0 32,17 14,34 0,11 -38,6 -38,26 -22,11 -20,24 -42,30z"/>
    <path class="fil0" d="M3576 438c0,0 1,-1 0,-1 -13,-1 -36,-179 -21,-192 28,-24 7,45 43,16 36,-29 72,-18 85,-2 28,33 15,125 35,155 11,16 0,20 -9,22 -11,2 -23,0 -32,-13 -4,-6 0,-81 -13,-120 -13,-39 -71,0 -71,1 -3,30 9,90 4,118 -3,21 -13,14 -20,16z"/>
    <path class="fil0" d="M3801 438c-1,0 -13,-23 -13,-24 0,-24 -13,-141 -5,-156 11,-22 24,-13 29,14 7,41 7,117 7,123 0,19 -2,37 -19,43zm-18 -259c-17,-17 46,-79 65,-91 21,0 32,17 14,34 0,11 -38,6 -38,26 -22,11 -20,24 -42,30z"/>
   </g>
  </g>
 </g>
</svg>
