<?xml version="1.0" encoding="UTF-8"?>
<svg id="Layer_1" data-name="Layer 1" xmlns="http://www.w3.org/2000/svg" viewBox="0 0 1599.57 250">
  <defs>
    <style>
      .cls-1 {
        fill: #fff;
      }

      .cls-2 {
        fill: #e6060d;
      }
    </style>
  </defs>
  <rect id="Box" class="cls-2" width="250" height="250"/>
  <g>
    <path d="M371.54,110.18h48.84v28.82h-48.84v59.18h-35.64V51.44h84.48v28.82h-48.84v29.92Z"/>
    <path d="M500.68,96.32h35.2l-55.66,147.18h-35.86l18.26-47.3-35.42-99.88h35.42l17.6,53.46,20.46-53.46Z"/>
    <path d="M624.76,170.46v27.72h-87.34l37.84-74.14h-34.76v-27.72h86.24l-37.84,74.14h35.86Z"/>
    <path d="M677.11,66.84c0,10.12-7.7,17.6-17.82,17.6s-17.82-7.48-17.82-17.82,7.48-17.82,18.04-17.82,17.6,7.48,17.6,18.04Zm-1.1,131.34h-33.44V96.32h33.44v101.86Z"/>
    <path d="M734.31,198.18h-33.44V51.44h33.44v81.18l22.66-36.3h37.84l-29.7,48.4,29.7,53.46h-37.84l-22.66-40.7v40.7Z"/>
    <path d="M808.01,198.18V51.44h33.44V198.18h-33.44Z"/>
    <path d="M944.63,96.32h33.44v101.86h-33.44v-11.44c-9.24,10.56-20.02,15.4-34.54,15.4-29.04,0-49.94-22.22-49.94-53.46s22.22-56.32,52.8-56.32c12.98,0,21.78,4.18,31.68,14.96v-11Zm-48.84,51.7c0,15.62,10.56,27.72,24.2,27.72s25.08-12.76,25.08-28.16c0-16.28-10.34-27.5-24.86-27.5s-24.42,11.66-24.42,27.94Z"/>
    <path d="M1036.59,96.32v11.44c6.6-11.22,13.64-15.4,25.96-15.4,10.12,0,19.8,3.74,26.18,9.9,6.82,7.04,9.24,15.4,9.24,33.44v62.48h-33.44v-62.26c0-9.9-5.28-15.84-13.86-15.84s-14.08,6.38-14.08,16.28v61.82h-33.44V96.32h33.44Z"/>
    <path d="M1156.93,66.84c0,10.12-7.7,17.6-17.82,17.6s-17.82-7.48-17.82-17.82,7.48-17.82,18.04-17.82,17.6,7.48,17.6,18.04Zm-1.1,131.34h-33.44V96.32h33.44v101.86Z"/>
    <path d="M1259.89,182.12v16.06h-82.28l51.04-73.04c14.74-21.34,18.04-27.94,18.04-36.74,0-12.76-10.12-21.78-24.42-21.78-9.9,0-18.04,4.62-21.34,12.32-1.76,4.18-2.42,7.48-2.64,15.18h-16.5c.88-27.94,15.62-43.34,41.8-43.34,23.98,0,40.7,14.96,40.7,36.3,0,12.32-4.4,23.1-16.72,40.26l-39.38,54.78h51.7Z"/>
    <path d="M1376.71,153.96c0,16.5-3.08,26.62-10.34,34.32-7.7,8.14-19.36,12.32-33.22,12.32s-26.18-4.4-33.88-12.76c-7.7-8.14-9.68-16.5-9.68-38.72v-48.4c0-19.14,2.2-28.16,8.8-36.08,7.26-8.8,19.36-13.64,34.32-13.64,13.42,0,24.42,3.74,32.56,11,8.36,7.7,11.44,16.5,11.44,33.66v58.3Zm-69.74-3.74c0,16.94,.66,20.02,5.5,25.52,4.62,5.28,12.54,8.58,20.9,8.58,9.02,0,17.38-3.74,21.56-9.68,3.3-4.84,4.62-11,4.62-21.78v-56.1c0-11.44-1.98-17.16-7.48-22.44-4.84-4.4-11.44-6.82-18.7-6.82-9.46,0-17.6,3.74-21.78,10.56-3.74,5.28-4.62,10.34-4.62,23.1v49.06Z"/>
    <path d="M1479.89,182.12v16.06h-82.28l51.04-73.04c14.74-21.34,18.04-27.94,18.04-36.74,0-12.76-10.12-21.78-24.42-21.78-9.9,0-18.04,4.62-21.34,12.32-1.76,4.18-2.42,7.48-2.64,15.18h-16.5c.88-27.94,15.62-43.34,41.8-43.34,23.98,0,40.7,14.96,40.7,36.3,0,12.32-4.4,23.1-16.72,40.26l-39.38,54.78h51.7Z"/>
    <path d="M1506.73,165.18v-13.64l75.68-102.08v99.88h17.16v15.84h-17.16v33h-16.94v-33h-58.74Zm58.74-71.94l-41.14,56.1h41.14v-56.1Z"/>
  </g>
  <path id="Logo" class="cls-1" d="M28.9,146.68l55.94-.63,22.46,40.51,25.45-11.53,29.03,37.03L221.1,37.94S29.99,146.03,28.9,146.68Zm89.89,24.05l3.45-8.56,4.19,5.11-7.63,3.44Zm-1.62-21.1l-8.1,19.38-15.2-26.64L201.23,57.53l-84.07,92.1Z"/>
</svg>