<?xml version="1.0" encoding="UTF-8"?>
<svg id="Layer_1" data-name="Layer 1" xmlns="http://www.w3.org/2000/svg" viewBox="0 0 1156.93 250">
  <defs>
    <style>
      .cls-1 {
        fill: #fff;
      }

      .cls-2 {
        fill: #e6060d;
      }
    </style>
  </defs>
  <rect id="Box" class="cls-2" width="250" height="250"/>
  <g>
    <path d="M371.54,110.18h48.84v28.82h-48.84v59.18h-35.64V51.44h84.48v28.82h-48.84v29.92Z"/>
    <path d="M500.68,96.32h35.2l-55.66,147.18h-35.86l18.26-47.3-35.42-99.88h35.42l17.6,53.46,20.46-53.46Z"/>
    <path d="M624.76,170.46v27.72h-87.34l37.84-74.14h-34.76v-27.72h86.24l-37.84,74.14h35.86Z"/>
    <path d="M677.11,66.84c0,10.12-7.7,17.6-17.82,17.6s-17.82-7.48-17.82-17.82,7.48-17.82,18.04-17.82,17.6,7.48,17.6,18.04Zm-1.1,131.34h-33.44V96.32h33.44v101.86Z"/>
    <path d="M734.31,198.18h-33.44V51.44h33.44v81.18l22.66-36.3h37.84l-29.7,48.4,29.7,53.46h-37.84l-22.66-40.7v40.7Z"/>
    <path d="M808.01,198.18V51.44h33.44V198.18h-33.44Z"/>
    <path d="M944.63,96.32h33.44v101.86h-33.44v-11.44c-9.24,10.56-20.02,15.4-34.54,15.4-29.04,0-49.94-22.22-49.94-53.46s22.22-56.32,52.8-56.32c12.98,0,21.78,4.18,31.68,14.96v-11Zm-48.84,51.7c0,15.62,10.56,27.72,24.2,27.72s25.08-12.76,25.08-28.16c0-16.28-10.34-27.5-24.86-27.5s-24.42,11.66-24.42,27.94Z"/>
    <path d="M1036.59,96.32v11.44c6.6-11.22,13.64-15.4,25.96-15.4,10.12,0,19.8,3.74,26.18,9.9,6.82,7.04,9.24,15.4,9.24,33.44v62.48h-33.44v-62.26c0-9.9-5.28-15.84-13.86-15.84s-14.08,6.38-14.08,16.28v61.82h-33.44V96.32h33.44Z"/>
    <path d="M1156.93,66.84c0,10.12-7.7,17.6-17.82,17.6s-17.82-7.48-17.82-17.82,7.48-17.82,18.04-17.82,17.6,7.48,17.6,18.04Zm-1.1,131.34h-33.44V96.32h33.44v101.86Z"/>
  </g>
  <path id="Logo" class="cls-1" d="M28.9,146.68l55.94-.63,22.46,40.51,25.45-11.53,29.03,37.03L221.1,37.94S29.99,146.03,28.9,146.68Zm89.89,24.05l3.45-8.56,4.19,5.11-7.63,3.44Zm-1.62-21.1l-8.1,19.38-15.2-26.64L201.23,57.53l-84.07,92.1Z"/>
</svg>