<svg id="Layer_1" data-name="Layer 1" xmlns="http://www.w3.org/2000/svg" viewBox="0 0 1585.11 250"><defs><style>.cls-1{fill:#fff;}</style></defs><g id="Fyziklani2022_Black" data-name="Fyziklani2022 Black"><g id="Text"><path class="cls-1" d="M371.05,100.77h48.84v28.82H371.05v59.18H335.41V42h84.48V70.85H371.05Z"/><path class="cls-1" d="M500.18,86.91h35.2L479.72,234.09H443.86l18.26-47.3L426.7,86.91h35.42l17.6,53.46Z"/><path class="cls-1" d="M624.26,161.05v27.72H536.92l37.84-74.14H540V86.91h86.24L588.4,161.05Z"/><path class="cls-1" d="M676.62,57.43c0,10.12-7.7,17.6-17.82,17.6C648.46,75,641,67.55,641,57.21s7.48-17.82,18-17.82C669.36,39.39,676.62,46.87,676.62,57.43Zm-1.1,131.34H642.08V86.91h33.44Z"/><path class="cls-1" d="M733.82,188.77H700.38V42h33.44v81.18l22.66-36.3h37.84l-29.7,48.4,29.7,53.46H756.48l-22.66-40.7Z"/><path class="cls-1" d="M807.52,188.77V42H841V188.77Z"/><path class="cls-1" d="M944.14,86.91h33.44V188.77H944.14V177.33c-9.24,10.56-20,15.4-34.54,15.4-29,0-49.94-22.22-49.94-53.46,0-32.56,22.22-56.32,52.8-56.32,13,0,21.78,4.18,31.68,15Zm-48.84,51.7c0,15.62,10.56,27.72,24.2,27.72,13.86,0,25.08-12.76,25.08-28.16,0-16.28-10.34-27.5-24.86-27.5C905.42,110.67,895.3,122.33,895.3,138.61Z"/><path class="cls-1" d="M1036.1,86.91V98.35c6.6-11.22,13.64-15.4,26-15.4,10.12,0,19.8,3.74,26.18,9.9,6.82,7,9.24,15.4,9.24,33.44v62.48H1064V126.51c0-9.9-5.28-15.84-13.86-15.84s-14.08,6.38-14.08,16.28v61.82h-33.44V86.91Z"/><path class="cls-1" d="M1156.43,57.43c0,10.12-7.7,17.6-17.82,17.6-10.34,0-17.82-7.48-17.82-17.82s7.48-17.82,18-17.82C1149.17,39.39,1156.43,46.87,1156.43,57.43Zm-1.1,131.34h-33.44V86.91h33.44Z"/><path class="cls-1" d="M1259.4,172.71v16.06h-82.28l51-73c14.74-21.34,18-27.94,18-36.74,0-12.76-10.12-21.78-24.42-21.78-9.9,0-18,4.62-21.34,12.32-1.76,4.18-2.42,7.48-2.64,15.18h-16.51c.89-27.94,15.63-43.34,41.81-43.34,24,0,40.7,15,40.7,36.3,0,12.32-4.4,23.1-16.72,40.26l-39.38,54.78Z"/><path class="cls-1" d="M1376.22,144.55c0,16.5-3.08,26.62-10.34,34.32-7.7,8.14-19.36,12.32-33.22,12.32-14.3,0-26.18-4.4-33.88-12.76-7.7-8.14-9.68-16.5-9.68-38.72V91.31c0-19.14,2.19-28.16,8.8-36.08,7.26-8.8,19.36-13.64,34.32-13.64,13.42,0,24.42,3.74,32.56,11,8.36,7.7,11.44,16.5,11.44,33.66Zm-69.74-3.74c0,16.94.66,20,5.5,25.52,4.62,5.28,12.54,8.58,20.9,8.58,9,0,17.38-3.74,21.56-9.68,3.3-4.84,4.62-11,4.62-21.78V87.35c0-11.44-2-17.16-7.48-22.44a27.52,27.52,0,0,0-18.7-6.82c-9.46,0-17.6,3.74-21.78,10.56-3.74,5.28-4.62,10.34-4.62,23.1Z"/><path class="cls-1" d="M1479.4,172.71v16.06h-82.28l51-73c14.74-21.34,18-27.94,18-36.74,0-12.76-10.12-21.78-24.42-21.78-9.9,0-18,4.62-21.34,12.32-1.76,4.18-2.42,7.48-2.64,15.18h-16.51c.89-27.94,15.63-43.34,41.81-43.34,24,0,40.7,15,40.7,36.3,0,12.32-4.4,23.1-16.72,40.26l-39.38,54.78Z"/><path class="cls-1" d="M1580.71,172.71v16.06h-82.29l51-73c14.75-21.34,18-27.94,18-36.74,0-12.76-10.12-21.78-24.42-21.78-9.89,0-18,4.62-21.33,12.32-1.76,4.18-2.42,7.48-2.64,15.18H1502.6c.89-27.94,15.62-43.34,41.81-43.34,24,0,40.7,15,40.7,36.3,0,12.32-4.4,23.1-16.72,40.26L1529,172.71Z"/></g><g id="Symbol"><polygon class="cls-1" points="118.29 170.48 125.92 167.03 121.73 161.92 118.29 170.48"/><polygon class="cls-1" points="116.67 149.38 200.73 57.27 93.37 142.12 108.57 168.76 116.67 149.38"/><path class="cls-1" d="M-.49-.26v250h250V-.26ZM161.29,211.8l-29-37-25.45,11.54L84.35,145.79l-55.95.63c1.09-.65,192.21-108.74,192.21-108.74Z"/></g></g></svg>