<?xml version="1.0" encoding="UTF-8"?>
<!DOCTYPE svg PUBLIC "-//W3C//DTD SVG 1.1//EN" "http://www.w3.org/Graphics/SVG/1.1/DTD/svg11.dtd">
<!-- Creator: CorelDRAW Home & Student X6 -->
<svg xmlns="http://www.w3.org/2000/svg" xml:space="preserve" width="117.42mm" height="33.6147mm" version="1.1" style="shape-rendering:geometricPrecision; text-rendering:geometricPrecision; image-rendering:optimizeQuality; fill-rule:evenodd; clip-rule:evenodd"
viewBox="0 0 27454 7859"
 xmlns:xlink="http://www.w3.org/1999/xlink">
 <defs>
  <style type="text/css">
   <![CDATA[
    .fil0 {fill:black}
   ]]>
  </style>
 </defs>
 <g id="Vrstva_x0020_1">
  <metadata id="CorelCorpID_0Corel-Layer"/>
  <g id="_313838680">
   <g>
    <path class="fil0" d="M7185 7844c0,0 6,-4 0,-6 -211,-66 -309,-187 -355,-354 -26,-94 -182,-562 -177,-678 6,-132 -2,-266 77,-362 109,-134 230,19 196,125 -57,179 76,844 224,972 55,48 202,55 296,22 75,-27 172,-152 184,-274 7,-72 10,-253 -1,-432 -13,-227 -29,-452 124,-446 12,0 89,54 89,59 18,239 118,848 -75,1146 -118,182 -435,221 -584,228z"/>
    <path class="fil0" d="M9125 7781c0,0 6,-5 0,-6 -94,-14 -782,77 -920,-37 -98,-82 404,-359 347,-563 -11,-39 -129,-4 -198,-13 -43,-6 -1,-90 -1,-131 0,-231 361,-5 435,-124 78,-127 135,-192 106,-237 -54,-84 -363,-57 -509,-22 -73,18 -114,5 -142,7 -64,4 -119,-36 -175,-139 -73,-135 302,-87 589,-90 178,-2 345,-14 466,14 68,15 145,18 145,102 0,154 -328,343 -256,430 22,27 252,-30 297,10 77,69 -2,160 -87,179 -123,27 -244,7 -300,21 -61,16 -108,66 -149,108 -54,55 -80,141 -176,275 48,19 664,-5 692,-2 188,16 4,170 -58,194 -31,12 -65,12 -104,24z"/>
    <path class="fil0" d="M12000 7805c-31,-1 -141,-1185 -155,-1270 0,-303 -320,-1853 97,-1853 172,0 44,1812 230,2097 28,-29 158,-81 288,-157 210,-123 452,-278 506,-262 76,23 54,100 -13,197 -139,199 -489,309 -541,397 62,74 176,244 328,362 156,121 351,192 400,310 29,70 35,52 -49,133 -199,193 -640,-434 -890,-628 37,117 94,463 73,581 -26,148 -100,98 -273,93z"/>
    <path class="fil0" d="M13892 7845c0,0 0,0 0,-9 -483,0 -725,-358 -725,-814 161,-242 546,-859 966,-653 421,0 680,591 465,913 0,277 -492,483 -707,564zm-76 -279c-31,-5 -52,32 -140,-39 -169,-136 -393,-447 -89,-639 162,-102 163,-433 529,-243 240,124 264,38 264,427 0,188 -314,472 -514,495 -18,2 -35,2 -51,0z"/>
    <path class="fil0" d="M15093 7784c0,0 6,-6 0,-6 -95,-6 -252,-1269 -150,-1360 195,-172 52,316 303,116 254,-203 512,-125 606,-14 197,234 109,889 246,1098 75,115 1,143 -67,156 -79,15 -163,0 -224,-91 -29,-43 -1,-576 -95,-851 -95,-277 -507,-1 -507,4 -24,211 61,637 30,834 -23,149 -94,98 -142,113z"/>
    <path class="fil0" d="M16902 7857c-703,-74 -646,-858 -336,-1252 201,-256 629,-409 853,-155 103,117 82,355 -112,160 -100,-100 -394,-4 -499,62 -260,166 -434,862 95,942 105,16 513,-157 636,-108 64,25 84,77 14,179 -77,111 -505,188 -650,172zm118 -1877c0,-6 -273,-202 -285,-226 -89,-178 -356,-196 -184,-428 166,-83 321,523 529,285 59,-65 208,-410 327,-172 0,77 -285,475 -350,540 -12,0 -24,0 -36,0z"/>
    <path class="fil0" d="M18880 7781c-79,-9 -201,-251 -178,-472 17,-158 1,-318 -5,-477 -22,-577 -139,-1164 -134,-1755 2,-231 1,-578 253,-295 121,136 29,809 37,1018 20,556 87,1225 150,1771 17,150 3,224 -123,209z"/>
    <path class="fil0" d="M20017 7845c0,0 0,0 0,-9 -483,0 -725,-358 -725,-814 161,-242 546,-859 966,-653 421,0 680,591 465,913 0,277 -492,483 -707,564zm-76 -279c-31,-5 -52,32 -140,-39 -169,-136 -393,-447 -89,-639 162,-102 163,-433 529,-243 240,124 264,38 264,427 0,188 -314,472 -514,495 -18,2 -35,2 -51,0z"/>
    <path class="fil0" d="M17960 5826c-238,0 -27,-604 152,-152 25,63 -75,152 -152,152zm96 1957c-8,3 -89,-161 -89,-170 0,-170 -90,-1001 -34,-1109 79,-154 173,-93 208,101 52,291 48,827 48,873 0,136 -11,261 -133,304z"/>
    <path class="fil0" d="M8813 5981c0,-6 -273,-202 -285,-226 -89,-178 -356,-196 -184,-428 166,-83 321,523 529,285 59,-65 208,-410 327,-172 0,77 -285,475 -350,540 -12,0 -24,0 -36,0z"/>
    <path class="fil0" d="M11127 7849c-115,-21 -427,-171 -476,-308 -18,-49 -10,-109 40,-183 67,-100 68,-21 184,24 30,12 164,153 235,188 74,37 153,0 176,0 22,0 64,-164 70,-182 27,-90 -522,-327 -562,-440 -57,-160 -111,-334 3,-444 242,-236 756,-316 687,115 -18,116 -161,29 -257,-49 -75,-61 -299,30 -199,203 149,257 223,240 398,351 99,63 196,172 190,222 -32,277 -203,555 -490,504z"/>
   </g>
   <g>
    <path class="fil0" d="M372 3120c-169,-94 -93,-964 -154,-1137 -22,-62 -54,-284 -53,-309 5,-173 -95,-1024 -149,-1156 -55,-132 43,-393 273,-291 206,91 440,15 690,15 119,0 285,-46 416,-50 267,-8 386,445 55,360 -87,-22 -45,-34 -122,-62 -105,-39 -340,-23 -450,-16 -184,13 -397,-59 -524,56 -79,72 -33,1056 72,1109 74,37 147,24 232,12 101,-14 361,-38 636,-27 188,7 299,-1 286,148 -12,126 -98,104 -196,81 -168,-40 -332,-5 -502,2 -190,8 -362,1 -419,63 -62,67 59,652 100,940 11,81 22,86 -6,162 -22,60 -114,138 -183,100z"/>
    <path class="fil0" d="M3051 3117c-131,0 -176,-843 -202,-1021 -6,-40 -2,-150 -17,-196 -25,-82 -61,-121 -91,-172 -132,-221 -293,-250 -391,-527 -59,-168 -278,-744 -122,-885 30,-27 53,-105 143,-48 82,52 59,23 42,243 -22,285 277,789 588,1091 117,-30 514,-620 554,-721 79,-201 123,-486 186,-591 5,-8 278,-160 181,124 -26,75 -103,326 -162,523 -40,133 -224,405 -405,657 -49,67 -100,116 -137,181 -319,551 242,1036 -75,1324 -18,16 -59,18 -89,18z"/>
    <path class="fil0" d="M6360 3110c-6,-18 -104,-15 -119,-64 -10,-33 -245,-157 -270,-181 -45,-43 -118,-97 -160,-128 -14,-10 -840,-708 -890,-745 -94,-70 -81,27 -80,189 1,223 15,554 40,601 162,300 -323,537 -252,45 18,-122 -81,-895 -66,-1007 50,-389 -47,-724 -62,-1085 -5,-116 -51,-251 -16,-371 33,-111 83,-104 126,-122 56,-24 121,160 141,260 61,312 35,849 37,870 5,74 -20,347 114,173 158,-205 349,-398 564,-680 111,-145 222,-297 325,-394 56,-53 614,-361 344,-6 -93,122 -752,748 -798,888 -26,79 -262,283 -262,366 0,77 199,316 242,353 259,227 623,518 927,676 213,111 449,101 128,363 0,0 -10,6 -12,0z"/>
    <path class="fil0" d="M7742 3146c-179,-12 -608,-136 -683,-297 -8,-17 -199,-204 -214,-243 -277,-713 -161,-1466 142,-2093 34,-69 249,-268 321,-291 291,-95 361,-12 630,89 557,209 1011,782 1045,1379 26,451 -505,1347 -956,1451 -93,21 -190,12 -285,6zm12 -261c-6,0 -83,-24 -83,-24 -150,-15 -480,-205 -573,-363 -98,-168 -175,-406 -182,-504 -26,-409 47,-929 219,-1274 83,-166 201,-276 435,-253 303,30 235,36 622,288 200,130 386,333 487,534 250,500 -178,1306 -617,1559 -65,38 -232,36 -309,36z"/>
    <path class="fil0" d="M10328 3184c-26,2 -99,-16 -119,-20 -73,-14 -422,-119 -574,-198 -165,-85 -259,-196 -33,-309 53,-26 95,-5 119,26 98,130 647,304 869,258 92,-19 304,-161 310,-248 23,-297 -792,-656 -799,-657 -20,-2 -300,-165 -350,-191 -468,-252 -599,-942 -98,-1291 157,-110 937,-462 1089,-310 139,33 231,79 277,231 66,218 -119,336 -218,132 -178,-369 -1194,40 -1194,449 0,218 -39,369 152,521 324,258 1389,642 1400,1081 4,143 -43,291 -345,443 -151,76 -324,70 -487,83z"/>
    <path class="fil0" d="M11932 3108c-8,3 -89,-161 -89,-170 0,-170 -90,-1001 -34,-1109 79,-154 173,-93 208,101 52,291 48,827 48,873 0,136 -11,261 -133,304zm-129 -1835c-119,-119 325,-559 461,-642 148,0 226,119 101,243 0,77 -267,42 -267,184 -154,77 -141,167 -295,215z"/>
    <path class="fil0" d="M15110 3120c-169,-94 -93,-964 -154,-1137 -22,-62 -54,-284 -53,-309 5,-173 -95,-1024 -149,-1156 -55,-132 43,-393 273,-291 206,91 440,15 690,15 119,0 285,-46 416,-50 267,-8 386,445 55,360 -87,-22 -45,-34 -122,-62 -105,-39 -340,-23 -450,-16 -184,13 -397,-59 -524,56 -79,72 -33,1056 72,1109 74,37 147,24 232,12 101,-14 361,-38 636,-27 188,7 299,-1 286,148 -12,126 -98,104 -196,81 -168,-40 -332,-5 -502,2 -190,8 -362,1 -419,63 -62,67 59,652 100,940 11,81 22,86 -6,162 -22,60 -114,138 -183,100z"/>
    <path class="fil0" d="M17481 4398c-119,-29 -122,-191 -117,-340 8,-218 -61,-888 -314,-943 -130,-29 -439,-897 -472,-1138 -18,-131 15,-228 140,-228 19,0 43,67 70,151 40,128 269,1002 464,975 12,-2 330,-374 344,-399 127,-239 224,-580 246,-610 43,-58 95,-84 130,-103 109,-57 137,20 95,121 -94,226 -136,609 -340,800 -141,132 -298,311 -267,455 69,321 116,714 139,1052 6,94 -9,234 -119,208z"/>
    <path class="fil0" d="M19439 3104c0,0 6,-5 0,-6 -94,-14 -782,77 -920,-37 -98,-82 404,-359 347,-563 -11,-39 -129,-4 -198,-13 -43,-6 -1,-90 -1,-131 0,-231 361,-5 435,-124 78,-127 135,-192 106,-237 -54,-84 -363,-57 -509,-22 -73,18 -114,5 -142,7 -64,4 -119,-36 -175,-139 -73,-135 302,-87 589,-90 178,-2 345,-14 466,14 68,15 145,18 145,102 0,154 -328,343 -256,430 22,27 252,-30 297,10 77,69 -2,160 -87,179 -123,27 -244,7 -300,21 -61,16 -108,66 -149,108 -54,55 -80,141 -176,275 48,19 664,-5 692,-2 188,16 4,170 -58,194 -31,12 -65,12 -104,24z"/>
    <path class="fil0" d="M20189 1150c-238,0 -27,-604 152,-152 25,63 -75,152 -152,152zm96 1957c-8,3 -89,-161 -89,-170 0,-170 -90,-1001 -34,-1109 79,-154 173,-93 208,101 52,291 48,827 48,873 0,136 -11,261 -133,304z"/>
    <path class="fil0" d="M21183 3129c-31,-1 -141,-1185 -155,-1270 0,-303 -320,-1853 97,-1853 172,0 44,1812 230,2097 28,-29 158,-81 288,-157 210,-123 452,-278 506,-262 76,23 54,100 -13,197 -139,199 -489,309 -541,397 62,74 176,244 328,362 156,121 351,192 400,310 29,70 35,52 -49,133 -199,193 -640,-434 -890,-628 37,117 94,463 73,581 -26,148 -100,98 -273,93z"/>
    <path class="fil0" d="M22957 3105c-79,-9 -201,-251 -178,-472 17,-158 1,-318 -5,-477 -22,-577 -139,-1164 -134,-1755 2,-231 1,-578 253,-295 121,136 29,809 37,1018 20,556 87,1225 150,1771 17,150 3,224 -123,209z"/>
    <path class="fil0" d="M24134 3207c0,0 6,-6 0,-6 -164,-3 -412,-101 -546,-300 -109,-162 -129,-416 -86,-537 66,-188 23,-344 172,-466 217,-178 529,-349 744,-134 95,95 143,131 143,309 0,196 103,749 311,813 23,7 137,30 137,71 0,327 -335,25 -451,-24 -115,-48 -137,29 -262,173 -31,36 -119,101 -160,101zm-53 -214c0,0 6,-6 0,-6 -125,-3 -245,-89 -308,-309 -49,-172 -35,-523 -2,-586 46,-87 372,-287 480,-150 193,245 108,986 -171,1052zm203 -1720c-119,-119 325,-559 461,-642 148,0 226,119 101,243 0,77 -267,42 -267,184 -154,77 -141,167 -295,215z"/>
    <path class="fil0" d="M25364 3108c0,0 6,-6 0,-6 -95,-6 -252,-1269 -150,-1360 195,-172 52,316 303,116 254,-203 512,-125 606,-14 197,234 109,889 246,1098 75,115 1,143 -67,156 -79,15 -163,0 -224,-91 -29,-43 -1,-576 -95,-851 -95,-277 -507,-1 -507,4 -24,211 61,637 30,834 -23,149 -94,98 -142,113z"/>
    <path class="fil0" d="M26958 3108c-8,3 -89,-161 -89,-170 0,-170 -90,-1001 -34,-1109 79,-154 173,-93 208,101 52,291 48,827 48,873 0,136 -11,261 -133,304zm-129 -1835c-119,-119 325,-559 461,-642 148,0 226,119 101,243 0,77 -267,42 -267,184 -154,77 -141,167 -295,215z"/>
   </g>
  </g>
 </g>
</svg>
