<?xml version="1.0" encoding="UTF-8"?>
<!DOCTYPE svg PUBLIC "-//W3C//DTD SVG 1.1//EN" "http://www.w3.org/Graphics/SVG/1.1/DTD/svg11.dtd">
<!-- Creator: CorelDRAW Home & Student X6 -->
<svg xmlns="http://www.w3.org/2000/svg" xml:space="preserve" width="117.42mm" height="34.1354mm" version="1.1" style="shape-rendering:geometricPrecision; text-rendering:geometricPrecision; image-rendering:optimizeQuality; fill-rule:evenodd; clip-rule:evenodd"
viewBox="0 0 18553 5394"
 xmlns:xlink="http://www.w3.org/1999/xlink">
 <defs>
  <style type="text/css">
   <![CDATA[
    .fil1 {fill:black}
    .fil0 {fill:red}
   ]]>
  </style>
 </defs>
 <g id="Vrstva_x0020_1">
  <metadata id="CorelCorpID_0Corel-Layer"/>
  <g id="_129606032">
   <path class="fil0" d="M10131 5362c-28,-60 -76,-97 -48,-201 21,-77 -43,-698 -41,-726 9,-135 -13,-167 -18,-309 -4,-135 29,-372 -30,-489 -91,-179 -52,-180 80,-268 0,0 100,56 100,56 261,-36 660,60 783,309 17,35 77,159 60,225 -32,128 -148,242 -273,326 -127,84 -264,138 -386,159 122,-12 461,238 542,327 106,117 251,256 344,316 101,66 241,181 120,241 -166,81 -371,-353 -536,-424 -77,-33 -250,-259 -354,-289 -60,-17 -241,-53 -273,-15 -81,96 138,762 -71,762zm55 -967c-4,1 -20,-8 -20,-8 0,-72 -34,-364 -28,-420 35,-311 -48,-401 273,-389 108,4 370,128 427,220 168,270 -444,549 -652,598z"/>
   <path class="fil0" d="M6317 5393c-18,1 -67,-11 -80,-13 -50,-9 -285,-81 -388,-134 -111,-57 -175,-132 -22,-209 36,-18 64,-3 80,18 66,88 437,206 587,174 62,-13 205,-109 210,-168 16,-201 -535,-443 -540,-444 -13,-2 -203,-111 -236,-129 -316,-170 -404,-636 -66,-872 106,-74 633,-312 736,-210 94,22 156,54 187,156 45,147 -80,227 -147,89 -120,-250 -807,27 -807,303 0,147 -26,249 103,352 219,175 938,434 946,730 3,96 -29,197 -233,300 -102,52 -219,47 -329,56z"/>
   <path class="fil0" d="M7735 5354c-52,-15 -74,-41 -80,-75 -1,-8 27,-159 27,-308 0,-310 -25,-762 -43,-1075 -4,-71 37,-267 -118,-245 -139,20 -364,-35 -437,94 -79,138 -136,-128 -77,-169 145,-99 236,-93 410,-100 176,-8 361,-37 521,-60 106,-15 325,0 450,-22 178,-31 43,241 -35,175 -73,-63 -354,13 -444,29 -111,19 -96,317 -101,409 -6,118 -2,272 7,418 7,108 17,212 28,295 15,111 90,688 -107,633z"/>
   <path class="fil0" d="M8488 5344c-183,19 113,-575 67,-661 -38,-71 -56,-110 56,-172 76,-126 57,-345 105,-498 32,-103 60,-208 96,-309 50,-140 126,-453 275,-245 86,120 108,278 170,419 32,73 75,169 98,261 20,83 26,264 82,354 49,80 47,74 59,178 19,174 97,337 141,497 46,169 -36,223 -105,148 -47,-52 -79,-209 -94,-255 -30,-92 -74,-252 -75,-268 -25,-207 -435,-151 -599,-118 -17,3 -78,139 -84,156 -66,188 -80,501 -191,513zm312 -827c-56,-53 2,-169 28,-281 12,-53 34,-161 61,-266 12,-48 26,-95 41,-136 13,-37 61,-194 84,-169 93,103 220,537 244,670 8,47 68,183 14,196 -24,6 -121,-9 -219,-11 -119,-2 -242,7 -252,-2z"/>
   <path class="fil0" d="M12166 5354c-52,-15 -74,-41 -80,-75 -1,-8 27,-159 27,-308 0,-310 -25,-762 -43,-1075 -4,-71 37,-267 -118,-245 -139,20 -364,-35 -437,94 -79,138 -136,-128 -77,-169 145,-99 236,-93 410,-100 176,-8 361,-37 521,-60 106,-15 325,0 450,-22 178,-31 43,241 -35,175 -73,-63 -354,13 -444,29 -111,19 -96,317 -101,409 -6,118 -2,272 7,418 7,108 17,212 28,295 15,111 90,688 -107,633z"/>
  </g>
  <g id="_129608384">
   <path class="fil1" d="M251 2109c-114,-63 -63,-651 -104,-768 -15,-42 -37,-192 -36,-209 4,-117 -64,-692 -101,-781 -37,-89 29,-265 185,-197 140,62 298,10 466,10 80,0 192,-31 281,-34 180,-5 261,301 37,243 -59,-15 -30,-23 -82,-42 -71,-26 -230,-16 -304,-11 -124,9 -269,-40 -354,38 -53,49 -22,714 49,749 50,25 100,16 157,8 68,-10 244,-26 430,-18 127,5 202,-1 193,100 -8,85 -66,70 -132,55 -114,-27 -224,-3 -339,1 -129,5 -245,1 -283,43 -42,45 40,440 67,635 8,54 15,58 -4,109 -15,41 -77,93 -124,67z"/>
   <path class="fil1" d="M2061 2106c-88,0 -119,-570 -136,-690 -4,-27 -2,-101 -11,-132 -17,-55 -41,-81 -62,-116 -89,-150 -198,-169 -264,-356 -40,-113 -188,-503 -82,-598 20,-18 36,-71 96,-32 55,35 40,15 28,165 -15,193 187,533 397,737 79,-21 347,-419 374,-488 54,-136 83,-328 125,-400 3,-5 188,-108 122,84 -17,51 -70,220 -109,354 -27,90 -151,274 -274,444 -33,45 -68,78 -93,122 -216,372 163,700 -51,895 -12,11 -40,12 -60,12z"/>
   <path class="fil1" d="M4298 2102c-4,-12 -70,-10 -80,-43 -7,-23 -166,-106 -183,-123 -30,-29 -80,-66 -108,-86 -10,-7 -568,-478 -601,-503 -64,-47 -54,18 -54,128 0,151 10,374 27,406 109,203 -218,363 -170,30 12,-82 -55,-605 -45,-681 34,-263 -32,-489 -42,-733 -3,-78 -34,-170 -11,-251 22,-75 56,-70 85,-83 38,-16 82,108 95,176 41,211 24,574 25,588 4,50 -14,235 77,117 107,-139 236,-269 381,-460 75,-98 150,-201 219,-266 38,-36 415,-244 233,-4 -63,83 -508,505 -539,600 -18,53 -177,191 -177,247 0,52 135,214 164,239 175,153 421,350 626,457 144,75 303,68 86,246 0,0 -7,4 -8,0z"/>
   <path class="fil1" d="M5232 2126c-121,-8 -411,-92 -462,-201 -5,-11 -134,-138 -144,-165 -187,-482 -109,-991 96,-1415 23,-47 168,-181 217,-197 197,-64 244,-8 425,60 376,141 683,528 706,932 17,304 -341,910 -646,980 -63,14 -128,8 -193,4zm8 -177c-4,0 -56,-16 -56,-16 -102,-10 -325,-138 -387,-245 -66,-114 -118,-275 -123,-340 -18,-276 32,-628 148,-861 56,-112 136,-186 294,-171 205,20 159,25 420,195 135,88 261,225 329,361 169,338 -121,882 -417,1053 -44,26 -157,24 -209,24z"/>
   <path class="fil1" d="M6980 2152c-18,1 -67,-11 -80,-13 -50,-9 -285,-81 -388,-134 -111,-57 -175,-132 -22,-209 36,-18 64,-3 80,18 66,88 437,206 587,174 62,-13 205,-109 210,-168 16,-201 -535,-443 -540,-444 -13,-2 -203,-111 -236,-129 -316,-170 -404,-636 -66,-872 106,-74 633,-312 736,-210 94,22 156,54 187,156 45,147 -80,227 -147,89 -120,-250 -807,27 -807,303 0,147 -26,249 103,352 219,175 938,434 946,730 3,96 -29,197 -233,300 -102,52 -219,47 -329,56z"/>
   <path class="fil1" d="M8064 2100c-5,2 -60,-109 -60,-115 0,-115 -60,-676 -23,-749 53,-104 117,-63 140,69 35,197 33,559 33,590 0,92 -7,176 -90,206zm-87 -1240c-80,-80 219,-378 312,-434 100,0 153,80 68,165 0,52 -181,28 -181,124 -104,52 -95,113 -199,145z"/>
   <path class="fil1" d="M10211 2109c-114,-63 -63,-651 -104,-768 -15,-42 -37,-192 -36,-209 4,-117 -64,-692 -101,-781 -37,-89 29,-265 185,-197 140,62 298,10 466,10 80,0 192,-31 281,-34 180,-5 261,301 37,243 -59,-15 -30,-23 -82,-42 -71,-26 -230,-16 -304,-11 -124,9 -269,-40 -354,38 -53,49 -22,714 49,749 50,25 100,16 157,8 68,-10 244,-26 430,-18 127,5 202,-1 193,100 -8,85 -66,70 -132,55 -114,-27 -224,-3 -339,1 -129,5 -245,1 -283,43 -42,45 40,440 67,635 8,54 15,58 -4,109 -15,41 -77,93 -124,67z"/>
   <path class="fil1" d="M11813 2972c-80,-19 -82,-129 -79,-230 5,-147 -41,-600 -212,-638 -88,-19 -297,-606 -319,-769 -12,-88 10,-154 95,-154 13,0 29,45 47,102 27,86 182,677 314,659 8,-1 223,-253 232,-270 86,-162 151,-392 166,-412 29,-40 64,-57 88,-69 73,-39 93,14 64,82 -63,153 -92,411 -230,541 -95,89 -201,210 -181,307 46,217 78,483 94,711 4,63 -6,158 -80,140z"/>
   <path class="fil1" d="M13136 2098c0,0 4,-3 0,-4 -64,-10 -529,52 -622,-25 -67,-55 273,-242 234,-380 -7,-26 -87,-2 -134,-9 -29,-4 -1,-61 -1,-89 0,-156 244,-4 294,-84 53,-86 91,-130 72,-160 -37,-57 -245,-39 -344,-15 -50,12 -77,3 -96,5 -43,3 -80,-24 -118,-94 -50,-91 204,-58 398,-61 120,-1 233,-9 315,9 46,10 98,12 98,69 0,104 -222,232 -173,291 15,18 171,-20 201,7 52,46 -1,108 -59,121 -83,19 -165,5 -203,14 -41,11 -73,45 -101,73 -37,37 -54,95 -119,186 32,13 449,-3 467,-2 127,11 2,115 -39,131 -21,8 -44,8 -71,16z"/>
   <path class="fil1" d="M13644 777c-161,0 -18,-408 103,-103 17,43 -50,103 -103,103zm65 1323c-5,2 -60,-109 -60,-115 0,-115 -60,-676 -23,-749 53,-104 117,-63 140,69 35,197 33,559 33,590 0,92 -7,176 -90,206z"/>
   <path class="fil1" d="M14315 2115c-21,-1 -95,-801 -105,-858 0,-205 -217,-1252 65,-1252 116,0 29,1225 156,1417 19,-20 107,-55 195,-106 142,-83 306,-188 342,-177 52,16 37,67 -9,133 -94,135 -330,209 -366,268 42,50 119,165 222,245 105,82 237,130 270,210 20,47 24,35 -33,90 -135,130 -432,-294 -601,-424 25,79 64,313 49,393 -18,100 -67,66 -185,63z"/>
   <path class="fil1" d="M15514 2098c-53,-6 -136,-170 -120,-319 11,-107 0,-215 -4,-323 -15,-390 -94,-787 -90,-1186 1,-156 1,-390 171,-199 82,92 20,547 25,688 14,376 59,828 101,1197 12,101 2,152 -83,142z"/>
   <path class="fil1" d="M16309 2167c0,0 4,-4 0,-4 -111,-2 -278,-68 -369,-203 -74,-109 -87,-281 -58,-363 45,-127 15,-232 116,-315 147,-120 358,-236 503,-91 64,64 96,88 96,209 0,132 69,506 210,549 16,5 92,20 92,48 0,221 -226,17 -305,-16 -78,-32 -92,19 -177,117 -21,24 -80,68 -108,68zm-36 -144c0,0 4,-4 0,-4 -84,-2 -166,-60 -208,-209 -33,-116 -24,-353 -1,-396 31,-59 251,-194 325,-102 131,165 73,667 -115,711zm137 -1162c-80,-80 219,-378 312,-434 100,0 153,80 68,165 0,52 -181,28 -181,124 -104,52 -95,113 -199,145z"/>
   <path class="fil1" d="M17141 2100c0,0 4,-4 0,-4 -64,-4 -171,-858 -101,-919 132,-116 35,214 205,78 172,-137 346,-85 410,-9 133,158 73,601 166,742 51,78 1,97 -45,105 -53,10 -110,0 -152,-61 -20,-29 0,-389 -64,-575 -64,-187 -342,-1 -343,3 -16,143 41,430 21,564 -16,100 -64,66 -96,76z"/>
   <path class="fil1" d="M18217 2100c-5,2 -60,-109 -60,-115 0,-115 -60,-676 -23,-749 53,-104 117,-63 140,69 35,197 33,559 33,590 0,92 -7,176 -90,206zm-87 -1240c-80,-80 219,-378 312,-434 100,0 153,80 68,165 0,52 -181,28 -181,124 -104,52 -95,113 -199,145z"/>
  </g>
 </g>
</svg>
