<?xml version="1.0" encoding="UTF-8" standalone="no"?>
<svg
   xmlns:dc="http://purl.org/dc/elements/1.1/"
   xmlns:cc="http://creativecommons.org/ns#"
   xmlns:rdf="http://www.w3.org/1999/02/22-rdf-syntax-ns#"
   xmlns:svg="http://www.w3.org/2000/svg"
   xmlns="http://www.w3.org/2000/svg"
   viewBox="0 0 574.20685 641.83563"
   height="641.83563"
   width="574.20685"
   xml:space="preserve"
   id="svg2"
   version="1.1"><metadata
     id="metadata8"><rdf:RDF><cc:Work
         rdf:about=""><dc:format>image/svg+xml</dc:format><dc:type
           rdf:resource="http://purl.org/dc/dcmitype/StillImage" /></cc:Work></rdf:RDF></metadata><defs
     id="defs6" /><g
     transform="matrix(1.3333333,0,0,-1.3333333,0,641.83561)"
     id="g10"><g
       id="g12"><path
         id="path14"
         style="fill:#000000;fill-opacity:1;fill-rule:nonzero;stroke:none"
         d="m 291.473,0.49 c -2.59,0.625 -5.2,3.543 -5.2,5.809 0,4.957 7.907,13.668 15.825,17.441 2.515,1.195 4.754,2.371 4.976,2.609 0.219,0.235 4.36,2.176 9.199,4.313 12.946,5.711 23.04,9.043 32,10.566 1.321,0.223 2.938,0.61 3.598,0.86 0.66,0.25 1.742,0.523 2.402,0.613 0.661,0.086 2.344,0.422 3.743,0.738 1.398,0.321 4.386,0.719 6.64,0.887 4.547,0.336 18.735,6.801 19.961,9.09 0.988,1.844 -0.926,6.969 -3.679,9.855 -3.68,3.856 -12.192,9.051 -19.239,11.739 -3.617,1.378 -6.918,2.507 -7.336,2.507 -0.48,0 -0.472,-1.05 0.02,-2.828 0.43,-1.554 0.547,-3.562 0.262,-4.465 -0.629,-1.98 -7.211,-6.308 -9.641,-6.687 -2.426,-0.383 -6.899,-0.551 -12.09,-0.485 -12.578,0.165 -20.824,-1.082 -29.043,-4.386 -3.738,-1.504 -8.519,-2.969 -10.621,-3.254 -2.102,-0.285 -3.996,-0.805 -6.801,-0.891 -2.808,-0.086 -3.465,-0.215 -4.148,0.199 -0.688,0.415 -1.524,1.325 -2.27,1.582 -2.492,0.86 -6.785,7.633 -7.031,11.106 -0.129,1.777 -0.672,4.059 -1.211,5.066 -0.754,1.407 -0.766,2.301 -0.047,3.879 1.656,3.633 5.074,4.364 20.434,4.364 9,0 16.152,0.421 20.144,1.183 3.403,0.652 6.313,1.313 6.469,1.465 0.422,0.422 -7.016,8.551 -7.824,8.551 -0.379,0 -0.692,-0.531 -0.692,-1.18 0,-2.133 -4.253,-3.414 -14.402,-4.348 -14.047,-1.285 -20.984,-2.277 -35.199,-5.035 -6.82,-1.324 -15.641,-2.586 -19.598,-2.801 -6.625,-0.367 -7.426,-0.242 -10,1.512 -1.543,1.051 -2.914,2.617 -3.054,3.481 -0.141,0.863 -1.403,2.297 -2.801,3.183 -3.285,2.078 -3.856,6.328 -1.383,10.332 3.121,5.047 7.477,6.567 13.504,4.711 3.66,-1.125 12.406,-0.941 20.34,0.426 l 3.008,0.52 -3.684,4 c -2.024,2.199 -5.301,5.742 -7.285,7.875 -11.821,12.699 -17.699,22.015 -19.598,31.05 -1.683,8.035 2.246,12.457 11.219,12.614 1.906,0.035 3.348,0.332 3.199,0.664 -0.148,0.332 -0.969,2.402 -3.07,6.129 -2.102,3.726 -4.887,12.941 -6.824,22.468 -0.625,3.078 -1.54,7.399 -2.036,9.598 -0.519,2.32 -1.328,12.645 -1.394,24.812 -0.067,11.551 -0.141,21.188 -0.141,21.188 -0.222,-0.004 -2.105,-0.867 -4.183,-1.926 -5.02,-2.543 -10.786,-3.277 -16.032,-2.031 -6.472,1.531 -29.703,13.664 -31.121,15.047 -1.418,1.383 -6.297,4.238 -9.066,6.781 -0.879,0.809 -5.113,3.82 -9.406,6.688 -7.844,5.242 -9.137,6.367 -8.301,7.203 0.496,0.496 12.859,-7.567 23.808,-15.528 7.606,-5.527 21.641,-13.148 31.407,-17.05 7.16,-2.864 9.363,-2.782 16.047,0.586 7.398,3.726 8.242,4.609 8.832,9.234 0.488,3.851 0.984,6.121 3.605,16.598 0.492,1.98 0.969,4.914 1.559,6.89 0.59,1.977 1.648,3.738 1.648,4.703 0,0.141 -2.25,3.114 -5,6.606 -2.75,3.488 -7.34,9.969 -10.199,14.402 -2.859,4.434 -5.563,8.227 -6.004,8.43 -0.441,0.203 -3.32,-0.321 -6.398,-1.16 -4.704,-1.282 -7.399,-1.461 -16.84,-1.121 -6.184,0.222 -13.563,0.957 -16.399,1.636 -20.539,4.907 -30.496,8.774 -54.758,21.254 -19.175,9.867 -20.269,10.399 -26.218,13.559 -5.95,3.164 -8.106,2.328 -11.067,-0.696 -5.32,-5.425 -5.211,-10.168 0.297,-13.062 4.168,-2.191 7.68,-2.648 8.285,-1.078 0.243,0.633 -0.129,3.117 -0.828,5.515 -1.457,5.012 -1.621,7.723 -0.469,7.723 0.438,0 0.801,-0.523 0.801,-1.164 0,-2.539 1.848,-5.266 3.27,-4.816 5,1.589 8.508,0.437 10.258,-3.36 1.191,-2.59 3.261,-14.465 3.269,-18.722 0,-2.602 0.715,-3.508 7.871,-10 9.289,-8.426 12.168,-10.934 19.985,-17.399 5.41,-4.48 8.285,-7.754 6.773,-7.73 -0.969,0.019 -17.289,13.675 -26.352,22.054 l -8.125,7.512 0.332,-11.387 c 0.27,-9.179 1.391,-26.804 1.344,-33.105 -0.011,-1.547 2.258,-1.219 3.875,-1.508 0,0 30.485,0.496 30.731,-0.211 0.433,-1.265 -31.129,-0.859 -31.129,-0.859 l -3.094,-0.106 0.43,-10.199 c 0.234,-5.609 0.5,-10.562 0.59,-11 0.086,-0.441 0.117,-3.23 0.066,-6.203 -0.07,-3.949 -0.387,-5.398 -1.176,-5.398 -0.847,0 -1.207,3.441 -1.691,16.199 -0.336,8.91 -0.551,19.824 -0.473,24.258 0.078,4.429 -0.234,13.25 -0.695,19.597 -0.863,11.875 -1.539,24.371 -1.617,29.867 l -0.043,3.122 -7.649,-0.504 c -4.203,-0.278 -7.984,-0.711 -8.398,-0.969 -1.141,-0.703 0.238,-71.707 1.644,-84.77 0.645,-6.011 0.125,-8.789 -1.367,-7.297 -0.328,0.329 -0.738,7.977 -0.906,16.993 l -0.309,16.398 -7.707,-0.281 c -4.242,-0.153 -8.789,-0.039 -10.109,0.258 -1.859,0.418 -1.363,0.562 2.199,0.632 2.531,0.055 5.074,0.043 5.074,0.211 0,0.164 -1.011,1.782 -1.672,3.364 -0.66,1.578 -1.199,3.465 -1.199,4.195 0,1.086 0.883,1.566 1.199,0.328 2.711,-10.652 1.625,-2.508 1.2,21.555 -0.305,17.336 -0.172,24.344 -0.348,25.285 -0.137,0.758 -1.57,-3.461 -1.914,-3.57 -2.043,-0.649 -1.371,0.742 0.707,4.82 1.391,2.727 1.836,3.07 2.855,2.227 1.575,-1.309 3.5,-5.067 3.5,-6.84 0,-1.086 -0.214,-1.184 -0.96,-0.438 -0.528,0.528 -2.286,4.5 -2.637,4.5 -0.352,0 0.398,-13.98 0.398,-26.742 0,-12.758 0.18,-25.512 0.465,-25.512 0.16,0 1.004,1.016 1.52,2.028 0.382,0.75 0.957,1.961 1.336,2.109 1.289,0.512 1.089,-0.273 -0.641,-3.43 -0.945,-1.73 -2.828,-3.226 -2.43,-3.718 0.449,-0.559 3.395,-0.215 5.852,-0.024 3.211,0.246 3.312,-0.957 3.004,5.879 -0.149,3.293 -1.848,57.129 -1.891,57.652 -0.008,0.102 -1.367,0.875 -3.016,1.715 -1.652,0.844 -3.703,2.309 -4.558,3.254 -1.418,1.57 -1.664,2.504 -0.805,6.664 0.762,3.684 1.762,4.778 4.403,7.266 2.937,2.765 3.558,3.023 6.164,2.535 1.593,-0.301 4.179,-1.207 5.746,-2.02 3.476,-1.796 15.843,-7.89 18.05,-8.89 0.879,-0.399 2.86,-1.485 4.399,-2.414 10.273,-6.196 30.074,-15.328 40.609,-18.731 8.114,-2.621 10.387,-3.168 23.071,-5.547 10.707,-2.007 22.933,-1.261 30.937,1.887 l 2.215,0.871 -1.274,3.016 c -4.531,10.711 -6.921,17.746 -8.8,25.922 -1.981,8.625 -2.075,9.797 -1.242,15.953 0.902,6.73 1.601,7.953 4.484,7.863 2.582,-0.078 5.266,-1.758 6.746,-3.531 1.281,-1.539 1.961,-3.016 4.266,-6.301 2.304,-3.285 5.089,-7.512 6.187,-9.391 3.867,-6.613 10.434,-15.89 13.813,-19.515 l 3.41,-3.664 4.39,1.152 c 2.414,0.633 6.442,1.848 8.95,2.699 2.511,0.856 4.379,1.254 4.699,0.739 0.324,-0.516 2.156,2.546 5.328,7.816 3.176,5.27 6.035,10.789 7.812,15.625 1,2.711 1.18,4.891 0.766,9.199 -0.441,4.602 -2.332,11.645 -3.125,11.645 -0.101,0 -2.851,-0.68 -6.113,-1.516 -6.883,-1.758 -18.707,-3.008 -35.211,-3.73 -9.102,-0.395 -13.414,-0.211 -19.516,0.828 -8.535,1.453 -10.386,2.304 -15.203,6.988 -0.719,0.703 -0.859,1.609 -1.859,2.242 -1.395,0.883 -3.137,2.336 -4,3.039 -1.965,1.602 -2.699,2.875 -2.801,4.86 -0.125,2.461 0.137,2.789 3.062,3.824 1.758,0.621 6.801,1.676 11.2,2.344 13.129,1.988 22.425,5.8 25.336,7.343 0.32,0.172 2.242,2.024 4.664,3.754 7.265,5.196 8.39,6.532 7.375,8.762 -0.637,1.398 -0.618,2.738 0.07,4.981 1.102,3.589 6.258,9.082 8.527,9.082 0.864,0 1.946,0.699 2.403,1.55 0.457,0.856 2.816,3.825 5.242,6.602 7.594,8.68 9.043,13.43 5.844,19.125 -2.047,3.637 -6.094,6.512 -11.801,8.379 -2.258,0.738 -5.211,2.379 -6.567,3.644 -2.019,1.887 -2.367,2.7 -1.925,4.5 1.234,5.024 5.445,8.59 13.464,11.41 8.77,3.083 18.086,1.278 29.215,-5.66 1.016,-0.632 4.414,-4.355 7.551,-8.273 3.137,-3.918 7.344,-8.238 9.352,-9.602 6.711,-4.554 15.808,-13.961 18.023,-18.636 4.91,-10.375 6.606,-27.082 4.012,-39.586 -1.707,-8.246 -4.895,-17.219 -7.641,-21.524 -1.402,-2.191 -2.351,-4.769 -2.359,-6.398 -0.008,-1.504 -0.719,-5.43 -1.586,-8.731 -0.863,-3.3 -1.578,-8.129 -1.586,-10.734 -0.012,-4.172 0.473,-5.641 4.07,-12.398 2.246,-4.219 4.434,-8.098 4.864,-8.625 0.425,-0.524 2.32,-3.946 4.207,-7.598 3.847,-7.453 4.593,-8.762 10.953,-19.227 16,-26.324 19.101,-35.5 15.398,-45.519 -0.711,-1.922 -1.383,-4.039 -1.488,-4.699 -0.262,-1.641 -1.61,-4.891 -4.891,-11.809 -1.527,-3.223 -2.59,-6.164 -3.125,-7.191 -0.535,-1.028 -2.261,-3.34 -3.765,-6.344 -3.118,-6.223 -4.446,-8.481 -8.633,-14.66 -2.153,-3.184 -2.821,-4.848 -2.399,-6 0.321,-0.879 0.766,-3.938 0.993,-6.797 0.48,-6.102 3.605,-19.781 4.503,-22.383 0.899,-2.602 4.172,-12.016 7.098,-16.231 2.922,-4.218 4.668,-7.351 5.266,-8.785 0.597,-1.433 3.125,-4.691 5.613,-7.238 2.488,-2.551 4.523,-4.969 4.523,-5.383 0,-1.289 17.774,-20.203 22.536,-23.98 2.492,-1.981 8.433,-6.473 13.199,-9.981 10.25,-7.55 8.48,-6.027 18.988,-16.367 10.27,-10.109 16.098,-18.254 18.262,-25.527 0.875,-2.93 1.863,-5.684 2.195,-6.125 0.336,-0.438 0.801,-4.004 1.035,-7.918 0.364,-6.156 0.203,-7.512 -1.195,-10 -3.789,-6.75 -9.273,-11.414 -18.93,-16.106 -9.547,-4.636 -23.902,-6.941 -52.09,-8.363 -33.976,-1.715 -43.304,-3.539 -52.765,-10.328 -3.457,-2.477 -10,-5.391 -11.66,-5.191 -0.426,0.05 -1.496,0.265 -2.375,0.48 z m 7.265,3.223 c 2.864,1.804 4.992,2.703 6.735,3.804 1.742,1.098 3.488,2 10.054,4.66 6.571,2.661 15.485,3.879 41.946,4.961 16.152,0.664 30.672,1.606 39.031,4.446 8.363,1.906 8.617,2.164 12.277,4.215 5.774,3.23 10.078,5.074 12.793,7.957 6.856,7.289 8.418,18.386 4.141,29.386 -5.043,12.981 -18.067,27.621 -37.043,41.657 -3.738,2.765 -9.344,6.937 -12.453,9.273 -5.949,4.465 -7.231,5.059 -6.43,2.977 0.305,-0.797 0.113,-1.157 -0.516,-0.969 -0.55,0.164 -2.136,2.625 -3.523,5.469 -1.387,2.843 -3.777,6.609 -5.312,8.367 l -2.79,3.199 -0.058,-4.625 c -0.031,-2.547 -0.277,-4.984 -0.543,-5.414 -1.133,-1.836 -1.973,0.5 -1.977,5.488 -0.004,5.692 -0.746,7.434 -5.527,12.953 l -2.426,2.801 -0.023,-3.5 c -0.016,-2.875 -0.219,-3.336 -1.121,-2.586 -0.602,0.504 -1.332,2.688 -1.621,4.86 -0.289,2.183 -1.973,6.734 -3.77,10.187 -5.93,11.398 -6.937,13.414 -8.117,16.238 -0.641,1.539 -1.625,3.879 -2.184,5.2 -0.562,1.32 -1.121,3.199 -1.242,4.175 -0.121,0.977 -0.941,4.039 -1.828,6.801 -0.883,2.762 -2.055,8.082 -2.602,11.824 -0.546,3.739 -1.222,7.067 -1.496,7.391 -0.277,0.324 -1.746,-0.422 -3.269,-1.66 -4.219,-3.426 -4.996,-3.469 -9.274,-0.52 -4.609,3.172 -21.234,18.344 -36.316,34.383 -11.774,12.516 -13.328,15.547 -23.774,29.09 -8.992,11.66 -8.714,11.316 -9.199,11.316 -0.66,0 -2.097,-4.117 -2.652,-7.601 -0.281,-1.758 -1.344,-7.699 -2.363,-13.199 -2.766,-14.915 -2.653,-22.957 -2.614,-35.711 0.043,-14.86 0.004,-21.977 3.821,-35.891 0.48,-1.758 1.429,-5.719 4.117,-13.43 2.691,-7.707 4.039,-10.59 5.187,-12.57 1.153,-1.977 2.883,-5.039 3.848,-6.797 8.492,-15.473 18.387,-30.504 22.836,-34.695 3.902,-3.676 8.586,-7.305 9.703,-7.988 1.117,-0.688 14.504,-8.918 15.359,-8.918 0.262,0 2.336,-1.094 4.61,-2.434 2.269,-1.34 4.488,-2.316 4.93,-2.168 0.441,0.145 -0.918,2.156 -3.016,4.465 -2.102,2.308 -4.758,5.48 -5.899,7.047 -1.14,1.57 -3.472,4.433 -5.179,6.371 -1.703,1.933 -2.785,3.199 -5.094,7.293 -3.516,4.566 -7.402,17.34 -7.402,23.668 0,5.652 1.996,11.277 4.859,13.683 4.07,3.426 10.391,5.285 16.52,4.864 10.339,-0.711 13.015,-1.352 19.601,-4.676 9.055,-4.567 17.391,-10.914 14.34,-10.914 -0.375,0 -2.109,1.035 -3.855,2.301 -7.649,5.539 -22.313,11.171 -26.122,11.316 -3.812,0.141 -13.703,-0.414 -16.992,-2.445 -7.324,-4.528 -7.871,-19.457 -1.195,-32.684 2.398,-4.75 9.266,-14.348 12.367,-17.289 0.93,-0.879 3.234,-3.637 5.125,-6.129 1.891,-2.488 4.387,-5.551 5.543,-6.797 3.375,-3.64 11.25,-14.508 11.824,-16.328 0.746,-2.348 0.004,-2.723 -1.734,-0.879 -0.891,0.945 -2.277,1.477 -3.481,1.332 -13.085,-1.586 -19.808,-2.152 -25.003,-2.097 -3.411,0.031 -7.192,-0.364 -8.399,-0.875 -2.066,-0.883 -1.883,-0.973 3,-1.489 2.863,-0.301 7.902,-0.633 11.203,-0.734 5.442,-0.168 5.703,-0.246 2.797,-0.848 -1.758,-0.363 -7.969,-0.683 -13.797,-0.707 -5.875,-0.027 -10.511,-0.367 -11.379,-0.941 -0.863,-0.571 -1.625,-2.903 -1.129,-5.383 l 0.489,-2.438 2.175,1.61 c 1.692,1.254 3.786,1.683 9.458,1.949 4.007,0.188 8.117,0.008 9.136,-0.402 1.133,-0.453 1.383,-0.789 0.649,-0.867 -17.465,-1.832 -17.996,-1.938 -18.243,-3.672 -0.152,-1.055 0.7,-2.641 2.262,-4.2 3.449,-3.449 6.266,-3.285 19.594,1.145 10.734,3.57 11.289,3.664 25.48,4.383 18.465,0.933 20.293,1.219 23.481,3.648 2.953,2.254 3.453,5.184 1.379,8.145 -0.684,0.976 -1.035,1.777 -0.781,1.777 0.257,0 -0.805,2.348 -2.356,5.219 -2.945,5.457 -3.34,6.781 -2.031,6.781 0.433,0 1.676,-1.754 2.762,-3.898 2.003,-3.953 5.125,-6.434 9.675,-7.703 1.309,-0.364 2.832,-0.586 3.985,-1.415 1.148,-0.828 2.179,-1.386 3.175,-1.386 2.657,0 8.922,-3.692 14.504,-8.547 2.692,-2.34 5.055,-4.254 5.254,-4.254 0.2,0 0.856,1.262 1.461,2.801 0.692,1.769 1.633,2.801 2.547,2.801 1.789,0 1.805,0.226 -0.266,-4.051 -0.945,-1.953 -1.898,-5.141 -2.121,-7.09 l -0.402,-3.539 2.445,1.742 c 1.344,0.953 2.633,1.738 2.868,1.738 0.234,0 1.437,0.422 2.675,0.942 1.239,0.515 3.086,1.035 4.106,1.152 2.793,0.328 1.668,-1.562 -1.293,-2.168 -3.035,-0.621 -10.192,-4.172 -12.449,-6.644 -2.254,-2.469 -13.489,-7.098 -17.313,-7.836 -1.98,-0.379 -7.379,-1.25 -12,-1.93 -7.5,-1.106 -14.898,-2.773 -22,-4.961 -4.437,-1.367 -18.328,-7.492 -26.945,-11.883 -6.891,-3.512 -9.488,-5.359 -13.399,-9.543 -5.437,-5.808 -6.277,-8.844 -3.078,-11.086 2.09,-1.461 5.422,-1.652 8.289,0.153 z m 40.336,68.222 c 0,0.453 1.078,1.039 2.399,1.301 3.168,0.633 3.129,2.727 -0.102,5.441 -2.969,2.5 -2.598,3.45 0.684,1.75 2.914,-1.503 3.816,-2.714 4.105,-5.507 0.18,-1.743 -0.211,-2.364 -1.883,-3 -2.722,-1.035 -5.203,-1.028 -5.203,0.015 z m -63.449,3.621 c 0.68,0.68 5.406,1.61 5.195,1.817 -0.711,0.711 -7.347,-0.821 -7.347,-1.942 0,-1.445 0.621,-1.41 2.152,0.125 z m -20.371,6.68 c 11.508,2.684 14.476,3.164 25.074,4.055 15.395,1.293 24.77,2.332 26.281,2.914 0.891,0.34 1.266,1.222 1.106,2.594 -0.199,1.699 -1.113,2.445 -5.043,4.105 -2.641,1.117 -6.383,3.195 -8.32,4.621 -1.934,1.426 -3.829,2.59 -4.207,2.59 -0.688,0 -5.543,3.273 -13.098,8.836 -6.695,4.922 -11.203,10.863 -22.438,29.566 -3.039,5.059 -5.8,9.321 -6.269,10.875 -0.469,1.555 -5.219,3.524 -8.895,3.524 -2.953,0 -5.918,-1.156 -6.961,-2.719 -1.789,-2.684 0.36,-12.035 4.258,-18.5 4.813,-7.988 18.442,-23.051 28.258,-31.238 3.98,-3.317 4.461,-3.981 3.043,-4.192 -0.93,-0.136 -2.336,0.09 -3.129,0.508 -1.672,0.883 -21.84,-1.332 -21.84,-2.394 0,-0.368 0.719,-0.664 1.598,-0.664 0.879,0 1.601,-0.309 1.601,-0.692 0,-1.277 -9.093,-1.777 -15.003,-0.824 -3.211,0.519 -6.071,0.711 -6.352,0.43 -0.871,-0.875 -0.563,-5.317 0.441,-6.321 0.739,-0.738 1.301,-0.734 2.496,0.008 1.536,0.961 4.754,1.352 17.618,2.145 l 6.8,0.418 -3.199,-1.457 c -1.972,-0.895 -6.082,-1.641 -10.687,-1.934 -4.117,-0.266 -7.586,-0.59 -7.703,-0.727 -0.118,-0.136 -0.43,-0.964 -0.696,-1.847 -1.722,-5.735 9.465,-7.364 25.266,-3.68 z m 36.973,9.758 c -0.247,0.398 0.113,0.723 0.796,0.723 1.598,0 1.582,1.144 -0.043,3.628 -1.5,2.293 -0.375,2.657 1.567,0.508 1.828,-2.015 1.687,-4.656 -0.274,-5.168 -0.878,-0.23 -1.8,-0.093 -2.046,0.309 z m -61.821,7.496 c -1.179,-0.48 -1.152,-0.621 0.266,-1.203 0.879,-0.363 2.5,-0.668 3.601,-0.684 l 6.86,0.071 -6.949,1.613 c -1.422,0.199 -3.043,0.504 -3.778,0.203 z m 10.067,-1.422 c 0.468,0.645 -0.332,-1.308 -1.102,-1.512 -0.769,-0.199 0.426,1.618 1.965,1.618 1.543,0 -3.18,-3.297 -0.863,-0.106 z m 77.511,106.453 c 6.395,4.242 14.246,15.985 23.676,35.406 6.426,13.239 8.348,18.641 8.348,27.59 0,0 -0.02,0.18 -1.399,5.598 -1.379,5.418 -4.086,9.203 -4.086,9.203 -2.503,5.059 -7.132,13.34 -10.285,18.399 -6.402,10.277 -8.011,13.074 -13.816,24 -2.219,4.179 -4.871,8.617 -5.895,9.863 -1.019,1.242 -1.855,2.578 -1.855,2.965 0,0.386 -1.055,2.488 -2.34,4.672 -1.59,2.699 -2.32,6.171 -1.996,7.437 0.43,1.664 0.871,5.086 -0.859,0.766 -0.95,-2.368 -3.106,-1.446 1.195,7.097 3.906,7.754 4.848,14.09 1.199,11.489 -1.363,-0.973 -3.238,1.304 -0.93,1.754 2.754,0.535 3.332,2.351 5.868,7.167 0.668,1.27 1.992,2.758 2.3,3.766 0.309,1.004 0.84,2.184 1.188,2.625 0.344,0.438 1.574,4.039 2.73,8 3.418,11.707 3.602,26.344 0.457,36.399 -0.343,1.101 -1.078,3.507 -1.629,5.347 -1.238,4.129 -11.449,14.926 -18.695,19.774 -1.711,1.144 -2.808,2.078 -2.437,2.078 0.371,0 -0.598,1.351 -2.153,3 -1.554,1.652 -4.148,4.847 -5.757,7.101 -3.583,5.012 -6.602,7.379 -13.805,10.813 -4.899,2.34 -6.317,2.644 -12.336,2.664 -6.406,0.023 -7.109,-0.152 -12.168,-3 -5.953,-3.348 -7.832,-5.445 -7.832,-8.738 0,-2.598 1.613,-3.813 8.402,-6.325 5.645,-2.089 9.438,-5.347 11.965,-10.273 0,0 1.18,-2.039 1.289,-3.488 0.106,-1.453 -0.98,-4.555 -0.98,-4.555 -1.024,-3.02 -3.328,-6.676 -7.059,-11.18 -5.23,-6.316 -6.027,-7.152 -3.746,-8.019 0.5,-0.192 2.316,-1.301 3.953,-2.891 2.297,-2.23 2.977,-3.519 2.977,-5.64 0,-3.485 -1.66,-6.704 -4.832,-9.372 -3.028,-2.546 -6.434,-2.707 -10.766,-0.496 l -3.137,1.598 -2.832,-2.676 c -8.988,-8.492 -17.75,-12.258 -35.738,-15.351 -6.219,-1.071 -11.887,-2.172 -12.602,-2.446 -1.859,-0.715 -1.593,-3.297 0.559,-5.453 5.563,-5.558 41.117,-6.078 59.465,-0.867 10.914,3.098 14.683,5.91 14.683,10.945 0,3.391 1.301,4.11 2.051,1.133 0.989,-3.941 0.082,-5.594 -4.894,-8.93 -3.16,-2.121 -7.598,-4.062 -12.797,-5.597 -7.945,-2.352 -8.004,-2.356 -29.426,-2.356 h -21.465 l 2.492,-2.082 c 5.34,-4.457 14.661,-5.675 35.637,-4.672 17.621,0.848 27.797,2.336 35.328,5.172 5.489,2.067 9.012,2.352 4.531,0.367 -2.316,-1.023 -2.41,-1.218 -1.355,-2.832 2.121,-3.234 3.484,-12.132 2.594,-16.937 -0.977,-5.301 -8.344,-20.836 -14.008,-29.551 -1.481,-2.277 -2.688,-4.527 -3.895,-6.402 -1.207,-1.879 -2.441,-3.606 -3.089,-4.863 l -1.18,-2.282 8.191,-7.961 c 9.555,-9.281 11.621,-10.949 16.61,-14.05 4.988,-3.106 8.179,-5.426 11.539,-7.52 6.621,-4.129 6.59,-4.129 8.496,1.012 0.527,1.429 1.43,2.601 2,2.601 1.441,0 1.305,-1.144 -0.582,-4.843 l -1.625,-3.184 1.851,-1.852 c 1.016,-1.015 2.555,-2.242 3.414,-2.726 0.864,-0.481 1.336,-1.11 1.051,-1.395 -0.285,-0.285 -3.523,1.192 -7.195,3.282 -3.672,2.089 -7.395,4.199 -8.274,4.687 -3.367,1.871 -13.039,8.668 -19.953,14.164 -6.914,5.496 -12.593,10.988 -18.132,16.266 -5.536,5.281 -12.403,12.48 -15.258,16 -5.461,6.73 -11.852,15.867 -13.871,19.379 -2.02,3.511 -4.805,7.55 -6.786,10.605 -4.242,6.547 -6.421,8.11 -8.468,6.063 -2.149,-2.149 -2.719,-7.325 -1.5,-13.629 1.125,-5.817 2.566,-10.629 3.593,-12.016 0.325,-0.441 0.86,-2.406 1.184,-4.371 0.781,-4.734 7.648,-21.5 10.57,-25.812 1.274,-1.879 5.114,-7.559 8.536,-12.618 3.417,-5.058 6.683,-9.57 7.253,-10.019 0.575,-0.449 2.981,-3.524 5.352,-6.828 2.371,-3.305 5.621,-7.614 7.223,-9.578 1.601,-1.965 5.359,-6.633 8.347,-10.375 10.383,-13 19.793,-22.973 42.754,-45.317 3.324,-3.234 5.758,-5.223 6.875,-5.883 0.395,-0.234 1.012,-0.816 2.375,-1.601 2.356,-1.356 1.656,-2.024 5.617,0.605 z m -60.312,112.41 c 1.211,2.317 2.199,4.618 3.129,5.672 0.933,1.055 1.472,1.68 1.472,2.188 0,0.629 -0.433,0.57 -0.878,0.797 -0.45,0.222 -0.137,0.281 -9.321,-2.469 -3.191,-0.953 -5.804,-1.977 -5.808,-2.27 -0.004,-0.613 8.101,-8.132 8.765,-8.129 0.242,0 1.43,1.895 2.641,4.211 z m -148.199,7.77 c 0,0.73 -0.582,3.039 -1.293,5.129 -1.379,4.047 -3.594,5.582 -7.399,5.125 -1.625,-0.195 -2.14,-0.891 -2.847,-3.832 -0.641,-2.68 -1.418,-3.86 -3.063,-4.645 -1.41,-0.672 -2.199,-1.676 -2.199,-2.804 0,-1.743 0.062,-1.75 8.402,-1.032 7.008,0.606 8.399,0.946 8.399,2.059 z m 146.367,82.91 c 1.371,1.152 3.031,3.141 3.691,4.418 3.567,6.902 -9.019,14.352 -13.715,8.117 -0.593,-0.785 -1.902,-2.484 -2.336,-3.695 -0.765,-2.125 -0.23,-2.133 2.391,-2.133 1.734,0 3.52,-0.707 4.957,-1.961 2.215,-1.933 2.227,-1.988 0.883,-4.398 -1.309,-2.34 -1.301,-2.442 0.137,-2.442 0.828,0 2.621,0.942 3.992,2.094 z m -7.168,1.441 c 0,0.184 -0.223,0.915 -0.492,1.622 -0.383,0.992 -0.746,1.078 -1.602,0.367 -1.582,-1.313 -1.367,-2.324 0.496,-2.324 0.879,0 1.598,0.152 1.598,0.335 z M 6.672,45.431 c -3.055,0.465 -3.195,0.614 -3.106,3.286 0.192,5.691 1.95,33.675 3.067,48.8 2.262,30.547 1.992,32.493 1.992,32.493 -0.293,0.539 0.098,1.128 -0.02,2.398 -0.113,1.269 0.043,4.109 0.344,6.309 0.696,5.062 2.063,26.253 2.614,40.601 l 0.425,11 -5.058,0.012 c -2.782,0.004 -5.418,0.277 -5.856,0.597 -0.441,0.325 -0.898,3.329 -1.019,6.676 -0.274,7.625 0.285,8.25 6.3,7.067 2.711,-0.535 8.762,-0.649 16.266,-0.305 l 11.953,0.547 -2.75,2.281 c -1.515,1.254 -2.492,2.289 -3.269,5.543 -0.782,3.25 -1.641,14.813 -1.946,37.734 -0.226,16.801 -0.062,24.723 0.52,25.082 0.469,0.29 0.976,0.399 1.129,0.247 0.359,-0.364 0.539,-12.168 0.5,-32.598 -0.024,-12.813 0.297,-17.992 1.48,-24.113 1.789,-9.223 2.586,-10.707 6.867,-12.786 4.579,-2.218 22.469,-2.753 67.137,-2 l 35.969,0.61 2.223,2.379 c 4.16,4.453 4.812,8.484 5.234,32.426 l 0.383,21.8 -3.488,0.133 -3.489,0.137 3.039,0.316 c 3.801,0.395 4.559,2.094 4.559,10.219 0,5.563 0.887,8.211 1.879,5.621 0.246,-0.641 0.285,-7.207 0.086,-14.594 -0.199,-7.386 -0.524,-20.273 -0.723,-28.632 -0.387,-16.442 -1.113,-21.848 -3.594,-26.711 -1.332,-2.606 -1.41,-3.211 -0.461,-3.575 0.629,-0.238 7.942,-0.226 16.258,0.028 l 15.113,0.465 0.52,-2.606 c 0.289,-1.43 0.523,-4.519 0.523,-6.863 v -4.262 l -10,-0.476 0.204,-5.602 c 0.195,-5.359 1.586,-25.711 3.386,-49.598 1.805,-23.914 4.844,-73.144 4.93,-79.828 0.082,-6.359 0.441,-6.664 -1.477,-7.23 -0.656,-0.192 -1.023,0.726 -2.492,0.265 -5.406,-1.695 -6.383,-1.648 -8.875,0.45 -1.344,1.132 -2.773,1.855 -3.176,1.605 -1.015,-0.629 -1.543,2.172 -1.64,8.738 -0.082,5.571 -0.317,11.371 -1.262,31.2 -0.273,5.718 -0.621,13.46 -0.781,17.199 -0.156,3.742 -0.664,12.922 -1.129,20.402 -0.465,7.481 -1.063,18.277 -1.328,24 -0.262,5.719 -0.613,10.836 -0.781,11.367 -0.457,1.457 -101.168,0.731 -101.973,0.399 -0.805,-0.328 -3.18,-0.188 -11.805,-0.477 -6.051,-0.203 -11.035,-0.398 -11.074,-0.43 -0.043,-0.035 -0.301,-8.429 -0.574,-18.66 -0.492,-18.105 -0.992,-28.84 -3.379,-72.492 -0.633,-11.601 -0.953,-21.422 -0.707,-21.82 0.25,-0.399 -1.285,-1.488 -3.41,-2.418 -2.121,-0.934 -3.977,-2.004 -4.125,-2.383 -0.289,-0.75 -5.098,-0.738 -10.133,0.027 z m 8.316,2.684 c 0.59,1.566 1.371,11.277 2.922,36.203 0.219,3.52 0.75,11.617 1.18,18 1.183,17.563 1.59,24.598 1.984,34.531 0.199,4.989 0.543,9.969 0.766,11.067 0.953,4.66 2.031,29.73 1.543,35.801 l -0.531,6.601 H 14.41 l -0.465,-5.801 C 13.688,181.326 12.934,168.998 12.266,157.115 11.598,145.236 10.523,128.677 9.883,120.318 9.238,111.959 8.527,100.435 8.301,94.717 7.91,84.967 6.773,65.541 5.875,53.33 5.441,47.435 5.168,47.779 11.074,46.849 c 1.098,-0.172 2.278,-0.363 2.617,-0.422 0.34,-0.062 0.926,0.7 1.297,1.688 z m 7.309,9.613 c -0.078,2.742 0.168,7.328 0.344,10.188 0.175,2.859 0.539,9.699 0.812,15.199 0.274,5.5 0.656,11.801 0.856,14 1.039,11.48 2.773,55.684 2.351,59.836 -0.363,3.539 -0.215,4.984 0.559,5.473 0.793,0.503 0.699,0.671 -0.371,0.679 -1.852,0.016 -1.965,-0.449 -2.5,-10.386 -0.246,-4.622 -0.801,-13.079 -1.231,-18.801 -1.367,-18.301 -1.773,-24.871 -3.203,-52 C 19.18,67.998 18.598,58.818 17.898,49.978 l -0.183,-2.34 2.277,2.551 c 2.321,2.598 2.551,-0.933 2.305,7.539 z M 174.398,51.76 c 0.29,0.304 0.211,5.238 -0.168,10.957 -1.347,20.144 -2.554,40.062 -3.562,58.8 -0.227,4.18 -0.785,12.641 -1.246,18.801 -0.457,6.16 -0.961,13.18 -1.121,15.598 -1.328,20.254 -2.344,31.883 -2.914,33.402 -0.719,1.918 -3.641,2.43 -6.172,1.074 -1.215,-0.648 -1.293,-1.937 -0.777,-13 0.316,-6.75 0.964,-16.191 1.441,-20.98 1.078,-10.824 1.34,-14.305 2.371,-31.297 0.715,-11.77 1.441,-21.934 2.09,-29.199 0.098,-1.098 0.555,-10.551 1.019,-21 0.461,-10.453 1.086,-20.301 1.383,-21.887 0.539,-2.871 0.555,-2.879 3.836,-2.355 1.813,0.289 3.531,0.777 3.82,1.086 z m -10.125,5.957 c -0.414,12.636 -2.953,54.671 -3.375,55.8 -0.246,0.66 -0.375,2.297 -0.289,3.637 0.086,1.34 -0.226,6.856 -0.695,12.258 -0.469,5.402 -1.051,14.746 -1.289,20.762 -0.492,12.332 -0.805,14.543 -2.062,14.543 -0.606,0 -0.719,-1.813 -0.372,-5.801 0.637,-7.239 2.497,-40.524 4.063,-72.598 0.652,-13.422 1.332,-25.93 1.504,-27.801 0.187,-2.007 0.64,-2.929 -0.129,-5.382 -0.137,-0.434 -0.555,1.261 0.242,0.382 0.797,-0.879 1.707,-1.601 2.02,-1.601 0.312,0 0.484,2.609 0.382,5.801 z m -69.23,108.285 c 33.645,0.187 61.473,0.636 61.836,1 0.738,0.738 -1.02,21.242 -1.953,22.75 -0.457,0.742 -15.399,0.961 -64.184,0.941 -34.972,-0.016 -63.754,-0.195 -63.961,-0.402 -0.203,-0.203 -0.633,-5.828 -0.949,-12.496 -0.644,-13.594 -0.715,-13.43 5.242,-12.547 1.539,0.23 30.324,0.57 63.969,0.754 z m -9.25,7.64 c -2.613,2.914 -2.723,4.211 -0.586,6.942 3.527,4.508 10.664,2.797 10.664,-2.559 0,-3.633 -1.531,-5.344 -5.226,-5.836 -2.625,-0.347 -3.461,-0.097 -4.852,1.453 z m 7.516,3.118 c 0.148,1.269 -0.379,2.601 -1.399,3.523 -1.582,1.43 -1.691,1.434 -3.238,0.035 -2.91,-2.637 -1.418,-6.281 2.394,-5.836 1.477,0.172 2.071,0.774 2.243,2.278 z m 82.851,20.605 c -0.062,2.336 -0.308,4.441 -0.547,4.68 -0.644,0.64 -131.519,1.09 -153.504,0.523 l -18.961,-0.488 -0.5,-2.281 c -0.277,-1.254 -0.285,-3.274 -0.019,-4.481 l 0.484,-2.203 h 173.16 z M 42.203,212.584 c 0,1.363 -0.273,2.597 0.238,2.484 0.129,-0.027 1.004,1.113 0.84,0.477 -0.5,-1.926 0.133,-3.575 0.574,-3.879 0.485,-0.336 1.34,0.554 1.829,2.578 0.191,0.808 1.539,2.707 -0.567,2.16 -0.722,-0.277 -3.023,-2.117 -3.023,-1.738 0,0.379 1.511,2.484 2.164,2.738 0.73,0.277 1.488,0.711 1.488,0.711 -0.039,0.148 -0.726,0.664 -0.769,0.875 -0.118,0.586 -0.352,1.504 0.128,2.613 0.684,1.59 1.766,2.164 2.172,2.231 1.68,0.273 -0.98,-1.844 -1.359,-3.215 -0.484,-1.754 1.73,-2.606 2.68,0.125 1.304,3.766 -0.055,1.687 -1.223,2.094 -0.937,0.332 -0.586,0.64 0.082,1.054 2.508,1.547 3.25,-0.898 1.301,-4.668 -0.406,-0.785 -0.516,-0.781 -1.469,-0.937 -0.676,-0.11 1.055,-0.039 2.082,0.512 0.879,0.468 2.496,0.316 2.496,0.316 0.774,-1.285 1.188,-0.063 -1.644,-1.406 -0.399,-0.188 -1.856,-0.735 -2.137,-0.992 -0.555,-0.524 -1.465,-2.836 -2.512,-4.774 -1.883,-3.484 -2.472,-1 -2.472,-1 z m -0.82,5.484 c -0.047,0.359 0.379,1.793 0.457,2.781 0.156,1.918 -2.238,2.227 -3.36,1.153 -0.445,-0.426 -0.136,-1.461 -0.441,-2.285 -0.504,-1.372 -2.172,-1.985 -2.16,-0.801 0.012,1.957 3.726,12.215 4.394,12.246 1.829,0.082 0.582,-3.586 -0.238,-5.539 -0.746,-1.774 -1.015,-1.281 1.238,-1.192 1.391,0.059 1,-0.343 1.391,0.059 0.566,0.578 0.922,2.16 1.262,3.184 0.66,2 1.164,2.546 1.785,1.925 0.621,-0.621 0.512,-1.605 -0.379,-3.476 -0.687,-1.438 -1.5,-3.778 -1.812,-5.199 -0.532,-2.422 -1.938,-4.297 -2.137,-2.856 z m -13.047,42.633 c 0,0.934 12.625,0.402 26.738,0.844 12.778,0.394 8.324,-0.828 -4.558,-0.828 -6.61,0 -13.692,-0.231 -15.731,-0.508 -2.535,-0.348 -6.449,-0.129 -6.449,0.492 z m 31.168,0.328 c 0.832,0.461 15.672,1.387 15.672,0.801 0,-0.352 11.269,-0.586 9.179,-0.551 -2.089,0.035 -25.257,-0.477 -24.851,-0.25 z m 67.969,1.289 -5.989,-0.144 5.801,0.175 c 1.32,0.039 3.129,0.395 3.789,-0.031 1.067,-0.691 1.067,-0.766 0,-0.695 -0.66,0.047 -2.281,0.359 -3.601,0.695 z m -67.442,22.559 c -1.586,1.586 -1.101,5.027 0.981,6.984 1.949,1.828 3.66,1.688 3.66,-0.301 0,-0.586 -0.68,-1.418 -1.625,-0.152 -0.488,0.648 -1.813,-1.039 -2.285,-2.34 -1.754,-4.863 2.531,-4.269 4.738,0.727 0,0 0.535,2.425 1.715,3.031 0.488,0.25 1.719,0.066 1.789,-0.254 1.043,0.453 2.074,0.129 2.074,0.129 0.258,-0.051 0.356,-0.051 0.738,-0.359 1.883,-0.071 2.684,-1.012 2.497,-2.278 -0.133,-0.89 0.308,-5.242 -0.239,-5.422 -0.172,-0.054 -0.375,-0.132 -0.519,0.243 -0.418,1.066 -0.641,3.656 -0.414,4.367 0.125,0.379 -0.289,1.855 -0.735,1.402 -0.461,-0.473 -0.765,-3.027 -1.32,-5.328 -0.129,-0.539 -0.57,-0.117 -0.773,-0.113 -0.637,0.015 1.031,4.625 0.656,5.582 -0.219,0.547 -1,0.511 -1.227,0.414 -0.609,-0.262 -1.312,-5.524 -1.414,-5.934 -0.18,-0.707 -1.258,-0.668 -1.258,0.106 0,0.75 1.5,5.554 0.985,5.929 -1.028,0.754 -1.188,-1.336 -1.785,-2.492 -0.391,-0.762 -0.297,-1.262 -0.973,-2.504 -0.91,-0.769 -0.879,-1.023 -1.848,-1.633 -1.043,-0.656 -2.261,-0.957 -3.418,0.196 z m -9.988,1.371 c -1.121,1.121 -1.605,3.367 -0.211,2.926 0.445,-0.141 0.57,-1.653 1.285,-1.813 0.903,-0.199 2.414,1.039 2.949,1.945 1.887,3.196 1.528,5.504 -1.793,3.993 -2.734,-1.243 -1.378,1.73 -1.101,3.183 0.273,1.406 0.449,3.18 1.394,3.899 1.289,0.152 3.727,0.336 4.957,0.336 1.614,0 0.379,-2.536 -1.273,-2.079 -1.07,0.301 -2.574,0.129 -2.574,0.129 0,0 -1.004,-2.957 -1.004,-3.941 0,-0.219 1.277,0.387 2.269,0.246 2.426,-0.344 2.227,-3.91 0.106,-6.605 -1.918,-2.438 -4.246,-2.977 -5.004,-2.219 z m 23.816,-1.25 c 0,0.523 -1.058,1.762 -0.535,1.937 0.582,0.192 0.828,1.664 0.93,0.051 0.098,-1.555 0.125,-1.957 -0.395,-1.988 z m -33.187,1.773 c -0.227,0.098 0.66,0.985 1.141,1.883 0.632,1.184 2.261,4.07 1.628,4.082 -0.839,0.016 -2.179,-0.004 -0.574,1.293 0.36,0.289 1.551,-0.055 1.766,0.367 0.715,1.395 1.301,2.906 1.48,3.336 0.106,0.258 -2.054,-0.89 -2.402,-0.539 -1.133,1.156 -1.566,1.215 -2.617,0.34 -1.778,-1.473 -2.215,-0.648 -0.758,1.434 1.355,1.933 3.203,2.3 3.766,0.75 0.285,-0.79 0.734,-0.782 2.144,0.054 2.418,1.434 2.793,0.774 1.254,-2.203 -0.52,-1 -1.512,-2.637 -1.539,-3.32 -0.012,-0.258 0.859,-0.008 0.832,-0.153 -0.113,-0.628 0.023,-1.468 -1.438,-1.441 -0.39,0.004 -1.285,-2.578 -1.882,-3.937 -0.602,-1.36 -0.774,-2.235 -1.399,-2.235 -0.625,0 -0.472,-0.109 -0.699,-0.012 z m 2.113,12.078 0.574,0.356 z m 152.57,79.34 -0.105,0.641 z" /></g></g></svg>