<?xml version="1.0" encoding="UTF-8"?>
<svg id="Layer_1" data-name="Layer 1" xmlns="http://www.w3.org/2000/svg" viewBox="0 0 250 173.3">
  <path fill="#00ae6b" d="M48.29,83.16V0H250V129.81h-87.72s0,26.6,0,26.6h16.81v9.43h-59.88v-9.43h16.81s0-26.6,0-26.6h-12.6s4.02-11.79,4.02-11.79h110.77s0-106.23,0-106.23H60.08s0,64.7,0,64.7c-3.99,2.25-7.93,4.49-11.79,6.67Z"/>
  <path fill="#00ae6b" d="M0,119.52v2.33s39.8-.45,39.8-.45l17.66,31.85,20.01-9.07,22.83,29.11L146.93,36.4S24.34,105.73,0,119.52Zm66.49,21.28l2.71-6.73,3.29,4.02-6,2.71Zm-19.59-22.3L131.31,51.81,65.21,124.22l-6.36,15.24-11.95-20.94Z"/>
</svg>
