<?xml version="1.0" encoding="utf-8"?>
<!-- Generator: Adobe Illustrator 26.4.1, SVG Export Plug-In . SVG Version: 6.00 Build 0)  -->
<svg version="1.1" id="Layer_1" xmlns="http://www.w3.org/2000/svg" xmlns:xlink="http://www.w3.org/1999/xlink" x="0px" y="0px"
	 viewBox="0 0 250 250" style="enable-background:new 0 0 250 250;" xml:space="preserve">
<style type="text/css">
	.st0{fill:#1175DA;}
	.st1{fill:#FFFFFF;}
</style>
<rect id="Box_00000056404099853714801580000002109393546708195986_" class="st0" width="250" height="250"/>
<polygon class="st1" points="143.43,95.17 166.54,106.36 162.85,121.54 141.31,136.81 138.32,116.48 128.28,81.22 91.31,54.88 
	109.67,92.54 107.01,110.9 140.38,155.77 107.61,162.89 130.85,152.17 102.8,109.36 89.59,95.2 28.9,64.92 68.14,110.47 
	92.72,168.12 83.41,183.15 48.74,185.84 80.38,195.12 103.65,182.68 147.98,165.02 159.65,144.67 174.86,122.57 209.49,95.22 
	188.16,103.95 221.1,68.78 182.84,97.43 "/>
</svg>
