<svg xmlns:dc="http://purl.org/dc/elements/1.1/" xmlns:cc="http://creativecommons.org/ns#" xmlns:rdf="http://www.w3.org/1999/02/22-rdf-syntax-ns#" xmlns:svg="http://www.w3.org/2000/svg" xmlns="http://www.w3.org/2000/svg" xmlns:sodipodi="http://sodipodi.sourceforge.net/DTD/sodipodi-0.dtd" xmlns:inkscape="http://www.inkscape.org/namespaces/inkscape" version="1.2" viewBox="0 0 5500 7000" preserveAspectRatio="xMidYMid" fill-rule="evenodd" clip-path="url(#presentation_clip_path)" stroke-width="28.222" stroke-linejoin="round" xml:space="preserve" id="svg3176" inkscape:version="0.48.4 r9939" width="100%" height="100%" sodipodi:docname="fyziklani_stupinek.svg"><metadata id="metadata3308"><rdf:RDF><cc:Work rdf:about=""><dc:format>image/svg+xml</dc:format><dc:type rdf:resource="http://purl.org/dc/dcmitype/StillImage"/><dc:title/></cc:Work></rdf:RDF></metadata><defs id="defs3306"/><sodipodi:namedview pagecolor="#ffffff" bordercolor="#666666" borderopacity="1" objecttolerance="10" gridtolerance="10" guidetolerance="10" inkscape:pageopacity="0" inkscape:pageshadow="2" inkscape:window-width="1920" inkscape:window-height="1058" id="namedview3304" showgrid="false" inkscape:zoom="0.12642857" inkscape:cx="4903.4628" inkscape:cy="3460.0463" inkscape:window-x="1366" inkscape:window-y="0" inkscape:window-maximized="1" inkscape:current-layer="g3180"/><style id="style3178">
     path{
     fill:none;
      stroke:rgb(0,0,0);
      stroke-width:46;
     stroke-linecap: round;

}
        path.fykosak{

        stroke:none;
}

 </style>
<g id="g3180"><path d="M 3268,6601 C 3433,6538 3599,6475 3767,6413 3881,6371 3995,6330 4110,6289" id="path3182"/><path d="M 4110,6289 C 4161,6106 4193,5918 4205,5727 4212,5613 4212,5499 4205,5385" id="path3184"/><path d="M 3268,6600 C 3279,6413 3291,6226 3300,6038 3307,5914 3312,5789 3316,5665" id="path3186"/><path d="M 3315,5666 C 3455,5627 3597,5585 3736,5541 3893,5491 4050,5439 4204,5385" id="path3188"/><path d="M 3316,5666 C 3185,5606 3055,5544 2926,5479 2789,5408 2654,5335 2521,5260" id="path3190"/><path d="M 2521,5261 C 2665,5221 2810,5185 2957,5152 3138,5109 3320,5073 3503,5042" id="path3192"/><path d="M 4204,5386 C 4093,5319 3978,5255 3861,5198 3744,5141 3623,5088 3502,5042" id="path3194"/><path d="M 3504,5044 C 3506,4930 3506,4815 3504,4701 3502,4555 3496,4409 3487,4264" id="path3196"/><path d="M 3487,4264 C 3300,4307 3113,4349 2925,4389 2795,4416 2666,4442 2536,4467" id="path3198"/><path d="M 2520,5261 C 2519,5136 2519,5012 2520,4887 2523,4746 2529,4606 2537,4466" id="path3200"/><path d="M 3488,4265 C 3352,4205 3216,4142 3082,4077 2977,4027 2873,3974 2770,3921" id="path3202"/><path d="M 2537,4467 C 2419,4406 2300,4349 2179,4296 2035,4232 1889,4175 1742,4123 L 1866,4077" id="path3204"/><path d="M 1743,4123 C 1736,4190 1731,4257 1727,4325 1717,4502 1717,4679 1727,4856" id="path3206"/><path d="M 1728,4857 C 1616,4812 1506,4759 1400,4701 1281,4635 1166,4561 1057,4482" id="path3208"/><path d="M 1057,4483 C 1161,4465 1266,4445 1369,4420 1489,4393 1610,4360 1728,4326" id="path3210"/><path d="M 1057,4482 C 1064,4637 1074,4794 1089,4950 1098,5054 1108,5159 1120,5262" id="path3212"/><path d="M 1119,5260 C 1302,5389 1489,5514 1680,5634 1988,5828 2303,6008 2615,6195 2836,6328 3054,6463 3270,6601" id="path3214"/><path d="M 1960,4668 C 2003,4669 2046,4658 2084,4637 2146,4604 2191,4548 2210,4482 L 2147,4950" id="path3216"/><path d="M 1368,4949 C 1374,4889 1441,4856 1494,4886 1544,4916 1545,4984 1525,5042 1494,5137 1426,5215 1337,5261 L 1510,5355" id="path3218"/><path d="M 2801,5728 C 2824,5682 2883,5668 2926,5696 3011,5755 2967,5889 2863,5884" id="path3220"/><path d="M 2864,5884 C 2913,5895 2955,5930 2974,5977 2997,6037 2981,6105 2926,6134 2883,6156 2828,6143 2801,6103" id="path3222"/><path d="M 2367,2178 C 2330,2177 2298,2152 2289,2116 2275,2060 2280,1829 2274,1772 2266,1703 2216,1646 2148,1631 2096,1620 2044,1637 1992,1647 1877,1669 1757,1658 1649,1616" id="path3224"/><path d="M 2303,1242 C 2298,1305 2263,1364 2209,1398 2062,1493 1387,1664 1211,1664 1071,1664 916,1645 916,1523 916,1455 985,1415 1056,1398 1158,1375 1263,1379 1367,1367 1523,1349 1673,1295 1804,1211" id="path3226"/><path d="M 1835,1148 C 1839,1057 1903,978 1991,977 2081,976 2148,1055 2148,1148 2148,1246 2085,1335 1991,1336 1897,1337 1831,1248 1835,1148 Z" id="path3228"/><path d="M 1866,1259 C 1805,1210 1846,1109 1929,1117 1963,1121 1988,1147 1992,1180 2002,1255 1921,1302 1866,1259 Z" id="path3230"/><path d="M 1991,899 C 2030,881 2076,881 2116,899 2155,917 2183,952 2194,993" id="path3232"/><path d="M 2054,837 C 2107,823 2166,834 2210,869 2241,892 2263,925 2273,963" id="path3234"/><path d="M 2085,994 C 2223,994 2335,882 2335,744 2335,647 2236,588 2132,588 2083,588 2034,598 1991,619" id="path3236"/><path d="M 1991,618 C 2089,519 2224,463 2365,463 2543,463 2677,621 2677,806 2677,922 2552,1002 2552,1118 2552,1193 2599,1262 2599,1337 2599,1410 2556,1477 2490,1508" id="path3238"/><path d="M 2490,1506 C 2530,1555 2558,1614 2568,1677 2579,1740 2574,1805 2553,1865" id="path3240"/><path d="M 2598,1740 C 2631,1773 2648,1818 2646,1864 2644,1914 2621,1959 2583,1990" id="path3242"/><path d="M 2661,1897 C 2654,1939 2659,1982 2676,2021 2700,2073 2745,2115 2801,2115 2935,2115 3743,1676 3861,1615 3942,1574 4032,1538 4079,1460 4120,1393 4120,1309 4079,1242" id="path3244"/><path d="M 4078,1242 C 4114,1245 4148,1261 4172,1288 4207,1327 4219,1380 4204,1430" id="path3246"/><path d="M 4203,1428 C 4290,1387 4386,1366 4484,1366 4880,1366 5201,1687 5201,2083 5201,2229 5191,2376 5170,2520" id="path3248"/><path d="M 5170,2519 C 5104,2192 4817,1958 4484,1958 4364,1958 4269,2042 4173,2113 4013,2231 3832,2313 3642,2363 3421,2422 3177,2445 3019,2613 2940,2698 2895,2809 2895,2925" id="path3250"/><path d="M 2645,2302 C 2673,2318 2799,2349 2831,2349 2945,2349 3277,2061 3362,1990 3495,1878 3643,1783 3799,1709" id="path3252"/><path d="m 2271.5763,2019.5763 c -88.6735,-79.8349 -186.6268,-148.7335 -289.7356,-205.6022 -141.259,-76.554 -294.891,-127.9546 -450.5853,-153.1081" id="path3254" inkscape:connector-curvature="0" style="fill:none;stroke:#000000;stroke-width:48.8473053;stroke-linecap:round"/><path d="M 1113.3131,1343.9149 C 937.72109,1224.212 801.0327,1057.4467 717.96822,865.10379 634.90374,668.66847 613.87475,451.77115 652.77837,243.05863" id="path3256" inkscape:connector-curvature="0" style="fill:none;stroke:#000000;stroke-width:47.71018982;stroke-linecap:round"/><path d="M 653,245 C 369,445 200,770 200,1118 200,1440 373,1737 653,1897" id="path3258"/><path d="M 653,1896 C 611,1911 582,1946 574,1989 561,2063 609,2134 684,2146" id="path3260"/><path d="M 684,2146 C 659,2120 649,2085 652,2051 656,2027 666,2005 684,1989 731,1944 804,1952 871,1958 967,1967 1070,1966 1151,2020 L 1806,2457 C 1891,2514 1948,2606 1962,2707" id="path3262"/><path d="M 2662,2130 C 2624,2186 2588,2243 2553,2301 2514,2363 2478,2426 2443,2489" id="path3264"/><path d="M 2272,2161 C 2277,2207 2282,2254 2287,2301 2294,2364 2299,2426 2304,2489" id="path3266"/><path d="M 2240,2644 C 2252,2550 2316,2470 2397,2487 2452,2499 2481,2554 2491,2613 2512,2737 2436,2853 2334,2832 2258,2815 2230,2727 2240,2644 Z" id="path3268"/><path d="M 2302,2659 C 2305,2595 2326,2529 2381,2534 2418,2537 2435,2575 2444,2613 2470,2714 2420,2808 2350,2785 2303,2770 2301,2711 2302,2659 Z" id="path3270"/><path d="M 2272,2130 C 2092,2294 1991,2525 1991,2768 1991,3081 2192,3358 2490,3455" id="path3272"/><path d="M 2473,3267 C 2463,3308 2468,3354 2490,3392 2505,3419 2526,3441 2553,3455" id="path3274"/><path d="M 2864,3516 C 2907,3513 2949,3503 2989,3485 3023,3468 3055,3447 3083,3422" id="path3276"/><path d="M 4173,3828 L 4173,3703 C 4173,3633 4094,3601 4017,3594 3964,3589 3909,3587 3861,3563 3808,3536 3765,3485 3705,3485 3669,3485 3649,3438 3612,3438 3547,3438 3488,3407 3424,3407 3356,3407 3298,3360 3268,3297 3258,3276 3251,3253 3237,3235 3211,3199 3164,3181 3144,3141 3134,3122 3132,3100 3128,3079 3124,3058 3119,3037 3112,3017 3098,2972 3078,2930 3050,2892 3033,2868 3012,2847 2988,2830 2969,2816 2948,2806 2926,2799" id="path3278"/><path d="M 4173,3829 C 4145,3766 4085,3724 4017,3719 3965,3715 3914,3735 3860,3735 3778,3735 3698,3713 3627,3672" id="path3280"/><path d="M 3628,3673 C 3592,3683 3556,3688 3519,3688 3423,3688 3325,3682 3237,3642 3182,3615 3134,3577 3082,3546 3047,3527 3010,3511 2973,3500" id="path3282"/><path d="M 2896,3422 C 2893,3455 2882,3487 2865,3515 2830,3572 2771,3612 2739,3672 2709,3729 2708,3794 2708,3859 2708,3949 2774,4024 2802,4109 2814,4144 2819,4181 2818,4218" id="path3284"/><path d="M 2818,4216 C 2803,4209 2788,4204 2772,4201 2751,4198 2730,4197 2709,4201 2676,4207 2647,4225 2615,4233 2532,4252 2450,4206 2365,4201 2328,4198 2290,4203 2256,4216" id="path3286"/><path d="M 2257,4218 L 2147,4139" id="path3288"/><path d="M 2147,4140 C 2198,4129 2251,4118 2303,4109 2365,4096 2429,4086 2491,4077" id="path3290"/><path d="M 2241,4061 L 2257,4093" id="path3292"/><path d="M 2241,4062 L 2491,4016 C 2493,3912 2498,3807 2507,3703 2514,3618 2522,3532 2554,3453 2563,3431 2573,3410 2585,3391" id="path3294"/><path d="M 1898,4015 L 2148,3983" id="path3296"/><path d="M 1898,4014 C 1920,4048 1953,4077 1991,4092 2042,4113 2098,4113 2148,4092" id="path3298"/><path d="M 1991,3952 L 2007,3984" id="path3300"/><path d="M 1991,3953 C 2041,3937 2094,3932 2146,3938 2202,3944 2262,3959 2303,3922 2321,3906 2330,3883 2334,3860 2340,3829 2338,3796 2334,3765 2327,3713 2313,3661 2303,3609 2291,3547 2286,3484 2287,3422" id="path3302"/><path class="fykosak" d="m 1972.7247,2643.4279 c -0.6149,-13.8987 -27.7136,-70.4589 -49.3052,-102.9091 -41.1667,-61.8696 -55.3227,-72.5422 -415.7773,-313.4621 -182.6735,-122.0951 -341.8461,-227.7114 -353.7167,-234.7031 -57.1933,-33.686 -105.4077,-44.4389 -257.23061,-57.3682 -113.99619,-9.7079 -150.68374,-7.5336 -191.99319,11.3785 -47.17906,21.5993 -72.5677,58.4647 -76.55303,111.1583 l -2.3929,31.6385 -10.63501,-17.7967 c -32.26401,-53.9904 -17.7711,-116.7313 33.28524,-144.0944 25.12011,-13.4628 34.43533,-27.5518 27.17981,-41.1088 -2.34148,-4.3752 -18.06253,-16.3258 -34.93566,-26.5571 -216.24784,-131.1243 -369.49194,-364.6565 -406.02337,-618.7481 -25.73889,-179.025 3.6524,-373.0084 83.58977,-551.69495 55.00387,-122.9519 127.97782,-225.1285 232.54169,-325.6 68.72629,-66.03654 66.20704,-65.24119 62.33861,-19.68075 -5.27871,62.16997 -2.94911,190.20243 4.44757,244.43329 18.59433,136.33007 58.0054,259.73105 119.94887,375.57523 25.01223,46.77688 80.39413,130.74928 113.54704,172.16488 57.56199,71.9082 145.50552,156.1055 213.26747,204.1827 16.4659,11.6826 29.9805,22.5758 30.0326,24.2071 0.052,1.6314 -4.0699,2.9661 -9.1598,2.9661 -18.4752,0 -72.5043,16.1487 -101.48006,30.3312 -38.37566,18.7835 -74.95078,54.3813 -84.35044,82.0965 -3.63553,10.7194 -6.61001,31.5636 -6.61001,46.3206 0,111.4473 113.42601,167.2588 326.13371,160.4748 66.5572,-2.1227 146.4944,-13.3571 246.2549,-34.6087 20.0821,-4.278 37.9663,-7.7782 39.7426,-7.7782 1.7763,0 2.5289,6.0027 1.6724,13.3393 -2.4593,21.0657 7.3157,26.8829 63.0838,37.5412 235.6145,45.0302 450.8529,149.444 648.4441,314.5651 l 38.0435,31.7918 2.4855,32.3361 2.4855,32.336 -30.2057,29.0735 c -127.6308,122.8466 -218.7939,295.8526 -250.8037,475.9661 -3.8656,21.7515 -7.174,36.2565 -7.352,32.2334 z" id="path3322" inkscape:connector-curvature="0"/></g><path class="fykosak" d="m 2459.7175,4191.4856 c -95.7195,-20.6726 -129.2213,-22.971 -168.911,-11.5882 -20.4237,5.8575 -30.7522,4.7516 -45.428,-4.8644 -10.4469,-6.8451 -18.9943,-15.0136 -18.9943,-18.1522 0,-3.1387 56.0593,-15.5535 124.5763,-27.5884 160.4078,-28.1755 158.2781,-27.6442 163.3037,-40.7407 8.2828,-21.5846 -4.2336,-34.8627 -33.6415,-35.689 l -28.8148,-0.8096 24.4193,-5.8378 c 13.4305,-3.2108 28.0002,-8.051 32.377,-10.756 4.4349,-2.7409 10.3139,-61.9521 13.2798,-133.748 6.0223,-145.7858 24.0639,-326.8122 37.2765,-374.0277 4.8694,-17.4011 19.4252,-55.9059 32.3461,-85.5661 18.6078,-42.715 21.5379,-56.2828 14.0922,-65.2542 -15.5706,-18.7615 -37.792,-13.0735 -51.3495,13.1438 l -12.6542,24.4704 -19.0933,-25.8796 c -21.8358,-29.5967 -31.1481,-68.5305 -24.4279,-102.131 3.1145,-15.5725 0.5323,-27.2396 -7.895,-35.6665 -41.8981,-41.8981 -66.3855,68.9955 -30.5415,138.3102 7.211,13.9446 11.8853,26.5796 10.3872,28.0777 -5.4787,5.4786 -130.0912,-61.5443 -168.9736,-90.8825 -124.2119,-93.7226 -214.4096,-225.1531 -258.0559,-376.0233 -15.7942,-54.5952 -18.2767,-80.6402 -18.0934,-189.8305 0.1898,-112.8743 2.5279,-134.9183 21.6343,-203.9372 34.2385,-123.6817 95.9683,-241.6041 174.6025,-333.5423 l 26.7405,-31.2647 9.402,90.5868 c 22.2017,213.9106 22.4221,220.4972 7.8197,233.7121 -7.4387,6.7319 -21.8154,30.6726 -31.9483,53.2013 -25.5061,56.7086 -25.9135,160.1368 -0.8194,208.0456 32.4283,61.9114 85.2152,89.8812 149.8391,79.3942 48.7852,-7.9167 85.5197,-38.8951 113.4863,-95.7034 23.7861,-48.3163 25.1561,-55.6761 21.7775,-116.9867 -2.792,-50.6629 -8.42,-74.8318 -24.941,-107.106 l -21.3355,-41.6794 57.0152,-96.7387 c 31.3583,-53.2063 79.7006,-131.8323 107.4274,-174.7246 54.088,-83.6722 60.6441,-111.8446 26.0279,-111.8446 -22.6981,0 -40.404,24.6705 -158.9471,221.4689 l -76.2306,126.5537 -48.6216,0.337 c -26.7419,0.185 -48.6955,-1.5943 -48.7858,-3.9548 -0.09,-2.3606 -5.3241,-54.1225 -11.6303,-115.0264 -15.7592,-152.1968 -15.6539,-156.7846 3.365,-146.606 8.4145,4.5034 26.3228,8.1879 39.7962,8.1879 44.7877,0 41.3633,-44.8453 -4.3344,-56.7627 -40.9116,-10.6694 -44.3273,-25.5606 -50.6133,-220.6595 -6.5819,-204.2819 -12.8932,-228.3466 -73.4901,-280.2153 -53.1986,-45.536 -108.7393,-53.5891 -212.8637,-30.8643 -31.824,6.9455 -91.6753,12.9195 -133.003,13.2755 -72.5789,0.6249 -181.9209,-14.3668 -181.9209,-24.9434 0,-2.837 32.9237,-13.5241 73.1638,-23.7491 120.6683,-30.6619 329.9206,-101.1892 397.8285,-134.0859 75.3623,-36.5078 121.0003,-83.2907 140.6723,-144.2014 17.741,-54.9319 16.9635,-76.3225 -3.0047,-82.6601 -20.1255,-6.3876 -39.1119,8.4522 -39.3421,30.7499 -0.2673,25.9067 -26.9516,77.743 -52.2209,101.4439 -68.9932,64.7108 -402.4186,173.8803 -762.2947,249.5889 -125.6863,26.4412 -150.0584,29.1435 -264.9717,29.3784 -102.4854,0.2097 -134.4067,-2.4798 -167.8456,-14.1411 -81.9549,-28.5804 -106.52368,-94.413 -53.79441,-144.143 44.63761,-42.0987 112.64561,-57.5183 312.60041,-70.8768 171.0738,-11.429 307.4122,-47.5513 446.812,-118.3811 47.2255,-23.9954 86.2874,-42.76 86.8044,-41.6989 59.5689,122.2641 188.1645,158.7164 280.6482,79.5538 48.9321,-41.8841 65.9548,-81.1246 69.7018,-160.6754 2.7868,-59.1682 0.8831,-71.6698 -15.8736,-104.2361 -18.5796,-36.1092 -18.662,-37.1033 -3.4074,-41.0924 8.5981,-2.2485 25.7063,-2.0734 38.0182,0.3889 18.6176,3.7236 23.6428,1.1697 29.8565,-15.17336 7.5779,-19.93149 32.4117,-36.04797 32.4117,-21.03437 0,4.50271 9.7881,7.0605 21.7514,5.68396 18.9121,-2.17607 21.862,-6.11643 22.5985,-30.18639 0.4817,-15.74107 9.8813,-40.97948 21.7893,-58.50436 41.7333,-61.41863 56.392,-156.52782 32.8199,-212.94376 -24.7804,-59.30797 -112.6042,-115.92079 -180.3292,-116.24362 -50.0856,-0.23871 -48.7776,-12.42043 3.6564,-34.05527 71.8871,-29.66131 110.0769,-37.80289 178.9774,-38.15565 88.8511,-0.45491 142.4314,21.63496 203.8002,84.0218 58.2274,59.19345 90.2565,133.79808 91.2264,212.49211 0.7119,57.78021 -2.5288,66.96926 -56.2328,159.43395 -71.3578,122.86006 -77.1258,160.44116 -42.6571,277.92876 26.9164,91.7452 26.7611,142.4386 -0.579,189.0915 -11.4723,19.576 -34.8994,44.4563 -52.0603,55.2894 -17.1608,10.8332 -31.2015,24.5598 -31.2015,30.5036 0,5.9438 12.5839,31.7042 27.9642,57.2454 15.3802,25.5412 33.1768,63.9914 39.548,85.4447 14.0544,47.3252 15.0559,141.5706 2.0223,190.3018 -8.0028,29.9216 -7.6805,37.5488 1.9774,46.7857 21.916,20.9607 43.3077,2.6288 54.3119,-46.5434 11.1734,-49.9276 14.7652,-50.9008 24.8423,-6.7306 9.1014,39.8938 -3.1691,85.5505 -33.1736,123.4335 -27.8208,35.1262 -27.0164,56.145 2.279,59.5509 14.4982,1.6855 25.384,-3.4566 36.0658,-17.0363 l 15.2998,-19.4505 8.7954,32.8851 c 12.7175,47.5494 50.4841,95.3199 90.7805,114.827 57.1902,27.6853 99.5608,22.2789 228.1921,-29.1171 72.0801,-28.8004 338.8669,-156.0194 468.556,-223.4341 51.3973,-26.7172 95.1737,-46.8529 97.2806,-44.7459 2.107,2.107 -23.9284,23.504 -57.8565,47.549 -33.9281,24.045 -87.0868,64.506 -118.1305,89.9134 -261.5075,214.0276 -351.5388,280.746 -442.0439,327.5804 -32.9953,17.0743 -69.588,31.032 -81.3172,31.0173 -11.7292,-0.016 -53.3597,-9.1807 -92.5122,-20.3687 -100.5537,-28.7338 -110.7345,-28.7094 -110.7345,0.265 0,21.7741 3.5765,24.5654 52.3118,40.8283 28.7715,9.601 78.602,21.7498 110.7344,26.9975 54.3474,8.8755 61.6737,8.3034 105.0265,-8.2013 25.632,-9.7582 87.9201,-45.5744 138.418,-79.5915 84.4631,-56.8972 129.7394,-91.9905 365.754,-283.4935 101.3276,-82.2176 245.4746,-177.5632 348.2923,-230.377 65.0107,-33.3937 77.7681,-42.9948 77.7681,-58.5272 0,-10.3985 -6.0953,-20.9202 -13.8418,-23.8938 -10.0748,-3.8674 13.1128,-19.2065 85.2019,-56.3628 132.4285,-68.2568 181.0399,-107.164 212.4651,-170.0513 20.9842,-41.9932 24.6494,-58.1049 24.6494,-108.3551 0,-52.6764 1.3326,-57.9212 12.386,-48.7478 23.0186,19.1038 35.0716,53.9311 35.0716,101.3402 0,30.1475 3.4911,48.3549 9.6663,50.4133 5.3164,1.7722 45.3588,-9.3364 88.983,-24.6857 77.3801,-27.2263 82.3104,-27.9166 201.9157,-28.2692 104.543,-0.3084 131.6832,2.2716 184.2812,17.5161 251.1306,72.7854 430.7443,262.2388 492.9697,519.9757 14.0919,58.3679 17.4749,257.4931 6.5516,385.624 l -5.2284,61.3302 -25.9791,-53.4206 c -68.1044,-140.0431 -201.1424,-268.1639 -347.2439,-334.4094 -97.4756,-44.1976 -164.3572,-58.35 -277.6675,-58.756 -102.2155,-0.3662 -103.1764,-0.1993 -162.1469,28.1904 -32.6271,15.7073 -87.7966,49.1261 -122.5989,74.2642 -262.8035,189.8255 -392.3335,248.5296 -724.7031,328.4415 -160.6057,38.6145 -240.6529,62.9576 -311.3987,94.6991 -163.4464,73.3334 -278.6807,210.513 -308.7197,367.5122 -14.7781,77.2386 -14.659,95.0664 0.738,110.4635 22.87,22.87 40.1541,3.2689 45.0869,-51.1312 2.4142,-26.6244 6.1503,-50.1689 8.3026,-52.3211 6.8769,-6.877 48.0593,18.7608 73.9121,46.0135 35.2527,37.1613 71.5318,113.0205 90.8703,190.0086 21.3782,85.1082 29.8967,100.7109 76.1099,139.4027 23.8372,19.9576 48.2273,51.0776 64.324,82.0725 48.3245,93.0512 92.7251,125.5742 190.5624,139.5853 125.3655,17.9533 191.8353,33.2894 214.6284,49.5195 12.8979,9.1841 41.3168,21.4114 63.153,27.1718 21.8362,5.7602 61.7194,24.8179 88.6293,42.3504 63.3291,41.2606 95.0504,51.8567 191.1454,63.8501 77.231,9.639 125.4183,26.4623 145.6615,50.8538 5.5379,6.6728 11.9844,26.4138 14.3257,43.8689 l 4.2567,31.7365 -46.4932,-25.3867 c -43.9006,-23.971 -50.2422,-25.2208 -113.7249,-22.4144 -174.0491,7.6944 -222.3798,4.5107 -280.7909,-18.4966 -52.8874,-20.8315 -62.0983,-21.8764 -205.6498,-23.3292 -178.485,-1.8063 -213.3804,-10.4839 -324.8918,-80.7926 -38.8236,-24.4784 -85.7155,-51.9313 -104.2042,-61.0063 -18.4887,-9.075 -33.6158,-18.9407 -33.6158,-21.9238 0,-2.983 9.1363,-11.4101 20.3028,-18.7267 40.0886,-26.2671 51.98,-42.8751 42.877,-59.8842 -11.946,-22.3212 -25.7436,-19.6573 -77.1111,14.8877 -40.4372,27.1943 -87.0151,48.5704 -105.8335,48.5704 -3.6683,0 -5.8067,-16.9067 -4.7519,-37.5706 1.811,-35.479 0.7308,-37.7076 -19.3986,-40.0314 -19.0991,-2.2048 -22.2702,1.0815 -30.4864,31.5939 -14.392,53.4481 -34.2465,86.4515 -87.0823,144.7537 -26.978,29.7691 -58.3755,74.0094 -69.7722,98.3116 -19.1502,40.835 -20.7215,52.2827 -20.7215,150.9653 l 0,106.7796 44.5836,94.9153 c 24.521,52.2034 47.0496,106.4831 50.0635,120.6215 l 5.4799,25.7062 -42.7459,0 c -24.819,0 -67.1278,8.2928 -100.8839,19.774 -69.1739,23.5276 -74.213,23.5111 -185.8757,-0.6051 l 0,3e-4 z" id="path3312" inkscape:connector-curvature="0"/><path class="fykosak" d="m 2169.6689,4091.8477 c -2.537,-17.9087 -4.4526,-18.3261 -71.5478,-15.5886 -58.4994,2.3867 -74.376,0.1817 -104.8259,-14.5589 -19.7367,-9.5543 -34.2868,-19.9573 -32.3336,-23.1177 1.9533,-3.1604 43.7859,-10.4324 92.9615,-16.16 97.6466,-11.3731 117.0926,-17.7231 117.0963,-38.2375 0,-11.4776 8.5191,-13.6318 55.382,-14.0076 59.7511,-0.4792 82.1024,-11.0513 114.1833,-54.0086 26.1099,-34.9619 26.3334,-127.5074 0.6231,-257.9767 -11.5732,-58.7288 -23.109,-140.0284 -25.6352,-180.6658 l -4.5932,-73.886 48.6769,24.572 c 83.3101,42.0548 121.7873,54.7511 142.4589,47.0073 15.9695,-5.9824 17.8596,-4.9824 13.0719,6.916 -12.3231,30.6259 -27.3783,139.1569 -35.9428,259.1073 -4.9697,69.6046 -11.3964,154.9339 -14.2813,189.6208 l -5.2455,63.0671 -111.3708,20.6656 c -61.254,11.366 -115.926,23.4807 -121.4932,26.9215 -6.5396,4.0416 -8.5901,15.6986 -5.7931,32.934 3.6134,22.2672 1.9029,26.678 -10.3458,26.678 -8.0713,0 -20.0219,2.0518 -26.557,4.5596 -8.1428,3.1247 -12.7022,-1.2312 -14.4887,-13.8418 l 0,0 z" id="path3314" inkscape:connector-curvature="0"/></svg>