<svg xmlns="http://www.w3.org/2000/svg" viewBox="0 0 135 76" version="1.2">
    <g id="surface1">
        <path style="stroke:none;fill-rule:nonzero;fill:#868e96;fill-opacity:1;"
              d="M 34.1875 74.359375 C 31.082031 73.050781 27.972656 70.621094 27.003906 68.742188 C 26.710938 68.164062 26.308594 66.6875 26.121094 65.457031 C 25.929688 64.226562 25.746094 63.195312 25.710938 63.164062 C 25.675781 63.136719 24.035156 62.957031 22.058594 62.765625 C 16.238281 62.203125 13.796875 61.359375 11.171875 58.996094 C 8.855469 56.917969 8.117188 54.933594 7.722656 49.746094 L 7.402344 45.503906 L 5.085938 43.234375 C 1.214844 39.4375 -0.222656 35.722656 0.0859375 30.277344 C 0.265625 27.007812 1.003906 24.839844 2.808594 22.25 C 3.5 21.265625 5.429688 18.464844 7.101562 16.023438 C 11.089844 10.21875 12.542969 8.910156 16.054688 7.976562 C 19.421875 7.078125 23.898438 7.660156 29.511719 9.722656 L 32.773438 10.921875 L 34.910156 8.808594 C 36.296875 7.4375 37.675781 6.402344 38.84375 5.859375 C 40.542969 5.066406 40.871094 5.019531 44.839844 5.019531 C 48.832031 5.019531 49.113281 5.058594 50.589844 5.835938 C 51.433594 6.285156 52.90625 7.328125 53.855469 8.160156 C 54.804688 8.988281 55.726562 9.664062 55.90625 9.664062 C 56.089844 9.664062 57.382812 8.683594 58.789062 7.488281 C 66.441406 0.992188 71.984375 -0.566406 79.132812 1.765625 C 82.394531 2.828125 84.03125 3.859375 87.867188 7.265625 C 89.726562 8.917969 91.414062 10.265625 91.617188 10.265625 C 91.820312 10.265625 92.960938 9.476562 94.144531 8.507812 C 96.671875 6.445312 98.792969 5.34375 101.421875 4.726562 C 106.585938 3.507812 111.511719 4.714844 115.59375 8.203125 C 117.644531 9.957031 118.3125 10.265625 120.050781 10.269531 C 122.109375 10.269531 123.550781 10.839844 125.046875 12.234375 C 125.816406 12.957031 126.839844 14.261719 127.308594 15.125 C 128.058594 16.503906 128.179688 17.089844 128.296875 19.859375 C 128.421875 22.878906 128.378906 23.15625 127.34375 26.125 C 126.753906 27.835938 126.339844 29.347656 126.421875 29.484375 C 126.503906 29.621094 127.402344 30.175781 128.414062 30.714844 C 130.890625 32.035156 132.976562 34.199219 133.742188 36.246094 C 134.640625 38.660156 134.589844 43.019531 133.617188 45.652344 C 133.222656 46.722656 132.339844 49.355469 131.644531 51.5 C 129.539062 58.050781 129.554688 58.011719 127.980469 59.550781 C 124.019531 63.421875 118.789062 63.925781 110.511719 61.234375 C 108.503906 60.578125 106.699219 60.046875 106.503906 60.046875 C 106.304688 60.046875 105.078125 60.792969 103.777344 61.703125 C 100.746094 63.828125 96.933594 65.613281 94.1875 66.1875 C 91.382812 66.777344 83.238281 66.800781 81.128906 66.226562 C 80.300781 66.003906 78.578125 65.394531 77.292969 64.882812 C 76.011719 64.367188 74.917969 63.945312 74.867188 63.945312 C 74.816406 63.945312 73.4375 64.957031 71.800781 66.191406 C 66.648438 70.085938 62.289062 71.742188 57.136719 71.765625 C 55.210938 71.777344 53.855469 71.59375 52.414062 71.148438 L 50.394531 70.519531 L 48.414062 72.039062 C 44.921875 74.710938 44.488281 74.863281 39.890625 74.964844 C 36.214844 75.046875 35.691406 74.992188 34.1875 74.359375 Z M 43.503906 69.035156 C 44.109375 68.710938 44.945312 66.253906 46.339844 60.695312 C 46.765625 58.988281 48.242188 53.660156 49.621094 48.847656 C 53.308594 35.984375 53.367188 35.480469 51.269531 34.398438 C 49.21875 33.335938 48.382812 34.367188 46.621094 40.132812 C 46.171875 41.601562 45.714844 42.90625 45.601562 43.03125 C 45.417969 43.242188 43.257812 41.109375 38.910156 36.421875 C 37.355469 34.75 37.058594 34.558594 36.007812 34.558594 C 34.714844 34.558594 33.894531 35.160156 33.894531 36.109375 C 33.894531 37.332031 35.871094 40.382812 39.367188 44.546875 C 41.332031 46.886719 43.078125 49.085938 43.242188 49.4375 C 43.484375 49.933594 43.179688 51.46875 41.851562 56.484375 C 40.917969 60.007812 40.003906 63.9375 39.8125 65.210938 C 39.484375 67.449219 39.496094 67.550781 40.167969 68.269531 C 41.089844 69.242188 42.503906 69.570312 43.503906 69.035156 Z M 68.003906 52.042969 C 68.488281 51.386719 68.523438 51.769531 67.460938 46.332031 C 66.378906 40.835938 66.105469 41.449219 70.363281 39.796875 C 71.914062 39.199219 73.382812 38.503906 73.628906 38.257812 C 74.753906 37.140625 73.46875 34.855469 71.71875 34.855469 C 71.230469 34.855469 69.976562 35.125 68.929688 35.453125 C 67.886719 35.78125 66.789062 36.050781 66.503906 36.050781 C 65.527344 36.0625 65.308594 34.675781 65.480469 29.609375 C 65.65625 24.476562 66.113281 21.964844 67.304688 19.613281 C 68.6875 16.882812 69.542969 16.894531 70.191406 19.652344 C 71.03125 23.222656 72.511719 24.195312 74.648438 22.582031 C 76.191406 21.417969 75.71875 17.515625 73.734375 15.007812 C 72.675781 13.671875 70.273438 12.375 68.847656 12.371094 C 66.488281 12.359375 63.738281 14.804688 61.9375 18.511719 C 60.542969 21.378906 60.289062 23.382812 60.285156 31.421875 L 60.285156 38.335938 L 57.960938 39.292969 C 55.015625 40.5 53.6875 41.316406 53.6875 41.914062 C 53.6875 42.167969 54.035156 42.730469 54.464844 43.160156 C 55.222656 43.917969 55.308594 43.933594 58.035156 43.742188 L 60.835938 43.542969 L 61.289062 44.824219 C 61.539062 45.527344 62.160156 47.464844 62.660156 49.136719 C 63.164062 50.804688 63.746094 52.308594 63.957031 52.480469 C 64.878906 53.242188 67.3125 52.980469 68.003906 52.042969 Z M 102.824219 51.6875 C 103.132812 51.382812 103.480469 50.46875 103.59375 49.664062 C 103.902344 47.527344 104.097656 46.851562 104.394531 46.851562 C 104.539062 46.851562 105.636719 47.480469 106.839844 48.246094 C 109.835938 50.171875 111.179688 50.734375 112.796875 50.742188 C 114.527344 50.753906 115.757812 49.890625 115.757812 48.675781 C 115.757812 47.648438 115.339844 47.277344 112.308594 45.675781 C 109.324219 44.089844 107.878906 43.007812 108.070312 42.503906 C 108.152344 42.289062 109.355469 40.582031 110.746094 38.710938 C 114.546875 33.59375 114.941406 32.511719 113.523438 31.09375 C 112.679688 30.253906 111.414062 30.136719 110.453125 30.808594 C 110.097656 31.058594 108.632812 32.738281 107.191406 34.546875 C 105.753906 36.355469 104.480469 37.777344 104.363281 37.707031 C 104.253906 37.632812 104.058594 35.984375 103.945312 34.042969 C 103.664062 29.203125 102.90625 22.582031 102.527344 21.613281 C 102.164062 20.695312 100.90625 20.074219 99.691406 20.214844 C 99.023438 20.292969 98.796875 20.519531 98.59375 21.308594 C 98.457031 21.851562 98.378906 28.777344 98.429688 36.691406 L 98.515625 51.085938 L 99.265625 51.660156 C 100.246094 52.414062 102.089844 52.425781 102.824219 51.6875 Z M 88.296875 49.066406 L 90.265625 47.441406 L 91.511719 48.347656 C 92.894531 49.347656 93.996094 49.488281 95.003906 48.785156 C 95.828125 48.207031 95.839844 47.597656 95.078125 45.816406 C 94.746094 45.050781 94.191406 43.050781 93.839844 41.367188 C 93.492188 39.683594 93.136719 38.011719 93.054688 37.65625 C 92.660156 35.914062 90.609375 35.171875 89.492188 36.363281 C 89.175781 36.699219 88.042969 38.683594 86.972656 40.777344 C 85.898438 42.871094 84.871094 44.628906 84.683594 44.679688 C 84.210938 44.816406 84.023438 43.878906 83.644531 39.457031 C 83.234375 34.613281 82.925781 33.816406 81.269531 33.320312 C 78.832031 32.589844 78.429688 33.707031 78.714844 40.542969 C 78.925781 45.664062 79.230469 46.765625 80.972656 48.753906 C 82.070312 50.003906 82.800781 50.464844 84.121094 50.742188 C 85.566406 51.042969 86.210938 50.785156 88.296875 49.066406 Z M 26.503906 49.53125 C 27.914062 48.421875 30.789062 41.246094 31.332031 37.496094 C 31.496094 36.316406 31.429688 35.988281 30.917969 35.480469 C 30.589844 35.144531 29.964844 34.785156 29.539062 34.675781 C 28.238281 34.351562 27.210938 35.710938 25.1875 40.425781 C 24.878906 41.15625 24.542969 41.753906 24.457031 41.753906 C 24.359375 41.753906 23.808594 40.707031 23.226562 39.429688 C 21.386719 35.394531 20.886719 34.511719 20.007812 33.777344 C 18.984375 32.914062 18.011719 32.859375 17.085938 33.613281 C 16.398438 34.167969 16.398438 34.179688 16.871094 36.09375 C 18.007812 40.707031 21.453125 47.964844 23.195312 49.4375 C 24.238281 50.3125 25.464844 50.347656 26.503906 49.53125 Z M 31.265625 30.433594 C 33.214844 28.941406 34.023438 27.71875 33.929688 26.417969 C 33.882812 25.757812 31.332031 22.945312 30.289062 22.40625 C 29.558594 22.03125 29.410156 22.035156 29.070312 22.441406 C 28.78125 22.792969 28.761719 23.191406 28.988281 24.046875 L 29.292969 25.183594 L 27.050781 25.371094 C 25.816406 25.476562 23.039062 25.5625 20.878906 25.566406 C 18.328125 25.566406 16.691406 25.703125 16.207031 25.949219 C 15.359375 26.371094 15.046875 27.496094 15.703125 27.746094 C 15.933594 27.839844 19.113281 28.007812 22.761719 28.128906 L 29.398438 28.347656 L 29.398438 29.601562 C 29.398438 31.523438 29.679688 31.648438 31.265625 30.433594 Z M 44.335938 29.980469 C 44.503906 29.773438 44.8125 28.941406 45.015625 28.136719 C 45.300781 26.992188 45.867188 26.140625 47.597656 24.242188 C 50.035156 21.5625 50.492188 20.601562 49.628906 19.964844 C 47.628906 18.507812 42.980469 21.527344 41.1875 25.449219 C 40.308594 27.367188 40.414062 28.226562 41.683594 29.496094 C 42.589844 30.402344 43.796875 30.625 44.335938 29.980469 "/>
    </g>
</svg>
